<svg viewBox="0 0 1334 400" xmlns="http://www.w3.org/2000/svg"><g><g><g><g><g><line x1="46" y1="378" x2="41" y2="378" style="visibility: inherit;" fill="rgb(0, 0, 0)" stroke="rgb(204, 204, 204)" stroke-width="1px"></line><line x1="46" y1="348.9230769230769" x2="41" y2="348.9230769230769" style="visibility: inherit;" fill="rgb(0, 0, 0)" stroke="rgb(204, 204, 204)" stroke-width="1px"></line><line x1="46" y1="319.8461538461538" x2="41" y2="319.8461538461538" style="visibility: inherit;" fill="rgb(0, 0, 0)" stroke="rgb(204, 204, 204)" stroke-width="1px"></line><line x1="46" y1="290.7692307692308" x2="41" y2="290.7692307692308" style="visibility: inherit;" fill="rgb(0, 0, 0)" stroke="rgb(204, 204, 204)" stroke-width="1px"></line><line x1="46" y1="261.6923076923077" x2="41" y2="261.6923076923077" style="visibility: inherit;" fill="rgb(0, 0, 0)" stroke="rgb(204, 204, 204)" stroke-width="1px"></line><line x1="46" y1="232.6153846153846" x2="41" y2="232.6153846153846" style="visibility: inherit;" fill="rgb(0, 0, 0)" stroke="rgb(204, 204, 204)" stroke-width="1px"></line><line x1="46" y1="203.53846153846152" x2="41" y2="203.53846153846152" style="visibility: inherit;" fill="rgb(0, 0, 0)" stroke="rgb(204, 204, 204)" stroke-width="1px"></line><line x1="46" y1="174.46153846153848" x2="41" y2="174.46153846153848" style="visibility: inherit;" fill="rgb(0, 0, 0)" stroke="rgb(204, 204, 204)" stroke-width="1px"></line><line x1="46" y1="145.38461538461536" x2="41" y2="145.38461538461536" style="visibility: inherit;" fill="rgb(0, 0, 0)" stroke="rgb(204, 204, 204)" stroke-width="1px"></line><line x1="46" y1="116.30769230769232" x2="41" y2="116.30769230769232" style="visibility: inherit;" fill="rgb(0, 0, 0)" stroke="rgb(204, 204, 204)" stroke-width="1px"></line><line x1="46" y1="87.23076923076923" x2="41" y2="87.23076923076923" style="visibility: inherit;" fill="rgb(0, 0, 0)" stroke="rgb(204, 204, 204)" stroke-width="1px"></line><line x1="46" y1="58.15384615384613" x2="41" y2="58.15384615384613" style="visibility: inherit;" fill="rgb(0, 0, 0)" stroke="rgb(204, 204, 204)" stroke-width="1px"></line><line x1="46" y1="29.076923076923038" x2="41" y2="29.076923076923038" style="visibility: inherit;" fill="rgb(0, 0, 0)" stroke="rgb(204, 204, 204)" stroke-width="1px"></line><line x1="46" y1="0" x2="41" y2="0" style="visibility: inherit;" fill="rgb(0, 0, 0)" stroke="rgb(204, 204, 204)" stroke-width="1px"></line></g><g transform="translate(36, 0)"><text x="0" y="378" dx="0em" dy="0.3em" style="text-anchor: end; visibility: hidden; font-family: &quot;Helvetica Neue&quot;, sans-serif; font-size: 12px; font-weight: 200;" fill="rgb(50, 49, 63)" stroke="none" stroke-width="1px">-10</text><text x="0" y="348.9230769230769" dx="0em" dy="0.3em" style="text-anchor: end; visibility: inherit; font-family: &quot;Helvetica Neue&quot;, sans-serif; font-size: 12px; font-weight: 200;" fill="rgb(50, 49, 63)" stroke="none" stroke-width="1px">0</text><text x="0" y="319.8461538461538" dx="0em" dy="0.3em" style="text-anchor: end; visibility: inherit; font-family: &quot;Helvetica Neue&quot;, sans-serif; font-size: 12px; font-weight: 200;" fill="rgb(50, 49, 63)" stroke="none" stroke-width="1px">10</text><text x="0" y="290.7692307692308" dx="0em" dy="0.3em" style="text-anchor: end; visibility: inherit; font-family: &quot;Helvetica Neue&quot;, sans-serif; font-size: 12px; font-weight: 200;" fill="rgb(50, 49, 63)" stroke="none" stroke-width="1px">20</text><text x="0" y="261.6923076923077" dx="0em" dy="0.3em" style="text-anchor: end; visibility: inherit; font-family: &quot;Helvetica Neue&quot;, sans-serif; font-size: 12px; font-weight: 200;" fill="rgb(50, 49, 63)" stroke="none" stroke-width="1px">30</text><text x="0" y="232.6153846153846" dx="0em" dy="0.3em" style="text-anchor: end; visibility: inherit; font-family: &quot;Helvetica Neue&quot;, sans-serif; font-size: 12px; font-weight: 200;" fill="rgb(50, 49, 63)" stroke="none" stroke-width="1px">40</text><text x="0" y="203.53846153846152" dx="0em" dy="0.3em" style="text-anchor: end; visibility: inherit; font-family: &quot;Helvetica Neue&quot;, sans-serif; font-size: 12px; font-weight: 200;" fill="rgb(50, 49, 63)" stroke="none" stroke-width="1px">50</text><text x="0" y="174.46153846153848" dx="0em" dy="0.3em" style="text-anchor: end; visibility: inherit; font-family: &quot;Helvetica Neue&quot;, sans-serif; font-size: 12px; font-weight: 200;" fill="rgb(50, 49, 63)" stroke="none" stroke-width="1px">60</text><text x="0" y="145.38461538461536" dx="0em" dy="0.3em" style="text-anchor: end; visibility: inherit; font-family: &quot;Helvetica Neue&quot;, sans-serif; font-size: 12px; font-weight: 200;" fill="rgb(50, 49, 63)" stroke="none" stroke-width="1px">70</text><text x="0" y="116.30769230769232" dx="0em" dy="0.3em" style="text-anchor: end; visibility: inherit; font-family: &quot;Helvetica Neue&quot;, sans-serif; font-size: 12px; font-weight: 200;" fill="rgb(50, 49, 63)" stroke="none" stroke-width="1px">80</text><text x="0" y="87.23076923076923" dx="0em" dy="0.3em" style="text-anchor: end; visibility: inherit; font-family: &quot;Helvetica Neue&quot;, sans-serif; font-size: 12px; font-weight: 200;" fill="rgb(50, 49, 63)" stroke="none" stroke-width="1px">90</text><text x="0" y="58.15384615384613" dx="0em" dy="0.3em" style="text-anchor: end; visibility: inherit; font-family: &quot;Helvetica Neue&quot;, sans-serif; font-size: 12px; font-weight: 200;" fill="rgb(50, 49, 63)" stroke="none" stroke-width="1px">100</text><text x="0" y="29.076923076923038" dx="0em" dy="0.3em" style="text-anchor: end; visibility: inherit; font-family: &quot;Helvetica Neue&quot;, sans-serif; font-size: 12px; font-weight: 200;" fill="rgb(50, 49, 63)" stroke="none" stroke-width="1px">110</text><text x="0" y="0" dx="0em" dy="0.3em" style="text-anchor: end; visibility: hidden; font-family: &quot;Helvetica Neue&quot;, sans-serif; font-size: 12px; font-weight: 200;" fill="rgb(50, 49, 63)" stroke="none" stroke-width="1px">120</text></g><line x1="46" y1="0" x2="46" y2="378" fill="rgb(0, 0, 0)" stroke="rgb(204, 204, 204)" stroke-width="1px"></line></g></g><g transform="translate(46, 0)" clip-path="url(#clip_0)"><clipPath id="clip_0"><rect width="1288" height="378"></rect></clipPath><g><g><g><line x1="0" y1="0" x2="0" y2="378" fill="rgb(0, 0, 0)" stroke="rgb(60, 60, 60)" stroke-width="1px" opacity="0.25"></line><line x1="128.8" y1="0" x2="128.8" y2="378" fill="rgb(0, 0, 0)" stroke="rgb(60, 60, 60)" stroke-width="1px" opacity="0.25"></line><line x1="257.6" y1="0" x2="257.6" y2="378" fill="rgb(0, 0, 0)" stroke="rgb(60, 60, 60)" stroke-width="1px" opacity="0.25"></line><line x1="386.4" y1="0" x2="386.4" y2="378" fill="rgb(0, 0, 0)" stroke="rgb(60, 60, 60)" stroke-width="1px" opacity="0.25"></line><line x1="515.2" y1="0" x2="515.2" y2="378" fill="rgb(0, 0, 0)" stroke="rgb(60, 60, 60)" stroke-width="1px" opacity="0.25"></line><line x1="644" y1="0" x2="644" y2="378" fill="rgb(0, 0, 0)" stroke="rgb(60, 60, 60)" stroke-width="1px" opacity="0.25"></line><line x1="772.8" y1="0" x2="772.8" y2="378" fill="rgb(0, 0, 0)" stroke="rgb(60, 60, 60)" stroke-width="1px" opacity="0.25"></line><line x1="901.5999999999999" y1="0" x2="901.5999999999999" y2="378" fill="rgb(0, 0, 0)" stroke="rgb(60, 60, 60)" stroke-width="1px" opacity="0.25"></line><line x1="1030.4" y1="0" x2="1030.4" y2="378" fill="rgb(0, 0, 0)" stroke="rgb(60, 60, 60)" stroke-width="1px" opacity="0.25"></line><line x1="1159.2" y1="0" x2="1159.2" y2="378" fill="rgb(0, 0, 0)" stroke="rgb(60, 60, 60)" stroke-width="1px" opacity="0.25"></line><line x1="1288" y1="0" x2="1288" y2="378" fill="rgb(0, 0, 0)" stroke="rgb(60, 60, 60)" stroke-width="1px" opacity="0.25"></line></g><g><line x1="0" y1="378" x2="1288" y2="378" fill="rgb(0, 0, 0)" stroke="rgb(60, 60, 60)" stroke-width="1px" opacity="0.25"></line><line x1="0" y1="348.9230769230769" x2="1288" y2="348.9230769230769" fill="rgb(0, 0, 0)" stroke="rgb(60, 60, 60)" stroke-width="1px" opacity="0.25"></line><line x1="0" y1="319.8461538461538" x2="1288" y2="319.8461538461538" fill="rgb(0, 0, 0)" stroke="rgb(60, 60, 60)" stroke-width="1px" opacity="0.25"></line><line x1="0" y1="290.7692307692308" x2="1288" y2="290.7692307692308" fill="rgb(0, 0, 0)" stroke="rgb(60, 60, 60)" stroke-width="1px" opacity="0.25"></line><line x1="0" y1="261.6923076923077" x2="1288" y2="261.6923076923077" fill="rgb(0, 0, 0)" stroke="rgb(60, 60, 60)" stroke-width="1px" opacity="0.25"></line><line x1="0" y1="232.6153846153846" x2="1288" y2="232.6153846153846" fill="rgb(0, 0, 0)" stroke="rgb(60, 60, 60)" stroke-width="1px" opacity="0.25"></line><line x1="0" y1="203.53846153846152" x2="1288" y2="203.53846153846152" fill="rgb(0, 0, 0)" stroke="rgb(60, 60, 60)" stroke-width="1px" opacity="0.25"></line><line x1="0" y1="174.46153846153848" x2="1288" y2="174.46153846153848" fill="rgb(0, 0, 0)" stroke="rgb(60, 60, 60)" stroke-width="1px" opacity="0.25"></line><line x1="0" y1="145.38461538461536" x2="1288" y2="145.38461538461536" fill="rgb(0, 0, 0)" stroke="rgb(60, 60, 60)" stroke-width="1px" opacity="0.25"></line><line x1="0" y1="116.30769230769232" x2="1288" y2="116.30769230769232" fill="rgb(0, 0, 0)" stroke="rgb(60, 60, 60)" stroke-width="1px" opacity="0.25"></line><line x1="0" y1="87.23076923076923" x2="1288" y2="87.23076923076923" fill="rgb(0, 0, 0)" stroke="rgb(60, 60, 60)" stroke-width="1px" opacity="0.25"></line><line x1="0" y1="58.15384615384613" x2="1288" y2="58.15384615384613" fill="rgb(0, 0, 0)" stroke="rgb(60, 60, 60)" stroke-width="1px" opacity="0.25"></line><line x1="0" y1="29.076923076923038" x2="1288" y2="29.076923076923038" fill="rgb(0, 0, 0)" stroke="rgb(60, 60, 60)" stroke-width="1px" opacity="0.25"></line><line x1="0" y1="0" x2="1288" y2="0" fill="rgb(0, 0, 0)" stroke="rgb(60, 60, 60)" stroke-width="1px" opacity="0.25"></line></g></g></g><g><g><line x1="0" y1="348.9230769230769" x2="1288" y2="348.9230769230769" fill="rgb(0, 0, 0)" stroke="rgb(153, 153, 153)" stroke-width="1.5px"></line></g></g><g><g><line x1="128.8" y1="0" x2="128.8" y2="378" fill="rgb(0, 0, 0)" stroke="rgb(153, 153, 153)" stroke-width="1.5px"></line></g></g><g><g><g><g><g><path stroke="rgb(255, 112, 67)" stroke-width="2px" d="M129.8304,342.2661878365737L131.5048,341.61696503978004L131.8912,343.2449122153126L136.0128,342.80109892578884L136.1416,341.9860604686312L136.39919999999998,343.18544137061866L139.3616,344.01241674520134L139.4904,344.67600218156804L140.392,344.97857474359097L140.5208,344.56682509237737L142.5816,344.145831289186L145.02880000000002,344.54479368700885L147.0896,343.9563332935767L150.696,344.3298889677867L151.21120000000002,343.9729133161502L151.34,343.86215354430135L153.0144,343.70148245250937L153.7872,343.54257633882895L156.492,343.4279699332425L157.136,343.73654771988726L158.2952,344.01859575647364L159.1968,343.72418826881056L159.3256,343.4831246846182L160.61360000000002,343.4362756523469L162.8032,343.60155755914155L164.22,343.4987464186255L166.4096,343.7094738166475L167.05360000000002,343.34333342145385L167.44,343.09724160884923L167.69760000000002,343.044862568649L169.24319999999997,343.04356524362487L171.0464,343.2621121784309L171.4328,343.2961010745968L172.7208,343.3113010618916L173.6224,343.34118070867686L174.7816,343.5257576466786L175.168,343.45220665982947L175.9408,343.4674568277631L176.1984,343.2728864476832L176.5848,343.292072861281L177.10000000000002,343.09673469853965L178.388,343.1503610302073L179.93359999999998,342.94588494306043L180.5776,342.887630926739L181.73680000000002,342.95519996309145L183.54,342.8270080582138L184.3128,342.79826039765777L184.6992,342.7826468552148L185.2144,342.7560422729174L186.2448,342.84822309100343L187.404,342.7123450197047L193.9728,342.53965565659075L194.87439999999998,342.6870318919318L195.00320000000002,342.49752548006785L195.3896,342.36787861063954L196.1624,342.21947580599425L196.2912,342.2205673295186L198.22320000000002,342.1673436896024L199.64,342.22239988435535L199.76879999999997,342.1740451551896L199.8976,342.1304236242807L200.0264,342.1150136307425L201.3144,342.10915714069495L202.6024,342.1472563747029L203.1176,342.1068884797249L203.504,341.93880289327734L204.27679999999998,341.94346325139975L204.5344,341.9664858811044L205.0496,342.10809585927365L206.3376,342.2453700694189L207.8832,342.2937359993933L209.6864,342.26583274454293L210.84560000000002,342.22196028657675L212.3912,342.1425393277057L213.42159999999998,342.27395140118114L213.67919999999998,342.3898740090789L213.80800000000002,342.2480818041313L214.1944,342.2210453117003L214.8384,342.21749627593357L215.2248,342.2450590980589L216.2552,342.2110323194625L217.54319999999998,342.16394901073215L217.8008,342.1653387081018L218.44480000000001,342.15546619514L218.96,342.13931681913357L219.86159999999998,342.1250081803591L224.3696,342.11878258920365L224.75599999999997,342.1557708871213L225.52880000000002,341.95503281334356L226.43040000000002,341.9815583301035L226.688,341.9552326467749L226.94559999999998,341.87737133480886L230.4232,341.86958402292777L230.552,341.9662845159253L230.93839999999997,341.92124361999305L231.58239999999998,341.94008662457844L231.71120000000002,341.83569979664344L232.9992,341.8665403953531L233.6432,341.9829833787656L233.772,341.89845603781964L234.2872,341.8857884869561L234.5448,341.78167760977664L235.18880000000001,341.7817393831167L235.83280000000002,341.82139688763914L237.12080000000003,341.7950385453078L238.15120000000002,341.7352579851532L238.28,341.7281676244754L238.924,341.7558324217361L240.34079999999997,341.86477140478894L240.4696,341.94207904310025L241.62879999999998,342.04609666409664L242.5304,342.0871257048375L242.9168,341.9575189556044L243.1744,341.9532506744161L244.84879999999998,342.045267858454L245.23520000000002,342.1350196733324L246.3944,342.07083636405656L248.584,342.0883164803091L249.0992,342.1844638285896L249.872,342.1753116167764L254.25119999999998,342.2685369639637L254.6376,342.3641038446626L256.956,342.347293619351L258.3728,342.3845295840275L258.6304,342.3613680668536L262.8808,342.4510127349194L263.1384,342.46225304726266L264.68399999999997,342.44343555824383L265.0704,342.5326527101379L265.8432,342.5172097694158L265.972,342.606738059572L266.7448,342.66073306196336L267.26,342.74731117422715L269.192,342.81568325633356L274.4728,342.76028157415345L274.7304,342.74520907338746L277.0488,342.7798106775299L277.4352,342.6231252464595L277.69280000000003,342.5573207878241L278.7232,338.2873359135173L279.3672,338.4288821723398L280.14,338.56386738643045L281.29920000000004,338.5852182536556L282.5872,338.71128045734145L283.48879999999997,334.6098297881116L284.648,330.5275143284456L285.29200000000003,330.66851691993287L286.0648,330.89142896047036L287.61039999999997,331.04003207500955L288.6408,331.1511136824188L288.8984,331.173703714455L289.41360000000003,327.22473357784816L289.8,327.4749449606489L290.444,327.67938950630696L291.3456,327.7031797268616L291.8608,327.9738490855302L293.1488,328.07925375542226L293.5352,328.21553983181707L294.56559999999996,328.3710757630304L296.4976,328.47615100108237L297.1416,324.65432424125214L297.3992,324.7723693653395L297.9144,324.9805758564022L298.0432,325.2606235253848L299.7176,321.5357946069474L303.0664,321.70366015028566L306.0288,318.0239528709409L309.3776,318.2671658966101L310.6656,318.59045718213946L310.7944,318.75223862498603L310.9232,318.96300394949117L311.3096,319.20596549252053L311.5672,319.43567415150477L311.9536,319.71327043627196L312.0824,320.06170414114246L312.34,320.2647531344681L315.0448,320.4133478585285L316.5904,320.5928410721155L317.1056,317.0009817141045L318.136,317.3263193537109L319.1664,317.6116566961672L319.2952,317.84303129080547L319.424,318.2158302824776L320.1968,314.6892706709614L320.712,311.2035883239355L323.41679999999997,311.54791494871586L324.576,311.980711080979L325.864,308.5981534827407L327.5384,309.01628427833504L327.66720000000004,309.4290763320132L327.796,309.8018649078423L328.31120000000004,310.2527807842482L331.66,306.8779144196427L331.9176,303.5752927784329L332.8192,303.96354599500387L334.49359999999996,300.67917756221505L335.0088,301.10697594287444L337.0696,301.5320075019733L337.3272,301.95707740971955L337.7136,298.73396812533554L337.8424,299.1758515233364L338.2288,295.97735241116635L338.48639999999995,296.39777228560774L339.0016,296.87799491901L340.1608,293.72445966222904L340.41839999999996,294.1994644025423L340.9336,291.1089801156387L341.06239999999997,291.5985283524429L341.57759999999996,288.523103809309L342.22159999999997,285.4754669235717L342.8656,286.06369484484907L347.76000000000005,286.7168719667178L350.336,287.1101095768831L352.78319999999997,284.10811496407223L353.1696,284.6915688579904L354.20000000000005,285.25921776240006L355.1016,285.9639931328209L357.8064,286.50508960089667L358.3216,283.55269147398394L358.4504,280.611355859368L358.708,277.7261404244276L359.0944,278.45037727386494L359.35200000000003,279.10911168923445L360.5112,279.7871245857867L361.02639999999997,280.46249668608345L362.0568,277.58067299074537L362.4432,278.2576190875603L362.7008,278.951028482497L362.8296,279.5007819715275L363.21599999999995,280.2378421050234L367.08,277.404806597601L367.3376,278.02994990399037L369.1408,278.6128680273544L369.7848,279.29974184132277L370.4288,276.4576911471421L371.8456,277.25860745534817L373.52,277.9623470495705L373.64880000000005,275.15281727532306L373.9064,272.3577603404984L374.5504,273.13095161343796L376.096,273.8802366901535L378.28560000000004,274.57733514722713L379.0584,275.15169569948296L379.96,275.8764135634624L381.5056,276.4681711067758L381.7632,273.68507684795486L383.82399999999996,270.94336093380747L384.5968,271.662208542709L384.8544,272.44470449379554L385.4984,273.12226236518495L385.6272,273.8929573497567L387.688,271.1593456174226L389.62,268.44828707356044L391.6808,265.77067708014L392.9688,266.29903045034973L393.3552,267.12406379626293L394.3856,267.7886242316633L396.18879999999996,265.1450982859188L396.9616,266.0384710902416L397.47679999999997,266.8494014820887L397.992,264.2334687267003L398.3784,261.6144594527128L398.636,262.3616421983038L400.4392,262.8846324072196L400.6968,263.68123426068314L403.788,261.080741310937L405.3336,258.5158103155031L407.7808,255.9894573238476L408.94,256.8156463836689L409.0688,257.43920430454335L409.584,258.23682301356064L409.84159999999997,259.1339633851723L410.872,256.60318173771725L411.25839999999994,254.08313851814438L411.516,251.60782282624012L411.6448,249.14436227986735L412.9328,250.06702769496098L414.092,250.78521904406165L414.99359999999996,248.37101139834806L415.5088,245.95299038827275L418.3424,246.94011151504228L419.5016,244.55714116395558L420.91839999999996,245.59046360509979L421.04720000000003,246.68625125604572L421.4336,244.30128391762824L421.56239999999997,245.2142115982664L422.33520000000004,242.8577803421792L422.464,243.81564606828093L423.8808,241.4518689603725L426.07039999999995,242.5894002037219L426.5856,243.7016564879032L426.97200000000004,244.72865868651232L428.1312,242.36916364622047L429.80559999999997,243.48501978853844L430.70719999999994,244.59679448857608L432.8968,245.60700839072533L437.79119999999995,246.60967941712667L440.1096,247.60256533005312L440.2384,248.35995500185626L441.78400000000005,245.97447708585645L442.42800000000005,243.61986579010738L443.2008,244.4593161377212L446.5496,242.11820125784732L446.6784,239.791679311655L446.936,237.49573154517762L447.70880000000005,235.23947845212214L447.9664,233.01690247635608L451.70160000000004,230.84100408827587L451.8304,228.66393843664514L452.4744,229.79753088560153L454.02,227.62909117020934L455.308,228.71946743133884L456.0808,229.96034937484885L456.596,231.090601088438L456.9824,232.10417153951266L457.49760000000003,233.3205049679544L457.88399999999996,234.36363832213308L458.2704,235.48944138309614L460.46,236.59849339934593L461.104,237.68114205944042L462.2632,235.4244545059416L462.52079999999995,236.46683483199942L462.9072,237.4894296461225L463.5512,235.2580528186558L464.45279999999997,233.0549121520458L465.4832,230.88444341645578L465.9984,231.9542689298993L467.0288,233.10210896734196L469.3472,230.91873304669585L470.12,228.7883978368661L471.7944,226.65465574892872L472.05199999999996,224.55360702172044L473.0824,225.76228042115798L475.0144,223.64723486093428L475.1432,221.55051026899852L476.81759999999997,219.52656691719153L477.97679999999997,220.80007614618287L478.23440000000005,218.73402913703092L478.492,216.69319650641955L479.136,217.9514162733509L479.2648,219.2554416165814L480.1664,220.44395625907472L480.424,218.40793958473344L481.1968,219.61252436902586L481.58320000000003,217.55404005349675L482.22720000000004,215.5358343867497L483.1288,213.56682266996177L484.1592,211.58779073085162L486.4776,212.95169068700187L486.7352,210.98166303207853L487.508,209.0693426612194L488.152,207.13507485233984L488.5384,208.5429515230873L488.796,206.60016570805337L489.44,207.94587627598207L490.084,206.02485520558358L490.47040000000004,204.1214025121289L490.9856,202.23919058780126L491.372,200.41356984633154L491.75839999999994,198.57073802385904L493.94800000000004,196.76564500373541L494.33439999999996,198.3276471389762L495.75120000000004,196.54871287384572L496.524,194.75519342513735L497.168,196.06498297523467L497.2968,194.2860236124513L497.812,192.532027736253L498.5848,190.7907487705737L499.2288,189.05022261005706L501.2896,190.64102788929554L501.67600000000004,188.89393895486862L502.32,187.18279113296913L503.0928,185.4914805677765L505.0248,183.80786588181118L510.4344,182.1543337348761L510.9496,180.50627100238904L511.336,182.1727548553574L511.5936,180.5599431842626L512.1088,178.92494733444659L512.624,177.32444963591087L512.8816,179.0063340548904L515.0712,177.3970076355879L515.4576,175.83053951864957L516.8744,174.24320529844658L519.3216,172.67873040062523L520.3520000000001,174.44490474834996L521.8976,176.08639105749612L522.1551999999999,177.6628963226392L522.7991999999999,179.41021009415596L522.928,177.80555799256695L523.0568000000001,179.55138062706584L523.3144,177.95840104834727L524.7312,176.3505714390712L525.1176,174.78918266510874L526.2768,176.51868881011276L526.6632,174.9351833513835L527.9512,176.44983050204743L528.2088,174.89566500225666L528.5952,176.6681162214417L528.7239999999999,178.26134802895268L530.3984,176.65690427038163L531.8152,178.2829952338313L532.3304,179.8994681701818L534.6488,181.49455258294213L536.3232,179.8903657062795L537.3536,178.26565693086906L538.6416,179.96601266644063L541.7328,178.36860714434923L541.8616000000001,176.80258565463188L546.3696,175.21767113106782L547.7864,176.92575792827836L549.5896,178.6099937666354L550.4912,176.99809200630983L550.7488,178.67767963201402L551.6504,177.07788928001676L552.4232,175.50188294837426L553.7112,177.1089423344724L553.84,178.50620124752427L554.3552,180.19657312033914L554.9992,178.603826498214L556.1584,179.99464894661565L556.2872,181.65709066028433L556.4159999999999,183.35035835296506L557.8328,184.9628618328328L558.348,186.52613568681883L559.2496,184.8413422424923L562.0832,186.37907391700986L563.5,184.72732888063757L563.7576,183.0880553281611L564.144,181.45879270043355L566.5912000000001,179.82429046601493L568.2656,178.21197811325405L568.9096,179.93644282770026L570.3264,181.57995212681598L570.8416,179.97495435584892L570.9704,178.36052119105716L573.0312,179.97391508596183L573.2888,181.63289143199597L574.3192,183.25447915518515L574.7056,184.8680669221705L575.9936,186.44709820675746L578.5696,188.03998323344848L578.6984,186.3712683459019L579.3424,187.9503219974264L579.9864,189.57139057319208L580.1152000000001,191.1210356200077L580.888,192.62026938310774L581.6608,194.18912462107068L582.3048,195.686875525789L586.5552,193.93579231530296L586.684,192.18275409040442L587.972,193.38319980999302L588.1008,194.85058743522123L588.616,193.09987968126197L588.7448,191.3838190470839L589.5176,189.66104679867564L591.9648,187.9839328438622L592.2224,186.320559473689L593.8968,184.64993083343347L594.7984,186.13137551713547L594.9272,187.77323491294075L596.0864,186.10709420794092L596.988,184.4498225821476L598.1472,186.0820871112717L600.4656,184.4154056942083L600.7232,182.78612031978344L601.2384,181.16924455527354L602.0112,179.59807892776877L603.9431999999999,178.03934073904654L605.1024,176.46529917907907L606.6479999999999,178.18554343977178L608.4512,176.59732912987096L610.3832,175.0329734674351L610.8984,173.51212106226143L611.0272,171.97817478167667L611.5424,170.44824562643885L612.0576,168.93372284976311L612.3152,167.45130366907455L612.5728,165.9953509866437L614.1184,164.53898178589904L614.2472,166.2793126487704L617.2096,164.82803283965532L617.3384,163.38172200730648L618.1111999999999,161.95929781543154L618.7552,160.5526995003398L619.0128000000001,162.38579780304528L620.3008,160.9989542990573L621.3312,159.58728703964564L622.7479999999999,158.18743007668607L623.6496000000001,160.0550157616732L624.2936,158.68531790485358L625.324,157.3326538975219L626.2256,158.8867117999568L626.3544,157.502645271839L626.4832,156.12794292670728L626.8696,154.76569006742184L627.7712,153.4271619038986L630.3472,152.09065121012028L630.9912,150.78486568226333L631.8928,149.51141526181476L635.8856000000001,151.2461649459393L637.4312,149.9377297354501L637.9464,148.64070548925275L638.5904,147.38587196511114L639.492,149.02737710930296L640.136,147.74102405176762L641.424,146.49950922572887L643.8712,145.23650817752142L646.576,144.01960993552987L647.3488000000001,142.80260662565254L651.084,141.59364207139478L651.5992,140.38279955909198L651.728,139.20168986429894L651.8568,138.0469292750569L652.5008,140.1679166411306L653.66,141.88178506037357L656.3648000000001,140.66444953876191L657.2664,139.47156669275012L657.7816,141.57917389850135L658.168,140.36324099471986L659.7136,139.1734719227091L661.6456000000001,138.00909708365802L662.1608,136.8482210954247L662.8047999999999,135.6764436513345L664.8656,134.53816871293054L665.3807999999999,133.38890170664303L665.5096000000001,132.2610894082696L667.6992,134.28038718991618L667.9567999999999,133.17385072361407L668.0856000000001,132.0610028598038L668.3432,130.97683559616058L670.404,129.88472166015282L671.3056,128.80543093598115L675.5559999999999,127.73486692781606L676.3288,126.65368895007919L676.7152,125.60646472125441L677.1016,124.58056298813997L677.488,126.75056433905286L678.0032,125.71325434543715L678.2607999999999,127.89535877321805L678.7760000000001,126.82522534904564L679.42,125.78005791302519L679.9352,124.7217562966411L680.5792,123.69559608764149L681.8672,122.70469515324635L683.284,121.68736877982457L683.928,120.67768691289677L685.86,119.66983144132729L689.2088,118.69417012689189L689.9816,117.71253269417821L690.6256,120.01698439856938L693.7167999999999,119.02715594849826L698.3536,118.03848597534L699.384,117.0642781017969L700.672,116.09511990469503L700.9296,115.13769912968536L701.4448,114.1839404750653L703.7632,113.25957765321971L704.4072000000001,112.36305515509912L706.8543999999999,111.46871561795905L707.2408,110.56688957342453L707.756,109.70811671323008L710.4608,108.81440471135159L711.1048000000001,107.96065486368207L711.2336,107.08075302613753L711.3624,106.23861727972923L711.4912,108.5552625820323L712.6504,107.676472126801L713.8096,110.07750044721536L716.3856000000001,109.19699460415603L716.6432,108.31007341603862L716.9008,107.43914123175472L717.1583999999999,109.75224181984663L719.6056,108.88604636047404L720.3784,108.00488727608064L721.0224,107.1320845952365L721.7952,109.44075121835675L722.1816,108.54485171466047L722.4391999999999,107.65883705384391L724.5,106.79600602140067L725.5304,105.926914378942L726.3032,108.34144140442442L726.4319999999999,107.51168680662795L728.364,106.67879099202031L729.9096,105.82065293977746L732.4856,104.98747458644522L732.7432,107.2981839768492L732.872,106.42930537806205L733.0008,105.57388427235446L733.2584,104.7565962558956L733.6448,103.93093737040408L734.804,103.11414627930634L735.5768,105.19553080224779L735.8344000000001,104.36356396964311L736.2207999999999,103.54664393496722L738.1528000000001,105.98768390622968L738.2816,105.16120725621852L738.7968,104.3447188037058L739.6984,103.52587061806327L742.7896,102.73267538744301L744.8504,105.07953097685345L747.684,104.25008310440847L749.2296,103.4238437968528L749.4871999999999,102.63626319636774L752.0631999999999,101.84596980055937L753.2224,101.04895099531859L755.1544,100.24932063401769L755.2832000000001,99.45201548958198L755.9272,101.8135890836354L756.4424,101.06061204067794L757.2152,100.29005237092963L757.4727999999999,99.49465204939077L757.8592000000001,98.72390267770129L759.0184,97.9617395478565L759.92,100.39025191151842L760.4352,99.60200667681977L761.4655999999999,98.83294262560679L761.5944000000001,98.04809206154931L761.9808,97.28372052022166L763.6551999999999,96.51103973721143L765.3295999999999,95.74653838458408L765.4584000000001,95.00070909759432L765.8448000000001,94.26564649333477L766.1024,93.53253913825881L766.7464000000001,92.82900264795097L767.6479999999999,92.15507445005977L768.4208,91.44399889510277L768.5496,90.75093353374297L771.1256,90.09005643924456L771.3832,89.39987911101292L772.0272000000001,88.7365199035475L773.1863999999999,91.22588718950806L774.2167999999999,93.80861284721448L774.6032,96.2788221350624L776.664,95.5577089105546L778.8536,94.81118737904285L779.6264,94.08433452694061L779.884,93.35105867996913L780.1416,92.62402747114982L780.7855999999999,91.93167899180145L781.3008,91.23382426879618L782.46,90.5416111133037L783.748,89.87710158754993L784.9072000000001,89.21199290268822L785.4224,91.69739383794604L787.2256,94.17692744062413L788.1272,93.4389480657261L789.8016,95.9448070842958L790.4456,95.1992234999675L791.6048000000001,94.47231369510109L791.8624,93.75314060687845L792.12,93.04435183994457L792.2488,92.36606047834914L792.5064,91.66709851223186L793.2792000000001,90.98537748925588L793.5368,93.47033102218842L793.7944,92.7369241266257L793.9232,92.04152454942414L794.1808000000001,91.32154690961511L794.9535999999999,90.62083564640591L796.8856000000001,89.92153534414678L798.6888,89.25648659510802L799.2040000000001,91.77229859367361L799.7192,91.07207620492545L800.8784,90.37596349553422L801.9088,92.84539737882744L802.5527999999999,92.11946349252838L803.1968,91.44627217830174L803.3256,90.77588911965762L804.3560000000001,90.10878000964112L805.3864,89.4221656601215L806.9319999999999,88.73499949443095L813.6296000000001,88.05166381058103L814.1448,87.37786164487886L814.2736,89.90821077530512L814.4024,89.21712266299835L814.7888,88.56163633702016L816.2056,87.87911839348914L817.3648000000001,87.24498654057237L818.1376,86.60974879627827L821.8728,85.95135471735716L822.1304,85.3128172355884L822.5167999999999,84.69483603217748L822.7744,87.27409344003041L822.9032000000001,86.63998711991934L825.4792,86.01534746780737L825.9943999999999,85.40093062891174L826.1232,84.7823793164564L827.4112,84.1729546943684L828.3128,83.54040753761706L828.4416,82.92743404793998L831.404,82.34472747334786L832.5631999999999,81.72882104040781L833.8512,81.1264381209208L834.624,80.51980135691633L834.7528,79.94740450046697L835.0104,79.38613010197531L836.5559999999999,78.8199124320796L836.9424,78.23360392182934L837.4576,77.68940473430666L839.2607999999999,77.15630892582737L839.3896,76.62221834370354L840.1623999999999,76.08151159415934L841.3216,75.52565629753002L841.708,75.01315427256378L842.3520000000001,74.47777779198503L843.2535999999999,77.03386411216081L845.0568000000001,76.48881754469602L845.8295999999999,75.95620184340135L846.216,75.40532207497569L846.6024,74.86462524737436L846.9888,77.6082812483528L848.2768,77.05609845966165L849.0496,76.51364773811412L849.5648,75.99136486093039L849.9512000000001,75.46086424687371L850.2088,74.91926690593885L851.7544,77.51692028371929L852.2696,76.96388342753903L852.6560000000001,79.55829459355556L853.3,78.9733470707913L855.6184,78.43530083078821L856.2624,81.0953548214498L856.5200000000001,80.53003629068019L856.9064,79.9444974292748L857.164,79.37426028078124L858.0656,78.81121341924734L859.096,78.26798995144418L860.384,77.71222953336212L860.5128000000001,77.16553135442177L860.6416,76.65652977018755L861.1568,76.10999017927708L861.9296,75.5899568260802L862.5735999999999,75.0448707292934L863.0888,74.51703035947475L863.6039999999999,77.24784441821492L867.8543999999999,79.71699901994145L868.756,79.15172897014088L869.2712,78.59472721323505L869.4000000000001,81.18652006321753L870.5591999999999,80.58291820840964L871.2032,80.0144058156182L872.3624,79.42446503397167L873.264,78.86170193285324L873.3928000000001,78.32407208418243L877.2568,77.7594253459643L879.06,77.2247997574558L880.348,76.66892503570284L880.4768,76.1299240945628L880.8631999999999,75.58693656947906L885.3712,75.06114947383901L886.5304,74.55805635291603L886.9168,77.21610192346998L887.0455999999999,76.68726833284074L888.3335999999999,76.13371149036573L889.8792,78.79031117967247L893.4856,78.23238478973275L894.0008,77.66352400286621L894.516,77.11949701557677L894.6448,76.56909271465918L895.804,76.03111598735751L896.3191999999999,75.48475583291952L897.6071999999999,74.93498003506062L898.38,74.43154000135644L903.4032000000001,73.89352631350732L904.9488,76.53036806441253L905.7216000000001,75.99240338605068L907.0096000000001,75.43601987274542L911.6464,78.05044249657129L913.0631999999999,77.50559112627326L913.7072000000001,76.95165824789336L913.836,76.41465334042226L916.1544,75.88373833689758L916.9272,75.33919881178991L917.1848,77.93362515327033L920.2760000000001,77.35522822787908L920.5336,76.80102970580992L921.6928,76.27971280679157L922.4655999999999,75.72511879108873L923.2384,78.37988215231775L924.784,77.8322051338908L925.5568000000001,77.28861234203265L926.3295999999999,76.75036156606643L926.4584000000001,76.20983327263144L926.716,75.65152277131045L927.1024,75.09765797420624L928.004,77.79087934886121L928.5192,80.49206790817095L928.7768,83.06009835032569L929.4208,82.44802328445343L930.4512000000001,81.84229256507217L931.3528,81.24313758740959L931.4816,83.83552122517608L931.868,83.20647263214215L935.8608,82.59108726016058L939.8536,82.01653902113588L940.7552000000001,81.41576287982457L943.2023999999999,84.09273840862812L943.3312000000001,83.46724390912527L943.8464,86.01311810717635L944.2328,85.38127232212031L944.3616,84.74554073102439L944.4903999999999,84.09881963322454L945.6496,83.47902325404783L946.5512,86.013883415247L947.1952000000001,85.3557747647352L947.3240000000001,84.72214966611136L947.968,84.08231697152542L948.6120000000001,83.44428564195704L949.1272,82.81751625751957L950.0288,82.2070360288044L950.4152,81.61594209984526L951.832,81.05227010620729L951.9608,80.4588633659958L954.6655999999999,79.85974908885072L955.9535999999999,79.27538788215361L956.4688000000001,81.82003208816076L960.0751999999999,81.2037625589935L961.6208,80.6187792527893L963.2952,80.03665037450679L963.424,79.43976908832008L966.2576,78.84738033003498L967.288,78.26914996141682L969.4776,77.72703174065634L970.2504,77.17840547778479L971.2808,76.62107962247939L973.084,76.06320129275923L973.5992,75.52785623306914L975.4024,74.97568681709242L977.8496,74.43420450731435L978.6224000000001,73.9090482281573L978.7512,73.38859635395585L979.6528000000001,72.86880177293432L981.0696,75.24845168236305L981.8424,74.71819829787341L982.744,74.20066870194722L984.2896,73.66182166008605L984.4184,73.15358216849887L984.5472,72.64091652720958L989.4416,72.14091771432567L989.5704,71.65336133860643L991.76,71.15753650617097L992.2751999999999,70.66147721843089L994.2072000000001,70.1687961060316L995.4952000000001,69.67147438752528L996.0104,69.21175512118509L999.1016,71.92513023424101L999.6168,71.42653627942161L1000.5184,70.93979418899414L1001.8064,73.70552802197591L1005.284,73.19047398248671L1005.5415999999999,72.6686636266511L1005.928,72.14803578499368L1006.0568000000001,71.63029442046661L1007.216,71.12974034756735L1009.1479999999999,70.62395877988337L1012.1104,70.12466356158126L1013.012,69.67044979993858L1014.1712,69.20631507737147L1014.3,68.72209344229208L1014.4287999999999,68.23943969341053L1017.6488,67.75917927334308L1018.164,67.28872355734978L1018.6792,66.81687127636349L1019.0656,66.34990440671709L1020.3536,65.90996788902538L1023.5735999999999,65.45682590316193L1023.8312000000001,65.02886432337272L1024.0888,64.58572108734802L1024.8616,64.15496180579851L1025.3768,63.71663477245664L1026.4072,63.293348994375606L1026.6648,66.15139143913115L1028.7256,65.70460922776897L1029.3696,65.2526640296449L1030.2712000000001,64.80281036408581L1030.4,64.38346578050994L1031.5592,63.94669623543513L1031.8168,63.510533165614675L1032.7184,63.085519146894285L1033.2336,62.68828257882217L1034.7792,62.311870361036085L1037.2264,61.92776660436857L1037.484,61.52644660272961L1037.8704,61.111857476332375L1039.1584,60.719705623753384L1040.7040000000002,60.315927316359364L1040.8328000000001,63.115101399718355L1041.2192,62.705181771729315L1041.4768,65.41608905770556L1043.4088000000002,64.99451419024302L1043.6664,64.57861426910875L1044.3103999999998,64.16201706236097L1045.3408,63.73435259346917L1046.1136000000001,63.31776649775833L1046.5,62.8870961043969L1048.6896000000002,65.60286821577444L1052.1671999999999,65.16075345804427L1053.9704,64.71447536784154L1054.8719999999998,67.38737733767601L1055.1296,66.93477802959006L1055.3872000000001,66.49641990198887L1055.6448,66.04108079276028L1056.0312,65.61833645077951L1056.1599999999999,65.18834014226212L1058.3496,64.76024086076814L1059.38,67.46020919507919L1059.8952,67.02029894473037L1060.2816,66.57953059135872L1060.4104,66.14379474538157L1061.312,65.72048655283425L1063.5016,65.27594295918152L1065.176,64.82608378606648L1067.8808,64.40103870811487L1068.396,67.23870841346195L1068.7824,66.7920947064311L1069.8128,69.53597645409695L1070.328,69.04917426909486L1070.7144,68.5691026946385L1072.0024,68.09124121184408L1072.904,67.63510319188634L1073.0328,70.32319947141133L1073.4192,73.02358902844719L1073.8056,72.52751624742206L1074.9648,72.0084660988282L1075.3512,71.52228170565775L1075.48,74.2242341473252L1075.8664,73.72634009824333L1077.7984,73.22709291027587L1078.056,72.70257244396066L1078.4424000000001,72.17928666985046L1078.8288,71.65905378599484L1078.9576,71.16671487516845L1079.344,70.68729438899982L1081.4048,70.19493737235865L1083.852,69.71410766298447L1088.8752,72.36414051177786L1089.3904,71.86299487809583L1089.648,71.39578943781794L1090.1632,70.91188909682512L1090.936,70.42351697373277L1091.3224,69.92657484518764L1092.9968000000001,69.43624707978307L1093.2544,68.96409610410541L1093.3832,68.48671777591727L1095.444,68.02510468011826L1096.2168,67.54778952766668L1100.3383999999999,67.11615282764592L1100.596,66.65319383954147L1102.7856,66.21835956566099L1104.46,65.78644883371351L1106.7784,65.3383815025756L1108.7104,64.89353067486343L1110.1272,64.48855891417185L1111.1576,64.0715121602887L1112.4456,66.87126540945991L1114.12,66.43221376579442L1114.2488,65.9726723019391L1114.5064,65.53148933225941L1116.0520000000001,65.09493551561445L1116.3096,64.65643961561841L1117.5976,64.22656995893783L1118.1127999999999,63.80156105039384L1118.7568,63.37655738020027L1122.492,62.98015107748478L1122.8784,65.70431961434224L1123.0072,65.25106247538946L1124.424,64.81129863033135L1124.5528,64.40032428478145L1125.9696,63.993182405816356L1127.7728,63.57569180781428L1128.6743999999999,63.17053542531016L1129.9624,65.99341587106068L1131.2504,65.54949792845133L1136.016,65.10019141144005L1136.7888,67.86421486926565L1138.8496,67.42943389120325L1141.5544,67.00260294890461L1142.7136,66.54924938737196L1143.1,66.1157402256099L1143.4864,68.82585685754071L1144.1304,68.34708012549146L1145.4184,67.87073870536301L1145.676,67.40288095338218L1146.1912,66.93864668654675L1146.8352,66.49581335729476L1146.964,66.05367350691705L1147.608,65.60041266830314L1149.54,65.18105892864901L1149.6688,64.74546320266472L1150.5704,64.30249464870974L1150.828,63.9043130971844L1151.2144,63.468310613009294L1152.116,63.04368720790711L1154.8208,62.61558740341553L1156.4952,62.22982478878845L1156.8816,61.83665996791365L1157.268,61.432083616619195L1158.556,61.03082172550904L1158.8136000000002,60.66957821171138" style="fill: none;" fill="none"></path></g></g></g></g><g opacity="0.2"><g><g><g><path stroke="rgb(255, 112, 67)" stroke-width="2px" d="M129.8304,342.2661878365737L131.5048,340.9742344709543L131.8912,346.45213094582925L136.0128,341.49611077308657L136.1416,338.806599514301L136.39919999999998,349.00481958819125L139.3616,348.80346980679496L139.4904,349.1389663111705L140.392,347.2927329815351L140.5208,341.0415100171016L142.5816,340.1606304535499L145.02880000000002,348.6786476900944L147.0896,337.3373909876897L150.696,348.85940793397333L151.21120000000002,339.33431296348573L151.34,342.3276629778055L153.0144,341.33870468506444L153.7872,341.0718049489535L156.492,341.5503574187939L157.136,349.0469573492041L158.2952,349.1031358384169L159.1968,338.1784517801725L159.3256,338.74898021771355L160.61360000000002,342.47904751484214L162.8032,347.10848658910163L164.22,341.23734491421624L166.4096,348.5068365612855L167.05360000000002,334.72875610498284L167.44,337.12144566315874L167.69760000000002,341.73381714820863L169.24319999999997,343.0101336149069L171.0464,349.0540357024051L171.4328,344.22151494026184L172.7208,343.73605980139513L173.6224,344.1973888745675L174.7816,348.9446925716976L175.168,341.24162502655616L175.9408,343.93631623341486L176.1984,337.1581046104431L176.5848,343.90801092294544L177.10000000000002,336.69515229738676L178.388,344.9433079829583L179.93359999999998,335.9753488760728L180.5776,340.8639539865347L181.73680000000002,345.3458905385091L183.54,338.20983857741726L184.3128,341.74473164264975L184.6992,342.2007147348844L185.2144,341.7480405147259L186.2448,346.3971286599453L187.404,337.3989146562723L193.9728,335.68330850601194L194.87439999999998,348.62575209782676L195.00320000000002,334.7498668890733L195.3896,336.9921327517583L196.1624,335.98063974380494L196.2912,342.26707658034104L198.22320000000002,339.8694989314446L199.64,344.63009824936205L199.76879999999997,340.0326880931854L199.8976,340.17480529271637L200.0264,341.415813258978L201.3144,341.84028892883885L202.6024,343.9165981842921L203.1176,340.21097203401416L203.504,333.95704228327827L204.27679999999998,342.1671670840337L204.5344,343.08334613579973L205.0496,349.049292608809L206.3376,349.0426582592038L207.8832,344.71256320293134L209.6864,340.85669429485614L210.84560000000002,339.98508553504945L212.3912,338.0550605920645L213.42159999999998,349.0996700431865L213.67919999999998,348.46560074824555L213.80800000000002,334.75042148736804L214.1944,340.7789451599121L214.8384,342.0265736433176L215.2248,343.74027821467473L216.2552,340.34993079625644L217.54319999999998,339.5678577716534L217.8008,342.24257373443015L218.44480000000001,341.60249589773326L218.96,341.2278300872216L219.86159999999998,341.31132486049944L224.3696,341.76213147090033L224.75599999999997,344.29018183488114L225.52880000000002,330.2885409428523L226.43040000000002,343.53401201688325L226.688,340.40381972606366L226.94559999999998,337.25768689375656L230.4232,341.4044564723969L230.552,347.78007366794805L230.93839999999997,339.1958013461186L231.58239999999998,343.0875368191646L231.71120000000002,335.4392575263977L232.9992,343.7679734670199L233.6432,349.2055965302082L233.772,336.62422333497267L234.2872,341.09073754824124L234.5448,335.2096607648409L235.18880000000001,341.78566099680387L235.83280000000002,344.35309546544L237.12080000000003,340.10307840200574L238.15120000000002,337.8770934655116L238.28,341.2681209600889L238.924,343.56025664806367L240.34079999999997,349.0070632524215L240.4696,347.03639660981986L241.62879999999998,348.9349469852347L242.5304,344.8178318518859L242.9168,333.289433493981L243.1744,341.6664175106929L244.84879999999998,348.2581837156644L245.23520000000002,348.2232345775916L246.3944,337.69702926415664L248.584,343.28490206094887L249.0992,348.79551284857666L249.872,341.543241922672L254.25119999999998,348.7347720843095L254.6376,349.02107561161887L256.956,341.1713990174807L258.3728,345.00004477500914L258.6304,340.7278042646555L262.8808,348.7991040241833L263.1384,343.2613919459857L264.68399999999997,341.1003404177152L265.0704,348.9251584348367L265.8432,341.4064828359164L265.972,349.0702623602863L266.7448,346.5733931697332L267.26,349.0440283011359L269.192,347.80626093286736L274.4728,338.7020230733431L274.7304,341.63724425389216L277.0488,345.33216111109806L277.4352,331.0258502593407L277.69280000000003,337.6702782154083L278.7232,20.115945669320922L279.3672,349.01064486337395L280.14,348.68785995772254L281.29920000000004,340.1916733998519L282.5872,348.22624595967625L283.48879999999997,24.074424274151113L284.648,20.490277334359973L285.29200000000003,341.40966484363264L286.0648,347.9230645331053L287.61039999999997,342.4276570503528L288.6408,339.6882707669185L288.8984,332.914859192188L289.41360000000003,21.98707158015327L289.8,346.86946858901246L290.444,343.57033855181476L291.3456,329.55739321341883L291.8608,349.12686350322684L293.1488,336.3386842434223L293.5352,338.92294453107394L294.56559999999996,340.622640642753L296.4976,336.77418394088744L297.1416,22.07046097975507L297.3992,334.14171103697555L297.9144,341.54697090295645L298.0432,347.59763691241926L299.7176,23.721366999699512L303.0664,335.15712921436017L306.0288,22.42249779334435L309.3776,337.85056772232053L310.6656,344.68146964953496L310.7944,331.83830348528346L310.9232,336.049418251331L311.3096,338.9460435500512L311.5672,338.1397636963771L311.9536,342.36540963099554L312.0824,348.5548727892912L312.34,336.9040611560528L315.0448,332.6156173632695L316.5904,335.3627285077022L317.1056,20.838742534930873L318.136,344.20545585338886L319.1664,341.2327410551218L319.2952,337.0344388961792L319.424,349.1975622856846L320.1968,21.05144207294171L320.712,20.420908179649928L323.41679999999997,340.32597838915314L324.576,348.21960841463164L325.864,24.85330211932842L327.5384,344.1542650442857L327.66720000000004,344.18018211584825L327.796,341.2404846338125L328.31120000000004,348.34629352665866L331.66,21.278139671912584L331.9176,23.61452918419468L332.8192,336.9307317880484L334.49359999999996,21.33561823918268L335.0088,337.55194080426145L337.0696,337.7999502292046L337.3272,338.2863994855147L337.7136,22.82926236666168L337.8424,337.06117192048293L338.2288,21.32654501108027L338.48639999999995,332.5538670026339L339.0016,338.2395539540511L340.1608,21.704714496319127L340.41839999999996,335.23326169527496L340.9336,23.744327369103075L341.06239999999997,334.011566228133L341.57759999999996,21.69703885591946L342.22159999999997,20.68727064866283L342.8656,337.2420458353483L347.76000000000005,343.62443510935856L350.336,321.4173391342163L352.78319999999997,21.852148907001208L353.1696,335.7303453738873L354.20000000000005,334.9808321219224L355.1016,347.77721523367444L357.8064,334.02375491215633L358.3216,23.945313791128342L358.4504,21.651140301044165L358.708,23.390671128493068L359.0944,342.3713618571942L359.35200000000003,337.31961541909436L360.5112,339.77330524371223L361.02639999999997,340.2861298084259L362.0568,22.01193976769082L362.4432,338.3610615877005L362.7008,340.58700770231394L362.8296,328.42302202078014L363.21599999999995,345.90217446547285L367.08,24.730270033616307L367.3376,333.8469559082618L369.1408,330.7163455889775L369.7848,340.76123198362495L370.4288,21.88034468430743L371.8456,349.07635501250627L373.52,341.13197193145754L373.64880000000005,22.702081885704615L373.9064,20.951880587064295L374.5504,342.7468810558319L376.096,341.4108780274024L378.28560000000004,337.46642036071194L379.0584,327.01837428166317L379.96,341.38388642164375L381.5056,330.0082677621108L381.7632,21.64348684457633L383.82399999999996,22.417706064077493L384.5968,336.8829406664922L384.8544,343.50493893439955L385.4984,334.70830806585457L385.6272,344.0070930279218L387.688,22.249085998535122L389.62,21.37623701829176L391.6808,21.53636063795824L392.9688,314.53315764207105L393.3552,342.5061243900886L394.3856,328.55923136197606L396.18879999999996,23.208629784217237L396.9616,347.8671002791478L397.47679999999997,341.1867523780236L397.992,24.241203073354882L398.3784,21.149872178297755L398.636,331.01798189603363L400.4392,310.9778054457444L400.6968,336.9913036273076L403.788,21.579996431790846L405.3336,22.1132316002479L407.7808,22.969886310283925L408.94,333.0755401831407L409.0688,315.0373540438138L409.584,331.9658777310298L409.84159999999997,342.12133300121013L410.872,22.336113562950743L411.25839999999994,20.64798290546122L411.516,22.158198429987976L411.6448,20.63833289513218L412.9328,335.7093510554387L414.092,317.4925246458787L414.99359999999996,23.986021305964528L415.5088,21.067126112717858L418.3424,338.80560886309695L419.5016,22.646799527681765L420.91839999999996,341.8777042095478L421.04720000000003,348.85788738142986L421.4336,21.788702862079333L421.56239999999997,330.4405549489535L422.33520000000004,22.740171696589528L422.464,333.3447824037992L423.8808,20.38519204946664L426.07039999999995,349.0366325162351L426.5856,347.84403652915586L426.97200000000004,340.9436920496134L428.1312,21.193707627516517L429.80559999999997,348.142378868965L430.70719999999994,348.9292620575414L432.8968,340.4607832101675L437.79119999999995,340.80640678772556L440.1096,340.9302049123324L440.2384,319.58970759465143L441.78400000000005,21.51076038067157L442.42800000000005,21.945099581204886L443.2008,323.53008411114035L446.5496,21.487866563063392L446.6784,20.42589956430288L446.936,20.90460662841798L447.70880000000005,22.28777477557844L447.9664,23.141124079777626L451.70160000000004,25.27348797137921L451.8304,22.88762829120344L452.4744,336.995507482382L454.02,22.47478532057545L455.308,331.92694909022407L456.0808,347.4675988637484L456.596,338.1701882655804L456.9824,328.17260563923764L457.49760000000003,348.6585620679534L457.88399999999996,333.32166397388164L458.2704,342.33656150744514L460.46,341.90120253929723L461.104,340.5207595495077L462.2632,20.97364302415116L462.52079999999995,335.5646106059735L462.9072,334.7464228336628L463.5512,22.94932180551382L464.45279999999997,23.347878324068517L465.4832,24.204510850172767L465.9984,333.86734848756055L467.0288,342.4898746600518L469.3472,22.76484022874098L470.12,25.61312396709735L471.7944,23.077056884765625L472.05199999999996,24.01978525015022L473.0824,341.16664056411156L475.0144,21.627847172663735L475.1432,21.20799407958981L476.81759999999997,26.068493534968468L477.97679999999997,342.57160234451294L478.23440000000005,21.111072481595556L478.492,21.4137500469501L479.136,338.3873349886674L479.2648,344.11861927876106L480.1664,334.28534228985126L480.424,23.323453815166772L481.1968,335.07025971045863L481.58320000000003,20.186379652756898L482.22720000000004,21.96712822547329L483.1288,24.655554551344665L484.1592,21.654645362267104L486.4776,343.8902142102902L486.7352,21.794004821777378L487.508,25.36674922062798L488.152,21.267336097130396L488.5384,343.86963272094727L488.796,19.801488436185423L489.44,337.3741774925819L490.084,21.209901897723853L490.47040000000004,20.943472876915564L490.9856,21.053305523212146L491.372,24.62529566838191L491.75839999999994,21.075267615685107L493.94800000000004,22.85661515455979L494.33439999999996,348.85793767439634L495.75120000000004,25.065868553748487L496.524,21.819693814791208L497.168,322.391832116934L497.2968,22.6631934532752L497.812,23.273207209660484L498.5848,22.715547532301684L499.2288,21.004589608999368L501.2896,344.2702908204152L501.67600000000004,20.129455683781543L502.32,21.84902097261869L503.0928,22.03419025127704L505.0248,21.054703110914943L510.4344,22.270670964167664L510.9496,21.113423978365404L511.336,343.38528019281534L511.5936,24.50308438814602L512.1088,20.68491915189304L512.624,22.387779940091605L512.8816,341.85858235359194L515.0712,21.535384544959413L515.4576,24.086004286545972L516.8744,20.4435579740084L519.3216,21.060981163611757L520.3520000000001,345.6467885365853L521.8976,335.23571440623357L522.1551999999999,330.5442703760587L522.7991999999999,348.8911003668721L522.928,22.129980468750034L523.0568000000001,348.9572915542011L523.3144,23.352315110426673L524.7312,20.27194307767428L525.1176,23.188686429537256L526.2768,344.47524227362413L526.6632,21.127222383939284L527.9512,323.59779778994044L528.2088,23.879738088754493L528.5952,348.9270010583909L528.7239999999999,333.13135772851797L530.3984,20.668236835186292L531.8152,336.40516394101655L532.3304,337.1148126675532L534.6488,336.65746872975274L536.3232,23.814339857835023L537.3536,20.165260549691993L538.6416,345.4563502275027L541.7328,22.87136746920072L541.8616000000001,24.334442138671875L546.3696,20.8841086754432L547.7864,343.28114500412573L549.5896,342.66953747089093L550.4912,19.958883432241578L550.7488,342.33762702941897L551.6504,21.168484497070324L552.4232,21.88604595477767L553.7112,333.77613231952375L553.84,314.7417420607347L554.3552,345.0365359563094L554.9992,23.26036271315354L556.1584,315.66450211451604L556.2872,343.8466144653467L556.4159999999999,348.5716620178177L557.8328,342.3265350635235L558.348,339.1075536654546L559.2496,20.37563077486476L562.0832,336.51020485804634L563.5,23.442293137770434L563.7576,22.998592318021338L564.144,22.325132516714234L566.5912000000001,20.157163414588354L568.2656,20.691285940317016L568.9096,348.4367078235516L570.3264,342.1911056261796L570.8416,23.106849905160743L570.9704,20.549841191218434L573.0312,337.7031755997584L573.2888,343.83893327896413L574.3192,341.82472482094397L574.7056,342.675592991022L575.9936,340.89399103017956L578.5696,343.86086348203514L578.6984,23.1128395667443L579.3424,342.45515819329484L579.9864,348.20593847655334L580.1152000000001,342.783915743461L580.888,339.3663756774022L581.6608,347.76739182472227L582.3048,342.3211984414321L586.5552,22.48026475172776L586.684,20.51676494891825L587.972,310.9495625275832L588.1008,338.5756828088027L588.616,21.606195655235865L588.7448,23.266152719351L589.5176,20.86806969275841L591.9648,23.64729485144983L592.2224,23.31349322979264L593.8968,20.915121812086852L594.7984,331.33935912939216L594.9272,348.7208454278799L596.0864,22.76304333026593L596.988,21.95931948148285L598.1472,346.1362750851191L600.4656,20.97069256122296L600.7232,22.99346782977767L601.2384,22.578717041015636L602.0112,25.47662623478817L603.9431999999999,25.122814706655618L605.1024,22.033347261868983L606.6479999999999,346.9769766018941L608.4512,20.74679013765774L610.3832,21.510050494854283L610.8984,24.245418020395164L611.0272,21.413262000450743L611.5424,20.264711115910472L612.0576,20.249870065542382L612.3152,21.906854482797485L612.5728,23.03745856651892L614.1184,21.52837442251348L614.2472,337.1879905260526L617.2096,22.29398627647987L617.3384,21.32430443396936L618.1111999999999,22.23695138784558L618.7552,22.37404808631311L619.0128000000001,342.4761240885808L620.3008,24.73985349214996L621.3312,20.878651428222668L622.7479999999999,20.628882540189295L623.6496000000001,343.58916716392224L624.2936,24.07038679856521L625.324,24.382093224158666L626.2256,311.6429296346811L626.3544,21.445983299842226L626.4832,20.982206021822435L626.8696,20.83443885216343L627.7712,21.819272320087123L630.3472,20.672074655386155L630.9912,22.378728895920972L631.8928,24.276542076697694L635.8856000000001,321.85796747941237L637.4312,21.245240901066722L637.9464,21.06220127986029L638.5904,23.949351266714245L639.492,310.5106978049645L640.136,21.187806701660122L641.424,24.34985997126654L643.8712,20.965146578275267L646.576,24.277096674992492L647.3488000000001,23.042449951171875L651.084,22.617361450195347L651.5992,21.214582707331715L651.728,22.952826866736757L651.8568,24.384777479905324L652.5008,348.94709616902355L653.66,310.59593678987943L656.3648000000001,20.822459528996376L657.2664,22.030241511418296L657.7816,349.0882091719371L658.168,20.639331172062782L659.7136,22.019327016977172L661.6456000000001,23.349275911771315L662.1608,22.526828824556787L662.8047999999999,20.27538158710189L664.8656,22.43068366417515L665.3807999999999,20.19294609656697L665.5096000000001,21.172588524451612L667.6992,333.18952399767363L667.9567999999999,24.1699704683744L668.0856000000001,22.42992941049431L668.3432,24.1659329927885L670.404,22.2856673020583L671.3056,22.46462507981522L675.5559999999999,22.248841975285472L676.3288,20.11678865872898L676.7152,22.41045191838191L677.1016,23.481026282677306L677.488,340.607514667511L678.0032,23.480116741473864L678.2607999999999,342.9645601932819L678.7760000000001,21.347686298076894L679.42,22.758739647498487L679.9352,20.401253216083262L680.5792,22.53900780310994L681.8672,25.01970379169171L683.284,21.39305243858928L683.928,21.132834918682363L685.86,20.300915292593118L689.2088,22.495460745004493L689.9816,20.92064561110277L690.6256,347.25080223083495L693.7167999999999,21.419784076397207L698.3536,20.541500032865088L699.384,20.989704190767725L700.672,20.51483494685249L700.9296,20.711362398587767L701.4448,20.115213599571803L703.7632,22.086721801757847L704.4072000000001,23.932890789325427L706.8543999999999,23.25062396709734L707.2408,21.60708301250753L707.756,24.992195716271056L710.4608,20.64867060734673L711.1048000000001,23.734255864070008L711.2336,20.271299743652378L711.3624,23.15221604567307L711.4912,337.1268737939688L712.6504,20.967742098294764L713.8096,346.9907654753098L716.3856000000001,22.31319756141079L716.6432,20.79035937969502L716.9008,21.494388639009912L717.1583999999999,338.019472019489L719.6056,23.403227233886753L720.3784,21.042590684157176L721.0224,20.991789480356033L721.7952,337.29911677287174L722.1816,20.119583834134573L722.4391999999999,20.20654484675481L724.5,21.629444415752744L725.5304,20.139837763859703L726.3032,346.68376741592704L726.4319999999999,25.602719703087416L728.364,24.45736330472505L729.9096,21.104949716421288L732.4856,22.733472149188685L732.7432,335.425120815864L732.872,20.646075087327233L733.0008,21.116973407451894L733.2584,24.062422767052283L733.6448,22.408078237680286L734.804,22.464713815542382L735.5768,310.7155386851384L735.8344000000001,22.211373314490686L736.2207999999999,22.878155752328723L738.1528000000001,347.0394867621935L738.2816,23.544871638371376L738.7968,23.712715266301075L739.6984,22.658823218712428L742.7896,24.39711174598108L744.8504,336.8594575881958L747.684,22.330257004957957L749.2296,21.81896174504209L749.4871999999999,24.84773395244889L752.0631999999999,23.787674771822424L753.2224,22.324555734487717L755.1544,21.265162071814927L755.2832000000001,20.695744910606948L755.9272,335.090533051124L756.4424,26.679660855806787L757.2152,24.17056943453275L757.4727999999999,20.919580782376784L757.8592000000001,22.58237738976112L759.0184,22.666831618088963L759.92,340.31065067878137L760.4352,21.72714245135967L761.4655999999999,22.8515128502479L761.5944000000001,20.505406775841323L761.9808,21.762814213679405L763.6551999999999,20.167634230393617L765.3295999999999,20.209783700796265L765.4584000000001,21.30740027794468L765.8448000000001,21.63474637545073L766.1024,21.093436255821814L766.7464000000001,23.310498399000892L767.6479999999999,25.560991727388796L768.4208,21.1778904841496L768.5496,22.263261530949535L771.1256,24.781980778620778L771.3832,21.195105215219314L772.0272000000001,23.180788949819714L773.1863999999999,337.2392062920791L774.2167999999999,349.0526361324466L774.6032,340.4074107500223L776.664,24.289497492863575L778.8536,21.03058917705829L779.6264,22.24642392672024L779.884,20.8771207369291L780.1416,20.76609015831582L780.7855999999999,23.500570326585034L781.3008,22.25736060509314L782.46,22.121661494328407L783.748,24.194394977276147L784.9072000000001,23.46902477557842L785.4224,337.37181213085466L787.2256,339.27517129457914L788.1272,20.489656184269847L789.8016,343.6528329684184L790.4456,21.496030249962416L791.6048000000001,22.614011676494897L791.8624,22.658601379394497L792.12,22.975343557504516L792.2488,25.310978816105774L792.5064,22.567558523324806L793.2792000000001,23.58932823768032L793.5368,339.14031794621394L793.7944,20.22910590538612L793.9232,23.29033320500298L794.1808000000001,20.139460637019226L794.9535999999999,21.342628361628613L796.8856000000001,20.78190730168268L798.6888,23.50243377685547L799.2040000000001,340.51645933297965L799.7192,21.838572340745202L800.8784,21.547918466421265L801.9088,337.01341130183295L802.5527999999999,20.341046025202843L803.1968,24.88207467886116L803.3256,24.488553912823022L804.3560000000001,24.144370211087733L805.3864,21.528241318922767L806.9319999999999,20.785700754018933L813.6296000000001,20.480338932917675L814.1448,20.748476116473853L814.2736,340.126398567053L814.4024,20.876832345815842L814.7888,23.741199434720556L816.2056,20.384792738694387L817.3648000000001,24.534873962402344L818.1376,23.789582589956467L821.8728,20.84049506554237L822.1304,22.164964529184203L822.5167999999999,23.579234548715476L822.7744,342.3539107286013L822.9032000000001,23.92836526724011L825.4792,24.23931743915267L825.9943999999999,24.635300621619592L826.1232,23.607230670635488L827.4112,23.89983673095702L828.3128,20.97981015718898L828.4416,22.30212777944712L831.404,24.712367600661082L832.5631999999999,20.812254920372595L833.8512,21.54685363769528L834.624,20.518916790301944L834.7528,23.332571411132847L835.0104,23.870886699969958L836.5559999999999,22.815219937838037L836.9424,20.24119614821217L837.4576,23.86159163254962L839.2607999999999,24.42628361628607L839.3896,23.793331674429055L840.1623999999999,22.5977286705604L841.3216,20.542986356295046L841.708,24.318358788123476L842.3520000000001,21.519877976637645L843.2535999999999,329.8766809977018L845.0568000000001,22.573481633112976L845.8295999999999,23.270079275277908L846.216,20.912082613431494L846.6024,21.37825575608474L846.9888,349.01613937266745L848.2768,22.432658034104577L849.0496,22.852511127178502L849.5648,24.32490304800183L849.9512000000001,22.981067011906532L850.2088,21.341319509652976L851.7544,334.4937728074881L852.2696,22.25345623309795L852.6560000000001,336.2181991503789L853.3,21.105238107534547L855.6184,25.206692152756887L856.2624,344.2548612026068L856.5200000000001,24.60260150615983L856.9064,22.016243450458262L857.164,22.95943767841044L858.0656,23.10736013559199L859.096,24.52495774489182L860.384,22.728502948467565L860.5128000000001,23.078010793832618L860.6416,26.298185964731033L861.1568,22.037451289250328L861.9296,24.13951193002555L862.5735999999999,21.115442716158327L863.0888,22.293520413912233L863.6039999999999,347.43102085315263L867.8543999999999,324.0134442549485L868.756,23.22395888108474L869.2712,23.48468663142279L869.4000000000001,337.62138067025404L870.5591999999999,20.861525432880114L871.2032,23.76449256310093L872.3624,21.054037592961265L873.264,23.179990328275267L873.3928000000001,25.12882655217095L877.2568,21.890704580453757L879.06,24.326211899977466L880.348,21.6675342266376L880.4768,22.797827735314L880.8631999999999,21.86009075458236L885.3712,23.03595005915713L886.5304,24.778098590557363L886.9168,340.2252522468567L887.0455999999999,24.359798372708838L888.3335999999999,21.359621253380396L889.8792,341.66047152372505L893.4856,23.02536832369293L894.0008,21.37426264836239L894.516,23.287294006347622L894.6448,22.105578143780065L895.804,22.797073481633106L896.3191999999999,21.420893272986802L897.6071999999999,20.532870483398426L898.38,24.61427025428185L903.4032000000001,20.65481555645283L904.9488,337.4581256499657L905.7216000000001,22.758051945612976L907.0096000000001,20.378780893179055L911.6464,336.76324448952306L913.0631999999999,23.589039846567005L913.7072000000001,22.136191969651463L913.836,23.274094566932092L916.1544,23.345593379094055L916.9272,21.45257192758413L917.1848,334.67435555824864L920.2760000000001,20.11765383206881L920.5336,21.957877525916444L921.6928,24.690294588529127L922.4655999999999,20.84238069974458L923.2384,341.0968679391421L924.784,23.633540813739444L925.5568000000001,23.4939151470478L926.3295999999999,23.484109849196216L926.4584000000001,22.717987764798636L926.716,20.399700340857862L927.1024,20.28558619572567L928.004,344.32090138105247L928.5192,347.8115405353216L928.7768,337.2026915403513L929.4208,21.874399390587428L930.4512000000001,21.896317115196837L931.3528,21.947717285156216L931.4816,340.39188061127294L931.868,20.952191162109386L935.8608,21.688786433293274L939.8536,25.155536006047157L940.7552000000001,21.958875802847047L943.2023999999999,349.0253062325601L943.3312000000001,21.56364687406102L943.8464,337.97262995426473L944.2328,22.848695490910472L944.3616,21.828190260667043L944.4903999999999,20.093650817871094L945.6496,22.13836599496699L946.5512,336.887363587893L947.1952000000001,20.222983140211852L947.3240000000001,22.012294710599463L947.968,20.757904287484962L948.6120000000001,20.297964829664977L949.1272,20.785612018291772L950.0288,21.78710561899038L950.4152,23.114525545560355L951.832,25.264680950458228L951.9608,21.728207280085655L954.6655999999999,20.564038907564623L955.9535999999999,21.43966087928186L956.4688000000001,333.6706920917218L960.0751999999999,20.209650597205552L961.6208,22.721004779522275L963.2952,22.421233309232264L963.424,20.36409513033351L966.2576,20.216194857083792L967.288,21.03912999079779L969.4776,24.071052316518944L970.2504,22.878155752328723L971.2808,21.45964860182545L973.084,20.846950589693506L973.5992,22.54171424278843L975.4024,20.324208420973548L977.8496,20.8403619619516L978.6224000000001,21.93096841665414L978.7512,21.876018817608212L979.6528000000001,21.421159480168285L981.0696,310.77930917006273L981.8424,22.235132305438697L982.744,22.976852064866307L984.2896,20.327935321514417L984.4184,22.849050433819116L984.5472,21.89818056546727L989.4416,22.65181309626655L989.5704,23.395684697077797L991.76,22.081353290264417L992.2751999999999,21.561983079176684L994.2072000000001,21.403567622258095L995.4952000000001,20.44681901198163L996.0104,23.70887744610127L999.1016,340.4947509692265L999.6168,22.075652019794177L1000.5184,22.761911949744615L1001.8064,347.4592604783865L1005.284,22.210064462514993L1005.5415999999999,21.01940847543574L1005.928,20.615727468637317L1006.0568000000001,20.383594806377744L1007.216,21.58416701096752L1009.1479999999999,20.56086660531855L1012.1104,20.703509286733777L1013.012,24.71145805945764L1014.1712,23.265243178147557L1014.3,20.792688692533034L1014.4287999999999,20.46514293964094L1017.6488,20.221696472167935L1018.164,20.721655742938708L1018.6792,20.111486699030934L1019.0656,20.128013728215137L1020.3536,22.363555086576014L1023.5735999999999,20.603215731107298L1023.8312000000001,22.66763023963341L1024.0888,20.721677926870484L1024.8616,21.516661306527908L1025.3768,20.329177621694726L1026.4072,21.394671865610007L1026.6648,349.0533760337302L1028.7256,21.48001345120946L1029.3696,20.516942420372573L1030.2712000000001,20.27405055119442L1030.4,22.8745841393104L1031.5592,20.712937457744886L1031.8168,20.3367423424354L1032.7184,21.015260080190842L1033.2336,23.36753328763524L1034.7792,25.052380723219642L1037.2264,23.90686903733473L1037.484,21.801325519268346L1037.8704,20.0732194166917L1039.1584,21.9019962017353L1040.7040000000002,20.347301893967824L1040.8328000000001,340.196089388774L1041.2192,22.128538513183628L1041.4768,333.76055642641506L1043.4088000000002,23.2640452458308L1043.6664,23.409838045560377L1044.3103999999998,22.924165226862954L1045.3408,21.40092773437499L1046.1136000000001,22.080909611628613L1046.5,20.256015014648426L1048.6896000000002,334.4312959230863L1052.1671999999999,21.396712787334707L1053.9704,20.538261178823632L1054.8719999999998,331.97314712817854L1055.1296,22.132731276292077L1055.3872000000001,23.104032545823316L1055.6448,20.967719914362988L1056.0312,23.77143613375148L1056.1599999999999,22.623528583233167L1058.3496,22.383165682279127L1059.38,334.7273931796734L1059.8952,23.47397179236782L1060.2816,22.94821260892428L1060.4104,23.010593825120168L1061.312,23.817445608285766L1063.5016,21.270774606558007L1065.176,20.294681607759912L1067.8808,22.32593113825874L1068.396,348.1392243311955L1068.7824,22.581822791466323L1069.8128,341.15298982033363L1070.328,20.86054933988129L1070.7144,21.046694711538464L1072.0024,20.787564204289367L1072.904,22.481795443021326L1073.0328,336.4193159030034L1073.4192,340.33687901863686L1073.8056,23.420907827524047L1074.9648,20.627263113168567L1075.3512,23.394442396897546L1075.48,341.69323164499724L1075.8664,24.439261216383727L1077.7984,23.806020883413453L1078.056,20.779622356708217L1078.4424000000001,20.378514685997573L1078.8288,20.16044663649342L1078.9576,22.429330444335903L1079.344,23.22868405855621L1081.4048,21.455677678034874L1083.852,22.115915855994615L1088.8752,334.6958434691796L1089.3904,22.253611520620495L1089.648,25.146174386831433L1090.1632,23.009573364257847L1090.936,22.07849156306338L1091.3224,20.73314701960635L1092.9968000000001,20.897552138108495L1093.2544,22.22472804142876L1093.3832,21.229845252403834L1095.444,22.328837233323327L1096.2168,20.297099656325145L1100.3383999999999,24.38726208026594L1100.596,20.823590909517748L1102.7856,23.172869286170396L1104.46,23.03033752441405L1106.7784,20.982849355844337L1108.7104,20.856378760704615L1110.1272,24.399130483774L1111.1576,22.78671358548678L1112.4456,344.02802807367766L1114.12,22.96902113694415L1114.2488,20.48109318659857L1114.5064,21.8572512113131L1116.0520000000001,21.8789249126728L1116.3096,21.24814699613131L1117.5976,21.672192852313685L1118.1127999999999,21.728340383676368L1118.7568,21.303828664926414L1122.492,23.738359891451296L1122.8784,335.3804534692031L1123.0072,20.381332045335057L1124.424,21.27729668250447L1124.5528,23.716286879319398L1125.9696,23.68851259671726L1127.7728,22.246534846379234L1128.6743999999999,23.06237112192008L1129.9624,345.44259411004873L1131.2504,21.604110365647557L1136.016,20.621340003380396L1136.7888,341.4873495065249L1138.8496,24.388482196514417L1141.5544,24.748638329139112L1142.7136,21.669663884089516L1143.1,23.20062138484076L1143.4864,337.1132417678833L1144.1304,20.95066047081582L1145.4184,20.715377690241894L1145.676,21.08733567457932L1146.1912,20.98178452711835L1146.8352,22.65751436673679L1146.964,22.28400350717402L1147.608,20.729797245905957L1149.54,23.667060734675488L1149.6688,21.623565673828125L1150.5704,20.450701200045046L1150.828,24.486202416053175L1151.2144,20.30608414870045L1152.116,21.00791719876804L1154.8208,20.235650165264417L1156.4952,24.04105964073767L1156.8816,22.915091998760488L1157.268,21.380806908240686L1158.556,21.307644301194387L1158.8136000000002,24.90802987905647" style="fill: none;" fill="none"></path></g></g></g></g></g></g><g transform="translate(46, 378)" clip-path="url(#clip_1)"><clipPath id="clip_1"><rect width="1288" height="22"></rect></clipPath><g><g><line x1="0" y1="0" x2="0" y2="5" style="visibility: inherit;" fill="rgb(0, 0, 0)" stroke="rgb(204, 204, 204)" stroke-width="1px"></line><line x1="128.8" y1="0" x2="128.8" y2="5" style="visibility: inherit;" fill="rgb(0, 0, 0)" stroke="rgb(204, 204, 204)" stroke-width="1px"></line><line x1="257.6" y1="0" x2="257.6" y2="5" style="visibility: inherit;" fill="rgb(0, 0, 0)" stroke="rgb(204, 204, 204)" stroke-width="1px"></line><line x1="386.4" y1="0" x2="386.4" y2="5" style="visibility: inherit;" fill="rgb(0, 0, 0)" stroke="rgb(204, 204, 204)" stroke-width="1px"></line><line x1="515.2" y1="0" x2="515.2" y2="5" style="visibility: inherit;" fill="rgb(0, 0, 0)" stroke="rgb(204, 204, 204)" stroke-width="1px"></line><line x1="644" y1="0" x2="644" y2="5" style="visibility: inherit;" fill="rgb(0, 0, 0)" stroke="rgb(204, 204, 204)" stroke-width="1px"></line><line x1="772.8" y1="0" x2="772.8" y2="5" style="visibility: inherit;" fill="rgb(0, 0, 0)" stroke="rgb(204, 204, 204)" stroke-width="1px"></line><line x1="901.5999999999999" y1="0" x2="901.5999999999999" y2="5" style="visibility: inherit;" fill="rgb(0, 0, 0)" stroke="rgb(204, 204, 204)" stroke-width="1px"></line><line x1="1030.4" y1="0" x2="1030.4" y2="5" style="visibility: inherit;" fill="rgb(0, 0, 0)" stroke="rgb(204, 204, 204)" stroke-width="1px"></line><line x1="1159.2" y1="0" x2="1159.2" y2="5" style="visibility: inherit;" fill="rgb(0, 0, 0)" stroke="rgb(204, 204, 204)" stroke-width="1px"></line><line x1="1288" y1="0" x2="1288" y2="5" style="visibility: inherit;" fill="rgb(0, 0, 0)" stroke="rgb(204, 204, 204)" stroke-width="1px"></line></g><g transform="translate(0, 8)"><text x="0" y="0" dx="0em" dy="0.95em" style="text-anchor: middle; visibility: hidden; font-family: &quot;Helvetica Neue&quot;, sans-serif; font-size: 12px; font-weight: 200;" fill="rgb(50, 49, 63)" stroke="none" stroke-width="1px">-1k</text><text x="128.8" y="0" dx="0em" dy="0.95em" style="text-anchor: middle; visibility: inherit; font-family: &quot;Helvetica Neue&quot;, sans-serif; font-size: 12px; font-weight: 200;" fill="rgb(50, 49, 63)" stroke="none" stroke-width="1px">0</text><text x="257.6" y="0" dx="0em" dy="0.95em" style="text-anchor: middle; visibility: inherit; font-family: &quot;Helvetica Neue&quot;, sans-serif; font-size: 12px; font-weight: 200;" fill="rgb(50, 49, 63)" stroke="none" stroke-width="1px">1k</text><text x="386.4" y="0" dx="0em" dy="0.95em" style="text-anchor: middle; visibility: inherit; font-family: &quot;Helvetica Neue&quot;, sans-serif; font-size: 12px; font-weight: 200;" fill="rgb(50, 49, 63)" stroke="none" stroke-width="1px">2k</text><text x="515.2" y="0" dx="0em" dy="0.95em" style="text-anchor: middle; visibility: inherit; font-family: &quot;Helvetica Neue&quot;, sans-serif; font-size: 12px; font-weight: 200;" fill="rgb(50, 49, 63)" stroke="none" stroke-width="1px">3k</text><text x="644" y="0" dx="0em" dy="0.95em" style="text-anchor: middle; visibility: inherit; font-family: &quot;Helvetica Neue&quot;, sans-serif; font-size: 12px; font-weight: 200;" fill="rgb(50, 49, 63)" stroke="none" stroke-width="1px">4k</text><text x="772.8" y="0" dx="0em" dy="0.95em" style="text-anchor: middle; visibility: inherit; font-family: &quot;Helvetica Neue&quot;, sans-serif; font-size: 12px; font-weight: 200;" fill="rgb(50, 49, 63)" stroke="none" stroke-width="1px">5k</text><text x="901.5999999999999" y="0" dx="0em" dy="0.95em" style="text-anchor: middle; visibility: inherit; font-family: &quot;Helvetica Neue&quot;, sans-serif; font-size: 12px; font-weight: 200;" fill="rgb(50, 49, 63)" stroke="none" stroke-width="1px">6k</text><text x="1030.4" y="0" dx="0em" dy="0.95em" style="text-anchor: middle; visibility: inherit; font-family: &quot;Helvetica Neue&quot;, sans-serif; font-size: 12px; font-weight: 200;" fill="rgb(50, 49, 63)" stroke="none" stroke-width="1px">7k</text><text x="1159.2" y="0" dx="0em" dy="0.95em" style="text-anchor: middle; visibility: inherit; font-family: &quot;Helvetica Neue&quot;, sans-serif; font-size: 12px; font-weight: 200;" fill="rgb(50, 49, 63)" stroke="none" stroke-width="1px">8k</text><text x="1288" y="0" dx="0em" dy="0.95em" style="text-anchor: middle; visibility: hidden; font-family: &quot;Helvetica Neue&quot;, sans-serif; font-size: 12px; font-weight: 200;" fill="rgb(50, 49, 63)" stroke="none" stroke-width="1px">9k</text></g><line x1="0" y1="0" x2="1288" y2="0" fill="rgb(0, 0, 0)" stroke="rgb(204, 204, 204)" stroke-width="1px"></line></g></g></g></g></svg>