<svg viewBox="0 0 1367 400" xmlns="http://www.w3.org/2000/svg"><g><g><g><g><g><line x1="46" y1="378" x2="41" y2="378" style="visibility: inherit;" fill="rgb(0, 0, 0)" stroke="rgb(204, 204, 204)" stroke-width="1px"></line><line x1="46" y1="348.9230769230769" x2="41" y2="348.9230769230769" style="visibility: inherit;" fill="rgb(0, 0, 0)" stroke="rgb(204, 204, 204)" stroke-width="1px"></line><line x1="46" y1="319.8461538461538" x2="41" y2="319.8461538461538" style="visibility: inherit;" fill="rgb(0, 0, 0)" stroke="rgb(204, 204, 204)" stroke-width="1px"></line><line x1="46" y1="290.7692307692308" x2="41" y2="290.7692307692308" style="visibility: inherit;" fill="rgb(0, 0, 0)" stroke="rgb(204, 204, 204)" stroke-width="1px"></line><line x1="46" y1="261.6923076923077" x2="41" y2="261.6923076923077" style="visibility: inherit;" fill="rgb(0, 0, 0)" stroke="rgb(204, 204, 204)" stroke-width="1px"></line><line x1="46" y1="232.6153846153846" x2="41" y2="232.6153846153846" style="visibility: inherit;" fill="rgb(0, 0, 0)" stroke="rgb(204, 204, 204)" stroke-width="1px"></line><line x1="46" y1="203.53846153846152" x2="41" y2="203.53846153846152" style="visibility: inherit;" fill="rgb(0, 0, 0)" stroke="rgb(204, 204, 204)" stroke-width="1px"></line><line x1="46" y1="174.46153846153848" x2="41" y2="174.46153846153848" style="visibility: inherit;" fill="rgb(0, 0, 0)" stroke="rgb(204, 204, 204)" stroke-width="1px"></line><line x1="46" y1="145.38461538461536" x2="41" y2="145.38461538461536" style="visibility: inherit;" fill="rgb(0, 0, 0)" stroke="rgb(204, 204, 204)" stroke-width="1px"></line><line x1="46" y1="116.30769230769232" x2="41" y2="116.30769230769232" style="visibility: inherit;" fill="rgb(0, 0, 0)" stroke="rgb(204, 204, 204)" stroke-width="1px"></line><line x1="46" y1="87.23076923076923" x2="41" y2="87.23076923076923" style="visibility: inherit;" fill="rgb(0, 0, 0)" stroke="rgb(204, 204, 204)" stroke-width="1px"></line><line x1="46" y1="58.15384615384613" x2="41" y2="58.15384615384613" style="visibility: inherit;" fill="rgb(0, 0, 0)" stroke="rgb(204, 204, 204)" stroke-width="1px"></line><line x1="46" y1="29.076923076923038" x2="41" y2="29.076923076923038" style="visibility: inherit;" fill="rgb(0, 0, 0)" stroke="rgb(204, 204, 204)" stroke-width="1px"></line><line x1="46" y1="0" x2="41" y2="0" style="visibility: inherit;" fill="rgb(0, 0, 0)" stroke="rgb(204, 204, 204)" stroke-width="1px"></line></g><g transform="translate(36, 0)"><text x="0" y="378" dx="0em" dy="0.3em" style="text-anchor: end; visibility: hidden; font-family: &quot;Helvetica Neue&quot;, sans-serif; font-size: 12px; font-weight: 200;" fill="rgb(50, 49, 63)" stroke="none" stroke-width="1px">-10</text><text x="0" y="348.9230769230769" dx="0em" dy="0.3em" style="text-anchor: end; visibility: inherit; font-family: &quot;Helvetica Neue&quot;, sans-serif; font-size: 12px; font-weight: 200;" fill="rgb(50, 49, 63)" stroke="none" stroke-width="1px">0</text><text x="0" y="319.8461538461538" dx="0em" dy="0.3em" style="text-anchor: end; visibility: inherit; font-family: &quot;Helvetica Neue&quot;, sans-serif; font-size: 12px; font-weight: 200;" fill="rgb(50, 49, 63)" stroke="none" stroke-width="1px">10</text><text x="0" y="290.7692307692308" dx="0em" dy="0.3em" style="text-anchor: end; visibility: inherit; font-family: &quot;Helvetica Neue&quot;, sans-serif; font-size: 12px; font-weight: 200;" fill="rgb(50, 49, 63)" stroke="none" stroke-width="1px">20</text><text x="0" y="261.6923076923077" dx="0em" dy="0.3em" style="text-anchor: end; visibility: inherit; font-family: &quot;Helvetica Neue&quot;, sans-serif; font-size: 12px; font-weight: 200;" fill="rgb(50, 49, 63)" stroke="none" stroke-width="1px">30</text><text x="0" y="232.6153846153846" dx="0em" dy="0.3em" style="text-anchor: end; visibility: inherit; font-family: &quot;Helvetica Neue&quot;, sans-serif; font-size: 12px; font-weight: 200;" fill="rgb(50, 49, 63)" stroke="none" stroke-width="1px">40</text><text x="0" y="203.53846153846152" dx="0em" dy="0.3em" style="text-anchor: end; visibility: inherit; font-family: &quot;Helvetica Neue&quot;, sans-serif; font-size: 12px; font-weight: 200;" fill="rgb(50, 49, 63)" stroke="none" stroke-width="1px">50</text><text x="0" y="174.46153846153848" dx="0em" dy="0.3em" style="text-anchor: end; visibility: inherit; font-family: &quot;Helvetica Neue&quot;, sans-serif; font-size: 12px; font-weight: 200;" fill="rgb(50, 49, 63)" stroke="none" stroke-width="1px">60</text><text x="0" y="145.38461538461536" dx="0em" dy="0.3em" style="text-anchor: end; visibility: inherit; font-family: &quot;Helvetica Neue&quot;, sans-serif; font-size: 12px; font-weight: 200;" fill="rgb(50, 49, 63)" stroke="none" stroke-width="1px">70</text><text x="0" y="116.30769230769232" dx="0em" dy="0.3em" style="text-anchor: end; visibility: inherit; font-family: &quot;Helvetica Neue&quot;, sans-serif; font-size: 12px; font-weight: 200;" fill="rgb(50, 49, 63)" stroke="none" stroke-width="1px">80</text><text x="0" y="87.23076923076923" dx="0em" dy="0.3em" style="text-anchor: end; visibility: inherit; font-family: &quot;Helvetica Neue&quot;, sans-serif; font-size: 12px; font-weight: 200;" fill="rgb(50, 49, 63)" stroke="none" stroke-width="1px">90</text><text x="0" y="58.15384615384613" dx="0em" dy="0.3em" style="text-anchor: end; visibility: inherit; font-family: &quot;Helvetica Neue&quot;, sans-serif; font-size: 12px; font-weight: 200;" fill="rgb(50, 49, 63)" stroke="none" stroke-width="1px">100</text><text x="0" y="29.076923076923038" dx="0em" dy="0.3em" style="text-anchor: end; visibility: inherit; font-family: &quot;Helvetica Neue&quot;, sans-serif; font-size: 12px; font-weight: 200;" fill="rgb(50, 49, 63)" stroke="none" stroke-width="1px">110</text><text x="0" y="0" dx="0em" dy="0.3em" style="text-anchor: end; visibility: hidden; font-family: &quot;Helvetica Neue&quot;, sans-serif; font-size: 12px; font-weight: 200;" fill="rgb(50, 49, 63)" stroke="none" stroke-width="1px">120</text></g><line x1="46" y1="0" x2="46" y2="378" fill="rgb(0, 0, 0)" stroke="rgb(204, 204, 204)" stroke-width="1px"></line></g></g><g transform="translate(46, 0)" clip-path="url(#clip_0)"><clipPath id="clip_0"><rect width="1321" height="378"></rect></clipPath><g><g><g><line x1="0" y1="0" x2="0" y2="378" fill="rgb(0, 0, 0)" stroke="rgb(60, 60, 60)" stroke-width="1px" opacity="0.25"></line><line x1="110.08333333333333" y1="0" x2="110.08333333333333" y2="378" fill="rgb(0, 0, 0)" stroke="rgb(60, 60, 60)" stroke-width="1px" opacity="0.25"></line><line x1="220.16666666666666" y1="0" x2="220.16666666666666" y2="378" fill="rgb(0, 0, 0)" stroke="rgb(60, 60, 60)" stroke-width="1px" opacity="0.25"></line><line x1="330.25" y1="0" x2="330.25" y2="378" fill="rgb(0, 0, 0)" stroke="rgb(60, 60, 60)" stroke-width="1px" opacity="0.25"></line><line x1="440.3333333333333" y1="0" x2="440.3333333333333" y2="378" fill="rgb(0, 0, 0)" stroke="rgb(60, 60, 60)" stroke-width="1px" opacity="0.25"></line><line x1="550.4166666666667" y1="0" x2="550.4166666666667" y2="378" fill="rgb(0, 0, 0)" stroke="rgb(60, 60, 60)" stroke-width="1px" opacity="0.25"></line><line x1="660.5" y1="0" x2="660.5" y2="378" fill="rgb(0, 0, 0)" stroke="rgb(60, 60, 60)" stroke-width="1px" opacity="0.25"></line><line x1="770.5833333333334" y1="0" x2="770.5833333333334" y2="378" fill="rgb(0, 0, 0)" stroke="rgb(60, 60, 60)" stroke-width="1px" opacity="0.25"></line><line x1="880.6666666666666" y1="0" x2="880.6666666666666" y2="378" fill="rgb(0, 0, 0)" stroke="rgb(60, 60, 60)" stroke-width="1px" opacity="0.25"></line><line x1="990.75" y1="0" x2="990.75" y2="378" fill="rgb(0, 0, 0)" stroke="rgb(60, 60, 60)" stroke-width="1px" opacity="0.25"></line><line x1="1100.8333333333335" y1="0" x2="1100.8333333333335" y2="378" fill="rgb(0, 0, 0)" stroke="rgb(60, 60, 60)" stroke-width="1px" opacity="0.25"></line><line x1="1210.9166666666665" y1="0" x2="1210.9166666666665" y2="378" fill="rgb(0, 0, 0)" stroke="rgb(60, 60, 60)" stroke-width="1px" opacity="0.25"></line><line x1="1321" y1="0" x2="1321" y2="378" fill="rgb(0, 0, 0)" stroke="rgb(60, 60, 60)" stroke-width="1px" opacity="0.25"></line></g><g><line x1="0" y1="378" x2="1321" y2="378" fill="rgb(0, 0, 0)" stroke="rgb(60, 60, 60)" stroke-width="1px" opacity="0.25"></line><line x1="0" y1="348.9230769230769" x2="1321" y2="348.9230769230769" fill="rgb(0, 0, 0)" stroke="rgb(60, 60, 60)" stroke-width="1px" opacity="0.25"></line><line x1="0" y1="319.8461538461538" x2="1321" y2="319.8461538461538" fill="rgb(0, 0, 0)" stroke="rgb(60, 60, 60)" stroke-width="1px" opacity="0.25"></line><line x1="0" y1="290.7692307692308" x2="1321" y2="290.7692307692308" fill="rgb(0, 0, 0)" stroke="rgb(60, 60, 60)" stroke-width="1px" opacity="0.25"></line><line x1="0" y1="261.6923076923077" x2="1321" y2="261.6923076923077" fill="rgb(0, 0, 0)" stroke="rgb(60, 60, 60)" stroke-width="1px" opacity="0.25"></line><line x1="0" y1="232.6153846153846" x2="1321" y2="232.6153846153846" fill="rgb(0, 0, 0)" stroke="rgb(60, 60, 60)" stroke-width="1px" opacity="0.25"></line><line x1="0" y1="203.53846153846152" x2="1321" y2="203.53846153846152" fill="rgb(0, 0, 0)" stroke="rgb(60, 60, 60)" stroke-width="1px" opacity="0.25"></line><line x1="0" y1="174.46153846153848" x2="1321" y2="174.46153846153848" fill="rgb(0, 0, 0)" stroke="rgb(60, 60, 60)" stroke-width="1px" opacity="0.25"></line><line x1="0" y1="145.38461538461536" x2="1321" y2="145.38461538461536" fill="rgb(0, 0, 0)" stroke="rgb(60, 60, 60)" stroke-width="1px" opacity="0.25"></line><line x1="0" y1="116.30769230769232" x2="1321" y2="116.30769230769232" fill="rgb(0, 0, 0)" stroke="rgb(60, 60, 60)" stroke-width="1px" opacity="0.25"></line><line x1="0" y1="87.23076923076923" x2="1321" y2="87.23076923076923" fill="rgb(0, 0, 0)" stroke="rgb(60, 60, 60)" stroke-width="1px" opacity="0.25"></line><line x1="0" y1="58.15384615384613" x2="1321" y2="58.15384615384613" fill="rgb(0, 0, 0)" stroke="rgb(60, 60, 60)" stroke-width="1px" opacity="0.25"></line><line x1="0" y1="29.076923076923038" x2="1321" y2="29.076923076923038" fill="rgb(0, 0, 0)" stroke="rgb(60, 60, 60)" stroke-width="1px" opacity="0.25"></line><line x1="0" y1="0" x2="1321" y2="0" fill="rgb(0, 0, 0)" stroke="rgb(60, 60, 60)" stroke-width="1px" opacity="0.25"></line></g></g></g><g><g><line x1="0" y1="348.9230769230769" x2="1321" y2="348.9230769230769" fill="rgb(0, 0, 0)" stroke="rgb(153, 153, 153)" stroke-width="1.5px"></line></g></g><g><g><line x1="110.08333333333333" y1="0" x2="110.08333333333333" y2="378" fill="rgb(0, 0, 0)" stroke="rgb(153, 153, 153)" stroke-width="1.5px"></line></g></g><g><g><g><g><g><path stroke="rgb(255, 112, 67)" stroke-width="2px" d="M110.96400000000001,339.2392631347363L112.39508333333333,340.5647614200188L112.72533333333332,338.4773986327881L116.24799999999999,338.2891849729602L116.35808333333333,337.56643308802904L116.57825,339.1983936571766L119.11016666666667,339.6380880892723L119.22025,340.06684728131387L119.99083333333334,339.0761109632038L120.10091666666668,338.8985487018709L121.86225,339.1763942911713L125.71516666666666,338.6529679010705L128.7975,338.08945022187044L129.23783333333333,338.2934248330554L129.34791666666666,338.08249879902144L130.779,338.39174976376734L133.75125,338.42752323541214L134.30166666666668,338.06133803011335L135.29241666666667,338.28058423345726L136.17308333333332,337.9091216080288L137.27391666666668,338.1682847897988L139.14533333333333,337.96881507030173L140.35625,337.81740832371014L142.77808333333334,337.67951387436966L143.10833333333335,337.7083520356179L143.3285,337.42239742832356L146.19066666666666,337.41139685512655L146.52091666666666,337.8660226598293L147.62175,337.7395652954165L148.3923333333333,337.868058436613L149.71333333333334,337.81794574525725L150.37383333333332,337.87366297606775L150.92425,337.73343697775033L151.36458333333331,337.7970985686861L154.33683333333332,337.7555768735516L155.32758333333334,337.7957825459309L156.86875,337.60146885051205L157.8595,337.6081992614168L159.1805,337.5054597238727L160.17125,337.6244727993341L165.7855,337.61598630472486L166.55608333333333,337.5310913213229L166.66616666666667,337.5331177001566L166.99641666666668,337.47039548988005L167.6569166666667,337.54634025906626L167.767,337.53908600582906L169.41825,337.64171078911323L170.6291666666667,337.5344145990972L170.73925,337.5055813452586L170.84933333333333,337.3815181853303L170.9594166666667,337.3822903745405L172.06025,337.4717621748606L173.16108333333332,329.7987426962333L173.93166666666664,330.00457101249197L174.81233333333333,330.2701435284889L175.25266666666664,330.49492444646444L176.3535,330.61436423799654L177.67450000000002,330.682338605648L179.21566666666666,330.80486919063856L180.20641666666666,323.9548303849914L181.52741666666665,324.08361397231704L182.73833333333334,317.5546481033694L183.06858333333335,318.09743675307266L183.61900000000003,318.56240295689884L185.93075,318.71045722443705L186.15091666666666,319.0862572721868L186.70133333333334,319.4944350319089L187.14166666666665,319.94188035889886L187.91224999999997,320.28970235333634L191.76516666666666,320.54503272801026L192.09541666666667,320.85452270083744L192.75591666666668,315.0448490825989L193.5265,309.37951023345965L193.74666666666667,309.91218398499257L193.96683333333334,310.43064535923816L197.37941666666666,310.8707878197057L197.92983333333336,311.50344484812393L198.03991666666667,312.0271811384585L199.69116666666667,312.52159254934804L199.80124999999998,312.9215266133241L200.24158333333332,313.4809722536957L200.46175,313.8720145990658L201.01216666666667,314.04581782681805L202.66341666666668,314.50629429093794L203.5440833333333,314.8620022490888L203.65416666666667,315.178019540776L204.20458333333332,315.5621213769228L205.4155,315.8968444145801L206.5163333333333,316.3137555314606L207.28691666666668,311.36097996472773L207.6171666666667,311.78430847479694L207.83733333333333,312.40060038584306L209.2684166666667,312.8316615527963L209.59866666666667,313.2724919380706L210.5894166666667,313.75123851580355L212.46083333333334,314.193021210272L213.56166666666664,314.556204237557L217.30450000000002,314.8910640072837L217.63475,315.23593760510437L219.61625,310.62359775673764L220.82716666666664,310.99654543130714L221.04733333333334,311.34228902391214L224.68008333333333,311.84597794069424L224.90025000000003,312.2012984325031L226.22125000000003,307.73764424255626L226.5515,307.9213616172377L227.32208333333335,308.3439644974194L227.98258333333334,308.8067939441241L230.07416666666666,309.3254709494898L234.58758333333336,309.4372295728057L234.80775,309.86957049311053L237.1195,305.60055947348064L237.33966666666666,306.12954394824794L238.22033333333334,306.5516000724303L238.77075,302.37147380282175L239.43125,298.3124836985624L241.52283333333332,298.95780725309663L242.29341666666667,299.5073758817244L243.28416666666666,299.9810818041467L243.8345833333333,300.2954374869263L244.49508333333333,300.686473902054L245.81608333333332,301.1552652509876L246.91691666666668,301.36400027295736L247.35725,301.9411663546673L247.6875,302.37203658443605L248.23791666666668,302.8039286758056L249.0085,303.2805003375612L250.87991666666667,303.72038006937805L251.76058333333333,304.3104762445536L253.41183333333333,300.4119188648323L253.96225,300.9575158750096L254.18241666666668,301.4172846946523L254.62275,301.8842327684026L254.73283333333333,298.0924144963895L256.16391666666664,298.450252026079L259.0260833333333,299.0905486175781L261.558,299.577370947219L264.42016666666666,300.01334900511097L265.521,300.56103015361913L265.6310833333333,300.9908135538622L265.7411666666667,301.6051513949841L266.07141666666666,302.1392440855222L266.29158333333334,302.5069841796789L266.6218333333333,303.0898846912361L266.95208333333335,303.5241217028441L270.58483333333334,299.84439036428137L271.0251666666667,300.390967296321L271.90583333333336,300.7529029247296L272.89658333333335,297.1530417834723L273.00666666666666,293.6325463506318L274.10749999999996,290.1325075912272L276.41925,290.71078577271567L277.40999999999997,287.28038154493186L278.5108333333333,287.9058168219963L280.1620833333333,288.583648568433L280.60241666666667,289.18663326057805L283.46458333333334,289.8014306930043L284.45533333333333,290.4359120810592L285.88641666666666,290.89915945375947L286.32675,287.5333567521077L288.30825,284.2071789448729L288.6385,280.954939584006L288.74858333333333,281.773549400089L289.0788333333333,282.58672906751156L289.299,279.37829935792286L289.7393333333333,280.2335684833553L290.7300833333333,280.90321722911324L290.95025,281.38076017194663L291.3905833333333,282.02816102278587L291.5006666666667,282.7707723267564L291.94100000000003,283.3986310726856L292.4914166666667,284.02311428540315L297.225,284.7005475617213L299.4266666666667,285.0979704541449L301.51825,281.89913009337215L301.8485,282.6096896040337L302.72916666666663,279.46604315369086L303.49975,280.13443724216654L306.2518333333333,277.05273298793946L306.58208333333334,277.7539927306253L308.12325000000004,278.52797217260235L308.5635833333333,279.31370061599966L309.44425,276.2342809627911L309.7745,273.22720450632335L310.10474999999997,274.12329506905206L310.435,274.88850072173466L313.7375,275.56358504764165L313.9576666666667,272.57256213508515L315.4988333333333,269.610850113154L316.04925,270.2628232505383L316.5996666666667,271.1353712127683L317.81058333333334,268.2517343675381L319.2416666666667,265.3569252909409L319.57191666666665,266.24106746053565L321.4433333333333,267.099771664451L323.31475,267.60789814185944L323.97525,268.5351512326659L324.74583333333334,269.31755999533715L326.287,266.445188517237L328.04833333333335,266.9681115417635L328.7088333333333,267.80992523249984L329.4794166666667,268.73467092752253L333.0020833333333,269.33036319280785L334.76341666666667,270.0539191234784L336.1945,270.812161128986L338.6163333333334,271.62635804719093L339.27683333333334,272.4535174520214L339.7171666666666,273.150416496875L340.1575,273.7768054311612L340.7079166666667,274.474876982214L342.2490833333333,275.1800803197941L342.46925,275.9745103992242L345.11125,276.68153752062057L348.5238333333333,273.7832676208265L349.51458333333335,274.50010104384495L349.62466666666666,275.1477196324095L350.065,272.2939687701874L351.1658333333333,272.82415462793205L351.49608333333333,273.48446288578896L351.71625,270.6561996964365L351.8263333333333,271.2923489785719L352.92716666666666,271.96601642341307L353.9179166666667,272.6774721169918L354.68850000000003,273.30010959649866L355.1288333333333,274.0057989604056L357.55066666666664,274.6866933776993L359.7523333333333,275.2646541708734L359.8624166666666,275.8102432232927L360.1926666666667,272.9706773097052L360.30275,273.64326608800286L360.96325,274.3960608488792L361.0733333333333,274.92831705597155L362.28425,275.61073842347685L364.15566666666666,276.25883914131396L364.596,276.83113341664694L364.92625,274.02546156517553L365.91700000000003,274.7815513251595L369.99008333333336,275.5549961532954L374.17325,276.29109681371455L376.15475,273.52435081963415L376.26483333333334,270.7704832611521L378.79675000000003,271.48869100403135L381.65891666666664,272.25289552324125L381.76899999999995,272.8125210551055L382.8698333333333,273.6423488136709L386.06225,270.8973310760891L386.1723333333333,268.190825139092L386.72275,265.50877051426306L388.04375,262.8440220685115L389.8050833333333,263.6399061111538L390.24541666666664,261.04317457180446L390.5756666666667,261.8985297199223L391.01599999999996,262.7008738111308L391.6765,263.5890258464932L394.09833333333336,260.9698718545236L395.0890833333333,261.67023686510504L395.30925,262.5437551031259L395.6395,263.4089077224663L396.18991666666665,264.2565393487821L396.96049999999997,265.14160997334676L397.8411666666667,265.95915638100564L398.2815,263.3255224383943L399.1621666666666,264.24058944170895L401.1436666666666,265.1412142610953L401.8041666666666,265.9982465052925L403.23525,263.3663424298941L403.4554166666667,264.1282074174618L404.3360833333333,265.02508516114466L405.98733333333337,265.82981486979844L406.0974166666667,266.7046212633467L407.5285,267.468638729483L408.51925000000006,268.1228331295964L408.73941666666667,268.82251766793104L408.95958333333334,269.6363107365669L409.51,270.45319596824385L409.6200833333333,271.1527513278303L410.3906666666666,271.8811063605796L410.61083333333335,272.68342833723L411.27133333333336,273.3301067549239L411.60158333333334,274.0629259646165L412.152,274.8455386794615L412.9225833333333,275.49187905798584L413.80325,276.1300210160551L415.78475,276.7174068158843L416.0049166666667,277.48420920498256L417.54608333333334,278.21272707982L417.76624999999996,278.69907592387744L418.31666666666666,276.00477441035423L418.8670833333333,273.32524935879417L419.63766666666663,273.844865363835L420.29816666666665,274.4588572297491L422.49983333333336,275.2166924642477L423.71074999999996,275.79764394562756L424.37125,276.39341083640784L425.47208333333333,277.0216576874067L426.13258333333334,277.76516106514606L426.683,278.21034942580343L428.4443333333333,278.879859401053L429.325,279.4450143735421L431.63675,280.15114829766935L436.26025,280.7191405811937L436.7005833333333,278.030131138285L437.0308333333333,278.76164100892026L437.25100000000003,279.4183581205354L437.6913333333333,276.7077650407297L438.13166666666666,274.0197172773119L438.35183333333333,274.7810869699616L440.55350000000004,272.12979000787755L441.76441666666665,269.5488356385231L443.85600000000005,266.9456400915674L444.7366666666667,264.38761293168704L446.05766666666665,261.83890758292296L446.2778333333333,259.34757232887307L447.26858333333337,256.88478748380504L448.47950000000003,254.44066014507834L448.80975,252.00135752385359L450.13075,249.58281763311825L451.23158333333333,247.20930599273902L451.45175,244.87309058711892L451.78200000000004,242.53983452322026L451.89208333333335,240.27439469346248L454.53408333333334,241.24882182932888L454.9744166666666,239.0109728721847L456.95591666666667,236.77538739584642L459.2676666666667,234.57678453246393L460.3685,232.3939683619609L463.0105,230.21239343858693L463.12058333333334,231.43028686874285L469.7255833333333,229.23853043754679L470.4961666666667,227.0852938100445L470.71633333333335,224.96389328635323L472.1474166666667,222.85658754529902L473.24825000000004,220.77864436317623L473.35833333333335,218.73843470292363L473.7986666666667,216.6810237778704L474.3490833333333,217.9143251910936L475.33983333333333,218.87697142178894L475.44991666666664,216.86068207592308L475.56,214.8301571858217L476.77091666666666,212.85436648066963L477.21125,210.91240787645137L477.9818333333333,212.21683260281458L480.4036666666667,210.26467034147882L481.6145833333333,208.34010066169074L481.83475000000004,206.4253024230648L482.16499999999996,204.50647001456613L484.2565833333333,202.64861072729207L485.68766666666664,203.98132936479087L486.2380833333333,202.1278443473022L487.449,200.25433445935602L487.88933333333335,201.75895842598766L487.99941666666666,199.9023099224315L489.76075000000003,198.07560896208426L490.86158333333333,196.27440276297688L491.19183333333336,194.4724298362613L492.29266666666666,192.68657994301861L494.4943333333334,190.9505578661657L494.6044166666667,189.20705531532153L495.1548333333334,187.47917090780453L495.81533333333334,185.76424696966154L496.47583333333336,184.11272705562214L497.13633333333337,182.44151782794512L501.3195,180.83051548009047L501.4295833333333,179.2045207890415L502.53041666666667,177.58168934458857L503.0808333333334,175.97833750051333L503.1909166666667,174.39763767662254L503.8514166666667,176.10590771007074L505.943,174.57123251900987L506.16316666666665,173.0298058233903L507.59425,171.50968285847233L508.36483333333337,169.9880875467527L508.4749166666667,168.46062561645132L509.46566666666666,166.97038044574563L510.23625,168.8333296236413L511.22700000000003,170.53346170258342L513.2085000000001,169.01627786932713L513.4286666666667,167.53793854798295L513.869,166.03090336369803L516.18075,164.59973143911373L517.1715,163.14341243423686L520.0336666666667,164.6461962580546L521.6849166666667,163.19772101814448L522.1252499999999,161.742411541198L522.2353333333333,160.3093508228585L522.6756666666666,158.88174816910308L523.116,157.47563628489712L523.3361666666667,156.10262562310763L524.8773333333334,154.74859619260423L524.9874166666666,153.37496218893546L527.5193333333333,152.02864863200617L527.6294166666667,150.72700404126107L528.2899166666666,149.39687634464343L528.8403333333333,148.12691069964865L529.0605,146.83811135853452L530.1613333333333,148.77282312116287L531.042,147.47207158085615L532.2529166666667,146.22655261578228L533.0235,144.97204826660388L533.5739166666666,143.7084940281995L534.4545833333334,145.67957155183734L535.2251666666667,144.40988202816717L535.33525,143.14638668501013L535.4453333333333,141.90532939496353L535.7755833333333,140.68226735182674L536.5461666666666,139.48795279635465L538.7478333333333,138.29507828337424L539.29825,140.28687709679346L544.8024166666667,139.06611951018257L545.24275,137.8974146314336L545.7931666666667,136.70932958064526L546.56375,138.7726035602179L547.1141666666667,137.59932376996264L548.2149999999999,139.69121091387302L550.3065833333334,138.5142629918049L552.6183333333333,137.32166224518383L553.2788333333333,136.1350286084437L556.9115833333333,138.2027343953807L557.0216666666666,137.00799409619003L557.13175,138.90202292817926L558.6729166666667,137.72622554576458L560.9846666666667,136.54485378822181L562.5258333333334,135.38387828666163L563.8468333333334,134.22047953598747L565.4980833333333,133.0735686964643L568.2501666666666,131.93950488593688L568.6905,130.81527413700087L568.8005833333333,129.70463104513476L570.672,128.6267256136261L570.8921666666666,127.54971569353103L571.00225,126.4637541805314L572.98375,125.40520135715084L573.7543333333333,124.34443940887317L577.3870833333333,126.51159169194995L578.0475833333334,125.43467763521701L578.7080833333333,124.37310651053218L579.0383333333334,123.34429528071016L579.4786666666666,122.31383428790235L579.6988333333334,121.30950322443806L580.1391666666666,120.29179546254528L580.6895833333333,119.28960163005593L581.1299166666666,118.31685338263856L581.6803333333334,117.3265896645126L582.7811666666666,116.37065737187436L583.9920833333333,115.40046147779657L589.0559166666667,117.65774339869694L589.7164166666666,116.67611775919056L590.2668333333334,115.73548205383372L596.8718333333333,114.80266892013151L597.7525,116.99881545287144L598.8533333333334,118.95536825757131L599.0735,117.99306000004509L599.5138333333333,120.16914409048314L601.4953333333333,119.18880511665088L602.04575,118.20638720401075L604.1373333333333,117.22330619677291L604.4675833333333,116.29046548298822L607.2196666666666,115.32446646232472L607.7700833333333,114.38901885585375L607.8801666666667,113.46516198031173L608.1003333333333,112.56182250322917L609.0910833333334,111.63848210064839L612.5036666666666,110.72613695316511L612.9440000000001,109.82363189398967L615.6960833333334,108.9540981235773L616.2465000000001,108.06615284714815L617.23725,107.18980560552473L619.21875,106.31893112080553L620.7599166666666,105.48315188607256L620.87,104.65567665480961L622.52125,103.80275764798591L623.84225,102.97164712231745L626.0439166666666,102.16194843267698L626.2640833333334,101.35251285167595L626.3741666666667,100.54941390989507L626.7044166666667,99.76469692770479L627.0346666666667,98.99060484261497L628.0254166666666,98.22041834226007L628.9060833333334,97.4492383206998L629.2363333333333,96.70541457277318L630.9976666666666,95.94519320382534L631.438,95.20493450198427L632.2085833333334,94.47366153416993L634.8505833333332,93.72524296330653L636.6119166666666,92.98792022242327L639.03375,92.27810500759887L640.5749166666667,91.58932566634434L642.7765833333333,90.88112251986342L643.7673333333333,93.36340432440926L645.4185833333333,92.64231979476187L645.5286666666667,91.9353278019388L646.5194166666666,94.51732212317381L647.4000833333333,93.78986994542117L647.7303333333333,93.05845088533135L648.7210833333334,92.34673122254054L649.4916666666667,94.79040157253678L650.8126666666666,94.03839188698015L650.9227500000001,93.32086723848522L651.253,92.60750936074385L652.6840833333333,91.88830172908172L654.1151666666666,91.1896919206821L654.5554999999999,90.4778209113577L654.7756666666667,89.79936365002123L655.3260833333334,89.1024306333673L656.0966666666667,88.43454359995803L656.7571666666666,87.77129015124802L656.86725,90.32320717511499L659.2890833333333,89.63608518253471L659.8395,88.97037601087845L660.83025,91.49267591205387L662.0411666666666,90.79302679315526L663.8024999999999,90.12876394915054L665.6739166666666,89.45242817235408L666.3344166666666,88.75539252531809L666.5545833333334,88.11134963299509L666.77475,87.43919951884487L667.3251666666666,86.763413166676L667.7655,86.11369156622987L669.8570833333333,85.4523832995601L671.2881666666666,84.80775850602726L672.8293333333334,84.17264673544702L673.5999166666667,83.56584852149865L675.0310000000001,82.96225509862899L676.5721666666667,82.34409046763841L676.7923333333333,81.72645569506858L677.0124999999999,81.12159981632692L677.1225833333333,80.52047297776716L677.34275,79.91478025680135L678.00325,79.33694235391721L678.2234166666666,82.02708500957755L678.4435833333332,81.40631398711167L678.5536666666667,83.82330103413568L678.7738333333334,83.1997386882008L682.62675,82.5942200938523L683.0670833333334,81.97526822401727L683.5074166666666,81.35973542841714L684.4981666666666,80.7680817198567L685.3788333333334,83.46267774196014L685.92925,82.8260874462917L686.5897500000001,82.21657729222522L687.4704166666667,81.61461302088958L688.3510833333333,81.0467896485257L689.6720833333334,80.47678994000609L695.3964166666666,79.87850137525385L695.83675,79.31538968353186L696.0569166666667,78.75816353528319L696.3871666666666,78.22317836339636L697.5980833333333,77.64493425414213L698.5888333333334,80.22901593634697L699.2493333333333,79.65204801634059L702.44175,79.05806277370095L702.6619166666667,78.48531171827017L703.2123333333333,77.90278863381747L703.3224166666666,80.50236629348052L705.5240833333334,79.92306060156426L706.0745,79.37114976672376L707.1753333333334,81.95902539745623L708.056,81.35341654738227L710.5879166666667,80.7569096687356L712.6795,80.168385489954L713.34,79.57932514168039L713.67025,82.16344969906129L714.99125,81.56600190153648L715.7618333333332,80.98612311293044L717.303,80.40066525954245L718.0735833333333,79.83608199747948L719.0643333333334,79.28631116401823L719.3945833333333,81.87797750304401L720.7155833333333,81.26838208460725L722.2567499999999,80.65878029830952L723.2475,80.05409226865635L723.5777499999999,79.47788169310508L723.908,78.89980444076923L725.6693333333334,78.34009574805981L726.1096666666666,77.7638771189466L726.6600833333334,77.21292099528165L727.9810833333333,76.64396704394608L728.7516666666667,76.10498873810309L729.3020833333334,75.57035581140525L731.2835833333334,75.06011186829971L731.8340000000001,77.75416533490198L732.0541666666667,77.19361778266529L732.6045833333333,76.63258545939891L733.3751666666667,76.09784174019507L735.3566666666667,75.54447201552887L736.0171666666668,74.99054601335405L737.6684166666666,74.49678930610571L742.5120833333334,73.96314022963679L742.9524166666666,76.52522305739501L743.0625,75.9634549023105L744.05325,75.42918748173116L744.6036666666666,74.91206032409616L745.5944166666667,77.52081887671062L746.3649999999999,76.98325737380719L751.31875,76.43247562558645L752.4195833333333,75.86818681512398L752.5296666666667,75.31293251167682L752.8599166666667,74.78218250402216L756.7128333333333,74.27394924428648L757.7035833333333,73.73862406146787L758.0338333333333,73.23475499764476L758.1439166666667,72.7547923015797L759.24475,72.25326366088422L760.56575,71.78091940837754L763.6480833333333,71.27471655079L764.0884166666667,70.80570644225827L764.52875,73.50257306935072L764.6388333333333,72.99381224435854L765.6295833333334,72.4720075929061L773.4455,71.96382164444736L774.106,71.46227470500503L775.2068333333333,70.9497660003434L779.1698333333334,70.47894723966584L780.38075,69.99400889945457L781.0412500000001,69.50519423239831L783.02275,69.03573546198572L783.68325,68.5992844045063L783.9034166666668,68.11896577689089L786.5454166666667,67.67813627644574L787.7563333333334,67.23620073927623L788.4168333333333,66.80898020044793L789.0773333333334,66.37502708236093L790.3983333333334,65.94235427109965L791.0588333333334,65.52792408217175L791.7193333333335,65.07690400511495L791.8294166666667,64.63032004915704L792.0495833333333,64.22834730259484L792.3798333333333,63.81680794459362L793.1504166666667,63.39258184952007L793.59075,62.98981728728165L793.8109166666667,62.616753412181026L794.3613333333334,62.219623591127686L795.242,65.00643103419543L796.0125833333334,64.58927194439292L796.4529166666666,64.16123601652578L799.8655,66.84626514846389L803.2780833333333,66.37987348460268L804.0486666666667,65.92699731945174L806.1402499999999,68.59708454131942L806.2503333333333,68.15702068296645L806.6906666666667,67.68766530709587L807.0209166666666,67.25062034300282L807.131,66.79575938853463L807.2410833333333,66.34685428164323L808.2318333333334,65.92703529946124L809.0024166666667,65.47424106965713L809.5528333333333,65.0363274700274L810.2133333333333,64.59128773446122L813.5158333333334,64.17457150875515L813.6259166666666,63.78577383302979L815.9376666666667,66.45168846266972L817.0385000000001,66.04657555536471L820.5611666666666,65.60440744312382L821.8821666666666,65.16230176599169L823.3132499999999,64.75825891710241L823.4233333333333,67.45746988774368L825.8451666666666,67.00718388169537L826.7258333333334,66.57429532847078L828.5972499999999,69.39639301092774L829.25775,68.9551705571634L830.1384166666666,71.64108541015497L832.1199166666667,71.15156160693437L833.6610833333333,73.76476097421806L835.7526666666668,73.24400292905494L836.4131666666666,75.98481886418182L836.52325,75.47119647130131L837.2938333333334,74.95981376129737L839.16525,77.59738095758627L839.9358333333333,77.0293944128112L841.3669166666667,76.49817408073636L841.477,75.97964097350979L845.6601666666667,75.4424066954906L845.77025,74.91485368759919L847.6416666666668,74.39039850743029L848.082,73.87485388157342L849.73325,73.3718607573503L850.8340833333333,72.85257413261553L853.9164166666666,72.36318039446638L854.35675,71.86558764715556L855.1273333333334,71.38414259531697L856.2281666666667,70.90862203683224L859.2004166666667,70.43008309864939L859.7508333333334,69.96303083422623L859.8609166666668,69.48208385470309L860.8516666666666,69.03689323852046L865.0348333333334,68.57465467584586L865.8054166666666,68.10297064734135L866.7961666666666,67.62734722101345L866.90625,70.28558083272958L867.0163333333334,69.7947737839408L869.7684166666667,69.3060988853212L870.2087499999999,68.82247977056232L870.6490833333334,68.36166203248672L870.9793333333333,67.92200208354814L872.0801666666666,67.47268504351979L874.83225,69.99454512727323L875.0524166666667,69.51911407141966L875.9330833333333,69.02950712231268L876.3734166666667,71.6955420903522L877.2540833333334,71.21543759470558L877.47425,70.72864570242751L880.5565833333333,70.22961603821471L880.6666666666666,69.73214646145345L881.6574166666667,69.28711100269408L881.8775833333333,68.79551422537662L882.6481666666667,68.33981608719131L883.0885,67.86982794358079L884.4095,67.42514345992453L886.5010833333333,67.00788520311983L886.72125,69.74369201031931L888.1523333333333,69.25895812921596L889.4733333333334,68.80040838577008L889.5834166666666,68.32044269806778L889.9136666666666,67.85236813967134L890.1338333333333,67.40157571383332L891.7850833333334,66.94678741994261L892.00525,66.49281302929847L892.5556666666666,66.05976043287109L893.4363333333333,68.80784426229928L894.0968333333333,68.35829098325007L894.4270833333334,67.90647808119934L900.8119166666665,67.4447935045344L901.8026666666666,67.00722159484269L902.0228333333333,69.64098967089387L902.243,69.20907587872478L902.57325,68.75168675903012L902.6833333333334,71.45279224989667L904.55475,70.95304345361649L905.4354166666667,70.49252334483964L905.8757499999999,70.02251649550493L906.206,69.53637676540365L906.3160833333334,69.06446339154832L907.0866666666666,68.60703137278307L910.3891666666667,68.12373201595352L912.7009166666666,70.93392848404471L913.14125,70.46736896126669L913.4715,69.97740256684108L914.3521666666667,69.4797834306317L914.7925,69.01122811204618L915.12275,68.5429546836516L917.4345,68.09563823456449L917.7647499999999,67.63671238704302L918.7555,67.20016943964572L919.08575,66.75238920579187L919.1958333333333,66.32257744004238L919.5260833333334,69.0025869008046L921.3975,68.52734144513829L921.72775,71.18308452950589L922.058,70.67492295960983L922.1680833333332,70.18934935593143L922.4983333333333,72.90563481280356L924.2596666666667,75.52991124556348L926.35125,75.0169192303581L930.6445,74.50224379938624L931.0848333333333,73.98951405052549L931.305,73.47122785022248L931.7453333333334,72.95953640205715L932.4058333333334,72.4599463148511L934.1671666666667,71.96055629663618L934.3873333333333,71.470075042634L934.4974166666667,73.87288476110177L936.91925,76.36040294584654L940.6620833333333,79.08355219906343L942.5335,78.51755337711404L943.9645833333334,77.97925339193239L945.9460833333333,77.44408573981343L947.5973333333334,76.88052611427202L948.80825,76.3395687306541L949.6889166666666,75.82872751459519L952.2208333333333,75.31627519082764L952.3309166666667,74.78290687114139L952.5510833333333,77.14372337507945L953.8720833333333,76.62149688025386L954.0922499999999,76.08930356740092L955.1930833333333,75.57358334039031L955.6334166666667,75.02826184493381L959.3762499999999,74.49903575997018L959.8165833333334,73.98003946276344L961.0275,73.45366951984448L962.3485000000001,72.93651485738309L964.6602499999999,72.45664935910912L965.7610833333333,71.96451510432729L966.8619166666666,71.44712562209168L970.935,70.96729635433724L971.5955,70.50811159483538L973.3568333333334,70.04776368523278L975.6685833333333,69.57779420130765L976.9895833333334,72.22323545590478L978.9710833333334,74.91320237540128L979.6315833333334,74.39413687860309L980.182,76.99160545338725L980.2920833333333,76.43912550239912L982.6038333333333,78.78283297602832L983.3744166666665,78.21155168435132L983.9248333333334,77.6561059555612L984.6954166666666,77.11897247984751L987.0071666666666,76.5740622509278L988.4382499999999,79.11506256359996L991.4105,78.54216931962145L992.40125,77.96863300006305L994.6029166666667,77.43728778628741L994.8230833333333,76.89235471512643L995.8138333333334,76.32484067461348L997.4650833333334,75.78358394530397L998.3457500000001,75.2701331226848L1001.9784999999999,74.71835175869057L1003.4095833333334,74.179613930686L1004.7305833333332,76.90234250191793L1006.602,79.54469180304051L1007.0423333333333,78.98157704344072L1007.8129166666666,78.40502965374327L1008.91375,77.8398796108001L1009.1339166666667,80.45539738396366L1009.244,79.86126139414989L1009.3540833333334,79.28247423130904L1009.6843333333333,78.73551146416776L1010.0145833333332,78.17152513143003L1010.4549166666667,77.60486538105613L1011.4456666666667,77.048747706077L1011.9960833333333,79.56501390883795L1013.0969166666667,82.18717896114885L1014.7481666666666,81.59772792769422L1015.6288333333334,80.98564104264909L1016.0691666666667,80.3990285385753L1017.8304999999999,79.80223412382128L1021.46325,79.21551545455674L1021.9035833333332,78.65279182302004L1023.5548333333334,78.11102168533722L1026.4170000000001,80.69794609674193L1026.74725,80.125246853931L1028.1783333333333,79.53812201203289L1028.2884166666665,78.96839287426371L1028.6186666666665,78.38322482194849L1029.38925,77.81310161078483L1029.7195,77.24179189178432L1030.1598333333334,79.8816777465845L1030.8203333333333,79.29466652818377L1032.3615,78.75318075580293L1033.1320833333334,78.20657498988913L1033.5724166666666,77.62952965348683L1033.6825,77.06688109354593L1034.0127499999999,76.50771133187658L1034.4530833333333,75.97225236687973L1035.2236666666665,75.41947842834418L1035.7740833333335,74.86720282573208L1036.9850000000001,74.335227733144L1038.63625,73.80961273508876L1039.29675,73.29982518527021L1039.7370833333334,72.76800634035868L1041.0580833333333,72.25294603682698L1042.59925,71.78429465629972L1043.3698333333334,71.28990916640277L1043.9202500000001,70.82027830729379L1044.0303333333334,70.36281847254446L1044.1404166666666,69.87452282094677L1044.2504999999999,69.37955197751091L1044.911,68.88983529449581L1045.6815833333333,68.40382184221471L1047.553,71.03732437280394L1050.1950000000002,73.70013004363517L1053.3874166666667,73.19477388828398L1054.5983333333334,72.67910158783974L1054.8185,72.16985825320444L1056.46975,71.66484997848266L1057.0201666666667,71.18260788818753L1058.7815,70.72957224161149L1059.77225,70.2625451488359L1060.8730833333334,69.77735155251065L1062.5243333333333,69.28855491742496L1064.1755833333334,68.79828178680577L1064.6159166666666,68.3425393804647L1065.1663333333333,67.88487000951523L1066.8175833333332,67.45325301834544L1067.6982500000001,70.1530079947417L1068.7990833333333,69.66417964275712L1069.3495,69.22988504935768L1071.3310000000001,68.7893427381344L1072.8721666666668,68.34343524628287L1073.0923333333333,67.868161807442L1077.1654166666667,67.39506411429949L1077.2755,66.94658172485902L1078.8166666666666,66.52215686774628L1079.8074166666668,66.10004584970278L1080.90825,65.69284970070697L1082.5595,65.25916629727942L1084.4309166666667,64.83088943478123L1085.0914166666666,64.39100046184649L1085.5317499999999,63.95382579590938L1086.7426666666668,63.53956625429123L1086.85275,63.11995398924404L1087.2930833333332,62.692520570281545L1087.51325,62.28145237541605L1089.2745833333333,61.91988953310664L1089.6048333333333,61.51791126083367L1090.9258333333332,64.37256054193034L1091.0359166666667,63.93858019682904L1091.3661666666667,63.54012357853554L1092.13675,63.11722280083325L1092.4669999999999,65.84984533838724L1093.2375833333333,68.52431560099586L1093.788,68.07433063510382L1094.2283333333335,67.64044988037409L1094.8888333333332,67.18381681000233L1096.3199166666666,69.85651845623607L1096.5400833333333,69.37670290077949L1097.5308333333332,71.9791709913028L1099.2921666666668,71.47192278555673L1099.5123333333333,71.02074925725685L1099.7325,70.55969683983847L1099.9526666666666,70.05973285196382L1100.72325,72.69763727775484L1103.0349999999999,75.34615822887304L1103.8055833333333,74.80701970838186L1106.1173333333334,74.26504016106657L1107.98875,73.7732902812989L1109.1996666666666,73.2483705813599L1110.7408333333333,72.72699612287607L1111.7315833333334,72.2268388419655L1112.6122500000001,71.71277379669249L1114.2635,74.40576161726125L1114.8139166666667,73.87257102656343L1114.924,73.37982674024056L1117.23575,72.88015972383226L1117.3458333333333,72.38275632913172L1118.9970833333332,71.88434898942188L1121.9693333333335,74.53984095374102L1123.4004166666666,74.03375523089704L1125.82225,73.51646944502966L1126.7029166666666,72.98844771205557L1129.3449166666667,72.46975759627287L1130.1155,71.95039533421152L1131.2163333333333,71.45042252451856L1131.9869166666667,70.98036163034493L1132.3171666666667,70.49321546833352L1134.2986666666668,70.05604015316948L1135.5095833333335,72.69892465023696L1136.7205000000001,72.1800942947184L1137.8213333333333,71.68778686863618L1139.2524166666667,71.17787594583251L1141.01375,73.57407243580565L1141.344,76.13454630355676L1142.1145833333335,75.58865023352882L1143.1053333333332,75.07133760305533L1143.5456666666666,74.55165511298549L1143.6557500000001,74.01504653303863L1144.2061666666666,73.50028229219168L1145.0868333333333,76.18744361564444L1146.8481666666667,75.68150630003873L1149.0498333333333,75.14398502746883L1149.7103333333332,74.6249422818999L1152.0220833333333,74.08987825782242L1154.0035833333334,73.61298083165275L1154.6640833333333,73.13125649753346L1155.2145,72.61704700700238L1156.4254166666667,72.11577028542274L1158.4069166666666,71.63469603550504L1158.6270833333333,71.1671382814032L1158.9573333333333,70.70372804580575L1160.3884166666667,70.20120783525863L1160.4985,69.7473438801357L1162.2598333333333,69.25853499411818L1163.6909166666667,68.81111989979485L1169.5253333333333,68.37128746121061L1170.07575,71.06113545061424L1170.5160833333334,70.56999952291795L1172.05725,70.09488949207258L1174.5891666666666,69.63151816375648L1175.69,69.17376036046414L1176.02025,68.6886765282186L1176.9009166666667,68.21665108428158L1178.5521666666666,67.7370072490632L1181.5244166666666,67.2808907032275L1181.8546666666668,70.09863609096243L1182.1849166666666,69.61822380733634L1183.0655833333333,69.13546191114807L1183.94625,68.66734620565728L1184.2765,71.33957100440028L1184.4966666666667,70.87727561138848L1186.58825,70.39087083844345L1187.24875,69.91230520790305L1188.6798333333334,69.4234483047756L1188.7899166666666,68.93666319581075L1189.0100833333333,68.47253664511919L1192.0924166666666,68.02188925029549L1192.3125833333334,67.55323185047507L1192.7529166666668,67.10545856447015L1193.0831666666668,66.64814229762527L1195.505,66.22804954565567L1196.826,65.79107527776222L1198.5873333333334,65.33897367084035L1199.3579166666668,64.94010595793361L1200.1285,64.51288937615755L1201.77975,64.11434814770774L1202.9906666666666,63.69113174134634L1203.9814166666667,63.25697671478696L1204.6419166666667,62.84946259008234L1205.5225833333334,62.42911285115338L1208.0545,62.01069058829876L1209.5956666666666,61.60930507067036L1210.5864166666668,61.23724183483961" style="fill: none;" fill="none"></path></g></g></g></g><g opacity="0.2"><g><g><g><path stroke="rgb(255, 112, 67)" stroke-width="2px" d="M110.96400000000001,339.2392631347363L112.39508333333333,341.8770047224485L112.72533333333332,334.365085205665L116.24799999999999,337.7357617158156L116.35808333333333,334.74698159144475L116.57825,347.1166419570263L119.11016666666667,342.18544248434216L119.22025,342.9504803290734L119.99083333333334,331.4986869005057L120.10091666666668,337.3782974646642L121.86225,341.80652914414037L125.71516666666666,333.2294786453247L128.7975,331.75106101402866L129.23783333333333,340.76670240255504L129.34791666666666,335.34169120788573L130.779,342.6761815584623L133.75125,338.9535964855781L134.30166666666668,332.36766201166006L135.29241666666667,341.8725249547225L136.17308333333332,331.5165075302124L137.27391666666668,342.84027471542356L139.14533333333333,334.21141572365394L140.35625,334.84399608465344L142.77808333333334,334.8620288482079L143.10833333333335,338.3202362207266L143.3285,331.1326298420246L146.19066666666666,337.1609607916612L146.52091666666666,348.5624909984378L147.62175,334.66882759974555L148.3923333333333,341.08423696297865L149.71333333333334,336.5265585752634L150.37383333333332,339.35027915514434L150.92425,333.91551118997427L151.36458333333331,339.5761011820573L154.33683333333332,336.5657631287208L155.32758333333334,338.9761679429274L156.86875,331.7613529718839L157.8595,337.81512265205384L159.1805,334.27665450756365L160.17125,341.4451286315918L165.7855,337.33786863547107L166.55608333333333,334.69270582932694L166.66616666666667,337.60219642199L166.99641666666668,335.29149867571317L167.6569166666667,340.23337641862724L167.767,337.27780494689944L169.41825,341.4026484819559L170.6291666666667,333.53537981326764L170.73925,336.4131390644954L170.84933333333333,332.6051617989173L170.9594166666667,337.4124863697932L172.06025,341.0240928576543L173.16108333333332,20.604280559833228L173.93166666666664,338.41952387369594L174.81233333333333,341.2819817579709L175.25266666666664,339.94468720876256L176.3535,335.7036317605239L177.67450000000002,333.61702222824096L179.21566666666666,336.16333412757285L180.20641666666666,20.605411940354543L181.52741666666665,329.8571743891789L182.73833333333334,21.314720975435705L183.06858333333335,343.01656279563906L183.61900000000003,340.155596780777L185.93075,325.66396621557385L186.15091666666666,336.9316066668584L186.70133333333334,339.0875493049622L187.14166666666665,341.64808457081136L187.91224999999997,337.33864853932306L191.76516666666666,333.18800578484166L192.09541666666667,336.3324172826914L192.75591666666668,21.651317772498487L193.5265,20.527368868314284L193.74666666666667,337.3267690438491L193.96683333333334,337.36022171974184L197.37941666666666,333.93950033921465L197.92983333333336,344.9569587267362L198.03991666666667,339.9627643401806L199.69116666666667,339.11876833622273L199.80124999999998,334.61702118653517L200.24158333333332,344.07996447086333L200.46175,335.4334051278921L201.01216666666667,323.7052567555354L202.66341666666668,340.2980869476612L203.5440833333333,334.9385107260484L203.65416666666667,333.14884143976064L204.20458333333332,337.5665135677044L205.4155,335.21204831049994L206.5163333333333,340.54378855045024L207.28691666666668,21.49086139385514L207.6171666666667,336.7317072574909L207.83733333333333,348.96656724046915L209.2684166666667,338.5784696652339L209.59866666666667,339.7759236409114L210.5894166666667,342.7203816560598L212.46083333333334,341.0955057070805L213.56166666666664,336.81072919552145L217.30450000000002,335.53636491482075L217.63475,336.62742475362927L219.61625,22.828508112980785L220.82716666666664,334.40378507467415L221.04733333333334,333.1674121636611L224.68008333333333,343.8221240978975L224.90025000000003,334.88463150171134L226.22125000000003,21.212608337402344L226.5515,319.77825714991644L227.32208333333335,335.7638736137977L227.98258333333334,338.9946409188784L230.07416666666666,343.33113580116856L234.58758333333336,316.80175305880033L234.80775,338.50252574773936L237.1195,21.474622755784253L237.33966666666666,341.5079687778766L238.22033333333334,334.9142331856948L238.77075,20.133182584322412L239.43125,22.975387925368068L241.52283333333332,342.9337376998021L242.29341666666667,337.12760031773496L243.28416666666666,332.5528909096351L243.8345833333333,322.005457349924L244.49508333333333,327.8092841368455L245.81608333333332,333.81020545225874L246.91691666666668,315.9652552237877L247.35725,342.48225794572096L247.6875,332.7609789628249L248.23791666666668,333.38790519420917L249.0085,337.1627396656917L250.87991666666667,335.11672256909884L251.76058333333333,346.59150738991224L253.41183333333333,20.00983992356521L253.96225,340.34707114879905L254.18241666666668,334.7336850973276L254.62275,335.84477841303897L254.73283333333333,21.322086040790225L256.16391666666664,324.66240190359264L259.0260833333333,346.15812608462113L261.558,335.487300990178L264.42016666666666,332.28282926999606L265.521,341.23519029984107L265.6310833333333,333.015466095851L265.7411666666667,347.53202576774817L266.07141666666666,342.1965975357936L266.29158333333334,330.17602265431333L266.6218333333333,347.08624598429753L266.95208333333335,336.4017490020165L270.58483333333334,20.38197537935696L271.0251666666667,342.02753309836754L271.90583333333336,328.40666137108434L272.89658333333335,21.291605318509596L273.00666666666666,23.065499056302542L274.10749999999996,20.362564439039943L276.41925,335.40909292514505L277.40999999999997,21.380984379695008L278.5108333333333,336.5192933376019L280.1620833333333,341.41396020742565L280.60241666666667,336.310341497568L283.46458333333334,337.97649411788353L284.45533333333333,340.28435717362623L285.88641666666666,327.3891537446242L286.32675,21.728185096153823L288.30825,20.86511922983027L288.6385,22.821941669170712L288.74858333333333,346.9079913331912L289.0788333333333,347.44713366673545L289.299,22.85197871281548L289.7393333333333,348.77852709511154L290.7300833333333,334.6980244269738L290.95025,319.83229998075046L291.3905833333333,334.27622469388524L291.5006666666667,342.8385991353255L291.94100000000003,334.29815489695625L292.4914166666667,334.76096856043887L297.225,339.86073489189147L299.4266666666667,317.528082715548L301.51825,20.313937260554383L301.8485,340.83809237480165L302.72916666666663,21.31676189716046L303.49975,335.1343185864962L306.2518333333333,22.95469031700725L306.58208333333334,335.6915137877831L308.12325000000004,342.60032083071195L308.5635833333333,344.4860884831502L309.44425,20.316865539550747L309.7745,22.843970313439L310.10474999999997,348.8769844591904L310.435,338.8427094092736L313.7375,332.0897638981159L313.9576666666667,21.6714829664964L315.4988333333333,20.720834937462428L316.04925,325.14950835888203L316.5996666666667,344.72052203508525L317.81058333333334,24.64120154747593L319.2416666666667,20.3822415865385L319.57191666666665,341.1891371506911L321.4433333333333,340.0136840893672L323.31475,310.8252964606652L323.97525,347.5296211508604L324.74583333333334,336.0804993262658L326.287,20.95307851938105L328.04833333333335,311.7313852897057L328.7088333333333,339.98367408238926L329.4794166666667,348.14133726404265L333.0020833333333,320.55987748366135L334.76341666666667,332.37376675238977L336.1945,336.21710520524243L338.6163333333334,341.9616378087264L339.27683333333334,344.0129128437776L339.7171666666666,333.5277263567998L340.1575,328.1227638904865L340.7079166666667,335.12551017907947L342.2490833333333,336.5357940233671L342.46925,345.1886307257872L345.11125,338.364705991745L348.5238333333333,20.588751807579627L349.51458333333335,337.206514109098L349.62466666666666,331.8740542778602L350.065,22.002112285907458L351.1658333333333,319.384658740117L351.49608333333333,331.5460412759047L351.71625,21.651073749248837L351.8263333333333,327.3697303258456L352.92716666666666,331.4237565113948L353.9179166666667,335.54680661421554L354.68850000000003,328.38703275093667L355.1288333333333,336.5148981461158L357.55066666666664,335.07044411439165L359.7523333333333,326.57957195135265L359.8624166666666,324.3067241521982L360.1926666666667,20.279374694824185L360.30275,333.5638764601487L360.96325,341.5367891715123L361.0733333333333,322.45173705174375L362.28425,336.6082009902367L364.15566666666666,334.2509114412161L364.596,328.0945251318125L364.92625,22.442330228365392L365.91700000000003,342.6502728058742L369.99008333333336,345.05300163305725L374.17325,342.5008515468011L376.15475,24.414459580641505L376.26483333333334,22.573304161658655L378.79675000000003,336.2821609717149L381.65891666666664,341.2631191767179L381.76899999999995,323.39724672757666L382.8698333333333,348.72218328794605L386.06225,22.30401341364933L386.1723333333333,22.856814809945945L386.72275,22.167116370567896L388.04375,20.85216381366439L389.8050833333333,335.981108379364L390.24541666666664,24.80498551588795L390.5756666666667,339.7832817737873L391.01599999999996,335.8224225557767L391.6765,344.60052706828486L394.09833333333336,21.863595815805297L395.0890833333333,325.66153846153844L395.30925,342.422470169801L395.6395,342.5879941903628L396.18991666666665,341.89549780258767L396.96049999999997,346.2753376612296L397.8411666666667,340.9629248252282L398.2815,21.5181698138897L399.1621666666666,348.32330066126127L401.1436666666666,347.960939263839L401.8041666666666,344.86963375898506L403.23525,20.97268911508411L403.4554166666667,334.3471910916842L404.3360833333333,347.7491018662086L405.98733333333337,340.10894189247716L406.0974166666667,347.5106345648949L407.5285,338.0917133001181L408.51925000000006,328.6371898577763L408.73941666666667,333.5902725659884L408.95958333333334,345.0191097846398L409.51,346.17445051211575L409.6200833333333,336.042208473499L410.3906666666666,339.4874306201935L410.61083333333335,347.2049849592722L411.27133333333336,333.43468417387743L411.60158333333334,342.2181159496307L412.152,347.6786534112233L412.9225833333333,335.68130363317636L413.80325,335.59348160670356L415.78475,331.4854708231412L416.0049166666667,349.02530581011223L417.54608333333334,346.22349710556176L417.76624999999996,324.12961595975435L418.31666666666666,24.175649554912866L418.8670833333333,22.72899099496692L419.63766666666663,322.46918748708873L420.29816666666665,331.94792261123655L422.49983333333336,346.2147316795129L423.71074999999996,330.2551471930284L424.37125,332.271034350762L425.47208333333333,335.97833677438587L426.13258333333334,347.5762197127709L426.683,320.0339241908147L428.4443333333333,341.81134513708264L429.325,332.5957904742314L431.63675,346.59546288893773L436.26025,334.19274655855617L436.7005833333333,24.742914874737096L437.0308333333333,347.7002774587044L437.25100000000003,341.33965720763575L437.6913333333333,21.000552133413464L438.13166666666666,20.313981628417935L438.35183333333333,346.67651760303056L440.55350000000004,21.64909937931941L441.76441666666665,25.59695188082179L443.85600000000005,20.774897179236802L444.7366666666667,22.374757972130396L446.05766666666665,20.596072505070595L446.2778333333333,23.426697833721448L447.26858333333337,23.561553955078125L448.47950000000003,22.780901395357546L448.80975,20.69601111778843L450.13075,20.145295011080236L451.23158333333333,21.945321420522873L451.45175,23.053186974158677L451.78200000000004,20.906381342961254L451.89208333333335,24.99186295729413L454.53408333333334,333.8863739820627L454.9744166666666,26.173534451998194L456.95591666666667,24.06621621938848L459.2676666666667,25.301683748685377L460.3685,24.538268103966345L463.0105,22.392505117563132L463.12058333333334,347.4940560620565L469.7255833333333,20.28567493145283L470.4961666666667,21.725855783315808L470.71633333333335,22.563787254920385L472.1474166666667,21.725567392202493L473.24825000000004,22.376244295560355L473.35833333333335,23.86702669583832L473.7986666666667,20.094937485914954L474.3490833333333,335.7991044704731L475.33983333333333,310.9241258767935L475.44991666666664,23.997179823655358L475.56,20.537018878643323L476.77091666666666,23.733057931753308L477.21125,24.965774653508106L477.9818333333333,337.16061832721414L480.4036666666667,23.214841285118666L481.6145833333333,23.872838885967553L481.83475000000004,22.83427593524641L482.16499999999996,20.46878110445465L484.2565833333333,24.401548532339234L485.68766666666664,331.8860072576083L486.2380833333333,24.18767324594353L487.449,20.335566594050476L487.88933333333335,346.29714827904337L487.99941666666666,21.493168522761437L489.76075000000003,22.49106832650989L490.86158333333333,23.088592529296875L491.19183333333336,21.161540926419775L492.29266666666666,20.87598935640773L494.4943333333334,23.885239703838636L494.6044166666667,21.373641498272207L495.1548333333334,21.101888333834154L495.81533333333334,20.588441232534592L496.47583333333336,24.99947204589847L497.13633333333337,21.386929673414954L501.3195,25.535702045147275L501.4295833333333,22.42216503436748L502.53041666666667,21.062511854905324L503.0808333333334,21.297018197866578L503.1909166666667,21.861710181603087L503.8514166666667,340.99495495649484L505.943,26.400254234900842L506.16316666666665,24.16919403076173L507.59425,24.6695526123047L508.36483333333337,22.96917642446664L508.4749166666667,20.838542879544775L509.46566666666666,22.910034062312207L510.23625,348.9659860523274L511.22700000000003,334.9622100976797L513.2085000000001,22.246756685697108L513.4286666666667,24.492724491999695L513.869,20.175309870793285L516.18075,26.05469512939453L517.1715,22.132043574406566L520.0336666666667,310.18927759023813L521.6849166666667,22.88321368877706L522.1252499999999,20.73487736628607L522.2353333333333,21.427326613206105L522.6756666666666,20.49888469989486L523.116,21.146899531437782L523.3361666666667,22.95511181171122L524.8773333333334,23.414363567645694L524.9874166666666,20.11164198655348L527.5193333333333,21.38910369873048L527.6294166666667,24.39633530836835L528.2899166666666,20.275914001464855L528.8403333333333,24.821667832594642L529.0605,21.6796688373272L530.1613333333333,336.6939127701979L531.042,21.104062359149623L532.2529166666667,25.201345825195347L533.0235,23.050768925593445L533.5739166666666,20.884774193396936L534.4545833333334,337.31343511434704L535.2251666666667,20.944426785982614L535.33525,20.261028583233212L535.4453333333333,21.1806412916917L535.7755833333333,21.686989534818167L536.5461666666666,23.269214101938132L538.7478333333333,22.19631042480472L539.29825,334.1757883291978L544.8024166666667,20.21293381911056L545.24275,24.092925673264745L545.7931666666667,20.99837810809794L546.56375,339.75383191108705L547.1141666666667,23.29277343749999L548.2149999999999,343.52585144959966L550.3065833333334,23.813452500563415L552.6183333333333,21.076975778432995L553.2788333333333,20.453829134427565L556.9115833333333,339.80818739670974L557.0216666666666,20.500526310847363L557.13175,323.6300865026621L558.6729166666667,23.031313617412877L560.9846666666667,21.289009798490042L562.5258333333334,22.101207909217237L563.8468333333334,20.68478604830227L565.4980833333333,21.130749629094055L568.2501666666666,21.234770085261403L568.6905,21.054880582369265L568.8005833333333,21.255622981144825L570.672,23.359791095440244L570.8921666666666,22.355790710449185L571.00225,20.38108802208535L572.98375,21.98605111929089L573.7543333333333,20.695656174879787L577.3870833333333,338.2955032165234L578.0475833333334,20.1800350482647L578.7080833333333,20.60463550274187L579.0383333333334,22.76523953951323L579.4786666666666,21.560740778996376L579.6988333333334,23.0989524254432L580.1391666666666,20.760832566481383L580.6895833333333,21.263853219839234L581.1299166666666,23.159647662823033L581.6803333333334,20.444312227689295L582.7811666666666,22.836050649789627L583.9920833333333,20.459020174466673L589.0559166666667,338.57664226385265L589.7164166666666,20.593876295823293L590.2668333333334,23.654837388258727L596.8718333333333,23.477454669658925L597.7525,332.0322645334097L598.8533333333334,310.5504902326144L599.0735,23.748830707256616L599.5138333333333,333.30839105019203L601.4953333333333,23.15796168400692L602.04575,21.961648794320922L604.1373333333333,20.903453063964832L604.4675833333333,24.88349445049579L607.2196666666666,20.65860900878903L607.7700833333333,22.70776097224308L607.8801666666667,22.910721764197717L608.1003333333333,24.00958064152644L609.0910833333334,21.11661846454325L612.5036666666666,21.27343667837289L612.9440000000001,21.327121793306787L615.6960833333334,23.682434199406543L616.2465000000001,20.980653146597092L617.23725,21.23368307260364L619.21875,20.891629028320324L620.7599166666666,23.49089813232422L620.87,23.470644202599146L622.52125,20.11381601186895L623.84225,21.41525855431189L626.0439166666666,22.699641653207664L626.2640833333334,21.90905069204473L626.3741666666667,21.7210196861854L626.7044166666667,22.7339601956881L627.0346666666667,22.99637392484226L628.0254166666666,22.603230285644543L628.9060833333334,21.728185096153823L629.2363333333333,23.664398662860606L630.9976666666666,21.287878417968784L631.438,22.502160292405335L632.2085833333334,22.647642517089878L634.8505833333332,20.20934002216046L636.6119166666666,20.556252347506017L639.03375,22.543244934081997L640.5749166666667,23.915897897573586L642.7765833333333,21.29397899921122L643.7673333333333,337.2876684775719L645.4185833333333,21.778831012432363L645.5286666666667,22.45162529578579L646.5194166666666,348.2962286387499L647.4000833333333,22.284913048377405L647.7303333333333,21.158412992037256L648.7210833333334,22.378218665489783L649.4916666666667,335.0422940914448L650.8126666666666,20.098664386455823L650.9227500000001,22.76694770226112L651.253,22.45852449857273L652.6840833333333,21.15930034930892L654.1151666666666,22.481751075157774L654.5554999999999,20.46101672832782L654.7756666666667,23.064633882962767L655.3260833333334,20.545936819223243L656.0966666666667,22.73105410062351L656.7571666666666,22.519485943134043L656.86725,341.4001680410825L659.2890833333333,22.02760162353519L659.8395,23.46474327674275L660.83025,339.70155824881334L662.0411666666666,21.939353942871094L663.8024999999999,24.75360752986029L665.6739166666666,22.885143690842824L666.3344166666666,20.146736966646642L666.5545833333334,24.71505185640774L666.77475,21.27237184964696L667.3251666666666,20.234851543719913L667.7655,22.147505774864783L669.8570833333333,20.34184464674729L671.2881666666666,21.336328124999966L672.8293333333334,21.63448016826925L673.5999166666667,23.81243203970098L675.0310000000001,23.521245751014135L676.5721666666667,21.46490619365983L676.7923333333333,20.896265470064577L677.0124999999999,21.546898005558887L677.1225833333333,21.31001798189601L677.34275,20.251556044358495L678.00325,22.41466686542219L678.2234166666666,347.04374781021704L678.4435833333332,20.248672133225682L678.5536666666667,321.9536939180814L678.7738333333334,21.761128234863293L682.62675,22.930576383150537L683.0670833333334,20.985112116887024L683.5074166666666,20.703642390324546L684.4981666666666,22.46238450270431L685.3788333333334,349.0192348435521L685.92925,20.086285752516517L686.5897500000001,22.142980252779466L687.4704166666667,22.282095689039977L688.3510833333333,25.076893967848548L689.6720833333334,24.289918987567603L695.3964166666666,20.900546968900244L695.83675,23.802715477576612L696.0569166666667,23.823368718073937L696.3871666666666,25.478822444035472L697.5980833333333,20.633297142615675L698.5888333333334,335.01550699380726L699.2493333333333,22.761579190767748L702.44175,20.487282503568167L702.6619166666667,22.00610539362981L703.2123333333333,20.457689138559203L703.3224166666666,336.867894414755L705.5240833333334,22.790795428936292L706.0745,24.938532785268933L707.1753333333334,337.1998714080224L708.056,21.62028245192306L710.5879166666667,21.919344036395728L712.6795,22.116071143517104L713.34,21.472005051832923L713.67025,337.0812539247366L714.99125,22.627078012319714L715.7618333333332,23.778379704402028L717.303,22.640499291053175L718.0735833333333,24.133433532714832L719.0643333333334,25.043218759390015L719.3945833333333,337.59320014440095L720.7155833333333,21.11863720233623L722.2567499999999,20.506405052771925L723.2475,20.384615267240065L723.5777499999999,22.616651564378003L723.908,21.852526033841627L725.6693333333334,23.103744154710057L726.1096666666666,20.896398573655347L726.6600833333334,22.836915823129516L727.9810833333333,20.489944575383106L728.7516666666667,22.907837853064905L729.3020833333334,22.80048980712894L731.2835833333334,24.695995858999368L731.8340000000001,343.6812089901704L732.0541666666667,21.86095592792219L732.6045833333333,21.25045412503755L733.3751666666667,23.30925609882064L735.3566666666667,20.915609858586265L736.0171666666668,20.30521897536056L737.6684166666666,25.750198481633106L742.5120833333334,21.276675532414345L742.9524166666666,329.48321014551016L743.0625,20.497797687237096L744.05325,22.67736898568961L744.6036666666666,23.85125392033501L745.5944166666667,335.11477731557994L746.3649999999999,23.90198857234077L751.31875,22.044372675969043L752.4195833333333,20.144873516376208L752.5296666666667,20.480383300781284L752.8599166666667,22.368169344388548L756.7128333333333,24.08232175386871L757.7035833333333,20.870177166278552L758.0338333333333,23.4716868473933L758.1439166666667,25.35161977914663L759.24475,22.718963857797462L760.56575,25.127961378831117L763.6480833333333,21.276409325232862L764.0884166666667,24.479902179424585L764.52875,339.887832564574L764.6388333333333,22.739395258976856L765.6295833333334,20.927988492525515L773.4455,21.76394559420072L774.106,21.91712564321665L775.2068333333333,20.320658991887L779.1698333333334,23.96725369966947L780.38075,22.08643341064453L781.0412500000001,21.213650982196498L783.02275,22.655451261080202L783.68325,25.47911083514873L783.9034166666668,20.663822232759912L786.5454166666667,24.12360605093147L787.7563333333334,23.5715145404522L788.4168333333333,24.59734391432545L789.0773333333334,23.49733147254358L790.3983333333334,23.19032804048976L791.0588333333334,24.577644582895118L791.7193333333335,20.51028724083534L791.8294166666667,20.501214012732873L792.0495833333333,24.506744736891505L792.3798333333333,23.14911029522233L793.1504166666667,21.470429992675747L793.59075,23.187776888333815L793.8109166666667,25.749133652907176L794.3613333333334,22.973014244666444L795.242,340.419323521394L796.0125833333334,23.361809833233167L796.4529166666666,21.858094200721155L799.8655,332.2144389812763L803.2780833333333,20.284432631272523L804.0486666666667,21.166598862868113L806.1402499999999,332.50179438224205L806.2503333333333,24.66149984506461L806.6906666666667,21.296241760253906L807.0209166666666,24.052085054837733L807.131,21.835533142089844L807.2410833333333,21.97462639441858L808.2318333333334,24.42918971135066L809.0024166666667,20.716198495718118L809.5528333333333,21.74854994553783L810.2133333333333,20.598424001840442L813.5158333333334,22.980911724384043L813.6259166666666,25.351375755896925L815.9376666666667,329.9932131913992L817.0385000000001,25.998170471191372L820.5611666666666,21.892190903883716L821.8821666666666,21.455633310171265L823.3132499999999,24.813925640399646L823.4233333333333,334.30959210029016L825.8451666666666,22.489936945988575L826.7258333333334,23.776449702336265L828.5972499999999,348.40894783918674L829.25775,25.332208838829615L830.1384166666666,337.19674624663133L832.1199166666667,22.751840444711547L833.6610833333333,332.13783647830667L835.7526666666668,21.754783630371094L836.4131666666666,346.9826042147783L836.52325,24.686212745079615L837.2938333333334,24.395647606482896L839.16525,338.396265407709L839.9358333333333,20.86700486403248L841.3669166666667,23.970581289438087L841.477,24.7059564443735L845.6601666666667,22.318876647949253L845.77025,22.748024808443517L847.6416666666668,22.52929124098557L848.082,22.894283470740675L849.73325,23.63189920278694L850.8340833333333,21.50079979529744L853.9164166666666,23.966943124624436L854.35675,22.658002413236204L855.1273333333334,23.772900273249718L856.2281666666667,23.882755103478075L859.2004166666667,23.10520829420824L859.7508333333334,23.773632342998837L859.8609166666668,21.918057368351867L860.8516666666666,25.00858964186449L865.0348333333334,22.85987619253308L865.8054166666666,21.453570204514733L866.7961666666666,20.58786445030796L866.90625,333.1893465262193L867.0163333333334,21.25265033428485L869.7684166666667,20.97437509390022L870.2087499999999,20.99032534085785L870.6490833333334,22.784228985126163L870.9793333333333,24.43677661602311L872.0801666666666,23.031890399639394L874.83225,319.4275846481323L875.0524166666667,22.494573387732885L875.9330833333333,20.602394925631017L876.3734166666667,335.3959392400888L877.2540833333334,23.72735666128301L877.47425,22.578672673152028L880.5565833333333,20.868735210712146L880.6666666666666,20.525150475135206L881.6574166666667,25.266233825683628L881.8775833333333,20.16858813946061L882.6481666666667,23.263468463604283L883.0885,21.379564608060377L884.4095,23.43750140850358L886.5010833333333,25.732872830904455L886.72125,340.3707580419687L888.1523333333333,21.308509474534276L889.4733333333334,23.439764169546265L889.5834166666666,20.8409165602464L889.9136666666666,21.548783639761155L890.1338333333333,22.80725590632511L891.7850833333334,21.95683488112229L892.00525,21.583035630446204L892.5556666666666,23.21936680720404L893.4363333333333,340.66827922967764L894.0968333333333,23.884884760929992L894.4270833333334,23.20920656644381L900.8119166666665,21.770600773737954L901.8026666666666,23.71817251352161L902.0228333333333,330.20186693484965L902.243,26.479184664212767L902.57325,23.501169292743384L902.6833333333334,338.68096497609065L904.55475,21.51111532358027L905.4354166666667,24.9313230074369L905.8757499999999,23.522443683330835L906.206,21.439882718599733L906.3160833333334,22.37515728290265L907.0866666666666,23.35016326904298L910.3891666666667,20.3073264488807L912.7009166666666,348.9693566017999L913.14125,24.30657912034252L913.4715,21.50046703632063L914.3521666666667,20.245388911320617L914.7925,22.652123671311585L915.12275,22.211462050217847L917.4345,23.837388962965747L917.7647499999999,22.229541954627393L918.7555,24.007362248347363L919.08575,22.44747690054089L919.1958333333333,23.795283860426707L919.5260833333334,334.1749328613281L921.3975,21.504127385066113L921.72775,333.95733483387875L922.058,20.394265277569104L922.1680833333332,22.14342393141527L922.4983333333333,341.6746740928063L924.2596666666667,335.19629217294545L926.35125,24.257219872107896L930.6445,23.575707303560705L931.0848333333333,23.255238224909874L931.305,22.186882253793556L931.7453333333334,22.32748401348408L932.4058333333334,23.025079932579615L934.1671666666667,22.5452414879432L934.3873333333333,22.936055814302904L934.4974166666667,311.63646856454704L936.91925,322.5072717519907L940.6620833333333,348.54805859602413L942.5335,22.50985811673678L943.9645833333334,24.71221231313848L945.9460833333333,24.486757014347972L947.5973333333334,21.113423978365404L948.80825,22.80883096548223L949.6889166666666,25.277924757737367L952.2208333333333,24.605818176269565L952.3309166666667,22.002445044884325L952.5510833333333,310.76376377986026L953.8720833333333,24.943147043081467L954.0922499999999,23.42443507267876L955.1930833333333,24.538645230806765L955.6334166666667,21.063798522949185L959.3762499999999,22.127140925480774L959.8165833333334,22.620267545259935L961.0275,21.363991487943167L962.3485000000001,21.758577082707347L964.6602499999999,24.968680748572694L965.7610833333333,23.262226163423975L966.8619166666666,20.245344543457065L970.935,23.482357318584775L971.5955,25.066023841271033L973.3568333333334,24.49039517916168L975.6685833333333,23.06807239239032L976.9895833333334,334.0257514660175L978.9710833333334,341.12311846292937L979.6315833333334,23.025146484375L980.182,334.0493745803833L980.2920833333333,21.762902949406566L982.6038333333333,310.7288490442129L983.3744166666665,21.674255957970274L983.9248333333334,22.685798879770118L984.6954166666666,23.9607759915865L987.0071666666666,22.646045274000926L988.4382499999999,330.5905543767489L991.4105,21.844384530874436L992.40125,21.20701798659104L994.6029166666667,24.851061542217565L994.8230833333333,22.961190209021936L995.8138333333334,20.15869410588192L997.4650833333334,22.21592102050778L998.3457500000001,24.454235370342587L1001.9784999999999,20.10873589148889L1003.4095833333334,20.860748995267386L1004.7305833333332,346.3715164441329L1006.602,341.05949356005743L1007.0423333333333,23.249625690166738L1007.8129166666666,21.34347135103667L1008.91375,21.906166780911917L1009.1339166666667,339.3177013580616L1009.244,21.05843001145587L1009.3540833333334,21.998585040752744L1009.6843333333333,24.60120391845703L1010.0145833333332,22.352196913499085L1010.4549166666667,21.52078751784103L1011.4456666666667,22.00790229210486L1011.9960833333333,328.6090523132911L1013.0969166666667,341.7131035951468L1014.7481666666666,23.257301330566406L1015.6288333333334,20.404691725510816L1016.0691666666667,22.339241497333262L1017.8304999999999,20.734544607309203L1021.46325,21.14492516150841L1021.9035833333332,22.956975261981654L1023.5548333333334,24.488953223595274L1026.4170000000001,336.74118118286134L1026.74725,23.44167198768025L1028.1783333333333,21.42661672738882L1028.2884166666665,22.57851738562954L1028.6186666666665,20.46512075570911L1029.38925,21.38395702655498L1029.7195,20.69507939265327L1030.1598333333334,341.17113835628214L1030.8203333333333,21.19359670785758L1032.3615,25.157998422476L1033.1320833333334,24.104505685659547L1033.5724166666666,20.51448000394379L1033.6825,21.376680696927565L1034.0127499999999,21.161718397874097L1034.4530833333333,22.973014244666444L1035.2236666666665,20.70630446213943L1035.7740833333335,20.20323944091797L1036.9850000000001,21.68048964280348L1038.63625,21.784288259652953L1039.29675,22.840997666579028L1039.7370833333334,20.12841303898739L1041.0580833333333,21.272016906738315L1042.59925,25.39685281606819L1043.3698333333334,22.35519174429089L1043.9202500000001,24.33570662278396L1044.0303333333334,25.082861445500328L1044.1404166666666,21.542305931678186L1044.2504999999999,20.386523085374108L1044.911,20.416781968336863L1045.6815833333333,20.297232759915858L1047.553,331.7071756509634L1050.1950000000002,337.2709445659931L1053.3874166666667,23.173335148737976L1054.5983333333334,21.63645453819862L1054.8185,21.76347973163314L1056.46975,21.67758354773889L1057.0201666666667,23.448726477989794L1058.7815,25.886563110351574L1059.77225,24.034537564791208L1060.8730833333334,21.751078913762L1062.5243333333333,20.905560537484973L1064.1755833333334,20.269059166541467L1064.6159166666666,23.2312352107121L1065.1663333333333,22.582754516601597L1066.8175833333332,24.72984853891228L1067.6982500000001,337.3873998091771L1068.7990833333333,21.277585073617786L1069.3495,26.241239811823903L1071.3310000000001,25.182201092059756L1072.8721666666668,24.205154184194726L1073.0923333333333,20.823014127291174L1077.1654166666667,20.565214655949546L1077.2755,22.553227703387904L1078.8166666666666,24.510094510591955L1079.8074166666668,24.31696120042068L1080.90825,25.386071425217835L1082.5595,22.330456660344055L1084.4309166666667,22.437294475848887L1085.0914166666666,20.847904498760556L1085.5317499999999,20.679350985013514L1086.7426666666668,22.533328716571475L1086.85275,21.583812068058876L1087.2930833333332,20.382130666879505L1087.51325,21.59095529409558L1089.2745833333333,26.12974337064304L1089.6048333333333,21.72709808349606L1090.9258333333332,346.94743540378715L1091.0359166666667,20.979854525052588L1091.3661666666667,24.097761770395095L1092.13675,21.25513493464541L1092.4669999999999,336.3469214145954L1093.2375833333333,333.2653278790988L1093.788,23.53107323279744L1094.2283333333335,24.691270681527953L1094.8888333333332,21.982368586613575L1096.3199166666666,334.4237006994394L1096.5400833333333,21.88034468430743L1097.5308333333332,329.5946136914767L1099.2921666666668,21.259926663912267L1099.5123333333333,26.359480168269215L1099.7325,24.920475064791162L1099.9526666666666,20.568630981445324L1100.72325,333.8223192655123L1103.0349999999999,337.52204379668603L1103.8055833333333,21.437886164738586L1106.1173333333334,20.614618272047778L1107.98875,25.09504042405348L1109.1996666666666,21.286591749924867L1110.7408333333333,21.11610823411212L1111.7315833333334,22.716190866323586L1112.6122500000001,20.82534344012919L1114.2635,340.98557739257814L1114.8139166666667,21.09179464486931L1114.924,24.602801161545983L1117.23575,23.417802077073304L1117.3458333333333,23.144429485614467L1118.9970833333332,22.546594707782447L1121.9693333333335,337.40942776019756L1123.4004166666666,23.93581906832179L1125.82225,22.309781235914954L1126.7029166666666,20.718949303260217L1129.3449166666667,21.123961345966052L1130.1155,20.538017155573925L1131.2163333333333,21.95738947941709L1131.9869166666667,24.44831226055436L1132.3171666666667,22.269827974759608L1134.2986666666668,26.779311077411364L1135.5095833333335,334.32278183423557L1136.7205000000001,20.82010803222653L1137.8213333333333,22.95331491323617L1139.2524166666667,20.700758479191734L1141.01375,310.77861869518574L1141.344,329.6014588209299L1142.1145833333335,21.549160766601574L1143.1053333333332,23.861347609299855L1143.5456666666666,23.107027376615065L1143.6557500000001,20.89482351449817L1144.2061666666666,22.54244631253755L1145.0868333333333,342.1966529956231L1146.8481666666667,25.597395559457595L1149.0498333333333,21.9332533616286L1149.7103333333332,23.24341418926531L1152.0220833333333,21.122319735013548L1154.0035833333334,26.403470905010522L1154.6640833333333,25.443882751464855L1155.2145,21.713832092285145L1156.4254166666667,22.49277648925778L1158.4069166666666,24.011577195387645L1158.6270833333333,24.882030310997607L1158.9573333333333,24.82916600153999L1160.3884166666667,20.454982698880713L1160.4985,24.817741276667675L1162.2598333333333,20.869578200120202L1163.6909166666667,24.51985544057993L1169.5253333333333,24.83063014103817L1170.07575,337.33941180522623L1170.5160833333334,21.950556828425476L1172.05725,23.061883075420667L1174.5891666666666,23.760543823242188L1175.69,23.858463698167043L1176.02025,20.668236835186292L1176.9009166666667,21.48888702392577L1178.5521666666666,20.2550389216496L1181.5244166666666,22.127961730956997L1181.8546666666668,349.03947266609623L1182.1849166666666,22.060101083608743L1183.0655833333333,21.34471365121692L1183.94625,22.326463552621703L1184.2765,335.87528963822587L1184.4966666666667,25.112521362304676L1186.58825,22.239391620342587L1187.24875,22.53683377779447L1188.6798333333334,21.02916940542366L1188.7899166666666,20.747455655611475L1189.0100833333333,22.526385145920983L1192.0924166666666,23.410082068810084L1192.3125833333334,21.158501727764417L1192.7529166666668,22.778128403883727L1193.0831666666668,21.376081730769215L1195.505,24.64091315636267L1196.826,22.532729750413182L1198.5873333333334,20.583072721041162L1199.3579166666668,25.454087360088636L1200.1285,22.22044654259315L1201.77975,24.660612487793003L1202.9906666666666,21.79464815579928L1203.9814166666667,20.277599980280968L1204.6419166666667,22.507395700307995L1205.5225833333334,20.81635894775394L1208.0545,20.58872962364785L1209.5956666666666,21.87388916015624L1210.5864166666668,24.404587730994592" style="fill: none;" fill="none"></path></g></g></g></g></g></g><g transform="translate(46, 378)" clip-path="url(#clip_1)"><clipPath id="clip_1"><rect width="1321" height="22"></rect></clipPath><g><g><line x1="0" y1="0" x2="0" y2="5" style="visibility: inherit;" fill="rgb(0, 0, 0)" stroke="rgb(204, 204, 204)" stroke-width="1px"></line><line x1="110.08333333333333" y1="0" x2="110.08333333333333" y2="5" style="visibility: inherit;" fill="rgb(0, 0, 0)" stroke="rgb(204, 204, 204)" stroke-width="1px"></line><line x1="220.16666666666666" y1="0" x2="220.16666666666666" y2="5" style="visibility: inherit;" fill="rgb(0, 0, 0)" stroke="rgb(204, 204, 204)" stroke-width="1px"></line><line x1="330.25" y1="0" x2="330.25" y2="5" style="visibility: inherit;" fill="rgb(0, 0, 0)" stroke="rgb(204, 204, 204)" stroke-width="1px"></line><line x1="440.3333333333333" y1="0" x2="440.3333333333333" y2="5" style="visibility: inherit;" fill="rgb(0, 0, 0)" stroke="rgb(204, 204, 204)" stroke-width="1px"></line><line x1="550.4166666666667" y1="0" x2="550.4166666666667" y2="5" style="visibility: inherit;" fill="rgb(0, 0, 0)" stroke="rgb(204, 204, 204)" stroke-width="1px"></line><line x1="660.5" y1="0" x2="660.5" y2="5" style="visibility: inherit;" fill="rgb(0, 0, 0)" stroke="rgb(204, 204, 204)" stroke-width="1px"></line><line x1="770.5833333333334" y1="0" x2="770.5833333333334" y2="5" style="visibility: inherit;" fill="rgb(0, 0, 0)" stroke="rgb(204, 204, 204)" stroke-width="1px"></line><line x1="880.6666666666666" y1="0" x2="880.6666666666666" y2="5" style="visibility: inherit;" fill="rgb(0, 0, 0)" stroke="rgb(204, 204, 204)" stroke-width="1px"></line><line x1="990.75" y1="0" x2="990.75" y2="5" style="visibility: inherit;" fill="rgb(0, 0, 0)" stroke="rgb(204, 204, 204)" stroke-width="1px"></line><line x1="1100.8333333333335" y1="0" x2="1100.8333333333335" y2="5" style="visibility: inherit;" fill="rgb(0, 0, 0)" stroke="rgb(204, 204, 204)" stroke-width="1px"></line><line x1="1210.9166666666665" y1="0" x2="1210.9166666666665" y2="5" style="visibility: inherit;" fill="rgb(0, 0, 0)" stroke="rgb(204, 204, 204)" stroke-width="1px"></line><line x1="1321" y1="0" x2="1321" y2="5" style="visibility: inherit;" fill="rgb(0, 0, 0)" stroke="rgb(204, 204, 204)" stroke-width="1px"></line></g><g transform="translate(0, 8)"><text x="0" y="0" dx="0em" dy="0.95em" style="text-anchor: middle; visibility: hidden; font-family: &quot;Helvetica Neue&quot;, sans-serif; font-size: 12px; font-weight: 200;" fill="rgb(50, 49, 63)" stroke="none" stroke-width="1px">-1k</text><text x="110.08333333333333" y="0" dx="0em" dy="0.95em" style="text-anchor: middle; visibility: inherit; font-family: &quot;Helvetica Neue&quot;, sans-serif; font-size: 12px; font-weight: 200;" fill="rgb(50, 49, 63)" stroke="none" stroke-width="1px">0</text><text x="220.16666666666666" y="0" dx="0em" dy="0.95em" style="text-anchor: middle; visibility: inherit; font-family: &quot;Helvetica Neue&quot;, sans-serif; font-size: 12px; font-weight: 200;" fill="rgb(50, 49, 63)" stroke="none" stroke-width="1px">1k</text><text x="330.25" y="0" dx="0em" dy="0.95em" style="text-anchor: middle; visibility: inherit; font-family: &quot;Helvetica Neue&quot;, sans-serif; font-size: 12px; font-weight: 200;" fill="rgb(50, 49, 63)" stroke="none" stroke-width="1px">2k</text><text x="440.3333333333333" y="0" dx="0em" dy="0.95em" style="text-anchor: middle; visibility: inherit; font-family: &quot;Helvetica Neue&quot;, sans-serif; font-size: 12px; font-weight: 200;" fill="rgb(50, 49, 63)" stroke="none" stroke-width="1px">3k</text><text x="550.4166666666667" y="0" dx="0em" dy="0.95em" style="text-anchor: middle; visibility: inherit; font-family: &quot;Helvetica Neue&quot;, sans-serif; font-size: 12px; font-weight: 200;" fill="rgb(50, 49, 63)" stroke="none" stroke-width="1px">4k</text><text x="660.5" y="0" dx="0em" dy="0.95em" style="text-anchor: middle; visibility: inherit; font-family: &quot;Helvetica Neue&quot;, sans-serif; font-size: 12px; font-weight: 200;" fill="rgb(50, 49, 63)" stroke="none" stroke-width="1px">5k</text><text x="770.5833333333334" y="0" dx="0em" dy="0.95em" style="text-anchor: middle; visibility: inherit; font-family: &quot;Helvetica Neue&quot;, sans-serif; font-size: 12px; font-weight: 200;" fill="rgb(50, 49, 63)" stroke="none" stroke-width="1px">6k</text><text x="880.6666666666666" y="0" dx="0em" dy="0.95em" style="text-anchor: middle; visibility: inherit; font-family: &quot;Helvetica Neue&quot;, sans-serif; font-size: 12px; font-weight: 200;" fill="rgb(50, 49, 63)" stroke="none" stroke-width="1px">7k</text><text x="990.75" y="0" dx="0em" dy="0.95em" style="text-anchor: middle; visibility: inherit; font-family: &quot;Helvetica Neue&quot;, sans-serif; font-size: 12px; font-weight: 200;" fill="rgb(50, 49, 63)" stroke="none" stroke-width="1px">8k</text><text x="1100.8333333333335" y="0" dx="0em" dy="0.95em" style="text-anchor: middle; visibility: inherit; font-family: &quot;Helvetica Neue&quot;, sans-serif; font-size: 12px; font-weight: 200;" fill="rgb(50, 49, 63)" stroke="none" stroke-width="1px">9k</text><text x="1210.9166666666665" y="0" dx="0em" dy="0.95em" style="text-anchor: middle; visibility: inherit; font-family: &quot;Helvetica Neue&quot;, sans-serif; font-size: 12px; font-weight: 200;" fill="rgb(50, 49, 63)" stroke="none" stroke-width="1px">10k</text><text x="1321" y="0" dx="0em" dy="0.95em" style="text-anchor: middle; visibility: hidden; font-family: &quot;Helvetica Neue&quot;, sans-serif; font-size: 12px; font-weight: 200;" fill="rgb(50, 49, 63)" stroke="none" stroke-width="1px">11k</text></g><line x1="0" y1="0" x2="1321" y2="0" fill="rgb(0, 0, 0)" stroke="rgb(204, 204, 204)" stroke-width="1px"></line></g></g></g></g></svg>