<svg viewBox="0 0 1367 400" xmlns="http://www.w3.org/2000/svg"><g><g><g><g><g><line x1="46" y1="378" x2="41" y2="378" style="visibility: inherit;" fill="rgb(0, 0, 0)" stroke="rgb(204, 204, 204)" stroke-width="1px"></line><line x1="46" y1="348.9230769230769" x2="41" y2="348.9230769230769" style="visibility: inherit;" fill="rgb(0, 0, 0)" stroke="rgb(204, 204, 204)" stroke-width="1px"></line><line x1="46" y1="319.8461538461538" x2="41" y2="319.8461538461538" style="visibility: inherit;" fill="rgb(0, 0, 0)" stroke="rgb(204, 204, 204)" stroke-width="1px"></line><line x1="46" y1="290.7692307692308" x2="41" y2="290.7692307692308" style="visibility: inherit;" fill="rgb(0, 0, 0)" stroke="rgb(204, 204, 204)" stroke-width="1px"></line><line x1="46" y1="261.6923076923077" x2="41" y2="261.6923076923077" style="visibility: inherit;" fill="rgb(0, 0, 0)" stroke="rgb(204, 204, 204)" stroke-width="1px"></line><line x1="46" y1="232.6153846153846" x2="41" y2="232.6153846153846" style="visibility: inherit;" fill="rgb(0, 0, 0)" stroke="rgb(204, 204, 204)" stroke-width="1px"></line><line x1="46" y1="203.53846153846152" x2="41" y2="203.53846153846152" style="visibility: inherit;" fill="rgb(0, 0, 0)" stroke="rgb(204, 204, 204)" stroke-width="1px"></line><line x1="46" y1="174.46153846153848" x2="41" y2="174.46153846153848" style="visibility: inherit;" fill="rgb(0, 0, 0)" stroke="rgb(204, 204, 204)" stroke-width="1px"></line><line x1="46" y1="145.38461538461536" x2="41" y2="145.38461538461536" style="visibility: inherit;" fill="rgb(0, 0, 0)" stroke="rgb(204, 204, 204)" stroke-width="1px"></line><line x1="46" y1="116.30769230769232" x2="41" y2="116.30769230769232" style="visibility: inherit;" fill="rgb(0, 0, 0)" stroke="rgb(204, 204, 204)" stroke-width="1px"></line><line x1="46" y1="87.23076923076923" x2="41" y2="87.23076923076923" style="visibility: inherit;" fill="rgb(0, 0, 0)" stroke="rgb(204, 204, 204)" stroke-width="1px"></line><line x1="46" y1="58.15384615384613" x2="41" y2="58.15384615384613" style="visibility: inherit;" fill="rgb(0, 0, 0)" stroke="rgb(204, 204, 204)" stroke-width="1px"></line><line x1="46" y1="29.076923076923038" x2="41" y2="29.076923076923038" style="visibility: inherit;" fill="rgb(0, 0, 0)" stroke="rgb(204, 204, 204)" stroke-width="1px"></line><line x1="46" y1="0" x2="41" y2="0" style="visibility: inherit;" fill="rgb(0, 0, 0)" stroke="rgb(204, 204, 204)" stroke-width="1px"></line></g><g transform="translate(36, 0)"><text x="0" y="378" dx="0em" dy="0.3em" style="text-anchor: end; visibility: hidden; font-family: &quot;Helvetica Neue&quot;, sans-serif; font-size: 12px; font-weight: 200;" fill="rgb(50, 49, 63)" stroke="none" stroke-width="1px">-10</text><text x="0" y="348.9230769230769" dx="0em" dy="0.3em" style="text-anchor: end; visibility: inherit; font-family: &quot;Helvetica Neue&quot;, sans-serif; font-size: 12px; font-weight: 200;" fill="rgb(50, 49, 63)" stroke="none" stroke-width="1px">0</text><text x="0" y="319.8461538461538" dx="0em" dy="0.3em" style="text-anchor: end; visibility: inherit; font-family: &quot;Helvetica Neue&quot;, sans-serif; font-size: 12px; font-weight: 200;" fill="rgb(50, 49, 63)" stroke="none" stroke-width="1px">10</text><text x="0" y="290.7692307692308" dx="0em" dy="0.3em" style="text-anchor: end; visibility: inherit; font-family: &quot;Helvetica Neue&quot;, sans-serif; font-size: 12px; font-weight: 200;" fill="rgb(50, 49, 63)" stroke="none" stroke-width="1px">20</text><text x="0" y="261.6923076923077" dx="0em" dy="0.3em" style="text-anchor: end; visibility: inherit; font-family: &quot;Helvetica Neue&quot;, sans-serif; font-size: 12px; font-weight: 200;" fill="rgb(50, 49, 63)" stroke="none" stroke-width="1px">30</text><text x="0" y="232.6153846153846" dx="0em" dy="0.3em" style="text-anchor: end; visibility: inherit; font-family: &quot;Helvetica Neue&quot;, sans-serif; font-size: 12px; font-weight: 200;" fill="rgb(50, 49, 63)" stroke="none" stroke-width="1px">40</text><text x="0" y="203.53846153846152" dx="0em" dy="0.3em" style="text-anchor: end; visibility: inherit; font-family: &quot;Helvetica Neue&quot;, sans-serif; font-size: 12px; font-weight: 200;" fill="rgb(50, 49, 63)" stroke="none" stroke-width="1px">50</text><text x="0" y="174.46153846153848" dx="0em" dy="0.3em" style="text-anchor: end; visibility: inherit; font-family: &quot;Helvetica Neue&quot;, sans-serif; font-size: 12px; font-weight: 200;" fill="rgb(50, 49, 63)" stroke="none" stroke-width="1px">60</text><text x="0" y="145.38461538461536" dx="0em" dy="0.3em" style="text-anchor: end; visibility: inherit; font-family: &quot;Helvetica Neue&quot;, sans-serif; font-size: 12px; font-weight: 200;" fill="rgb(50, 49, 63)" stroke="none" stroke-width="1px">70</text><text x="0" y="116.30769230769232" dx="0em" dy="0.3em" style="text-anchor: end; visibility: inherit; font-family: &quot;Helvetica Neue&quot;, sans-serif; font-size: 12px; font-weight: 200;" fill="rgb(50, 49, 63)" stroke="none" stroke-width="1px">80</text><text x="0" y="87.23076923076923" dx="0em" dy="0.3em" style="text-anchor: end; visibility: inherit; font-family: &quot;Helvetica Neue&quot;, sans-serif; font-size: 12px; font-weight: 200;" fill="rgb(50, 49, 63)" stroke="none" stroke-width="1px">90</text><text x="0" y="58.15384615384613" dx="0em" dy="0.3em" style="text-anchor: end; visibility: inherit; font-family: &quot;Helvetica Neue&quot;, sans-serif; font-size: 12px; font-weight: 200;" fill="rgb(50, 49, 63)" stroke="none" stroke-width="1px">100</text><text x="0" y="29.076923076923038" dx="0em" dy="0.3em" style="text-anchor: end; visibility: inherit; font-family: &quot;Helvetica Neue&quot;, sans-serif; font-size: 12px; font-weight: 200;" fill="rgb(50, 49, 63)" stroke="none" stroke-width="1px">110</text><text x="0" y="0" dx="0em" dy="0.3em" style="text-anchor: end; visibility: hidden; font-family: &quot;Helvetica Neue&quot;, sans-serif; font-size: 12px; font-weight: 200;" fill="rgb(50, 49, 63)" stroke="none" stroke-width="1px">120</text></g><line x1="46" y1="0" x2="46" y2="378" fill="rgb(0, 0, 0)" stroke="rgb(204, 204, 204)" stroke-width="1px"></line></g></g><g transform="translate(46, 0)" clip-path="url(#clip_0)"><clipPath id="clip_0"><rect width="1321" height="378"></rect></clipPath><g><g><g><line x1="0" y1="0" x2="0" y2="378" fill="rgb(0, 0, 0)" stroke="rgb(60, 60, 60)" stroke-width="1px" opacity="0.25"></line><line x1="110.08333333333333" y1="0" x2="110.08333333333333" y2="378" fill="rgb(0, 0, 0)" stroke="rgb(60, 60, 60)" stroke-width="1px" opacity="0.25"></line><line x1="220.16666666666666" y1="0" x2="220.16666666666666" y2="378" fill="rgb(0, 0, 0)" stroke="rgb(60, 60, 60)" stroke-width="1px" opacity="0.25"></line><line x1="330.25" y1="0" x2="330.25" y2="378" fill="rgb(0, 0, 0)" stroke="rgb(60, 60, 60)" stroke-width="1px" opacity="0.25"></line><line x1="440.3333333333333" y1="0" x2="440.3333333333333" y2="378" fill="rgb(0, 0, 0)" stroke="rgb(60, 60, 60)" stroke-width="1px" opacity="0.25"></line><line x1="550.4166666666667" y1="0" x2="550.4166666666667" y2="378" fill="rgb(0, 0, 0)" stroke="rgb(60, 60, 60)" stroke-width="1px" opacity="0.25"></line><line x1="660.5" y1="0" x2="660.5" y2="378" fill="rgb(0, 0, 0)" stroke="rgb(60, 60, 60)" stroke-width="1px" opacity="0.25"></line><line x1="770.5833333333334" y1="0" x2="770.5833333333334" y2="378" fill="rgb(0, 0, 0)" stroke="rgb(60, 60, 60)" stroke-width="1px" opacity="0.25"></line><line x1="880.6666666666666" y1="0" x2="880.6666666666666" y2="378" fill="rgb(0, 0, 0)" stroke="rgb(60, 60, 60)" stroke-width="1px" opacity="0.25"></line><line x1="990.75" y1="0" x2="990.75" y2="378" fill="rgb(0, 0, 0)" stroke="rgb(60, 60, 60)" stroke-width="1px" opacity="0.25"></line><line x1="1100.8333333333335" y1="0" x2="1100.8333333333335" y2="378" fill="rgb(0, 0, 0)" stroke="rgb(60, 60, 60)" stroke-width="1px" opacity="0.25"></line><line x1="1210.9166666666665" y1="0" x2="1210.9166666666665" y2="378" fill="rgb(0, 0, 0)" stroke="rgb(60, 60, 60)" stroke-width="1px" opacity="0.25"></line><line x1="1321" y1="0" x2="1321" y2="378" fill="rgb(0, 0, 0)" stroke="rgb(60, 60, 60)" stroke-width="1px" opacity="0.25"></line></g><g><line x1="0" y1="378" x2="1321" y2="378" fill="rgb(0, 0, 0)" stroke="rgb(60, 60, 60)" stroke-width="1px" opacity="0.25"></line><line x1="0" y1="348.9230769230769" x2="1321" y2="348.9230769230769" fill="rgb(0, 0, 0)" stroke="rgb(60, 60, 60)" stroke-width="1px" opacity="0.25"></line><line x1="0" y1="319.8461538461538" x2="1321" y2="319.8461538461538" fill="rgb(0, 0, 0)" stroke="rgb(60, 60, 60)" stroke-width="1px" opacity="0.25"></line><line x1="0" y1="290.7692307692308" x2="1321" y2="290.7692307692308" fill="rgb(0, 0, 0)" stroke="rgb(60, 60, 60)" stroke-width="1px" opacity="0.25"></line><line x1="0" y1="261.6923076923077" x2="1321" y2="261.6923076923077" fill="rgb(0, 0, 0)" stroke="rgb(60, 60, 60)" stroke-width="1px" opacity="0.25"></line><line x1="0" y1="232.6153846153846" x2="1321" y2="232.6153846153846" fill="rgb(0, 0, 0)" stroke="rgb(60, 60, 60)" stroke-width="1px" opacity="0.25"></line><line x1="0" y1="203.53846153846152" x2="1321" y2="203.53846153846152" fill="rgb(0, 0, 0)" stroke="rgb(60, 60, 60)" stroke-width="1px" opacity="0.25"></line><line x1="0" y1="174.46153846153848" x2="1321" y2="174.46153846153848" fill="rgb(0, 0, 0)" stroke="rgb(60, 60, 60)" stroke-width="1px" opacity="0.25"></line><line x1="0" y1="145.38461538461536" x2="1321" y2="145.38461538461536" fill="rgb(0, 0, 0)" stroke="rgb(60, 60, 60)" stroke-width="1px" opacity="0.25"></line><line x1="0" y1="116.30769230769232" x2="1321" y2="116.30769230769232" fill="rgb(0, 0, 0)" stroke="rgb(60, 60, 60)" stroke-width="1px" opacity="0.25"></line><line x1="0" y1="87.23076923076923" x2="1321" y2="87.23076923076923" fill="rgb(0, 0, 0)" stroke="rgb(60, 60, 60)" stroke-width="1px" opacity="0.25"></line><line x1="0" y1="58.15384615384613" x2="1321" y2="58.15384615384613" fill="rgb(0, 0, 0)" stroke="rgb(60, 60, 60)" stroke-width="1px" opacity="0.25"></line><line x1="0" y1="29.076923076923038" x2="1321" y2="29.076923076923038" fill="rgb(0, 0, 0)" stroke="rgb(60, 60, 60)" stroke-width="1px" opacity="0.25"></line><line x1="0" y1="0" x2="1321" y2="0" fill="rgb(0, 0, 0)" stroke="rgb(60, 60, 60)" stroke-width="1px" opacity="0.25"></line></g></g></g><g><g><line x1="0" y1="348.9230769230769" x2="1321" y2="348.9230769230769" fill="rgb(0, 0, 0)" stroke="rgb(153, 153, 153)" stroke-width="1.5px"></line></g></g><g><g><line x1="110.08333333333333" y1="0" x2="110.08333333333333" y2="378" fill="rgb(0, 0, 0)" stroke="rgb(153, 153, 153)" stroke-width="1.5px"></line></g></g><g><g><g><g><g><path stroke="rgb(255, 112, 67)" stroke-width="2px" d="M110.96400000000001,342.4370734361502L112.39508333333333,340.7643495889626L112.72533333333332,341.6321203266235L116.24799999999999,343.48833351110744L116.35808333333333,343.73453755006904L116.57825,344.59414474310194L119.11016666666667,345.2140164283178L119.22025,344.8038521225396L119.99083333333334,345.27705683210013L120.10091666666668,344.76924154002626L121.86225,344.25111273278225L125.71516666666666,344.6418242062642L128.7975,344.69124357426875L129.23783333333333,344.8304547802224L129.34791666666666,345.03526793114514L130.779,344.87305722960645L133.75125,345.1330451417014L134.30166666666668,344.8252406119265L135.29241666666667,344.7629778896621L136.17308333333332,344.99227037035934L137.27391666666668,344.8094251134554L139.14533333333333,344.73384319131543L140.35625,344.9372593478295L142.77808333333334,345.1060760432943L143.10833333333335,345.2808536861235L143.3285,345.444216781655L146.19066666666666,345.26455234605606L146.52091666666666,345.06422890224206L147.62175,345.214979153327L148.3923333333333,345.0801634564437L149.71333333333334,345.0314281643056L150.37383333333332,344.99895426688846L150.92425,345.1417801385365L151.36458333333331,345.16626530097346L154.33683333333332,345.2842115334171L155.32758333333334,345.408120451515L156.86875,345.1609260163609L157.8595,345.1128400942162L159.1805,345.23387971775594L160.17125,345.34362237056735L165.7855,345.28723180671494L166.55608333333333,345.39646566141715L166.66616666666667,345.36528949670753L166.99641666666668,345.120487169211L167.6569166666667,345.0600160265048L167.767,344.98543212687366L169.41825,344.7097043319984L170.6291666666667,344.6087446262204L170.73925,344.5911421825712L170.84933333333333,344.69682648036536L170.9594166666667,344.62491393150395L172.06025,344.5126115471511L173.16108333333332,344.49300132439055L173.93166666666664,344.4554018474163L174.81233333333333,344.54480866368476L175.25266666666664,344.46999102324315L176.3535,344.36277998734425L177.67450000000002,344.279567872493L179.21566666666666,344.38558444311917L180.20641666666666,344.2503650809985L181.52741666666665,344.35611261483854L182.73833333333334,344.35192766698685L183.06858333333335,344.4523270527877L183.61900000000003,344.31296044812825L185.93075,344.36356310903557L186.15091666666666,344.21948624616545L186.70133333333334,344.07656099165575L187.14166666666665,344.0726922365034L187.91224999999997,343.98547936430305L191.76516666666666,343.8694153129138L192.09541666666667,343.7642411740335L192.75591666666668,343.63971032408983L193.5265,343.59582483097216L193.74666666666667,343.4132539603009L193.96683333333334,343.35645972930604L197.37941666666666,343.31897238078875L197.92983333333336,343.2747671690277L198.03991666666667,343.14775921403L199.69116666666667,343.25076434123025L199.80124999999998,343.2210838877169L200.24158333333332,343.23955798075605L200.46175,343.13216986728054L201.01216666666667,343.2214692321014L202.66341666666668,343.1871207868264L203.5440833333333,343.14915262046236L203.65416666666667,343.2487667796206L204.20458333333332,343.1745969730644L205.4155,343.0678180256529L206.5163333333333,343.0682066080227L207.28691666666668,343.02424935747024L207.6171666666667,343.109577462476L207.83733333333333,342.95790770152354L209.2684166666667,342.8706877063304L209.59866666666667,342.79521511733645L210.5894166666667,342.7622975698041L212.46083333333334,342.78187434038574L213.56166666666664,342.84840826926876L217.30450000000002,342.94632561745533L217.63475,342.8829327808745L219.61625,342.8790246028682L220.82716666666664,342.82504545700215L221.04733333333334,342.9219743183402L224.68008333333333,342.9804252131389L224.90025000000003,342.94688589834306L226.22125000000003,342.87733269803397L226.5515,342.79069008577164L227.32208333333335,342.71276058199436L227.98258333333334,342.6697333428008L230.07416666666666,337.85372726698876L234.58758333333336,338.0215326746107L234.80775,338.0601561430767L237.1195,338.22236139199816L237.33966666666666,338.13961621489125L238.22033333333334,338.1927025852078L238.77075,338.2739706908061L239.43125,338.4300162765933L241.52283333333332,338.50950771921987L242.29341666666667,338.51179302254894L243.28416666666666,338.4578936527183L243.8345833333333,333.9250453486823L244.49508333333333,334.05487604219206L245.81608333333332,334.0651632473641L246.91691666666668,334.19796179120357L247.35725,334.4081378157491L247.6875,334.61029765048556L248.23791666666668,334.70289236374833L249.0085,334.7791349850894L250.87991666666667,334.9704371860552L251.76058333333333,334.96784897729304L253.41183333333333,335.0964586536766L253.96225,335.17128619639414L254.18241666666668,335.2925495353569L254.62275,335.4122190386268L254.73283333333333,335.58412835329875L256.16391666666664,335.76347333960894L259.0260833333333,335.93751955630347L261.558,336.03759487858326L264.42016666666666,336.1967979431965L265.521,336.264884461329L265.6310833333333,336.3962664794161L265.7411666666667,336.51749325036405L266.07141666666666,336.6389114585427L266.29158333333334,336.66600736150406L266.6218333333333,336.8240986618074L266.95208333333335,336.8436418945022L270.58483333333334,336.9608178684112L271.0251666666667,336.9493620051416L271.90583333333336,332.884012703471L272.89658333333335,333.09067996284125L273.00666666666666,333.2903782882945L274.10749999999996,329.2973108592791L276.41925,329.55015070457864L277.40999999999997,325.6480306918013L278.5108333333333,321.8257034670539L280.1620833333333,322.1044100674663L280.60241666666667,322.3685998482939L283.46458333333334,322.6132364178074L284.45533333333333,322.91319019245844L285.88641666666666,323.0649078067913L286.32675,319.3418655596142L288.30825,319.6216383369776L288.6385,315.9315318201098L288.74858333333333,312.2710344328574L289.0788333333333,312.72095165160056L289.299,312.98699363407167L289.7393333333333,313.3654022659381L290.7300833333333,313.6540082018596L290.95025,314.017347607804L291.3905833333333,314.31512165539755L291.5006666666667,314.6604557658763L291.94100000000003,311.09640269889985L292.4914166666667,311.3381609519995L297.225,311.67714505884317L299.4266666666667,312.0340866534071L301.51825,312.4172061102776L301.8485,312.7939879797543L302.72916666666663,309.2884375724599L303.49975,309.6105855504995L306.2518333333333,306.1634172962661L306.58208333333334,302.78010992797374L308.12325000000004,303.1867276127407L308.5635833333333,299.8245297916841L309.44425,300.2481624646267L309.7745,296.9270575940412L310.10474999999997,297.48350160688966L310.435,298.0294937272847L313.7375,294.7543954058283L313.9576666666667,295.29149371984585L315.4988333333333,292.08004207933783L316.04925,292.57064445465375L316.5996666666667,289.38170297388547L317.81058333333334,289.93908824173377L319.2416666666667,290.52601584357933L319.57191666666665,287.37822489314703L321.4433333333333,284.28712726126196L323.31475,284.8676879130217L323.97525,285.4845047644967L324.74583333333334,282.4219583950876L326.287,279.40287290552897L328.04833333333335,280.0480442974948L328.7088333333333,277.0546278212847L329.4794166666667,274.11405399256773L333.0020833333333,274.9515419721268L334.76341666666667,275.6556260329308L336.1945,276.34806995271015L338.6163333333334,273.45346281151296L339.27683333333334,274.1803412885839L339.7171666666666,271.34746376780066L340.1575,272.0489552593692L340.7079166666667,272.8531324793393L342.2490833333333,269.98748195065303L342.46925,267.186833993059L345.11125,264.4109192317506L348.5238333333333,261.6655140873144L349.51458333333335,258.95302693914283L349.62466666666666,256.2756673900337L350.065,253.63486500350297L351.1658333333333,254.27712956095763L351.49608333333333,251.6670334372909L351.71625,249.11351584049805L351.8263333333333,246.5698210784673L352.92716666666666,244.03193784059982L353.9179166666667,241.5544311757898L354.68850000000003,239.11649326850227L355.1288333333333,240.26391600854822L357.55066666666664,237.86320229034928L359.7523333333333,238.94376904015726L359.8624166666666,236.53184279737513L360.1926666666667,237.70184459160697L360.30275,238.72457546289561L360.96325,236.34359419268918L361.0733333333333,233.9787288707352L362.28425,231.65721613890526L364.15566666666666,229.3419208183501L364.596,227.06690865651078L364.92625,224.82328045875173L365.91700000000003,222.57044880137988L369.99008333333336,220.3468772791858L374.17325,218.16751443916928L376.15475,219.18449902287108L376.26483333333334,217.0373495695237L378.79675000000003,214.89508699156676L381.65891666666664,212.80616454879922L381.76899999999995,214.1930469410893L382.8698333333333,215.58859673050557L386.06225,213.45689675846882L386.1723333333333,211.3833651810799L386.72275,212.7379029298608L388.04375,210.6528624742895L389.8050833333333,212.02535127602013L390.24541666666664,213.40970495376916L390.5756666666667,211.32171394957805L391.01599999999996,209.251508470646L391.6765,207.2067387751727L394.09833333333336,205.19935608625804L395.0890833333333,203.20790023756825L395.30925,201.2452244059931L395.6395,199.3162835403425L396.18991666666665,197.43491121323828L396.96049999999997,198.98025892014184L397.8411666666667,200.50439614145816L398.2815,198.5899159845886L399.1621666666666,196.6898576257057L401.1436666666666,194.79255836787934L401.8041666666666,196.2965617759037L403.23525,194.40456626302202L403.4554166666667,196.0619868921157L404.3360833333333,194.19097881036473L405.98733333333337,195.71973256360474L406.0974166666667,193.88612070625885L407.5285,192.05798662558345L408.51925000000006,190.25563323116046L408.73941666666667,188.4509810409494L408.95958333333334,186.67131096726766L409.51,188.39415921451385L409.6200833333333,186.6021508596356L410.3906666666666,184.83313182178856L410.61083333333335,183.08581575778464L411.27133333333336,181.35994071708507L411.60158333333334,179.6567048700759L412.152,177.99410599595274L412.9225833333333,179.73650503420106L413.80325,181.53495151949895L415.78475,179.8250117102537L416.0049166666667,178.14080150043984L417.54608333333334,176.51079817315994L417.76624999999996,174.8976881994226L418.31666666666666,173.27125809153046L418.8670833333333,171.68042290784334L419.63766666666663,170.10014379827152L420.29816666666665,168.51865062972334L422.49983333333336,166.9766142284458L423.71074999999996,168.886691314799L424.37125,167.33995869815809L425.47208333333333,169.17206229497802L426.13258333333334,167.63573226420044L426.683,166.13931937417465L428.4443333333333,164.6146204400967L429.325,163.13570824795272L431.63675,161.65442483880523L436.26025,160.20983730318645L436.7005833333333,158.7649832124054L437.0308333333333,157.31856531585527L437.25100000000003,155.88498080768366L437.6913333333333,154.5062328133359L438.13166666666666,153.11833039901413L438.35183333333333,151.72614528560783L440.55350000000004,153.64192194055855L441.76441666666665,152.25576613948058L443.85600000000005,154.2277416872723L444.7366666666667,156.11546230558636L446.05766666666665,154.73376651235128L446.2778333333333,153.335881671968L447.26858333333337,155.37820290592956L448.47950000000003,157.24552800523074L448.80975,155.82729812503266L450.13075,154.45034192713402L451.23158333333333,153.07162199451312L451.45175,151.70796402926473L451.78200000000004,150.33772293109692L451.89208333333335,149.01469733908417L454.53408333333334,147.71710016610996L454.9744166666666,146.41406599875634L456.95591666666667,145.11149370406036L459.2676666666667,143.86324087149853L460.3685,145.94170038488804L463.0105,144.63620399506388L463.12058333333334,143.34778803191915L469.7255833333333,142.10323396933546L470.4961666666667,140.86107094891733L470.71633333333335,139.63312162425848L472.1474166666667,138.42711180366248L473.24825000000004,137.20680706923798L473.35833333333335,136.02027898504508L473.7986666666667,134.86898976938906L474.3490833333333,133.68899601991504L475.33983333333333,132.55232389108264L475.44991666666664,131.41341965254134L475.56,130.28497424418217L476.77091666666666,129.18653868327266L477.21125,128.06110588954886L477.9818333333333,126.99589569715883L480.4036666666667,129.20203576975408L481.6145833333333,128.12164155751108L481.83475000000004,127.04273767268467L482.16499999999996,125.99852134739615L484.2565833333333,124.97120249278092L485.68766666666664,123.89070849876506L486.2380833333333,122.83095094184748L487.449,121.79676758433976L487.88933333333335,120.7733446588012L487.99941666666666,119.74359950685442L489.76075000000003,118.75848400686607L490.86158333333333,117.7915710235236L491.19183333333336,116.85304184640347L492.29266666666666,115.86070510938089L494.4943333333334,114.888384027526L494.6044166666667,113.93486390483866L495.1548333333334,112.97695719518964L495.81533333333334,112.03031460778425L496.47583333333336,111.0886484055751L497.13633333333337,110.20261461735913L501.3195,109.3349159892121L501.4295833333333,108.41990364422065L502.53041666666667,110.8318058956537L503.0808333333334,113.14824302601761L503.1909166666667,112.21805097778838L503.8514166666667,111.3197314640766L505.943,110.41889966244668L506.16316666666665,109.51653520128144L507.59425,108.62274554619358L508.36483333333337,107.75456651759617L508.4749166666667,106.85749209172184L509.46566666666666,109.3131566571131L510.23625,111.65525037163474L511.22700000000003,110.74230756409594L513.2085000000001,109.85361606185535L513.4286666666667,112.15866807790451L513.869,111.2559631066535L516.18075,110.35001463055619L517.1715,112.62898794990389L520.0336666666667,111.695153587464L521.6849166666667,110.78557081982166L522.1252499999999,109.88508830930857L522.2353333333333,108.99940078912829L522.6756666666666,108.10368886440267L523.116,107.23874585804413L523.3361666666667,106.35351410535742L524.8773333333334,108.73951556447759L524.9874166666666,107.86846574060712L527.5193333333333,106.98096431410778L527.6294166666667,106.09708921088742L528.2899166666666,105.23259208438759L528.8403333333333,104.39652872676197L529.0605,103.5458923860948L530.1613333333333,102.72965989287701L531.042,105.11726564965659L532.2529166666667,104.2671408239733L533.0235,103.44824294842488L533.5739166666666,102.62187301757706L534.4545833333334,101.80192397479374L535.2251666666667,104.28877634963385L535.33525,103.43266929484548L535.4453333333333,102.58582795441401L535.7755833333333,101.77452586282737L536.5461666666666,100.96748949419106L538.7478333333333,100.18445217757579L539.29825,99.39873435950835L544.8024166666667,98.61967193199206L545.24275,97.83625469023264L545.7931666666667,100.23573637549322L546.56375,99.42470972349537L547.1141666666667,98.66316261190514L548.2149999999999,97.89908151579283L550.3065833333334,97.12041561884729L552.6183333333333,96.37546829209111L553.2788333333333,95.60509428125124L556.9115833333333,98.04943438049617L557.0216666666666,97.26602008079328L557.13175,96.49767680143833L558.6729166666667,95.73663515089453L560.9846666666667,94.97919083978019L562.5258333333334,94.22210213305755L563.8468333333334,93.47149783815263L565.4980833333333,92.7279970096078L568.2501666666666,92.03329031056586L568.6905,91.31159256547573L568.8005833333333,93.89227702993622L570.672,96.42437715410392L570.8921666666666,95.6864970519951L571.00225,98.16607484794031L572.98375,97.39335474490724L573.7543333333333,96.66314315316305L577.3870833333333,95.92665988107888L578.0475833333334,95.20812025191566L578.7080833333333,94.45160238765095L579.0383333333334,93.73338465242517L579.4786666666666,92.98915461522705L579.6988333333334,92.25243356676975L580.1391666666666,91.54141207969474L580.6895833333333,90.84295072945292L581.1299166666666,90.17464402835043L581.6803333333334,92.79010536787769L582.7811666666666,92.05833900025158L583.9920833333333,91.34159024678837L589.0559166666667,90.64221141526878L589.7164166666666,89.93657159185847L590.2668333333334,92.17023969909911L596.8718333333333,91.48299280666942L597.7525,90.79683372231028L598.8533333333334,90.1050855036367L599.0735,92.47586914929872L599.5138333333333,91.75858549390784L601.4953333333333,91.04389068994215L602.04575,93.54240353381721L604.1373333333333,92.82011101733428L604.4675833333333,92.12899642070204L607.2196666666666,91.40945624684139L607.7700833333333,90.73768328103L607.8801666666667,90.02794058763766L608.1003333333333,92.4968612312444L609.0910833333334,91.76983586344846L612.5036666666666,91.06875093732617L612.9440000000001,90.36802578087884L615.6960833333334,89.6634208139908L616.2465000000001,88.9648102756808L617.23725,88.32181395442427L619.21875,87.64034232237464L620.7599166666666,90.14383738849745L620.87,89.47257037769037L622.52125,88.81199172403979L623.84225,91.35021761706304L626.0439166666666,90.66051895232528L626.2640833333334,89.95057104337445L626.3741666666667,89.290656565777L626.7044166666667,88.61514763137939L627.0346666666667,87.93420792429356L628.0254166666666,87.29009016874403L628.9060833333334,86.64026975003947L629.2363333333333,89.20532284760867L630.9976666666666,91.75026453087128L631.438,91.03632612513712L632.2085833333334,90.34990152101005L634.8505833333332,89.68908234348424L636.6119166666666,89.03743419967003L639.03375,88.38346787006464L640.5749166666667,87.70287159810727L642.7765833333333,87.04982130268814L643.7673333333333,86.40303853009766L645.4185833333333,85.7574283608269L645.5286666666667,85.10963959719976L646.5194166666666,84.4989408925585L647.4000833333333,83.86935986288103L647.7303333333333,83.25148292257029L648.7210833333334,82.63986736180641L649.4916666666667,82.04818814365711L650.8126666666666,81.433648415297L650.9227500000001,80.81711576730771L651.253,80.2155599883078L652.6840833333333,82.79280772945361L654.1151666666666,82.17779182041039L654.5554999999999,81.55296864520142L654.7756666666667,80.96551248968609L655.3260833333334,83.51892831002016L656.0966666666667,82.91830224800316L656.7571666666666,82.31708152764531L656.86725,81.72627187947677L659.2890833333333,81.12722897734011L659.8395,80.52059825576197L660.83025,79.94410125592941L662.0411666666666,79.37533013008067L663.8024999999999,81.99608378068706L665.6739166666666,84.45832653152371L666.3344166666666,83.83391021174401L666.5545833333334,83.19872349149972L666.77475,82.5786013135666L667.3251666666666,85.2035436385479L667.7655,84.59558852976335L669.8570833333333,83.95747246687768L671.2881666666666,83.33107346344985L672.8293333333334,85.91582145226045L673.5999166666667,85.29149049268267L675.0310000000001,84.63856031509374L676.5721666666667,87.21366181087654L676.7923333333333,86.58733778750525L677.0124999999999,85.97092322160262L677.1225833333333,85.338244035493L677.34275,84.69085440244947L678.00325,84.0601401103566L678.2234166666666,83.42982902053842L678.4435833333332,82.82848801507316L678.5536666666667,82.20047922901136L678.7738333333334,81.59491618353746L682.62675,81.0042020865825L683.0670833333334,80.4158128149503L683.5074166666666,79.83370834930832L684.4981666666666,79.24330699500842L685.3788333333334,78.67126007884116L685.92925,78.13306555560092L686.5897500000001,80.73267736728309L687.4704166666667,80.13385152693769L688.3510833333333,79.54304893705421L689.6720833333334,78.99252707494583L695.3964166666666,78.4132452303258L695.83675,77.84270042984838L696.0569166666667,77.29786456977268L696.3871666666666,79.85251336374199L697.5980833333333,79.26982495133223L698.5888333333334,78.73168411233206L699.2493333333333,78.16545046056189L702.44175,77.60658713371498L702.6619166666667,80.18466419803485L703.2123333333333,79.62806189104828L703.3224166666666,79.06191023076661L705.5240833333334,81.74503581533236L706.0745,81.1301388054863L707.1753333333334,80.54311911493556L708.056,79.9970259473971L710.5879166666667,79.4317240387449L712.6795,78.85182988406615L713.34,78.26361091922905L713.67025,77.69161853451243L714.99125,77.11613685448151L715.7618333333332,76.56755799860218L717.303,76.02453971232364L718.0735833333333,75.50413165801206L719.0643333333334,74.99141507524695L719.3945833333333,74.44584458281969L720.7155833333333,73.93774794324594L722.2567499999999,73.41492543402597L723.2475,72.91141280125868L723.5777499999999,72.38999552662494L723.908,71.86724882898977L725.6693333333334,74.50932953225396L726.1096666666666,73.98728030046067L726.6600833333334,73.48031451323192L727.9810833333333,72.966188635852L728.7516666666667,72.4482703135701L729.3020833333334,71.95348168451221L731.2835833333334,71.4506788746653L731.8340000000001,74.2131261810917L732.0541666666667,73.71516946611581L732.6045833333333,76.09402283868525L733.3751666666667,78.81486983208174L735.3566666666667,78.2597056668452L736.0171666666668,77.67901443606019L737.6684166666666,77.1030205879311L742.5120833333334,76.55114035235556L742.9524166666666,76.0245115835749L743.0625,78.64069323255433L744.05325,78.09485000391982L744.6036666666666,77.5631235150102L745.5944166666667,76.99050201223776L746.3649999999999,76.46334238371247L751.31875,79.1178792140143L752.4195833333333,78.52920694999779L752.5296666666667,77.94843787034637L752.8599166666667,77.38425729131052L756.7128333333333,80.02636603756088L757.7035833333333,79.45912581811325L758.0338333333333,78.86775088534586L758.1439166666667,78.28416207064993L759.24475,77.70429594022335L760.56575,77.16031736562269L763.6480833333333,76.59431633355217L764.0884166666667,76.04699239650199L764.52875,75.49004656203704L764.6388333333333,74.9453475029506L765.6295833333334,74.43444610216972L773.4455,73.89693395173629L774.106,73.37082149141474L775.2068333333333,72.86451891733014L779.1698333333334,72.34554311311587L780.38075,71.83085679235518L781.0412500000001,71.31854670163443L783.02275,70.83306167243592L783.68325,70.35651433342514L783.9034166666668,69.87204433962228L786.5454166666667,69.38338492958417L787.7563333333334,71.80509561525554L788.4168333333333,71.29809689428924L789.0773333333334,70.78651852876453L790.3983333333334,70.31592961014923L791.0588333333334,69.82442776836001L791.7193333333335,69.32556364325728L791.8294166666667,68.8327869041812L792.0495833333333,71.47795975519159L792.3798333333333,71.00388782036885L793.1504166666667,70.49525773845096L793.59075,73.23317619021844L793.8109166666667,72.73504336674574L794.3613333333334,72.23160514870892L795.242,71.72541545361628L796.0125833333334,71.22497706348929L796.4529166666666,70.74618136155345L799.8655,70.25431951471984L803.2780833333333,69.78463003055174L804.0486666666667,69.31369811790506L806.1402499999999,68.85340279775556L806.2503333333333,71.58060363411613L806.6906666666667,74.21390910622074L807.0209166666666,73.6748042277614L807.131,73.15849163194628L807.2410833333333,75.867724226804L808.2318333333334,75.35304610933645L809.0024166666667,74.82973045868494L809.5528333333333,74.30816299078327L810.2133333333333,73.77046611030431L813.5158333333334,73.23749116650794L813.6259166666666,72.72774411536L815.9376666666667,72.2045279089761L817.0385000000001,71.68870091394041L820.5611666666666,71.17702649975791L821.8821666666666,70.68618455259548L823.3132499999999,70.17987695988222L823.4233333333333,69.72796051312844L825.8451666666666,69.26494286789472L826.7258333333334,68.7847657761331L828.5972499999999,68.3142622737771L829.25775,67.86804428733092L830.1384166666666,67.41626640558121L832.1199166666667,66.9789857032199L833.6610833333333,69.63199087599202L835.7526666666668,69.16071178160269L836.4131666666666,68.697149711988L836.52325,68.2197566723392L837.2938333333334,67.74055440547323L839.16525,67.27725599187903L839.9358333333333,70.03514580256234L841.3669166666667,69.55101376225156L841.477,69.09738185600622L845.6601666666667,68.61708076833418L845.77025,68.13817935240274L847.6416666666668,67.6647271465672L848.082,67.20840557638235L849.73325,66.75522171083168L850.8340833333333,69.5307528467199L853.9164166666666,69.0665098021314L854.35675,68.58742020957646L855.1273333333334,71.39653008368356L856.2281666666667,70.93746482011755L859.2004166666667,70.45346327928752L859.7508333333334,69.96166074858462L859.8609166666668,69.48204990446919L860.8516666666666,68.98857479603362L865.0348333333334,68.50557456850169L865.8054166666666,71.2288600582828L866.7961666666666,70.76699749972033L866.90625,70.2617891473493L867.0163333333334,69.79984141998438L869.7684166666667,69.35127480152295L870.2087499999999,68.87152305737823L870.6490833333334,71.67586459434398L870.9793333333333,71.18005551714595L872.0801666666666,70.71984796190276L874.83225,73.43649001909574L875.0524166666667,72.94143147816249L875.9330833333333,72.449981806957L876.3734166666667,71.96664165181085L877.2540833333334,71.46384574874247L877.47425,70.95077279474509L880.5565833333333,70.44770284069762L880.6666666666666,69.99747395758851L881.6574166666667,69.5261415359696L881.8775833333333,69.0770421695695L882.6481666666667,68.60980978078612L883.0885,68.14954691388323L884.4095,67.67771584600598L886.5010833333333,67.24143612574301L886.72125,66.78183678947937L888.1523333333333,66.33674634603398L889.4733333333334,65.88071522491867L889.5834166666666,65.43805001246011L889.9136666666666,65.03327925224687L890.1338333333333,64.63463968772987L891.7850833333334,64.19896875821752L892.00525,63.78482306488445L892.5556666666666,63.35199155694335L893.4363333333333,62.95576073308905L894.0968333333333,62.541437677707506L894.4270833333334,62.143641711622536L900.8119166666665,61.748121980847486L901.8026666666666,61.33191008245069L902.0228333333333,60.92237416880897L902.243,60.550878397972156L902.57325,60.17191969213218L902.6833333333334,59.79763254260831L904.55475,59.40490990322348L905.4354166666667,59.04064107316822L905.8757499999999,58.66963174546248L906.206,58.2846641913888L906.3160833333334,57.90813161032332L907.0866666666666,57.5828210470155L910.3891666666667,57.20966053885854L912.7009166666666,60.124579153426225L913.14125,62.89662910720972L913.4715,65.71134617730792L914.3521666666667,65.31271973452539L914.7925,64.91743505921096L915.12275,67.72660256724305L917.4345,67.27353585240348L917.7647499999999,66.83787540194612L918.7555,66.37906452418059L919.08575,65.94453259687918L919.1958333333333,65.53157304108333L919.5260833333334,65.12321402872493L921.3975,67.96345247089408L921.72775,67.49006160586947L922.058,70.28105991935502L922.1680833333332,73.0549849190046L922.4983333333333,72.5420634089898L924.2596666666667,72.04060022373915L926.35125,71.55112668216327L930.6445,71.04127536566335L931.0848333333333,70.56845085177088L931.305,73.17907138307879L931.7453333333334,72.68476296028985L932.4058333333334,72.17678525396872L934.1671666666667,74.94366795315426L934.3873333333333,74.41206700470968L934.4974166666667,73.88862184717055L936.91925,76.62079170452671L940.6620833333333,76.07525194440689L942.5335,75.51690039446288L943.9645833333334,74.97212427152226L945.9460833333333,74.4538896132579L947.5973333333334,77.19899918671155L948.80825,76.64971956800116L949.6889166666666,76.13655181379784L952.2208333333333,75.58006760976406L952.3309166666667,75.07893465431653L952.5510833333333,77.7216759800254L953.8720833333333,80.38177348433152L954.0922499999999,79.82604414893478L955.1930833333333,79.25509953225963L955.6334166666667,78.71016415581693L959.3762499999999,78.13351739307296L959.8165833333334,77.59665696580856L961.0275,77.03040136838598L962.3485000000001,76.49246043751975L964.6602499999999,75.96015968126551L965.7610833333333,75.41970656253397L966.8619166666666,78.10194529080508L970.935,77.54427691810145L971.5955,76.97589011332093L973.3568333333334,76.41596166351275L975.6685833333333,79.00800470675284L976.9895833333334,78.42216768269952L978.9710833333334,81.01814327778243L979.6315833333334,80.42907062529093L980.182,79.86659579171254L980.2920833333333,79.28494423868563L982.6038333333333,78.69510568241822L983.3744166666665,81.3336067618174L983.9248333333334,80.75577985087244L984.6954166666666,83.37915879901101L987.0071666666666,82.76738648463197L988.4382499999999,82.14273314570642L991.4105,81.53803723864718L992.40125,80.92970380393217L994.6029166666667,80.34229384962129L994.8230833333333,79.75784561355601L995.8138333333334,79.18236379506226L997.4650833333334,81.76661940033233L998.3457500000001,81.20493340314852L1001.9784999999999,83.73804677895981L1003.4095833333334,83.11149258326031L1004.7305833333332,82.50995024048024L1006.602,81.9316080698186L1007.0423333333333,81.33905050643176L1007.8129166666666,80.73016283227963L1008.91375,80.13182444721247L1009.1339166666667,79.55833363541592L1009.244,78.97717434061889L1009.3540833333334,78.38815679275626L1009.6843333333333,77.81166260375022L1010.0145833333332,77.25010872451651L1010.4549166666667,76.69557116188457L1011.4456666666667,76.16017011282776L1011.9960833333333,75.65551922971798L1013.0969166666667,75.10516583780964L1014.7481666666666,74.58950157397175L1015.6288333333334,74.0495117211583L1016.0691666666667,73.52677972602646L1017.8304999999999,73.03515928794604L1021.46325,72.5212406084313L1021.9035833333332,72.01496328784219L1023.5548333333334,71.50456727495515L1026.4170000000001,70.99319583471174L1026.74725,70.50593741684082L1028.1783333333333,70.00538740137728L1028.2884166666665,72.7435893277306L1028.6186666666665,72.25521544020324L1029.38925,71.76071624242911L1029.7195,71.25634051082744L1030.1598333333334,70.77084271356023L1030.8203333333333,70.27625503218428L1032.3615,69.81244674185706L1033.1320833333334,72.5152448242556L1033.5724166666666,72.00505184745248L1033.6825,71.51103335909607L1034.0127499999999,71.02484788736894L1034.4530833333333,70.53378508765945L1035.2236666666665,73.2339634364281L1035.7740833333335,72.7344500269486L1036.9850000000001,72.21083831702668L1038.63625,71.69152338589493L1039.29675,71.18412164606804L1039.7370833333334,70.68638203237077L1041.0580833333333,70.23515352380099L1042.59925,69.74661315827137L1043.3698333333334,72.51604073673002L1043.9202500000001,72.0004504622263L1044.0303333333334,71.48253864942973L1044.1404166666666,70.98132525569781L1044.2504999999999,70.47346294287604L1044.911,69.99396138528749L1045.6815833333333,72.784676863843L1047.553,75.16447232272884L1050.1950000000002,74.64011912265096L1053.3874166666667,74.11886085257004L1054.5983333333334,73.5944346600092L1054.8185,73.08508192124901L1056.46975,72.59536603395719L1057.0201666666667,72.121798761415L1058.7815,71.62308490934731L1059.77225,71.12288750507582L1060.8730833333334,70.61594052640919L1062.5243333333333,70.12408276138945L1064.1755833333334,72.90398476939004L1064.6159166666666,72.37935159315424L1065.1663333333333,71.8862613492903L1066.8175833333332,71.38808683399634L1067.6982500000001,74.14566181251507L1068.7990833333333,73.63431767282083L1069.3495,73.11465013660057L1071.3310000000001,72.58502184780787L1072.8721666666668,72.0917763359659L1073.0923333333333,71.58501143782962L1077.1654166666667,71.09614226022723L1077.2755,70.59653280981092L1078.8166666666666,70.12481748341327L1079.8074166666668,69.65357159787243L1080.90825,69.16397831036687L1082.5595,68.71857521528938L1084.4309166666667,68.28110938580937L1085.0914166666666,67.82163693743519L1085.5317499999999,70.51469148517327L1086.7426666666668,70.025145167907L1086.85275,69.54824656470385L1087.2930833333332,69.06924515959179L1087.51325,68.59394962270267L1089.2745833333333,68.14965360981955L1089.6048333333333,70.90341107085243L1090.9258333333332,70.39838120806132L1091.0359166666667,69.89598077325945L1091.3661666666667,69.40855183613098L1092.13675,68.96449456203595L1092.4669999999999,68.52186576545932L1093.2375833333333,68.05691775647023L1093.788,67.57910028783681L1094.2283333333335,70.33479804110164L1096.3199166666666,69.84525312892583L1096.5400833333333,69.38008425810028L1097.5308333333332,68.90859649630488L1099.2921666666668,68.4320945990595L1099.5123333333333,67.99280767227401L1099.7325,67.52347626342493L1099.9526666666666,70.21953222687836L1100.72325,69.72270445615902L1103.0349999999999,69.23571967680698L1103.8055833333333,68.74959804430023L1106.1173333333334,68.2911926730477L1107.98875,67.8097879691291L1109.1996666666666,67.35441560568484L1110.7408333333333,66.91039528083923L1111.7315833333334,66.4437107987294L1112.6122500000001,66.02927021273325L1114.2635,68.78302660379427L1114.8139166666667,68.32930197177501L1114.924,71.04950016753048L1117.23575,73.69472699156586L1117.3458333333333,73.17265810345742L1118.9970833333332,72.66422402515224L1121.9693333333335,72.15200549750188L1123.4004166666666,71.64064217974641L1125.82225,71.13615298530544L1126.7029166666666,70.62733537442199L1129.3449166666667,70.1226910076287L1130.1155,69.64228097322615L1131.2163333333333,69.16447614646859L1131.9869166666667,71.84482745177024L1132.3171666666667,74.56407744254824L1134.2986666666668,74.04189624117566L1135.5095833333335,76.4089393069246L1136.7205000000001,75.87109071408872L1137.8213333333333,75.32531226344946L1139.2524166666667,74.77983385745779L1141.01375,74.28137579645391L1141.344,73.75447061464007L1142.1145833333335,73.23558256288652L1143.1053333333332,75.93755695258511L1143.5456666666666,75.39315147388504L1143.6557500000001,74.85600566260155L1144.2061666666666,74.32080533241788L1145.0868333333333,73.78047999910808L1146.8481666666667,73.25939873790213L1149.0498333333333,72.74859157192293L1149.7103333333332,72.26464524332494L1152.0220833333333,71.75061330355771L1154.0035833333334,71.25180749732004L1154.6640833333333,70.74255268181082L1155.2145,70.26170782811624L1156.4254166666667,69.78713610353321L1158.4069166666666,69.31619836575169L1158.6270833333333,68.85571733126699L1158.9573333333333,71.52450797930157L1160.3884166666667,71.03313674047808L1160.4985,70.53000377487706L1162.2598333333333,70.04681335258641L1163.6909166666667,69.56861297106087L1169.5253333333333,69.08238250483913L1170.07575,68.59579652412083L1170.5160833333334,68.12380704154958L1172.05725,67.67669892140191L1174.5891666666666,67.21465785178532L1175.69,66.75353991136325L1176.02025,66.29439055129802L1176.9009166666667,65.84457532394094L1178.5521666666666,65.39523836983005L1181.5244166666666,64.9943104938622L1181.8546666666668,64.56749580289573L1182.1849166666666,64.16998351100347L1183.0655833333333,63.75692938181868L1183.94625,63.340689144276894L1184.2765,66.11048067553719L1184.4966666666667,68.82482973127918L1186.58825,68.35169372751608L1187.24875,67.90159674745126L1188.6798333333334,67.43019727801453L1188.7899166666666,66.97050947616623L1189.0100833333333,66.56356841761357L1192.0924166666666,66.12657012035316L1192.3125833333334,68.83547107567324L1192.7529166666668,68.35706015938672L1193.0831666666668,71.04187496299028L1195.505,70.54268502229803L1196.826,70.04473598417053L1198.5873333333334,69.56359019377396L1199.3579166666668,69.08271616461104L1200.1285,68.6249652555793L1201.77975,71.42399307031718L1202.9906666666666,70.93900183276861L1203.9814166666667,70.43832456913617L1204.6419166666667,73.11718422704979L1205.5225833333334,72.59274971503663L1208.0545,72.0682081273664L1209.5956666666666,71.56390387227333L1210.6965,71.05363362371463L1210.8065833333333,70.58446771551382" style="fill: none;" fill="none"></path></g></g></g></g><g opacity="0.2"><g><g><g><path stroke="rgb(255, 112, 67)" stroke-width="2px" d="M110.96400000000001,342.4370734361502L112.39508333333333,339.10835298024693L112.72533333333332,343.34171545688923L116.24799999999999,348.94634090255084L116.35808333333333,344.69497827749984L116.57825,348.7649460010804L119.11016666666667,348.80522147084656L119.22025,342.0452795505524L119.99083333333334,348.8962567011897L120.10091666666668,340.4214323814099L121.86225,339.34641499152553L125.71516666666666,348.6901861509451L128.7975,345.247107569988L129.23783333333333,346.5184489433582L129.34791666666666,347.6966437133459L130.779,342.6257540152623L133.75125,348.9563443528488L134.30166666666668,340.0393037575942L135.29241666666667,343.7429191424296L136.17308333333332,348.93823488927086L137.27391666666668,341.5132346886855L139.14533333333333,343.31011097981377L140.35625,348.9320621093771L142.77808333333334,348.55537015130886L143.10833333333335,348.9892619524151L143.3285,349.0375000401185L146.19066666666666,341.1743605723748L146.52091666666666,340.3510046372047L147.62175,348.8756159283221L148.3923333333333,341.7057315973135L149.71333333333334,343.775536108017L150.37383333333332,344.1383321285248L150.92425,349.0304925390161L151.36458333333331,345.8504952632464L154.33683333333332,348.66398801069994L155.32758333333334,349.0459225034484L156.86875,337.73147467099704L157.8595,343.6344605134084L159.1805,349.03780347687695L160.17125,348.8666714547632L165.7855,343.4392117573665L166.55608333333333,349.0485988735006L166.66616666666667,344.3025022359995L166.99641666666668,336.6163383337168L167.6569166666667,342.92045923012955L167.767,342.2990963128897L169.41825,334.6049808575557L170.6291666666667,340.8458768551166L170.73925,343.92421593849474L170.84933333333333,348.7656078253228L170.9594166666667,341.81281690230736L172.06025,340.05383007343L173.16108333333332,343.70278147734126L173.93166666666664,342.9182089475485L174.81233333333333,348.2520198322259L175.25266666666664,341.3246664157281L176.3535,339.7945733950688L177.67450000000002,340.68701910605796L179.21566666666666,349.0218642460612L180.20641666666666,338.2622654474699L181.52741666666665,349.09693237485794L182.73833333333334,344.16204328536986L183.06858333333335,349.06160720397645L183.61900000000003,337.84072637557983L185.93075,346.7401650364582L186.15091666666666,337.3778108046605L186.70133333333334,337.2159450531006L187.14166666666665,343.88501346478097L187.91224999999997,339.7106273174286L191.76516666666666,338.12237218710095L192.09541666666667,338.5043801857875L192.75591666666668,337.3507949352264L193.5265,341.35828547110924L193.74666666666667,334.0170622972342L193.96683333333334,340.4064915033487L197.37941666666666,341.3541883762066L197.92983333333336,340.93729267853956L198.03991666666667,336.37327869855443L199.69116666666667,348.791990564477L199.80124999999998,341.61098818412194L200.24158333333332,344.2500022282967L200.46175,337.21097723887516L201.01216666666667,348.18444818258286L202.66341666666668,341.2632266301375L203.5440833333333,341.0061918111948L203.65416666666667,348.9134831098302L204.20458333333332,338.925563621521L205.4155,336.90613535367527L206.5163333333333,343.0907902314113L207.28691666666668,340.4515720257392L207.6171666666667,348.13809364392205L207.83733333333333,333.959004174746L209.2684166666667,337.6611335827754L209.59866666666667,338.25768169256355L210.5894166666667,340.77044386130115L212.46083333333334,343.9740074267754L213.56166666666664,346.92536360483905L217.30450000000002,348.9832798894781L217.63475,338.95086300923276L219.61625,342.6351669348203L220.82716666666664,339.4371632172511L221.04733333333334,349.04062519067753L224.68008333333333,346.6911170565165L224.90025000000003,340.805766919943L226.22125000000003,338.4126648792854L226.5515,337.1988814500662L227.32208333333335,337.65642989598786L227.98258333333334,339.86330060225265L230.07416666666666,22.10522320087142L234.58758333333336,349.0793537969773L234.80775,340.6181005624624L237.1195,349.0180042419296L237.33966666666666,332.60562766148496L238.22033333333334,341.7601647266975L238.77075,343.7611186320965L239.43125,349.0151956673425L241.52283333333332,343.92649603073414L242.29341666666667,338.6682313992427L243.28416666666666,334.7517968911391L243.8345833333333,20.877653151292066L244.49508333333333,343.060107080753L245.81608333333332,334.7817465855525L246.91691666666668,343.4873727266605L247.35725,349.17124627163776L247.6875,348.86847365008526L248.23791666666668,341.259887948403L249.0085,340.19966446803164L250.87991666666667,348.62459987654137L251.76058333333333,334.78240101154034L253.41183333333333,344.34665484611804L253.96225,340.57348520939166L254.18241666666668,344.07970034342543L254.62275,344.11563138044795L254.73283333333333,348.13203916366285L256.16391666666664,348.90076965680345L259.0260833333333,348.7314870642928L261.558,343.41954431533816L264.42016666666666,347.980418835695L265.521,341.3214067642505L265.6310833333333,346.185996555365L265.7411666666667,345.5802048518108L266.07141666666666,345.7453683834809L266.29158333333334,338.7047232737908L266.6218333333333,348.7565671148782L266.95208333333335,338.3233294927157L270.58483333333334,345.8599133821634L271.0251666666667,336.07668923598067L271.90583333333336,22.270249469463636L272.89658333333335,348.9278261201653L273.00666666666666,348.63815740014496L274.10749999999996,21.526555340106654L276.41925,349.09353557945445L277.40999999999997,23.184737689678457L278.5108333333333,24.72603290264425L280.1620833333333,343.82684580912957L280.60241666666667,343.01523037323585L283.46458333333334,341.78277361943174L284.45533333333333,346.47925461530684L285.88641666666666,335.01570387620194L286.32675,25.324666302020717L288.30825,341.7719693514017L288.6385,23.044646160419177L288.74858333333333,21.015725942758422L289.0788333333333,348.60700981674285L289.299,334.25807546468883L289.7393333333333,343.69270303982955L290.7300833333333,336.8385520054744L290.95025,343.27327074821176L291.3905833333333,338.3467820681058L291.5006666666667,342.5936011791229L291.94100000000003,22.164210275503308L292.4914166666667,330.98047441335825L297.225,339.2790174337534L299.4266666666667,341.16088383381185L301.51825,343.74680237036483L301.8485,343.6702286371818L302.72916666666663,21.42040522648739L303.49975,336.11904945373533L306.2518333333333,21.931500831017104L306.58208333333334,23.253951556865957L308.12325000000004,336.84776388315055L308.5635833333333,20.94642333984376L309.44425,335.45446461164033L309.7745,20.396350567157413L310.10474999999997,343.9031879975246L310.435,343.662316599259L313.7375,20.523775071364184L313.9576666666667,340.34582815537084L315.4988333333333,22.202943420410122L316.04925,333.87225113648634L316.5996666666667,20.44664154052731L317.81058333333334,337.02716811253475L319.2416666666667,340.1950613021851L319.57191666666665,20.542343022273144L321.4433333333333,21.81720921443059L323.31475,334.2457897259639L323.97525,338.03231582274805L324.74583333333334,21.09487821138822L326.287,21.371600576547507L328.04833333333335,335.2760267697848L328.7088333333333,20.411036330003014L329.4794166666667,21.610943016639112L333.0020833333333,346.97547935981015L334.76341666666667,336.2983621744009L336.1945,336.0773589134216L338.6163333333334,23.39969998873198L339.27683333333334,337.0642111191383L339.7171666666666,25.91518038236177L340.1575,332.9108660844656L340.7079166666667,342.7225570678711L342.2490833333333,20.66360039344204L342.46925,23.182497112567603L345.11125,22.231782531738247L348.5238333333333,21.82535071739784L349.51458333333335,21.672880554199253L349.62466666666666,21.759863750751208L350.065,22.019925983135522L351.1658333333333,310.68029673649716L351.49608333333333,22.158619924692005L351.71625,24.2974615243765L351.8263333333333,22.339840463491555L352.92716666666666,20.03892305814304L353.9179166666667,22.624149733323293L354.68850000000003,23.42356989933893L355.1288333333333,341.9012164042546L357.55066666666664,24.9607389009916L359.7523333333333,334.8831382458027L359.8624166666666,22.13983013446517L360.1926666666667,341.8196169706491L360.30275,329.8391762880178L360.96325,23.9871526864859L361.0733333333333,22.827620755709177L362.28425,24.151424701397275L364.15566666666666,22.169223844088037L364.596,23.282169518103956L364.92625,23.638310359074524L365.91700000000003,20.350008333646315L369.99008333333336,20.54751187838042L374.17325,22.14122772216797L376.15475,310.7508804614727L376.26483333333334,23.521711613581715L378.79675000000003,21.629799358661387L381.65891666666664,24.16948242187499L381.76899999999995,339.553777214197L382.8698333333333,341.85292822397673L386.06225,20.40664391150841L386.1723333333333,23.42596576397233L386.72275,335.63452604000383L388.04375,21.30560337946963L389.8050833333333,336.7765520756061L390.24541666666664,339.35156720968394L390.5756666666667,21.19874338003308L391.01599999999996,20.583538583608743L391.6765,20.696033301720263L394.09833333333336,21.942548429048998L395.0890833333333,21.251563321627145L395.30925,21.768692955603967L395.6395,22.7789048414964L396.18991666666665,25.1103029691256L396.96049999999997,340.6410671710968L397.8411666666667,340.3325871210832L398.2815,22.811737060546875L399.1621666666666,22.099300091083194L401.1436666666666,20.32057025615984L401.8041666666666,334.70773128362805L403.23525,20.15516686072715L403.4554166666667,348.8218511657073L404.3360833333333,21.617509460449185L405.98733333333337,336.8285955795875L406.0974166666667,24.51508589524491L407.5285,23.071732741135804L408.51925000000006,23.534156799316406L408.73941666666667,21.39959669846752L408.95958333333334,21.817963468111486L409.51,348.0937419850093L409.6200833333333,20.378780893179055L410.3906666666666,20.63178863525394L410.61083333333335,20.790980529785145L411.27133333333336,20.951015413724463L411.60158333333334,21.24879033015327L412.152,23.265908696101235L412.9225833333333,341.99465720470135L413.80325,349.1181206727257L415.78475,20.38960665189302L416.0049166666667,21.007429152268628L417.54608333333334,24.341873755821837L417.76624999999996,24.21478201059199L418.31666666666666,21.25320493257965L418.8670833333333,22.901315777118384L419.63766666666663,22.221711026705236L420.29816666666665,20.44085153432991L422.49983333333336,22.510434898963354L423.71074999999996,347.9343957561713L424.37125,22.27022728553186L425.47208333333333,341.1024804738852L426.13258333333334,23.382418705866883L426.683,25.557619769756627L428.4443333333333,21.298504521296593L429.325,24.04937861515924L431.63675,22.271713608961818L436.26025,24.20921384371246L436.7005833333333,22.669116563063426L437.0308333333333,21.005876277043285L437.25100000000003,20.71351423997146L437.6913333333333,24.44030386117788L438.13166666666666,22.12407954289364L438.35183333333333,20.26340226393478L440.55350000000004,334.63449519230767L441.76441666666665,21.236278592623194L443.85600000000005,340.70727303578303L444.7366666666667,334.71116424707265L446.05766666666665,23.95199115459735L446.2778333333333,20.96099818303037L447.26858333333337,348.86688510509066L448.47950000000003,334.2347033060514L448.80975,21.3445361797626L450.13075,23.823834580641517L451.23158333333333,22.220801485501795L451.45175,22.23082862267131L451.78200000000004,20.180012864332923L451.89208333333335,23.288869065504798L454.53408333333334,24.356182391826962L454.9744166666666,22.485034297062782L456.95591666666667,21.175694274902355L459.2676666666667,25.047677729680004L460.3685,343.8601799396368L463.0105,20.272786067082336L463.12058333333334,20.563306837815503L469.7255833333333,23.452675217848537L470.4961666666667,22.392948796198937L470.71633333333335,22.476049804687534L472.1474166666667,23.319948753943834L473.24825000000004,20.691884906475366L473.35833333333335,22.68859405517577L473.7986666666667,24.86304086538462L474.3490833333333,20.899615243765027L475.33983333333333,23.865007958045396L475.44991666666664,22.474164170485267L475.56,22.308361464280324L476.77091666666666,24.045052748460023L477.21125,20.29854161189155L477.9818333333333,24.965175687349756L480.4036666666667,340.58719141299906L481.6145833333333,24.56739560640773L481.83475000000004,23.5973366370568L482.16499999999996,25.846388009878297L484.2565833333333,26.407996427095895L485.68766666666664,20.192724257249097L486.2380833333333,21.09101820725658L487.449,22.48104118934043L487.88933333333335,22.460609788161037L487.99941666666666,20.79328765869144L489.76075000000003,24.06807966965897L490.86158333333333,24.82297668457028L491.19183333333336,26.58679891733027L492.29266666666666,20.39133699857274L494.4943333333334,21.317493966909524L494.6044166666667,22.146906808706433L495.1548333333334,20.740512084960926L495.81533333333334,20.852829331618068L496.47583333333336,20.365204326923106L497.13633333333337,24.815456331693213L501.3195,25.69189910888673L501.4295833333333,20.192191842886132L502.53041666666667,343.45544519607836L503.0808333333334,336.6235536575317L503.1909166666667,22.455463115985538L503.8514166666667,24.610343698354882L505.943,23.44471118633561L506.16316666666665,22.37225118783806L507.59425,22.284868680513796L508.36483333333337,23.869755319448586L508.4749166666667,20.159426175630983L509.46566666666666,346.6995242467293L510.23625,338.1174466609955L511.22700000000003,22.446789198655324L513.2085000000001,23.883265333909264L513.4286666666667,335.1972183520977L513.869,23.88934373121998L516.18075,22.64939504770132L517.1715,333.2957143196693L520.0336666666667,21.254247577373803L521.6849166666667,22.67384174053484L522.1252499999999,22.63572974571815L522.2353333333333,23.164883070725637L522.6756666666666,21.27898266132064L523.116,23.378713989257847L523.3361666666667,20.508290686974135L524.8773333333334,340.1699879132784L524.9874166666666,23.363429260253895L527.5193333333333,20.862257502629234L527.6294166666667,20.31289461576023L528.2899166666666,21.31230292687053L528.8403333333333,23.220320716271033L529.0605,20.938525860126163L530.1613333333333,23.447927856445347L531.042,337.0731595626244L532.2529166666667,21.661788588303807L533.0235,23.862168414776136L533.5739166666666,22.29462961050183L534.4545833333334,22.084104097806517L535.2251666666667,346.1119582029489L535.33525,20.169187105619017L535.4453333333333,20.208763239933887L535.7755833333333,22.840576171875L536.5461666666666,22.434787691556494L538.7478333333333,23.97386451134315L539.29825,22.91411590576172L544.8024166666667,22.770009084848255L545.24275,21.549759732759924L545.7931666666667,333.92802015451286L546.56375,20.42350369966948L547.1141666666667,24.46958665114181L548.2149999999999,23.446596820537877L550.3065833333334,21.23463698167069L552.6183333333333,23.764270723783056L553.2788333333333,20.503742980957043L556.9115833333333,336.377486713116L557.0216666666666,20.86982222336991L557.13175,21.559764685997607L558.6729166666667,21.499690598707957L560.9846666666667,21.08214463454027L562.5258333333334,20.348854769193167L563.8468333333334,20.22027670053336L565.4980833333333,20.159514911358144L568.2501666666666,24.21759936992936L568.6905,20.85112116887018L568.8005833333333,345.88382350114676L570.672,343.706198149461L570.8921666666666,23.616126427283632L571.00225,340.38480948301464L572.98375,21.89966688889723L573.7543333333333,25.31297536996692L577.3870833333333,23.954187363844653L578.0475833333334,24.980016737717847L578.7080833333333,20.50205700214093L579.0383333333334,23.51869459885819L579.4786666666666,20.222228886530957L579.6988333333334,20.21067105806793L580.1391666666666,22.004108839768605L580.6895833333333,22.525630892240088L581.1299166666666,24.79884056678185L581.6803333333334,348.67330747177965L582.7811666666666,20.457578218900267L583.9920833333333,21.201982234074535L589.0559166666667,22.19440260667068L589.7164166666666,20.86802532489486L590.2668333333334,310.82832179436315L596.8718333333333,24.199452913724485L597.7525,23.61226642315205L598.8533333333334,22.365751295823316L599.0735,324.65996999007007L599.5138333333333,21.50335094745344L601.4953333333333,21.034693204439577L602.04575,338.3147269799159L604.1373333333333,22.051671189528236L604.4675833333333,24.4082258958083L607.2196666666666,20.896043630746703L607.7700833333333,24.898623891977195L607.8801666666667,20.46050649789663L608.1003333333333,334.5193384023813L609.0910833333334,20.494181706355164L612.5036666666666,22.32948056734523L612.9440000000001,21.657351801945595L615.6960833333334,20.56565833458535L616.2465000000001,20.44837188720703L617.23725,25.253810823880713L619.21875,20.792267197829005L620.7599166666666,335.7436252300556L620.87,23.613397803673365L622.52125,23.99560476449824L623.84225,340.424836228444L626.0439166666666,22.974788959209775L626.2640833333334,20.271499399038476L626.3741666666667,24.516572218674867L626.7044166666667,22.304678931603064L627.0346666666667,21.084939809945922L628.0254166666666,24.050376892089844L628.9060833333334,22.83534076397234L629.2363333333333,341.08499814913824L630.9976666666666,341.67551014973566L631.438,20.91853813758263L632.2085833333334,22.928912588266257L634.8505833333332,24.77792111910304L636.6119166666666,25.02209965632511L639.03375,24.135407902644204L640.5749166666667,20.833440575232885L642.7765833333333,22.881927020733144L643.7673333333333,22.84618870661808L645.4185833333333,22.311067903958815L645.5286666666667,21.444474792480435L646.5194166666666,24.474622403658373L647.4000833333333,21.984653531588037L647.7303333333333,22.512875131460305L648.7210833333334,22.512498004619886L649.4916666666667,23.876654522235583L650.8126666666666,21.010357431264993L650.9227500000001,20.193700350247923L651.253,21.06078150822566L652.6840833333333,336.2469578449543L654.1151666666666,21.691271033653834L654.5554999999999,20.097843580979543L654.7756666666667,23.181875962477477L655.3260833333334,334.69548575327946L656.0966666666667,23.831621140700122L656.7571666666666,23.168144108698925L656.86725,23.59793560321515L659.2890833333333,22.185174091045667L659.8395,20.82827171912561L660.83025,23.213465881347645L662.0411666666666,23.401585622934192L663.8024999999999,339.92437435296864L665.6739166666666,326.8006944509653L666.3344166666666,22.373116361177892L666.5545833333334,20.67418212890624L666.77475,21.533432358961818L667.3251666666666,343.6189979663262L667.7655,24.74138418344353L669.8570833333333,21.13037250225358L671.2881666666666,21.6542016836313L672.8293333333334,340.43070803788993L673.5999166666667,23.811566866361204L675.0310000000001,20.338938551682702L676.5721666666667,340.81936913637014L676.7923333333333,24.90135251558746L677.0124999999999,25.257759563739512L677.1225833333333,23.01991107647234L677.34275,20.920312852125903L678.00325,21.929060598520095L678.2234166666666,21.33537421593303L678.4435833333332,23.58506892277643L678.5536666666667,20.326759573129493L678.7738333333334,21.929748300405663L682.62675,22.799291874812184L683.0670833333334,22.437227924053502L683.5074166666666,22.471723937988315L684.4981666666666,21.061025531475366L685.3788333333334,22.295162024864794L685.92925,25.09075892521787L686.5897500000001,336.95159577589766L687.4704166666667,21.110673170823304L688.3510833333333,21.308110163762024L689.6720833333334,24.725655775803773L695.3964166666666,21.308930969238247L695.83675,21.59725553072417L696.0569166666667,23.584580876277016L696.3871666666666,331.71613934590266L697.5980833333333,21.820004389836242L698.5888333333334,25.67182265061598L699.2493333333333,22.333407123272252L702.44175,22.49905454195465L702.6619166666667,334.4098551530104L703.2123333333333,24.739121422400842L703.3224166666666,23.229083369328407L705.5240833333334,346.36015099195333L706.0745,20.48546342116134L707.1753333333334,22.64566814716045L708.056,26.13411360520587L710.5879166666667,23.67211867112377L712.6795,21.650785358135522L713.34,20.239288330078125L713.67025,21.265916325495766L714.99125,20.344196143517138L715.7618333333332,22.447698739858765L717.303,22.451381272536082L718.0735833333333,24.159876779409558L719.0643333333334,24.4042771559495L719.3945833333333,20.61535034179684L720.7155833333333,23.80304823655348L722.2567499999999,21.82548382098861L723.2475,23.225733595628014L723.5777499999999,20.935841604379505L723.908,20.280239868164074L725.6693333333334,335.25014089437633L726.1096666666666,22.46582301213192L726.6600833333334,23.445886934720534L727.9810833333333,22.22353010911212L728.7516666666667,21.329739497258117L729.3020833333334,23.11636681189907L731.2835833333334,21.821047034630396L731.8340000000001,346.8912502637276L732.0541666666667,24.560962266188426L732.6045833333333,310.921793790964L733.3751666666667,347.41019759361564L735.3566666666667,23.45369567871097L736.0171666666668,20.351339369553784L737.6684166666666,20.237491431603075L742.5120833333334,22.064737525353053L742.9524166666666,24.02972365159252L743.0625,336.9469593341534L744.05325,24.20007406381461L744.6036666666666,25.060788433368373L745.5944166666667,20.448726830115675L746.3649999999999,24.40920198880707L751.31875,341.24570548350994L752.4195833333333,20.398036545973582L752.5296666666667,20.596249976524916L752.8599166666667,21.668820894681517L756.7128333333333,340.9532838271214L757.7035833333333,23.438765892615663L758.0338333333333,20.46243649996245L758.1439166666667,20.646430030235877L759.24475,20.432865318885206L760.56575,23.43211071307843L763.6480833333333,20.689666513296288L764.0884166666667,21.985851463904737L764.52875,20.477255366398765L764.6388333333333,21.14102078951322L765.6295833333334,23.967453355055568L773.4455,20.80014249361477L774.106,21.398975548377393L775.2068333333333,22.848495835524318L779.1698333333334,21.076465548001806L780.38075,20.98444659893329L781.0412500000001,20.705816415640015L783.02275,22.869459651066734L783.68325,23.27493755634015L783.9034166666668,22.00674872765171L786.5454166666667,21.10319718580979L787.7563333333334,311.07808513641356L788.4168333333333,21.203956604003906L789.0773333333334,20.238889019305873L790.3983333333334,23.817445608285766L791.0588333333334,21.258617811936574L791.7193333333335,20.031336153470534L791.8294166666667,20.139150061974135L792.0495833333333,332.86509508719814L792.3798333333333,24.156815396822424L793.1504166666667,20.23227820763225L793.59075,343.8000309815774L793.8109166666667,23.50762481689452L794.3613333333334,22.479000267615675L795.242,21.70001150277949L796.0125833333334,21.767095712515015L796.4529166666666,23.42640944260819L799.8655,21.64237764798679L803.2780833333333,23.363251788799573L804.0486666666667,22.76874460073617L806.1402499999999,23.358970289963963L806.2503333333333,341.13471164703367L806.6906666666667,334.4917194073017L807.0209166666666,20.388430903508095L807.131,22.124146094689024L807.2410833333333,343.6630427764012L808.2318333333334,24.478659879244333L809.0024166666667,23.10074932391825L809.5528333333333,22.751197110689645L810.2133333333333,20.61830080472504L813.5158333333334,20.551305330716673L813.6259166666666,22.336956552358743L815.9376666666667,20.481492497370766L817.0385000000001,20.695389967698304L820.5611666666666,20.593499168982873L821.8821666666666,22.16143728402949L823.3132499999999,20.125484759991025L823.4233333333333,25.050140146108788L825.8451666666666,23.488990314190175L826.7258333333334,21.311703960712123L828.5972499999999,21.79695528470552L829.25775,23.751182204026463L830.1384166666666,22.74911182110128L832.1199166666667,23.744593576284558L833.6610833333333,331.94075858776387L835.7526666666668,22.563654151329615L836.4131666666666,22.862516080416185L836.52325,21.016990426870507L837.2938333333334,20.35830512413611L839.16525,21.466969299316418L839.9358333333333,342.73470762326167L841.3669166666667,21.679557917668262L841.477,24.241269625150267L845.6601666666667,21.123295828012317L845.77025,20.782240060659547L847.6416666666668,20.847083693284276L848.082,22.084215017465453L849.73325,21.9407958984375L850.8340833333333,344.0004614188121L853.9164166666666,23.1574292696439L854.35675,21.20963569054237L855.1273333333334,349.19606383041696L856.2281666666667,25.538918715256898L859.2004166666667,22.588367051344676L859.7508333333334,21.324570641150842L859.8609166666668,22.050162682166444L860.8516666666666,20.185048616849485L865.0348333333334,20.7374950702374L865.8054166666666,340.56092910399803L866.7961666666666,25.08847398024335L866.90625,20.29583517221306L867.0163333333334,24.11198167067306L869.7684166666667,24.986405710073655L870.2087499999999,21.42186936598557L870.6490833333334,349.0408140790577L870.9793333333333,22.14131645789513L872.0801666666666,25.201900423490088L874.83225,342.135094664647L875.0524166666667,23.975550490159264L875.9330833333333,23.840605633075427L876.3734166666667,24.15894505427434L877.2540833333334,21.73131303053634L877.47425,20.201265070988597L880.5565833333333,20.68718191293567L880.6666666666666,25.46327150785004L881.6574166666667,22.90408876859226L881.8775833333333,24.653802020733167L882.6481666666667,22.39252730149491L883.0885,22.621288006122256L884.4095,21.00476708045369L886.5010833333333,24.084828538161048L886.72125,21.31809293306793L888.1523333333333,22.307873417780968L889.4733333333334,20.76921809269834L889.5834166666666,21.648389493502123L889.9136666666666,24.991929509089516L890.1338333333333,25.19950455885663L891.7850833333334,21.10020235501804L892.00525,22.815131202110877L892.5556666666666,20.533469449556833L893.4363333333333,23.75772646390476L894.0968333333333,21.553286977914695L894.4270833333334,22.790196462777942L900.8119166666665,22.619579843374368L901.8026666666666,20.156009850135206L902.0228333333333,20.40664391150841L902.243,23.798234323354905L902.57325,22.680696575458228L902.6833333333334,22.768323106032142L904.55475,20.55146061823916L905.4354166666667,23.00198645958534L905.8757499999999,21.9638671875L906.206,20.197693457970274L906.3160833333334,20.655436706542957L907.0866666666666,25.39762925368092L910.3891666666667,20.290111717810987L912.7009166666666,348.5210148233634L913.14125,337.15963114224945L913.4715,344.1975025672179L914.3521666666667,25.8726537851187L914.7925,25.80776578463042L915.12275,345.6687530554258L917.4345,22.44634552001952L917.7647499999999,23.73263643704928L918.7555,20.983004643366883L919.08575,22.95045318603519L919.1958333333333,24.671704453688392L919.5260833333334,24.71831289438103L921.3975,348.99115858651123L921.72775,20.65009037898136L922.058,346.4397446861634L922.1680833333332,347.52582241250917L922.4983333333333,21.789878610464257L924.2596666666667,22.421921011117774L926.35125,23.11854083721454L930.6445,20.592079397348243L931.0848333333333,23.78277212289663L931.305,331.4996006011963L931.7453333333334,23.772767169658948L932.4058333333334,21.911956787109375L934.1671666666667,348.73043707540404L934.3873333333333,21.80917863112228L934.4974166666667,22.092511807955248L936.91925,346.9766265117205L940.6620833333333,22.09231215256915L942.5335,20.265931232158948L943.9645833333334,21.064242201585046L945.9460833333333,23.172159400353053L947.5973333333334,348.841606319839L948.80825,22.295450415978053L949.6889166666666,25.35552415114182L952.2208333333333,20.512372530423704L952.3309166666667,25.48838371863735L952.5510833333333,339.2402371479915L953.8720833333333,343.6189910338475L954.0922499999999,24.832094280536353L955.1930833333333,22.75523458627555L955.6334166666667,24.783910780686597L959.3762499999999,21.068900827261132L959.8165833333334,24.469054236778845L961.0275,20.99363074669475L962.3485000000001,23.25750098595256L964.6602499999999,23.283145611102725L965.7610833333333,21.935715778057386L966.8619166666666,343.5410484827482L970.935,22.35621220515327L971.5955,20.726891150841368L973.3568333333334,21.003813171386753L975.6685833333333,335.52508715849655L976.9895833333334,20.445598895733212L978.9710833333334,337.9263008924631L979.6315833333334,22.131866102952245L980.182,24.201427283653857L980.2920833333333,21.72175175593452L982.6038333333333,20.32147979736328L983.3744166666665,342.4549107038058L983.9248333333334,23.570494079589878L984.6954166666666,343.00567603111267L987.0071666666666,22.2222434410682L988.4382499999999,20.32258899395282L991.4105,21.692823908879234L992.40125,20.724295630821814L994.6029166666667,22.207446758563663L994.8230833333333,21.91592771089995L995.8138333333334,22.227656320425183L997.4650833333334,337.52793501707225L998.3457500000001,25.615231440617492L1001.9784999999999,334.43942494759193L1003.4095833333334,21.101444655198293L1004.7305833333332,22.97514390211842L1006.602,24.69275700495791L1007.0423333333333,22.693119577261086L1007.8129166666666,20.467849379319432L1008.91375,20.913413649338963L1009.1339166666667,22.798959115835373L1009.244,21.458672508826623L1009.3540833333334,20.09174299973705L1009.6843333333333,20.75455451378457L1010.0145833333332,21.671527334360007L1010.4549166666667,21.811263920710644L1011.4456666666667,23.1697191678561L1011.9960833333333,25.708381770207325L1013.0969166666667,20.634539442795983L1014.7481666666666,23.55205923227163L1015.6288333333334,20.604324927696837L1016.0691666666667,21.78954585148739L1017.8304999999999,24.377057471642104L1021.46325,21.656042949969958L1021.9035833333332,21.905944941594043L1023.5548333333334,20.987774188701962L1026.4170000000001,20.379734802246105L1026.74725,22.278967754657458L1028.1783333333333,20.462747075007485L1028.2884166666665,343.76161430432245L1028.6186666666665,23.91749514066254L1029.38925,22.81661752554089L1029.7195,21.334575594388525L1030.1598333333334,22.71745535043567L1030.8203333333333,21.32306213378905L1032.3615,23.90562673715442L1033.1320833333334,340.0334056047293L1033.5724166666666,21.50694474440354L1033.6825,22.613745469313415L1034.0127499999999,22.90275773268479L1034.4530833333333,21.928838759202222L1035.2236666666665,340.4957090377808L1035.7740833333335,23.29286217322715L1036.9850000000001,20.383905381422778L1038.63625,20.289778958834177L1039.29675,20.961441861666174L1039.7370833333334,21.41996154785153L1041.0580833333333,25.572327716533948L1042.59925,21.390545654296886L1043.3698333333334,346.6364563685197L1043.9202500000001,20.966766005295995L1044.0303333333334,20.218967848557668L1044.1404166666666,21.37049137995791L1044.2504999999999,20.204415189302892L1044.911,22.532019864595895L1045.6815833333333,349.01530822263317L1047.553,310.7218416947585L1050.1950000000002,22.73839698204631L1053.3874166666667,22.523390315129234L1054.5983333333334,21.68530355600211L1054.8185,22.667874262883117L1056.46975,24.121786968524646L1057.0201666666667,25.246578862116905L1058.7815,22.25869164100061L1059.77225,21.611564166729238L1060.8730833333334,20.43643693190353L1062.5243333333333,21.438085820124684L1064.1755833333334,348.0699585570739L1064.6159166666666,20.448948669433605L1065.1663333333333,23.078032977764394L1066.8175833333332,22.07651719313401L1067.6982500000001,347.10334823590057L1068.7990833333333,23.0190015352689L1069.3495,21.675365154559756L1071.3310000000001,20.159692382812466L1072.8721666666668,23.267727778508117L1073.0923333333333,21.42266798753002L1077.1654166666667,22.705143268291806L1077.2755,21.142329641488914L1078.8166666666666,23.43166703444257L1079.8074166666668,23.006822556715747L1080.90825,20.701024686373216L1082.5595,24.629776822603674L1084.4309166666667,24.97793144812954L1085.0914166666666,22.34004011887771L1085.5317499999999,337.09125749147853L1086.7426666666668,21.566508601262L1086.85275,22.341504258375892L1087.2930833333332,21.65429041935846L1087.51325,21.545766625037572L1089.2745833333333,24.1699704683744L1089.6048333333333,343.49090205155886L1090.9258333333332,20.40668827937202L1091.0359166666667,20.164506296011155L1091.3661666666667,21.159011958195606L1092.13675,25.00816814716046L1092.4669999999999,24.706888169508716L1093.2375833333333,22.032548640324535L1093.788,20.280750098595263L1094.2283333333335,343.11702065101036L1096.3199166666666,21.385909212552576L1096.5400833333333,23.333636239858777L1097.5308333333332,22.236596444936936L1099.2921666666668,21.26369793231669L1099.5123333333333,24.50823106032152L1099.7325,21.06477461594801L1099.9526666666666,337.1000243040232L1100.72325,20.54205463115983L1103.0349999999999,21.029369060809756L1103.8055833333333,20.628638516939645L1106.1173333333334,22.913805330716627L1107.98875,20.155654907226562L1109.1996666666666,22.27717085618241L1110.7408333333333,22.95684215839094L1111.7315833333334,20.246586843637317L1112.6122500000001,25.003731360802306L1114.2635,341.37807631125816L1114.8139166666667,23.414940349872325L1114.924,340.3231430053711L1117.23575,335.5471726490901L1117.3458333333333,21.492724844125632L1118.9970833333332,22.333961721566993L1121.9693333333335,21.44707031249999L1123.4004166666666,21.020318016639123L1125.82225,21.196258779672462L1126.7029166666666,20.258921109713015L1129.3449166666667,20.167345839280358L1130.1155,22.085878812349733L1131.2163333333333,21.86592512864337L1131.9869166666667,337.1766878128052L1132.3171666666667,343.74680756972384L1134.2986666666668,22.350333463228708L1135.5095833333335,310.7265640992385L1136.7205000000001,22.628497783954288L1137.8213333333333,21.297683715820312L1139.2524166666667,20.781862933819127L1141.01375,24.938000370905968L1141.344,21.595014953613315L1142.1145833333335,21.869718580979566L1143.1053333333332,343.4121269097695L1143.5456666666666,21.501176922137915L1143.6557500000001,21.682641484187172L1144.2061666666666,21.339988473745507L1145.0868333333333,20.292285743126513L1146.8481666666667,21.676185960036037L1149.0498333333333,22.18240109957179L1149.7103333333332,24.35744687593899L1152.0220833333333,20.86511922983027L1154.0035833333334,21.87355640117937L1154.6640833333333,20.329887507512012L1155.2145,22.66139655480015L1156.4254166666667,22.807788320688132L1158.4069166666666,22.696558086688697L1158.6270833333333,23.271188471867504L1158.9573333333333,335.7170322418213L1160.3884166666667,22.390619483360865L1160.4985,20.72311988243689L1162.2598333333333,22.214079754169177L1163.6909166666667,22.22983034574071L1169.5253333333333,20.94864173302284L1170.07575,20.4268312894381L1170.5160833333334,21.39977416992184L1172.05725,23.415738971416772L1174.5891666666666,21.475399193396925L1175.69,21.1056374183068L1176.02025,20.841338054950427L1176.9009166666667,21.315519596980153L1178.5521666666666,20.913502385066124L1181.5244166666666,25.304767315204288L1181.8546666666668,22.315282850999097L1182.1849166666666,24.818517714280347L1183.0655833333333,22.866886314978956L1183.94625,22.135215876652637L1184.2765,340.30462288856506L1184.4966666666667,337.53062065931465L1186.58825,21.513777395395095L1187.24875,23.344395446777355L1188.6798333333334,20.764137972318167L1188.7899166666666,21.463819181002123L1189.0100833333333,26.27850881723259L1192.0924166666666,22.865976773775515L1192.3125833333334,337.0029307805575L1192.7529166666668,20.996780865009043L1193.0831666666668,336.825198665032L1195.505,21.125336749737073L1196.826,20.750206463153575L1198.5873333333334,21.93247692401593L1199.3579166666668,21.47848275991589L1200.1285,23.309788513183605L1201.77975,348.5146512845388L1202.9906666666666,22.927115689791208L1203.9814166666667,20.873571307842553L1204.6419166666667,338.3121293801528L1205.5225833333334,20.676089947040225L1208.0545,20.14092477651741L1209.5956666666666,21.640003967285168L1210.6965,20.53910416823163L1210.8065833333333,24.139068251389745" style="fill: none;" fill="none"></path></g></g></g></g></g></g><g transform="translate(46, 378)" clip-path="url(#clip_1)"><clipPath id="clip_1"><rect width="1321" height="22"></rect></clipPath><g><g><line x1="0" y1="0" x2="0" y2="5" style="visibility: inherit;" fill="rgb(0, 0, 0)" stroke="rgb(204, 204, 204)" stroke-width="1px"></line><line x1="110.08333333333333" y1="0" x2="110.08333333333333" y2="5" style="visibility: inherit;" fill="rgb(0, 0, 0)" stroke="rgb(204, 204, 204)" stroke-width="1px"></line><line x1="220.16666666666666" y1="0" x2="220.16666666666666" y2="5" style="visibility: inherit;" fill="rgb(0, 0, 0)" stroke="rgb(204, 204, 204)" stroke-width="1px"></line><line x1="330.25" y1="0" x2="330.25" y2="5" style="visibility: inherit;" fill="rgb(0, 0, 0)" stroke="rgb(204, 204, 204)" stroke-width="1px"></line><line x1="440.3333333333333" y1="0" x2="440.3333333333333" y2="5" style="visibility: inherit;" fill="rgb(0, 0, 0)" stroke="rgb(204, 204, 204)" stroke-width="1px"></line><line x1="550.4166666666667" y1="0" x2="550.4166666666667" y2="5" style="visibility: inherit;" fill="rgb(0, 0, 0)" stroke="rgb(204, 204, 204)" stroke-width="1px"></line><line x1="660.5" y1="0" x2="660.5" y2="5" style="visibility: inherit;" fill="rgb(0, 0, 0)" stroke="rgb(204, 204, 204)" stroke-width="1px"></line><line x1="770.5833333333334" y1="0" x2="770.5833333333334" y2="5" style="visibility: inherit;" fill="rgb(0, 0, 0)" stroke="rgb(204, 204, 204)" stroke-width="1px"></line><line x1="880.6666666666666" y1="0" x2="880.6666666666666" y2="5" style="visibility: inherit;" fill="rgb(0, 0, 0)" stroke="rgb(204, 204, 204)" stroke-width="1px"></line><line x1="990.75" y1="0" x2="990.75" y2="5" style="visibility: inherit;" fill="rgb(0, 0, 0)" stroke="rgb(204, 204, 204)" stroke-width="1px"></line><line x1="1100.8333333333335" y1="0" x2="1100.8333333333335" y2="5" style="visibility: inherit;" fill="rgb(0, 0, 0)" stroke="rgb(204, 204, 204)" stroke-width="1px"></line><line x1="1210.9166666666665" y1="0" x2="1210.9166666666665" y2="5" style="visibility: inherit;" fill="rgb(0, 0, 0)" stroke="rgb(204, 204, 204)" stroke-width="1px"></line><line x1="1321" y1="0" x2="1321" y2="5" style="visibility: inherit;" fill="rgb(0, 0, 0)" stroke="rgb(204, 204, 204)" stroke-width="1px"></line></g><g transform="translate(0, 8)"><text x="0" y="0" dx="0em" dy="0.95em" style="text-anchor: middle; visibility: hidden; font-family: &quot;Helvetica Neue&quot;, sans-serif; font-size: 12px; font-weight: 200;" fill="rgb(50, 49, 63)" stroke="none" stroke-width="1px">-1k</text><text x="110.08333333333333" y="0" dx="0em" dy="0.95em" style="text-anchor: middle; visibility: inherit; font-family: &quot;Helvetica Neue&quot;, sans-serif; font-size: 12px; font-weight: 200;" fill="rgb(50, 49, 63)" stroke="none" stroke-width="1px">0</text><text x="220.16666666666666" y="0" dx="0em" dy="0.95em" style="text-anchor: middle; visibility: inherit; font-family: &quot;Helvetica Neue&quot;, sans-serif; font-size: 12px; font-weight: 200;" fill="rgb(50, 49, 63)" stroke="none" stroke-width="1px">1k</text><text x="330.25" y="0" dx="0em" dy="0.95em" style="text-anchor: middle; visibility: inherit; font-family: &quot;Helvetica Neue&quot;, sans-serif; font-size: 12px; font-weight: 200;" fill="rgb(50, 49, 63)" stroke="none" stroke-width="1px">2k</text><text x="440.3333333333333" y="0" dx="0em" dy="0.95em" style="text-anchor: middle; visibility: inherit; font-family: &quot;Helvetica Neue&quot;, sans-serif; font-size: 12px; font-weight: 200;" fill="rgb(50, 49, 63)" stroke="none" stroke-width="1px">3k</text><text x="550.4166666666667" y="0" dx="0em" dy="0.95em" style="text-anchor: middle; visibility: inherit; font-family: &quot;Helvetica Neue&quot;, sans-serif; font-size: 12px; font-weight: 200;" fill="rgb(50, 49, 63)" stroke="none" stroke-width="1px">4k</text><text x="660.5" y="0" dx="0em" dy="0.95em" style="text-anchor: middle; visibility: inherit; font-family: &quot;Helvetica Neue&quot;, sans-serif; font-size: 12px; font-weight: 200;" fill="rgb(50, 49, 63)" stroke="none" stroke-width="1px">5k</text><text x="770.5833333333334" y="0" dx="0em" dy="0.95em" style="text-anchor: middle; visibility: inherit; font-family: &quot;Helvetica Neue&quot;, sans-serif; font-size: 12px; font-weight: 200;" fill="rgb(50, 49, 63)" stroke="none" stroke-width="1px">6k</text><text x="880.6666666666666" y="0" dx="0em" dy="0.95em" style="text-anchor: middle; visibility: inherit; font-family: &quot;Helvetica Neue&quot;, sans-serif; font-size: 12px; font-weight: 200;" fill="rgb(50, 49, 63)" stroke="none" stroke-width="1px">7k</text><text x="990.75" y="0" dx="0em" dy="0.95em" style="text-anchor: middle; visibility: inherit; font-family: &quot;Helvetica Neue&quot;, sans-serif; font-size: 12px; font-weight: 200;" fill="rgb(50, 49, 63)" stroke="none" stroke-width="1px">8k</text><text x="1100.8333333333335" y="0" dx="0em" dy="0.95em" style="text-anchor: middle; visibility: inherit; font-family: &quot;Helvetica Neue&quot;, sans-serif; font-size: 12px; font-weight: 200;" fill="rgb(50, 49, 63)" stroke="none" stroke-width="1px">9k</text><text x="1210.9166666666665" y="0" dx="0em" dy="0.95em" style="text-anchor: middle; visibility: inherit; font-family: &quot;Helvetica Neue&quot;, sans-serif; font-size: 12px; font-weight: 200;" fill="rgb(50, 49, 63)" stroke="none" stroke-width="1px">10k</text><text x="1321" y="0" dx="0em" dy="0.95em" style="text-anchor: middle; visibility: hidden; font-family: &quot;Helvetica Neue&quot;, sans-serif; font-size: 12px; font-weight: 200;" fill="rgb(50, 49, 63)" stroke="none" stroke-width="1px">11k</text></g><line x1="0" y1="0" x2="1321" y2="0" fill="rgb(0, 0, 0)" stroke="rgb(204, 204, 204)" stroke-width="1px"></line></g></g></g></g></svg>