<svg viewBox="0 0 1367 400" xmlns="http://www.w3.org/2000/svg"><g><g><g><g><g><line x1="46" y1="378" x2="41" y2="378" style="visibility: inherit;" fill="rgb(0, 0, 0)" stroke="rgb(204, 204, 204)" stroke-width="1px"></line><line x1="46" y1="348.9230769230769" x2="41" y2="348.9230769230769" style="visibility: inherit;" fill="rgb(0, 0, 0)" stroke="rgb(204, 204, 204)" stroke-width="1px"></line><line x1="46" y1="319.8461538461538" x2="41" y2="319.8461538461538" style="visibility: inherit;" fill="rgb(0, 0, 0)" stroke="rgb(204, 204, 204)" stroke-width="1px"></line><line x1="46" y1="290.7692307692308" x2="41" y2="290.7692307692308" style="visibility: inherit;" fill="rgb(0, 0, 0)" stroke="rgb(204, 204, 204)" stroke-width="1px"></line><line x1="46" y1="261.6923076923077" x2="41" y2="261.6923076923077" style="visibility: inherit;" fill="rgb(0, 0, 0)" stroke="rgb(204, 204, 204)" stroke-width="1px"></line><line x1="46" y1="232.6153846153846" x2="41" y2="232.6153846153846" style="visibility: inherit;" fill="rgb(0, 0, 0)" stroke="rgb(204, 204, 204)" stroke-width="1px"></line><line x1="46" y1="203.53846153846152" x2="41" y2="203.53846153846152" style="visibility: inherit;" fill="rgb(0, 0, 0)" stroke="rgb(204, 204, 204)" stroke-width="1px"></line><line x1="46" y1="174.46153846153848" x2="41" y2="174.46153846153848" style="visibility: inherit;" fill="rgb(0, 0, 0)" stroke="rgb(204, 204, 204)" stroke-width="1px"></line><line x1="46" y1="145.38461538461536" x2="41" y2="145.38461538461536" style="visibility: inherit;" fill="rgb(0, 0, 0)" stroke="rgb(204, 204, 204)" stroke-width="1px"></line><line x1="46" y1="116.30769230769232" x2="41" y2="116.30769230769232" style="visibility: inherit;" fill="rgb(0, 0, 0)" stroke="rgb(204, 204, 204)" stroke-width="1px"></line><line x1="46" y1="87.23076923076923" x2="41" y2="87.23076923076923" style="visibility: inherit;" fill="rgb(0, 0, 0)" stroke="rgb(204, 204, 204)" stroke-width="1px"></line><line x1="46" y1="58.15384615384613" x2="41" y2="58.15384615384613" style="visibility: inherit;" fill="rgb(0, 0, 0)" stroke="rgb(204, 204, 204)" stroke-width="1px"></line><line x1="46" y1="29.076923076923038" x2="41" y2="29.076923076923038" style="visibility: inherit;" fill="rgb(0, 0, 0)" stroke="rgb(204, 204, 204)" stroke-width="1px"></line><line x1="46" y1="0" x2="41" y2="0" style="visibility: inherit;" fill="rgb(0, 0, 0)" stroke="rgb(204, 204, 204)" stroke-width="1px"></line></g><g transform="translate(36, 0)"><text x="0" y="378" dx="0em" dy="0.3em" style="text-anchor: end; visibility: hidden; font-family: &quot;Helvetica Neue&quot;, sans-serif; font-size: 12px; font-weight: 200;" fill="rgb(50, 49, 63)" stroke="none" stroke-width="1px">-10</text><text x="0" y="348.9230769230769" dx="0em" dy="0.3em" style="text-anchor: end; visibility: inherit; font-family: &quot;Helvetica Neue&quot;, sans-serif; font-size: 12px; font-weight: 200;" fill="rgb(50, 49, 63)" stroke="none" stroke-width="1px">0</text><text x="0" y="319.8461538461538" dx="0em" dy="0.3em" style="text-anchor: end; visibility: inherit; font-family: &quot;Helvetica Neue&quot;, sans-serif; font-size: 12px; font-weight: 200;" fill="rgb(50, 49, 63)" stroke="none" stroke-width="1px">10</text><text x="0" y="290.7692307692308" dx="0em" dy="0.3em" style="text-anchor: end; visibility: inherit; font-family: &quot;Helvetica Neue&quot;, sans-serif; font-size: 12px; font-weight: 200;" fill="rgb(50, 49, 63)" stroke="none" stroke-width="1px">20</text><text x="0" y="261.6923076923077" dx="0em" dy="0.3em" style="text-anchor: end; visibility: inherit; font-family: &quot;Helvetica Neue&quot;, sans-serif; font-size: 12px; font-weight: 200;" fill="rgb(50, 49, 63)" stroke="none" stroke-width="1px">30</text><text x="0" y="232.6153846153846" dx="0em" dy="0.3em" style="text-anchor: end; visibility: inherit; font-family: &quot;Helvetica Neue&quot;, sans-serif; font-size: 12px; font-weight: 200;" fill="rgb(50, 49, 63)" stroke="none" stroke-width="1px">40</text><text x="0" y="203.53846153846152" dx="0em" dy="0.3em" style="text-anchor: end; visibility: inherit; font-family: &quot;Helvetica Neue&quot;, sans-serif; font-size: 12px; font-weight: 200;" fill="rgb(50, 49, 63)" stroke="none" stroke-width="1px">50</text><text x="0" y="174.46153846153848" dx="0em" dy="0.3em" style="text-anchor: end; visibility: inherit; font-family: &quot;Helvetica Neue&quot;, sans-serif; font-size: 12px; font-weight: 200;" fill="rgb(50, 49, 63)" stroke="none" stroke-width="1px">60</text><text x="0" y="145.38461538461536" dx="0em" dy="0.3em" style="text-anchor: end; visibility: inherit; font-family: &quot;Helvetica Neue&quot;, sans-serif; font-size: 12px; font-weight: 200;" fill="rgb(50, 49, 63)" stroke="none" stroke-width="1px">70</text><text x="0" y="116.30769230769232" dx="0em" dy="0.3em" style="text-anchor: end; visibility: inherit; font-family: &quot;Helvetica Neue&quot;, sans-serif; font-size: 12px; font-weight: 200;" fill="rgb(50, 49, 63)" stroke="none" stroke-width="1px">80</text><text x="0" y="87.23076923076923" dx="0em" dy="0.3em" style="text-anchor: end; visibility: inherit; font-family: &quot;Helvetica Neue&quot;, sans-serif; font-size: 12px; font-weight: 200;" fill="rgb(50, 49, 63)" stroke="none" stroke-width="1px">90</text><text x="0" y="58.15384615384613" dx="0em" dy="0.3em" style="text-anchor: end; visibility: inherit; font-family: &quot;Helvetica Neue&quot;, sans-serif; font-size: 12px; font-weight: 200;" fill="rgb(50, 49, 63)" stroke="none" stroke-width="1px">100</text><text x="0" y="29.076923076923038" dx="0em" dy="0.3em" style="text-anchor: end; visibility: inherit; font-family: &quot;Helvetica Neue&quot;, sans-serif; font-size: 12px; font-weight: 200;" fill="rgb(50, 49, 63)" stroke="none" stroke-width="1px">110</text><text x="0" y="0" dx="0em" dy="0.3em" style="text-anchor: end; visibility: hidden; font-family: &quot;Helvetica Neue&quot;, sans-serif; font-size: 12px; font-weight: 200;" fill="rgb(50, 49, 63)" stroke="none" stroke-width="1px">120</text></g><line x1="46" y1="0" x2="46" y2="378" fill="rgb(0, 0, 0)" stroke="rgb(204, 204, 204)" stroke-width="1px"></line></g></g><g transform="translate(46, 0)" clip-path="url(#clip_0)"><clipPath id="clip_0"><rect width="1321" height="378"></rect></clipPath><g><g><g><line x1="0" y1="0" x2="0" y2="378" fill="rgb(0, 0, 0)" stroke="rgb(60, 60, 60)" stroke-width="1px" opacity="0.25"></line><line x1="110.08333333333333" y1="0" x2="110.08333333333333" y2="378" fill="rgb(0, 0, 0)" stroke="rgb(60, 60, 60)" stroke-width="1px" opacity="0.25"></line><line x1="220.16666666666666" y1="0" x2="220.16666666666666" y2="378" fill="rgb(0, 0, 0)" stroke="rgb(60, 60, 60)" stroke-width="1px" opacity="0.25"></line><line x1="330.25" y1="0" x2="330.25" y2="378" fill="rgb(0, 0, 0)" stroke="rgb(60, 60, 60)" stroke-width="1px" opacity="0.25"></line><line x1="440.3333333333333" y1="0" x2="440.3333333333333" y2="378" fill="rgb(0, 0, 0)" stroke="rgb(60, 60, 60)" stroke-width="1px" opacity="0.25"></line><line x1="550.4166666666667" y1="0" x2="550.4166666666667" y2="378" fill="rgb(0, 0, 0)" stroke="rgb(60, 60, 60)" stroke-width="1px" opacity="0.25"></line><line x1="660.5" y1="0" x2="660.5" y2="378" fill="rgb(0, 0, 0)" stroke="rgb(60, 60, 60)" stroke-width="1px" opacity="0.25"></line><line x1="770.5833333333334" y1="0" x2="770.5833333333334" y2="378" fill="rgb(0, 0, 0)" stroke="rgb(60, 60, 60)" stroke-width="1px" opacity="0.25"></line><line x1="880.6666666666666" y1="0" x2="880.6666666666666" y2="378" fill="rgb(0, 0, 0)" stroke="rgb(60, 60, 60)" stroke-width="1px" opacity="0.25"></line><line x1="990.75" y1="0" x2="990.75" y2="378" fill="rgb(0, 0, 0)" stroke="rgb(60, 60, 60)" stroke-width="1px" opacity="0.25"></line><line x1="1100.8333333333335" y1="0" x2="1100.8333333333335" y2="378" fill="rgb(0, 0, 0)" stroke="rgb(60, 60, 60)" stroke-width="1px" opacity="0.25"></line><line x1="1210.9166666666665" y1="0" x2="1210.9166666666665" y2="378" fill="rgb(0, 0, 0)" stroke="rgb(60, 60, 60)" stroke-width="1px" opacity="0.25"></line><line x1="1321" y1="0" x2="1321" y2="378" fill="rgb(0, 0, 0)" stroke="rgb(60, 60, 60)" stroke-width="1px" opacity="0.25"></line></g><g><line x1="0" y1="378" x2="1321" y2="378" fill="rgb(0, 0, 0)" stroke="rgb(60, 60, 60)" stroke-width="1px" opacity="0.25"></line><line x1="0" y1="348.9230769230769" x2="1321" y2="348.9230769230769" fill="rgb(0, 0, 0)" stroke="rgb(60, 60, 60)" stroke-width="1px" opacity="0.25"></line><line x1="0" y1="319.8461538461538" x2="1321" y2="319.8461538461538" fill="rgb(0, 0, 0)" stroke="rgb(60, 60, 60)" stroke-width="1px" opacity="0.25"></line><line x1="0" y1="290.7692307692308" x2="1321" y2="290.7692307692308" fill="rgb(0, 0, 0)" stroke="rgb(60, 60, 60)" stroke-width="1px" opacity="0.25"></line><line x1="0" y1="261.6923076923077" x2="1321" y2="261.6923076923077" fill="rgb(0, 0, 0)" stroke="rgb(60, 60, 60)" stroke-width="1px" opacity="0.25"></line><line x1="0" y1="232.6153846153846" x2="1321" y2="232.6153846153846" fill="rgb(0, 0, 0)" stroke="rgb(60, 60, 60)" stroke-width="1px" opacity="0.25"></line><line x1="0" y1="203.53846153846152" x2="1321" y2="203.53846153846152" fill="rgb(0, 0, 0)" stroke="rgb(60, 60, 60)" stroke-width="1px" opacity="0.25"></line><line x1="0" y1="174.46153846153848" x2="1321" y2="174.46153846153848" fill="rgb(0, 0, 0)" stroke="rgb(60, 60, 60)" stroke-width="1px" opacity="0.25"></line><line x1="0" y1="145.38461538461536" x2="1321" y2="145.38461538461536" fill="rgb(0, 0, 0)" stroke="rgb(60, 60, 60)" stroke-width="1px" opacity="0.25"></line><line x1="0" y1="116.30769230769232" x2="1321" y2="116.30769230769232" fill="rgb(0, 0, 0)" stroke="rgb(60, 60, 60)" stroke-width="1px" opacity="0.25"></line><line x1="0" y1="87.23076923076923" x2="1321" y2="87.23076923076923" fill="rgb(0, 0, 0)" stroke="rgb(60, 60, 60)" stroke-width="1px" opacity="0.25"></line><line x1="0" y1="58.15384615384613" x2="1321" y2="58.15384615384613" fill="rgb(0, 0, 0)" stroke="rgb(60, 60, 60)" stroke-width="1px" opacity="0.25"></line><line x1="0" y1="29.076923076923038" x2="1321" y2="29.076923076923038" fill="rgb(0, 0, 0)" stroke="rgb(60, 60, 60)" stroke-width="1px" opacity="0.25"></line><line x1="0" y1="0" x2="1321" y2="0" fill="rgb(0, 0, 0)" stroke="rgb(60, 60, 60)" stroke-width="1px" opacity="0.25"></line></g></g></g><g><g><line x1="0" y1="348.9230769230769" x2="1321" y2="348.9230769230769" fill="rgb(0, 0, 0)" stroke="rgb(153, 153, 153)" stroke-width="1.5px"></line></g></g><g><g><line x1="110.08333333333333" y1="0" x2="110.08333333333333" y2="378" fill="rgb(0, 0, 0)" stroke="rgb(153, 153, 153)" stroke-width="1.5px"></line></g></g><g><g><g><g><g><path stroke="rgb(255, 112, 67)" stroke-width="2px" d="M110.96400000000001,351.6373967500833L112.39508333333333,345.7762072344752L112.72533333333332,347.004586209815L116.24799999999999,347.03161926650324L116.35808333333333,347.73690481276185L116.57825,347.2363682169379L119.11016666666667,347.62855248706836L119.22025,348.91268759223L119.99083333333334,348.99915116536084L120.10091666666668,348.4326942109893L121.86225,348.05231320839823L125.71516666666666,347.95324540127433L128.7975,347.6330626732791L129.23783333333333,347.81584674095745L129.34791666666666,347.96271458895336L130.779,347.9225782558841L133.75125,347.56140889261235L134.30166666666668,347.24625111400604L135.29241666666667,347.39286264191026L136.17308333333332,347.3717572052888L137.27391666666668,347.55550454215455L139.14533333333333,347.2183916899795L140.35625,347.19160919057697L142.77808333333334,347.75731385795285L143.10833333333335,347.46940949295856L143.3285,347.8403728464151L146.19066666666666,347.614292699007L146.52091666666666,347.43395599571613L147.62175,347.4662688198867L148.3923333333333,347.21185433236707L149.71333333333334,347.33856291527513L150.37383333333332,347.15832375668913L150.92425,347.2592432313075L151.36458333333331,347.18564217967054L154.33683333333332,346.98858228155007L155.32758333333334,346.72733034609246L156.86875,346.6952832155886L157.8595,346.4651933989171L159.1805,346.516445541685L160.17125,346.58083387510374L165.7855,346.68290325808937L166.55608333333333,346.6213449946426L166.66616666666667,346.72244022626916L166.99641666666668,346.4320239620848L167.6569166666667,346.315016713151L167.767,346.27436411072944L169.41825,346.25620023945714L170.6291666666667,346.18024891176435L170.73925,346.05018852071294L170.84933333333333,345.96490269735773L170.9594166666667,345.93617508899183L172.06025,345.9093899626831L173.16108333333332,345.8721445769764L173.93166666666664,345.70106751482587L174.81233333333333,345.86106755547564L175.25266666666664,345.94985864096253L176.3535,345.94064180432053L177.67450000000002,346.0519338202402L179.21566666666666,346.137685635636L180.20641666666666,346.09794973448754L181.52741666666665,346.06594086217297L182.73833333333334,346.01900681486654L183.06858333333335,345.84909441018533L183.61900000000003,345.7284007214598L185.93075,345.77448200476664L186.15091666666666,345.7596169838637L186.70133333333334,345.68693612096354L187.14166666666665,345.829501963962L187.91224999999997,345.74355596973095L191.76516666666666,345.655332890536L192.09541666666667,345.58379402913937L192.75591666666668,345.49447716302495L193.5265,345.47762608183757L193.74666666666667,345.56586933588494L193.96683333333334,345.6451735342912L197.37941666666666,345.6008744888382L197.92983333333336,345.61158586049714L198.03991666666667,345.69436652592805L199.69116666666667,345.56766577718207L199.80124999999998,345.553587221557L200.24158333333332,345.47949546865567L200.46175,345.364137196874L201.01216666666667,345.4088068838309L202.66341666666668,345.38698040667083L203.5440833333333,345.3102968396952L203.65416666666667,345.3142296863525L204.20458333333332,345.2942009954148L205.4155,345.1961428181989L206.5163333333333,345.16657487457286L207.28691666666668,345.1198469664847L207.6171666666667,345.0068355597254L207.83733333333333,345.09325071626785L209.2684166666667,345.1779835899557L209.59866666666667,345.2140384474812L210.5894166666667,345.15124774714957L212.46083333333334,345.01493703317135L213.56166666666664,344.9174598360045L217.30450000000002,344.9352230517573L217.63475,345.0078554200992L219.61625,345.15807115152313L220.82716666666664,345.15375571791714L221.04733333333334,345.2151091956952L224.68008333333333,345.1129417285574L224.90025000000003,345.1202988755731L226.22125000000003,345.07826864666185L226.5515,345.0386151913151L227.32208333333335,345.1221920891734L227.98258333333334,345.05685909939706L230.07416666666666,345.04577925335377L234.58758333333336,345.00283771586874L234.80775,344.86803854698854L237.1195,344.82887566416565L237.33966666666666,344.9200638485544L238.22033333333334,344.88020677404205L238.77075,345.1253820576206L239.43125,345.3131926590894L241.52283333333332,345.24897981889507L242.29341666666667,345.17001955046646L243.28416666666666,345.11728291615515L243.8345833333333,345.0690238519216L244.49508333333333,345.13760990497997L245.81608333333332,345.1009669300173L246.91691666666668,340.7515050336128L247.35725,340.80326757778755L247.6875,340.8180825054804L248.23791666666668,340.75522077890355L249.0085,341.2162372747562L250.87991666666667,341.28273642841697L251.76058333333333,337.14233694044776L253.41183333333333,337.31727457972875L253.96225,337.3797666488289L254.18241666666668,337.3904512604075L254.62275,337.51215313141915L254.73283333333333,337.5421273579441L256.16391666666664,337.87704548759285L259.0260833333333,337.9623570422198L261.558,338.12525350331924L264.42016666666666,338.3553926848091L265.521,334.2823020620405L265.6310833333333,334.40692847957735L265.7411666666667,334.6503473305433L266.07141666666666,334.81345140143196L266.29158333333334,335.00478862546225L266.6218333333333,335.2296293261726L266.95208333333335,335.3053586482384L270.58483333333334,335.504832423413L271.0251666666667,335.7123341249777L271.90583333333336,335.9037970263058L272.89658333333335,336.188217300373L273.00666666666666,336.19287227512524L274.10749999999996,336.20533920044204L276.41925,336.3240701003708L277.40999999999997,336.3760232240835L278.5108333333333,336.62307329838916L280.1620833333333,336.68339262849236L280.60241666666667,336.68886946354723L283.46458333333334,336.87340369305224L284.45533333333333,337.0628201597291L285.88641666666666,337.2931062413577L286.32675,337.4542609109151L288.30825,337.6044093667574L288.6385,337.79024201732346L288.74858333333333,337.8792960846813L289.0788333333333,338.05323128176644L289.299,338.2140436321663L289.7393333333333,338.3542211154172L290.7300833333333,338.4996702709404L290.95025,338.6563046698514L291.3905833333333,338.86692175666894L291.5006666666667,338.9832925302886L291.94100000000003,339.1605294093312L292.4914166666667,339.2978899853649L297.225,339.4269704150104L299.4266666666667,339.5621610436886L301.51825,339.75182641217725L301.8485,339.7824907689891L302.72916666666663,336.1277436050674L303.49975,336.2257806162546L306.2518333333333,336.406135925511L306.58208333333334,336.5459334786705L308.12325000000004,332.8772867440075L308.5635833333333,332.95766522535996L309.44425,329.38877159061695L309.7745,325.8940411858461L310.10474999999997,326.01848678793516L310.435,326.33527234231354L313.7375,326.4514739799015L313.9576666666667,326.5314476561096L315.4988333333333,326.7810771591748L316.04925,323.2718025987118L316.5996666666667,323.5695680266123L317.81058333333334,320.16853838500003L319.2416666666667,320.45378794714503L319.57191666666665,317.27789211431343L321.4433333333333,317.5559226473746L323.31475,314.2385373933302L323.97525,314.58630104376886L324.74583333333334,311.2530643928693L326.287,308.02199557332136L328.04833333333335,304.8183904277897L328.7088333333333,301.6416878506572L329.4794166666667,298.5090366951794L333.0020833333333,295.4265489732262L334.76341666666667,296.07313686277905L336.1945,296.84434283034744L338.6163333333334,293.7715497099399L339.27683333333334,290.7555703129394L339.7171666666666,287.96534746237666L340.1575,288.5294273562772L340.7079166666667,285.63891063198116L342.2490833333333,282.7073321371494L342.46925,279.8290946975849L345.11125,277.0747357093966L348.5238333333333,277.7398413230938L349.51458333333335,274.97097219769444L349.62466666666666,272.25746025136465L350.065,269.55704407418705L351.1658333333333,270.3118417073348L351.49608333333333,271.2724326866893L351.71625,272.0251483951564L351.8263333333333,269.3125053339679L352.92716666666666,269.875698679601L353.9179166666667,270.7928462034564L354.68850000000003,268.11168413424593L355.1288333333333,265.45841182344185L357.55066666666664,262.8244915464429L359.7523333333333,260.2445234692409L359.8624166666666,257.666647850361L360.1926666666667,258.6741180160759L360.30275,259.747983440718L360.96325,257.2106707585309L361.0733333333333,254.75994095201904L362.28425,255.6893293536338L364.15566666666666,253.28887362677932L364.596,254.25543303207775L364.92625,251.77172609462252L365.91700000000003,249.32521084790906L369.99008333333336,246.89710058096213L374.17325,248.06840298560925L376.15475,249.15907445084653L376.26483333333334,246.82467358421775L378.79675000000003,244.42361272095803L381.65891666666664,245.49425239476386L381.76899999999995,246.53830088950915L382.8698333333333,244.21260317994333L386.06225,241.86329607544948L386.1723333333333,239.51862483276471L386.72275,237.3021757323079L388.04375,235.02992206198928L389.8050833333333,236.22074483379208L390.24541666666664,233.95828259723856L390.5756666666667,231.99041629921936L391.01599999999996,229.76901657713256L391.6765,227.6415588049342L394.09833333333336,225.53829605355077L395.0890833333333,223.4848740375517L395.30925,221.4029917563287L395.6395,219.32464030153682L396.18991666666665,217.31779999484448L396.96049999999997,215.2844369832308L397.8411666666667,213.29261846595003L398.2815,211.31823248355246L399.1621666666666,209.40064280265833L401.1436666666666,207.64153287463085L401.8041666666666,205.73423164235214L403.23525,207.22014185566482L403.4554166666667,205.42944488820802L404.3360833333333,206.92782152382134L405.98733333333337,208.52518379968848L406.0974166666667,206.63327919142952L407.5285,204.74878757123457L408.51925000000006,202.84882143297352L408.73941666666667,200.97292651124343L408.95958333333334,199.1426316926929L409.51,200.67695505543506L409.6200833333333,202.1532367123055L410.3906666666666,200.3102238181972L410.61083333333335,201.92418966725205L411.27133333333336,203.39803985846336L411.60158333333334,204.8780124928839L412.152,203.08469282617997L412.9225833333333,204.6421810742519L413.80325,202.77061900498907L415.78475,200.93387759548258L416.0049166666667,199.14152001486931L417.54608333333334,200.72621106804945L417.76624999999996,198.89125069549263L418.31666666666666,197.09847935649134L418.8670833333333,198.82342764029613L419.63766666666663,197.0118552590578L420.29816666666665,198.565734971176L422.49983333333336,196.9584157795818L423.71074999999996,195.2240497102974L424.37125,193.53021939409007L425.47208333333333,195.2719364623366L426.13258333333334,197.01497514476625L426.683,195.31090003944104L428.4443333333333,193.63697339716637L429.325,191.91932379358278L431.63675,190.20746514994036L436.26025,188.52981259175L436.7005833333333,186.87393958996674L437.0308333333333,188.55146001494546L437.25100000000003,190.10442812683377L437.6913333333333,188.47337954478897L438.13166666666666,186.80301669319L438.35183333333333,188.37319187118678L440.55350000000004,186.70162832085066L441.76441666666665,188.46283234179617L443.85600000000005,186.79586498033078L444.7366666666667,185.1293968784182L446.05766666666665,183.50314913927525L446.2778333333333,181.92116516821022L447.26858333333337,180.40906274041254L448.47950000000003,178.82898635767296L448.80975,177.2454809855788L450.13075,175.75677920502932L451.23158333333333,174.2693966375132L451.45175,172.74380474527848L451.78200000000004,171.2367481496073L451.89208333333335,169.7469631138904L454.53408333333334,168.30668946953296L454.9744166666666,166.94252631582754L456.95591666666667,165.52325381090995L459.2676666666667,167.43827525944778L460.3685,166.00379304059743L463.0105,167.56674295695217L463.12058333333334,166.1425590912617L469.7255833333333,164.72865710620425L470.4961666666667,166.5849984991651L470.71633333333335,165.16267826436913L472.1474166666667,163.7351666386587L473.24825000000004,162.33472720793836L473.35833333333335,160.94556703885638L473.7986666666667,162.79718687865207L474.3490833333333,164.39846185089954L475.33983333333333,166.1956024134468L475.44991666666664,164.77731220487848L475.56,163.37411800776246L476.77091666666666,161.97919532520788L477.21125,160.5974349972948L477.9818333333333,159.26638208747215L480.4036666666667,157.96811677501617L481.6145833333333,159.86276903703788L481.83475000000004,158.47656665821341L482.16499999999996,160.12099070091242L484.2565833333333,158.74740146841629L485.68766666666664,157.46419610643238L486.2380833333333,156.14640958665L487.449,154.83882718507206L487.88933333333335,153.5549131508691L487.99941666666666,155.44483269300972L489.76075000000003,154.16060017882933L490.86158333333333,152.87051073625932L491.19183333333336,151.60651595940385L492.29266666666666,150.3520081896749L494.4943333333334,149.1320822663588L494.6044166666667,151.07791165281378L495.1548333333334,149.84008921710466L495.81533333333334,148.57147048830114L496.47583333333336,147.35427469818794L497.13633333333337,149.41908613792458L501.3195,148.16333147144752L501.4295833333333,150.11744447895825L502.53041666666667,148.90431209271222L503.0808333333334,147.69461257430498L503.1909166666667,146.46852408549108L503.8514166666667,145.3156676673155L505.943,144.1341431977647L506.16316666666665,142.9647450035286L507.59425,144.95380724545456L508.36483333333337,143.82819653012044L508.4749166666667,142.6681530135036L509.46566666666666,141.50493015594762L510.23625,140.38769521846453L511.22700000000003,139.27561663970104L513.2085000000001,138.1420773492301L513.4286666666667,140.25476769285206L513.869,139.12526805019735L516.18075,141.17984725381152L517.1715,143.25595150907998L520.0336666666667,145.24871702896488L521.6849166666667,144.07865909690332L522.1252499999999,142.8862471459555L522.2353333333333,144.8649380117046L522.6756666666666,143.66261297046424L523.116,142.48890875856318L523.3361666666667,144.54997983131946L524.8773333333334,143.37063910483363L524.9874166666666,142.19520254782594L527.5193333333333,141.06086755830648L527.6294166666667,139.96286270363683L528.2899166666666,138.81222176279073L528.8403333333333,137.6776866625899L529.0605,136.61583289629698L530.1613333333333,138.73262004206637L531.042,137.61642638299858L532.2529166666667,136.5469982722939L533.0235,135.5474790963404L533.5739166666666,134.44392612125142L534.4545833333334,133.42834029098174L535.2251666666667,132.40693343283516L535.33525,131.3425203866426L535.4453333333333,130.27698477038737L535.7755833333333,129.25502940860963L536.5461666666666,128.26896769580475L538.7478333333333,127.27750332985633L539.29825,129.54944189152826L544.8024166666667,128.49075538848638L545.24275,127.47565190150146L545.7931666666667,129.6207556796364L546.56375,128.61608434663736L547.1141666666667,130.83472195229697L548.2149999999999,129.81242665997294L550.3065833333334,128.80595371441854L552.6183333333333,131.05289427315168L553.2788333333333,130.06194167115535L556.9115833333333,129.05717940155589L557.0216666666666,128.0648778090615L557.13175,127.08731172516295L558.6729166666667,128.99844153286747L560.9846666666667,131.1335245488802L562.5258333333334,130.06848744977427L563.8468333333334,129.03708060508265L565.4980833333333,128.02058797717737L568.2501666666666,130.1525953094755L568.6905,129.12948524332913L568.8005833333333,128.09650842579975L570.672,127.09675238213197L570.8921666666666,126.08229621167769L571.00225,125.15107384215835L572.98375,124.20736876587259L573.7543333333333,123.26142682289608L577.3870833333333,122.3123307421782L578.0475833333334,121.38974753606954L578.7080833333333,120.54355329846254L579.0383333333334,119.64364346961725L579.4786666666666,118.74031084665114L579.6988333333334,117.83937477212311L580.1391666666666,116.92050923838474L580.6895833333333,119.23552388016111L581.1299166666666,118.41032849610633L581.6803333333334,120.81248027866116L582.7811666666666,119.87434764430282L583.9920833333333,122.22188160995921L589.0559166666667,124.54535450084524L589.7164166666666,126.83604099911537L590.2668333333334,129.10865046803676L596.8718333333333,131.26799942111637L597.7525,133.55424394085426L598.8533333333334,135.69164248577735L599.0735,137.8009852338586L599.5138333333333,136.7284535466773L601.4953333333333,138.82480230426165L602.04575,137.73172295674598L604.1373333333333,136.65548399648708L604.4675833333333,135.54414759633949L607.2196666666666,134.47585736028987L607.7700833333333,136.69763557039676L607.8801666666667,138.60389531183975L608.1003333333333,140.77139199727873L609.0910833333334,139.6552768148857L612.5036666666666,141.667738511151L612.9440000000001,140.56214339128957L615.6960833333334,142.56991631914963L616.2465000000001,141.496382763201L617.23725,140.37386474808704L619.21875,139.28879960209125L620.7599166666666,138.19129087137327L620.87,137.0952383688034L622.52125,135.9867084592297L623.84225,138.10059003871126L626.0439166666666,140.2801625901953L626.2640833333334,142.25881695615692L626.3741666666667,144.22163134996742L626.7044166666667,143.07601374429456L627.0346666666667,141.94330461317477L628.0254166666666,143.76809251473705L628.9060833333334,142.6357282453123L629.2363333333333,141.56697284151974L630.9976666666666,140.4923092390789L631.438,142.47809358020953L632.2085833333334,141.31667778219534L634.8505833333332,140.20146539111386L636.6119166666666,142.31072082888554L639.03375,141.17639391059717L640.5749166666667,143.1599518669488L642.7765833333333,145.08726411352544L643.7673333333333,143.92630706506978L645.4185833333333,145.89780796928358L645.5286666666667,147.92601920711869L646.5194166666666,146.72526145089952L647.4000833333333,145.5831760262207L647.7303333333333,144.52002093255854L648.7210833333334,146.596804481587L649.4916666666667,148.5881453981092L650.8126666666666,150.62144596346062L650.9227500000001,149.42279536529642L651.253,151.22685180879574L652.6840833333333,150.0194769689456L654.1151666666666,148.90122865283442L654.5554999999999,147.7484502832336L654.7756666666667,150.00717362821334L655.3260833333334,148.8107023169163L656.0966666666667,150.7014472110988L656.7571666666666,149.49964254049527L656.86725,148.31803238467825L659.2890833333333,150.37998283940277L659.8395,149.15786045633322L660.83025,151.2650880392542L662.0411666666666,153.17629596025557L663.8024999999999,155.17600142468686L665.6739166666666,153.90145889316855L666.3344166666666,152.63225515605225L666.5545833333334,151.40192689923273L666.77475,150.181648670743L667.3251666666666,148.94965389187357L667.7655,150.9367621392196L669.8570833333333,152.92894911027835L671.2881666666666,151.69313227574318L672.8293333333334,150.47520548957962L673.5999166666667,149.27557641761305L675.0310000000001,151.26064688412205L676.5721666666667,153.24179731652117L676.7923333333333,152.02556488955491L677.0124999999999,153.9371434130318L677.1225833333333,152.66959340399046L677.34275,151.4268962652431L678.00325,150.37113414238127L678.2234166666666,149.13568488828943L678.4435833333332,147.91830907196814L678.5536666666667,146.86507930042328L678.7738333333334,145.65028144803924L682.62675,144.5046152484792L683.0670833333334,143.33441114248203L683.5074166666666,142.22086358128465L684.4981666666666,141.08785771135913L685.3788333333334,139.97170616285774L685.92925,138.87435871279345L686.5897500000001,137.77390349658708L687.4704166666667,136.67808114542908L688.3510833333333,135.58519240668852L689.6720833333334,134.53252544051747L695.3964166666666,133.47010921229975L695.83675,135.3266225119475L696.0569166666667,134.23973003392302L696.3871666666666,136.372208980615L697.5980833333333,135.37659444378144L698.5888333333334,134.30291977773058L699.2493333333333,133.21973612420896L702.44175,132.16570830640842L702.6619166666667,134.26541007543116L703.2123333333333,133.1992034564177L703.3224166666666,132.1509040915511L705.5240833333334,134.19172188174707L706.0745,133.1359337373739L707.1753333333334,132.07295255337206L708.056,131.0204351465823L710.5879166666667,130.03233400522018L712.6795,132.12486528059193L713.34,133.9735198392333L713.67025,136.0252270334335L714.99125,138.0567050051947L715.7618333333332,136.94550383573866L717.303,135.8322572683358L718.0735833333333,134.746923858374L719.0643333333334,133.67613592115552L719.3945833333333,132.6275343869741L720.7155833333333,134.8486516421291L722.2567499999999,133.8973309827193L723.2475,132.85250171638506L723.5777499999999,135.0658117981364L723.908,133.9862478925992L725.6693333333334,132.9515733363592L726.1096666666666,131.8941182949586L726.6600833333334,130.8423188334842L727.9810833333333,129.81722096459436L728.7516666666667,128.7903003326888L729.3020833333334,127.76483531289341L731.2835833333334,126.7803364441908L731.8340000000001,125.79888529361301L732.0541666666667,124.83099440055764L732.6045833333333,123.83418366106116L733.3751666666667,122.84612949674462L735.3566666666667,124.9931984774299L736.0171666666668,124.0356922246473L737.6684166666666,123.26508574606947L742.5120833333334,125.45817917742707L742.9524166666666,124.5073728652643L743.0625,123.58272336457642L744.05325,122.62868038936429L744.6036666666666,121.66339752618683L745.5944166666667,120.77588013315398L746.3649999999999,119.8520779528505L751.31875,118.94731719492285L752.4195833333333,118.05879639141443L752.5296666666667,117.17443222883475L752.8599166666667,116.30461068709928L756.7128333333333,115.41446893513978L757.7035833333333,114.51930819793847L758.0338333333333,113.66752178071806L758.1439166666667,112.8297109002508L759.24475,111.96869084491755L760.56575,111.1387651571477L763.6480833333333,110.31623710417904L764.0884166666667,109.49510390774623L764.52875,108.73775530748111L764.6388333333333,107.97571927530572L765.6295833333334,107.16022565037127L773.4455,106.39182208310194L774.106,105.60146931925061L775.2068333333333,104.81443079640275L779.1698333333334,104.09172156841709L780.38075,103.37052707479904L781.0412500000001,105.85070283114737L783.02275,105.08445243586732L783.68325,104.3258916095487L783.9034166666668,103.5522874993926L786.5454166666667,102.78568552041992L787.7563333333334,102.0334742354774L788.4168333333333,101.31172727049204L789.0773333333334,100.55613981233421L790.3983333333334,99.82410335211614L791.0588333333334,99.09767815708301L791.7193333333335,98.36511548381537L791.8294166666667,97.6608333493985L792.0495833333333,100.06921693662065L792.3798333333333,99.35008522771909L793.1504166666667,98.61757844514108L793.59075,97.90377116229524L793.8109166666667,97.22127196687529L794.3613333333334,96.55925600548079L795.242,95.86924644010134L796.0125833333334,95.2229908564533L796.4529166666666,94.54682498307875L799.8655,93.86701185230163L803.2780833333333,93.21874127390049L804.0486666666667,95.65635321258355L806.1402499999999,94.9682765575725L806.2503333333333,94.29157022429092L806.6906666666667,93.61561410955841L807.0209166666666,92.95105367282156L807.131,95.40050373720965L807.2410833333333,94.756856987795L808.2318333333334,94.09002315273278L809.0024166666667,93.43412021610658L809.5528333333333,92.78552972307011L810.2133333333333,92.1243593003407L813.5158333333334,91.47736956131615L813.6259166666666,90.8248190166176L815.9376666666667,90.20667079174132L817.0385000000001,92.74998576316568L820.5611666666666,92.11188016975336L821.8821666666666,91.48028088355966L823.3132499999999,90.85103720102018L823.4233333333333,90.24478895857436L825.8451666666666,92.72918820085835L826.7258333333334,92.10471952976815L828.5972499999999,94.55703677887647L829.25775,93.91027121341409L830.1384166666666,93.30754511705823L832.1199166666667,92.65481692253667L833.6610833333333,92.12685993570818L835.7526666666668,94.42853740950329L836.4131666666666,93.77140973522768L836.52325,93.12777548451146L837.2938333333334,92.49487089207821L839.16525,91.91735114997738L839.9358333333333,94.48680666609278L841.3669166666667,93.82225318633755L841.477,93.16481208556803L845.6601666666667,92.52723875744164L845.77025,91.8701935912539L847.6416666666668,91.23714232493722L848.082,90.61121508335907L849.73325,90.06601295021619L850.8340833333333,89.44469827970721L853.9164166666666,88.81931692958153L854.35675,88.22083459884448L855.1273333333334,87.63966361229802L856.2281666666667,87.04995092563331L859.2004166666667,86.48196640647262L859.7508333333334,85.91419961224426L859.8609166666668,85.34837266401809L860.8516666666666,87.88039619266459L865.0348333333334,87.2984240373462L865.8054166666666,86.72212235577695L866.7961666666666,86.15789548956815L866.90625,85.56659564203642L867.0163333333334,85.02765439153313L869.7684166666667,84.47463670817098L870.2087499999999,86.7997156263367L870.6490833333334,86.21099698977105L870.9793333333333,85.64491162650188L872.0801666666666,85.05640410002923L874.83225,84.49696777312067L875.0524166666667,83.94103529338327L875.9330833333333,83.39182611989162L876.3734166666667,82.84203971909227L877.2540833333334,85.35729676989098L877.47425,84.82951826518871L880.5565833333333,84.3124031845764L880.6666666666666,83.72850477821686L881.6574166666667,83.22429394365281L881.8775833333333,82.72611039816735L882.6481666666667,82.20701886123976L883.0885,81.68806538423763L884.4095,84.48113332580914L886.5010833333333,87.1550394339074L886.72125,90.03250286193617L888.1523333333333,89.43723419519335L889.4733333333334,88.84034560832367L889.5834166666666,88.21805128943964L889.9136666666666,87.61295296287335L890.1338333333333,87.04478274489719L891.7850833333334,86.62370201427086L892.00525,86.20645231140134L892.5556666666666,85.66520662731153L893.4363333333333,85.11822666740227L894.0968333333333,84.54796421603584L894.4270833333334,83.99163468952509L900.8119166666665,83.45562754404887L901.8026666666666,82.93645889761996L902.0228333333333,85.56353561725479L902.243,84.98216365915704L902.57325,84.42771081439776L902.6833333333334,86.99151758989359L904.55475,86.42449712170622L905.4354166666667,85.8438434122902L905.8757499999999,85.25221120963477L906.206,84.69431340198406L906.3160833333334,84.12524283539352L907.0866666666666,83.60324209282692L910.3891666666667,83.02579396676236L912.7009166666666,82.49920345059382L913.14125,81.9425504003845L913.4715,81.42025049816766L914.3521666666667,80.91925650128093L914.7925,80.41472233041071L915.12275,79.87125078714485L917.4345,79.38545756483808L917.7647499999999,78.88110968398632L918.7555,78.40075322566474L919.08575,77.90106689420628L919.1958333333333,77.41392782001492L919.5260833333334,76.94993462650433L921.3975,76.64914709931526L921.72775,79.25015462215367L922.058,81.86846463599409L922.1680833333332,81.3107226953266L922.4983333333333,80.81348896251654L924.2596666666667,80.32231703808884L926.35125,79.81511924434841L930.6445,79.27891489847735L931.0848333333333,78.79058647606553L931.305,78.32150691064913L931.7453333333334,77.83669725562083L932.4058333333334,77.36995329858041L934.1671666666667,76.91233827178678L934.3873333333333,79.55183829198012L934.4974166666667,79.02281167460143L936.91925,81.41041618440744L940.6620833333333,80.9033098307425L942.5335,80.36595208391697L943.9645833333334,79.83978882794389L945.9460833333333,79.32518888355168L947.5973333333334,78.80278567350177L948.80825,81.38564935271626L949.6889166666666,80.86243302715928L952.2208333333333,80.33324745595814L952.3309166666667,79.93652465994558L952.5510833333333,79.41376840167203L953.8720833333333,78.90412122162985L954.0922499999999,81.58638325459958L955.1930833333333,81.04904258344362L955.6334166666667,80.56462921276773L959.3762499999999,80.0293993704721L959.8165833333334,79.51791182144632L961.0275,82.25940602636649L962.3485000000001,81.70674572478498L964.6602499999999,81.19839013963616L965.7610833333333,80.65878960479978L966.8619166666666,83.21896350822675L970.935,82.70212186188002L971.5955,82.18215772988196L973.3568333333334,81.66398706950758L975.6685833333333,81.28829768704975L976.9895833333334,83.91950623472883L978.9710833333334,83.35461273277798L979.6315833333334,82.81619636845204L980.182,82.2749574794284L980.2920833333333,84.84609520799597L982.6038333333333,84.29957915818136L983.3744166666665,83.72339174717524L983.9248333333334,83.16834060052673L984.6954166666666,82.5913707860592L987.0071666666666,82.05861007803469L988.4382499999999,81.51516886263232L991.4105,80.98929064087139L992.40125,80.44949308085802L994.6029166666667,79.92398579010921L994.8230833333333,79.38295731316009L995.8138333333334,78.89348510734567L997.4650833333334,78.40226297183978L998.3457500000001,77.89432211808332L1001.9784999999999,77.39433058304962L1003.4095833333334,76.8899165269163L1004.7305833333332,76.44432793179328L1006.602,75.99667475117377L1007.0423333333333,75.52715273395756L1007.8129166666666,75.12941736196302L1008.91375,74.64807951832466L1009.1339166666667,74.18531083568996L1009.244,73.74453978222897L1009.3540833333334,73.30940822584529L1009.6843333333333,76.09573261763353L1010.0145833333332,75.61245362521868L1010.4549166666667,75.15424788887162L1011.4456666666667,74.66706586242236L1011.9960833333333,77.39164799555988L1013.0969166666667,80.02707307631431L1014.7481666666666,79.48512823606171L1015.6288333333334,78.9731943769853L1016.0691666666667,78.49179326855204L1017.8304999999999,77.97632883282631L1021.46325,80.69935953058354L1021.9035833333332,83.35585644551412L1023.5548333333334,82.80465868274104L1026.4170000000001,82.26545904968577L1026.74725,81.74460939521032L1028.1783333333333,84.35293834853184L1028.2884166666665,83.81730928527651L1028.6186666666665,86.39217374512617L1029.38925,85.8233348845107L1029.7195,85.23271041408668L1030.1598333333334,84.66076989668193L1030.8203333333333,84.12582076977833L1032.3615,86.74210509723713L1033.1320833333334,89.27461574812872L1033.5724166666666,91.89592943307684L1033.6825,94.38665115695034L1034.0127499999999,93.75281116261976L1034.4530833333333,93.13952601135594L1035.2236666666665,92.46888046865206L1035.7740833333335,91.84342362976719L1036.9850000000001,91.21202848184498L1038.63625,90.61346939927188L1039.29675,90.00948483828552L1039.7370833333334,89.40978187238807L1041.0580833333333,88.8063223317584L1042.59925,88.20368660717793L1043.3698333333334,87.58687256538173L1043.9202500000001,86.99352731870698L1044.0303333333334,86.40990171472413L1044.1404166666666,88.96455067755016L1044.2504999999999,88.3340683709111L1044.911,87.73111730881448L1045.6815833333333,87.11773139269644L1047.553,86.51327520825464L1050.1950000000002,89.10143691186425L1053.3874166666667,88.49128530208696L1054.5983333333334,90.992332929991L1054.8185,93.52388912444269L1056.46975,96.07767392083684L1057.0201666666667,95.40932751552998L1058.7815,94.74014475948104L1059.77225,94.07781068920127L1060.8730833333334,93.41587031115597L1062.5243333333333,92.7557953665978L1064.1755833333334,92.13108401667375L1064.6159166666666,91.47809922460453L1065.1663333333333,90.87374492496872L1066.8175833333332,90.22790161661567L1067.6982500000001,89.5879596093381L1068.7990833333333,88.9940918552997L1069.3495,88.39034172483304L1071.3310000000001,87.80823362470983L1072.8721666666668,87.23150369599034L1073.0923333333333,86.63108042093592L1077.1654166666667,86.05842780751425L1077.2755,85.46794532367528L1078.8166666666666,84.92063540668227L1079.8074166666668,84.36576014161756L1080.90825,83.79101885067769L1082.5595,83.24247629146367L1084.4309166666667,82.70058058843688L1085.0914166666666,82.15811838984126L1085.5317499999999,81.62090454739268L1086.7426666666668,81.12334073755636L1086.85275,80.58029370803962L1087.2930833333332,80.05226968851377L1087.51325,79.51511230117575L1089.2745833333333,78.99506108940591L1089.6048333333333,78.51008344374907L1090.9258333333332,78.00007797715767L1091.0359166666667,77.48687801158923L1091.3661666666667,76.9870057091926L1092.13675,76.52768204355033L1092.4669999999999,76.06669632237293L1093.2375833333333,75.58482809781708L1093.788,75.12220558534375L1094.2283333333335,74.63801854838789L1094.8888333333332,74.18001211219422L1096.3199166666666,73.70106127805934L1096.5400833333333,73.23979001123433L1097.5308333333332,72.82140401885027L1099.2921666666668,75.47447621708199L1099.5123333333333,75.0074936322714L1099.7325,74.51741459320522L1099.9526666666666,74.07011761558334L1100.72325,73.63175621712946L1103.0349999999999,73.20193483879689L1103.8055833333333,72.74030559174923L1106.1173333333334,72.295800839288L1107.98875,71.8298343482478L1109.1996666666666,71.37970629386444L1110.7408333333333,70.98603281048906L1111.7315833333334,70.58033215591615L1112.6122500000001,70.16094575235428L1114.2635,69.74616380288256L1114.8139166666667,69.33423058853089L1114.924,68.9193550105291L1117.23575,68.48760927898638L1117.3458333333333,68.06563667782632L1118.9970833333332,67.67846460865968L1121.9693333333335,67.28739012389212L1123.4004166666666,66.91528845084184L1125.82225,66.5301576571311L1126.7029166666666,66.14954709254727L1129.3449166666667,65.79383340849995L1130.1155,65.41160766797316L1131.2163333333333,65.1563506126812L1131.9869166666667,64.83641668084084L1132.3171666666667,64.5023100436116L1134.2986666666668,64.14121619158215L1135.5095833333335,66.92348375504116L1136.7205000000001,66.55418491086567L1137.8213333333333,66.16637041810651L1139.2524166666667,65.81713179518437L1141.01375,65.45066313219132L1141.344,68.16537243570605L1142.1145833333335,67.77103113906838L1143.1053333333332,67.37955874664698L1143.5456666666666,66.97215353753342L1143.6557500000001,66.56046346228175L1144.2061666666666,66.19137223446472L1145.0868333333333,69.05106305631557L1146.8481666666667,68.66737529775776L1149.0498333333333,68.29920765142401L1149.7103333333332,67.93269511917538L1152.0220833333333,67.53751220231112L1154.0035833333334,70.2486908113791L1154.6640833333333,69.82303921827736L1155.2145,69.42851286356932L1156.4254166666667,69.04497862733234L1158.4069166666666,68.66428634450324L1158.6270833333333,71.37355619155653L1158.9573333333333,70.99339911771222L1160.3884166666667,70.5772229122993L1160.4985,70.17501871101308L1162.2598333333333,69.75517374038077L1163.6909166666667,69.32843686059618L1169.5253333333333,68.92476861516451L1170.07575,71.60510928852699L1170.5160833333334,74.33722855601138L1172.05725,76.98090478954981L1174.5891666666666,76.52122829781734L1175.69,76.05174468026644L1176.02025,75.60839582717853L1176.9009166666667,78.22719934119982L1178.5521666666666,77.73664876456371L1181.5244166666666,77.21892512293385L1181.8546666666668,76.71294634462487L1182.1849166666666,76.20929204848318L1183.0655833333333,78.82590408006604L1183.94625,78.32079872360117L1184.2765,77.80773205813222L1184.4966666666667,77.301537037934L1186.58825,76.82483675532143L1187.24875,79.46700966483621L1188.6798333333334,78.94598064520835L1188.7899166666666,78.44322081723652L1189.0100833333333,81.02760430733315L1192.0924166666666,80.5123009561691L1192.3125833333334,79.96264602630828L1192.7529166666668,79.443806865157L1193.0831666666668,78.94480227365693L1195.505,78.42973530549887L1196.826,77.90806833281698L1198.5873333333334,77.39970451589193L1199.3579166666668,76.89660584951213L1200.1285,76.42622038263221L1201.77975,75.95136395289882L1202.9906666666666,75.46594425146935L1203.9814166666667,75.0050357114377L1204.6419166666667,74.53529060968776L1205.5225833333334,74.06515926123518L1208.0545,73.6119413256942L1209.5956666666666,73.16305253126899L1210.6965,72.71894408009479" style="fill: none;" fill="none"></path></g></g></g></g><g opacity="0.2"><g><g><g><path stroke="rgb(255, 112, 67)" stroke-width="2px" d="M110.96400000000001,351.6373967500833L112.39508333333333,339.9736296140231L112.72533333333332,349.42461562913195L116.24799999999999,347.1111072393564L116.35808333333333,350.48822020934176L116.57825,344.8077721320666L119.11016666666667,349.90065841170457L119.22025,357.54917748157794L119.99083333333334,349.66044837190555L120.10091666666668,343.58280730797696L121.86225,344.4515602331895L125.71516666666666,346.9267530468794L128.7975,344.0316801034487L129.23783333333333,350.0321800974699L129.34791666666666,349.8711395708414L130.779,347.3665205515348L133.75125,342.2501675715813L134.30166666666668,342.3459813594818L135.29241666666667,349.79481947972226L136.17308333333332,347.00854728313595L137.27391666666668,350.8679569546993L139.14533333333333,340.8682167676779L140.35625,346.6656391574786L142.77808333333334,359.3158967971802L143.10833333333335,341.3606938142043L143.3285,355.9999660712022L146.19066666666666,342.46741342911355L146.52091666666666,343.19098118635327L147.62175,348.2509143618437L148.3923333333333,340.84386920928955L149.71333333333334,350.6038004004038L150.37383333333332,342.3816316311176L150.92425,350.0069723917888L151.36458333333331,345.1288845447394L154.33683333333332,341.34178547859193L155.32758333333334,339.057318845162L156.86875,345.73210377876575L157.8595,339.3911877118624L159.1805,348.1271515062222L160.17125,348.647881219708L165.7855,350.02790024509795L166.55608333333333,344.56320121655097L166.66616666666667,350.1687501008694L166.99641666666668,336.3432998877305L167.6569166666667,342.1751304222987L167.767,344.81015343849475L169.41825,345.5905404842817L170.6291666666667,343.34946804780225L170.73925,341.122424521813L170.84933333333333,342.6814502422626L170.9594166666667,344.81279921898476L172.06025,344.84593057449047L173.16108333333332,344.37129252873933L173.93166666666664,338.7068626367129L174.81233333333333,352.4953932413688L175.25266666666664,349.68262519790574L176.3535,345.5479171789609L177.67450000000002,350.85678699841867L179.21566666666666,349.887754209225L180.20641666666666,344.3382717462686L181.52741666666665,344.63093534616326L182.73833333333334,343.8894599566093L183.06858333333335,338.0485100929554L183.61900000000003,340.12334342369667L185.93075,347.93873314811634L186.15091666666666,345.0537323163106L186.70133333333334,342.1981511042668L187.14166666666665,352.7455721855164L187.91224999999997,341.53080158967236L191.76516666666666,341.2868670757L192.09541666666667,342.0060659848727L192.75591666666668,340.9838983462407L193.5265,344.6184593108984L193.74666666666667,350.10739627801456L193.96683333333334,349.76433953734545L197.37941666666666,343.27907635248624L197.92983333333336,346.17797966370216L198.03991666666667,350.10980652754125L199.69116666666667,338.751718546794L199.80124999999998,344.7898582605215L200.24158333333332,341.4270320892334L200.46175,339.0034839886886L201.01216666666667,347.8914081490957L202.66341666666668,344.1644554413282L203.5440833333333,340.98220058221085L203.65416666666667,345.5378772167059L204.20458333333332,344.14679911136625L205.4155,339.5376924771529L206.5163333333333,343.4481456426474L207.28691666666668,342.3850119077242L207.6171666666667,338.34689992024346L207.83733333333333,350.22045374008326L209.2684166666667,350.23898468888723L209.59866666666667,347.38171446506794L210.5894166666667,341.35175784917976L212.46083333333334,336.7142568221459L213.56166666666664,338.94441441756027L217.30450000000002,346.03038875231374L217.63475,349.51302596307715L219.61625,354.531046975576L220.82716666666664,344.8829070292986L221.04733333333334,349.08805792474976L224.68008333333333,338.62695056841926L224.90025000000003,345.5899723676535L226.22125000000003,342.3803193129026L226.5515,342.4794294944176L227.32208333333335,350.54494486955497L227.98258333333334,340.79554359362675L230.07416666666666,344.31935890454514L234.58758333333336,342.1731324819418L234.80775,335.9405963604267L237.1195,342.2223724915431L237.33966666666666,351.01871982170985L238.22033333333334,342.20176777839663L238.77075,361.67939230111926L239.43125,358.0531166883615L241.52283333333332,340.8731603182279L242.29341666666667,339.76486564416155L243.28416666666666,341.4911353331346L243.8345833333333,341.7361582462604L244.49508333333333,349.89483053684233L245.81608333333332,342.5485005525442L246.91691666666668,36.50164102407598L247.35725,344.43915352271154L247.6875,341.86296783960785L248.23791666666668,336.30373484538154L249.0085,373.99256977668176L250.87991666666667,346.02910243089383L251.76058333333333,40.47822171724761L253.41183333333333,349.8995897701153L253.96225,341.89140209418076L254.18241666666668,338.1646942762228L254.62275,346.36337702090924L254.73283333333333,339.7299897303948L256.16391666666664,362.41031403174765L259.0260833333333,344.23352615283085L261.558,350.1411372583646L264.42016666666666,355.3894420843858L265.521,31.78961862417367L265.6310833333333,343.69327531594496L265.7411666666667,352.84793543265414L266.07141666666666,347.04637937912577L266.29158333333334,349.40114381611346L266.6218333333333,352.2002315227802L266.95208333333335,341.03909474152783L270.58483333333334,350.65415116640236L271.0251666666667,351.5191816971852L271.90583333333336,350.53255531696175L272.89658333333335,357.98366503715516L273.00666666666666,336.5506295277522L274.10749999999996,337.1662433404189L276.41925,345.50143560262825L277.40999999999997,340.4030425952031L278.5108333333333,355.8256405757024L280.1620833333333,341.3846905891712L280.60241666666667,337.1168882516714L283.46458333333334,351.3333668314494L284.45533333333333,351.9444487094879L285.88641666666666,355.43274026650647L286.32675,350.1810153887822L288.30825,349.4920491491373L288.6385,352.53993718990915L288.74858333333333,344.9650735396605L289.0788333333333,351.92655806174645L289.299,351.0716108212104L289.7393333333333,349.5886495567285L290.7300833333333,350.18401871186035L290.95025,351.2684349830334L291.3905833333333,355.86463646155136L291.5006666666667,348.3962107527715L291.94100000000003,353.5288452221797L292.4914166666667,350.4581273592435L297.225,349.93737923136126L299.4266666666667,350.59385385329904L301.51825,355.26171324436484L301.8485,342.29535069465635L302.72916666666663,36.008004173865686L303.49975,344.2929135781068L306.2518333333333,351.27710578074823L306.58208333333334,348.0958959061366L308.12325000000004,29.17566375732423L308.5635833333333,339.6246729007134L309.44425,32.79326406625603L309.7745,34.90646104079025L310.10474999999997,336.39999092542206L310.435,352.8115135761408L313.7375,336.18127260941725L313.9576666666667,333.24001601292537L315.4988333333333,347.7589069907482L316.04925,27.841766122671288L316.5996666666667,348.68121216560786L317.81058333333334,32.84850205641527L319.2416666666667,344.5931765611355L319.57191666666665,48.059580406775865L321.4433333333333,341.1639285784501L323.31475,32.0868167583759L323.97525,344.21295367571025L324.74583333333334,26.827982623760533L326.287,31.87320767916168L328.04833333333335,30.583278597318213L328.7088333333333,29.283876976600084L329.4794166666667,29.51250457763672L333.0020833333333,30.332711087740392L334.76341666666667,351.76372973552117L336.1945,363.36754098305335L338.6163333333334,28.324998708871703L339.27683333333334,29.83650090144232L339.7171666666666,46.22854086068958L340.1575,337.469408259025L340.7079166666667,34.50180394099311L342.2490833333333,27.64743488018331L342.46925,29.064832834097047L345.11125,36.7761893639198L348.5238333333333,335.8438480743995L349.51458333333335,32.75870150052583L349.62466666666666,34.57498873197113L350.065,32.713601567194985L351.1658333333333,336.5975748869089L351.49608333333333,355.73817695837755L351.71625,338.2955260937031L351.8263333333333,30.18951380803037L352.92716666666666,319.5830191392165L353.9179166666667,351.8385880268537L354.68850000000003,30.899865487905686L355.1288333333333,30.43480154184192L357.55066666666664,29.240573941744287L359.7523333333333,31.179072453425476L359.8624166666666,28.523678001990675L360.1926666666667,348.32829624872943L360.30275,355.4181370001573L360.96325,30.91124584491439L361.0733333333333,35.94227318396935L362.28425,338.7616611077235L364.15566666666666,38.496020859938426L364.596,340.83521470289963L364.92625,29.05902064396787L365.91700000000003,29.719192270132226L369.99008333333336,28.718874417818483L374.17325,353.423076741512L376.15475,347.36001182060977L376.26483333333334,36.43267118013824L378.79675000000003,27.81070861816403L381.65891666666664,342.1765952550448L381.76899999999995,340.910168662438L382.8698333333333,33.79182938795822L386.06225,29.106183682955248L386.1723333333333,26.983491985614478L386.72275,36.204709097055286L388.04375,28.681405757023754L389.8050833333333,344.4595665528224L390.24541666666664,28.130312523475084L390.5756666666667,52.80545548659103L391.01599999999996,27.32197441687947L391.6765,33.58858020489032L394.09833333333336,33.52846174973712L395.0890833333333,35.866781264085034L395.30925,31.02564838115984L395.6395,29.113149437537572L396.18991666666665,33.50093149038457L396.96049999999997,28.8876497708834L397.8411666666667,30.558166386530957L398.2815,30.03979445237377L399.1621666666666,33.19918565016525L401.1436666666666,45.87716956505409L401.8041666666666,30.20817049466649L403.23525,344.0698122024536L403.4554166666667,40.38587000920222L404.3360833333333,345.1314225251858L405.98733333333337,355.9668329825768L406.0974166666667,31.877733201246997L407.5285,30.553041898287233L408.51925000000006,27.09796107365537L408.73941666666667,27.326810514009935L408.95958333333334,29.599842717097374L409.51,342.90120565707866L409.6200833333333,339.0903839954963L410.3906666666666,29.240729229266833L410.61083333333335,351.8331425648469L411.27133333333336,340.3828850269318L411.60158333333334,342.521533210461L412.152,36.19108816293567L412.9225833333333,349.6808086285224L413.80325,28.37438014103816L415.78475,29.675445556640625L416.0049166666667,31.91821887676531L417.54608333333334,348.66500914314616L417.76624999999996,27.48498194767876L418.31666666666666,29.53295816274789L418.8670833333333,360.1451460324801L419.63766666666663,27.489596205491296L420.29816666666665,344.05804085364707L422.49983333333336,46.376197110689645L423.71074999999996,32.647227243276745L424.37125,34.664035034179676L425.47208333333333,358.7201958362873L426.13258333333334,360.67714444673976L426.683,35.22020838810846L428.4443333333333,36.29399942251348L429.325,30.38060619647689L431.63675,29.12856727013218L436.26025,30.58729388897234L436.7005833333333,30.90146273099458L437.0308333333333,346.64361345951374L437.25100000000003,336.5324733660771L437.6913333333333,34.606356811523426L438.13166666666666,29.1493314302885L438.35183333333333,336.6433708410997L440.55350000000004,28.781033794696498L441.76441666666665,354.93188878572903L443.85600000000005,29.159380751389733L444.7366666666667,27.466214341383704L446.05766666666665,29.573776597243068L446.2778333333333,32.112727590707664L447.26858333333337,37.15309436504657L448.47950000000003,29.065875478891257L448.80975,27.090573824369017L450.13075,34.52940075214093L451.23158333333333,33.10568037766677L451.45175,27.89130284236029L451.78200000000004,28.08308293269232L451.89208333333335,28.17414797269379L454.53408333333334,31.381700486403247L454.9744166666666,37.19963625394382L456.95591666666667,30.48378366323618L459.2676666666667,349.7205388371761L460.3685,29.407175269493678L463.0105,316.45554507328916L463.12058333333334,30.419561180701635L469.7255833333333,29.933178476186868L470.4961666666667,343.628812623024L470.71633333333335,29.46092693622296L472.1474166666667,27.486845397949253L473.24825000000004,28.620510864257824L473.35833333333335,28.25940082256608L473.7986666666667,339.71988772245555L474.3490833333333,317.45589342850906L475.33983333333333,338.0361702808967L475.44991666666664,29.11403679480918L475.56,29.107847477839528L476.77091666666666,28.458168851412267L477.21125,28.29096855750447L477.9818333333333,31.77202676626348L480.4036666666667,33.572563406137306L481.6145833333333,341.46248894471387L481.83475000000004,25.567358515812828L482.16499999999996,317.8398196440477L484.2565833333333,26.962261962890636L485.68766666666664,34.31144362229571L486.2380833333333,29.634915513258704L487.449,29.26777144211991L487.88933333333335,30.218707862267138L487.99941666666666,337.0510560475863L489.76075000000003,30.71873368483324L490.86158333333333,28.828529592660743L491.19183333333336,30.037509507399363L492.29266666666666,29.660049907977793L494.4943333333334,31.73304959810696L494.6044166666667,338.3877544036278L495.1548333333334,30.650673382098887L495.81533333333334,26.382307434082065L496.47583333333336,30.085338064340476L497.13633333333337,348.4051559466582L501.3195,27.11311269906855L501.4295833333333,338.53776492338915L502.53041666666667,31.89987276517428L503.0808333333334,30.99039811354413L503.1909166666667,28.152230248084436L503.8514166666667,34.03736114501953L505.943,30.059427232008716L506.16316666666665,30.032140995905934L507.59425,337.0923153877258L508.36483333333337,35.069934434157176L508.4749166666667,30.55534902719353L509.46566666666666,29.05746776874247L510.23625,32.35979003906249L511.22700000000003,31.7206265963041L513.2085000000001,28.48561037503754L513.4286666666667,344.6802592387566L513.869,29.80874880277196L516.18075,340.07401606486394L517.1715,344.27942366783435L520.0336666666667,338.2460261161511L521.6849166666667,30.734573012131932L522.1252499999999,27.35132375863884L522.2353333333333,336.62554466540996L522.6756666666666,27.116750863882203L523.116,28.693118873009325L523.3361666666667,344.4220542174119L524.8773333333334,28.980356421837428L524.9874166666666,28.160038992074817L527.5193333333333,30.99066432072567L527.6294166666667,33.39637861985426L528.2899166666666,27.11477649395283L528.8403333333333,27.521851642315198L529.0605,33.49662780761719L530.1613333333333,344.33893033174365L531.042,29.178214909480175L532.2529166666667,32.63227527324972L533.0235,38.40739605243391L533.5739166666666,27.173120234562816L534.4545833333334,34.690145521897534L535.2251666666667,33.08465001032903L535.33525,27.81956000694862L535.4453333333333,26.62628631591798L535.7755833333333,29.826007901705225L536.5461666666666,32.315311255821825L538.7478333333333,30.781358924278834L539.29825,350.70817094674476L544.8024166666667,25.41684053861178L545.24275,28.62834179217998L545.7931666666667,338.5384581712576L546.56375,30.752164870042066L547.1141666666667,346.9850496466343L548.2149999999999,30.19940784160906L550.3065833333334,30.718977708082946L552.6183333333333,350.0657546116756L553.2788333333333,33.45707385723409L556.9115833333333,31.090846956693213L557.0216666666666,31.298621661846425L557.13175,31.74352041391228L558.6729166666667,315.4224532347459L560.9846666666667,339.4344200354356L562.5258333333334,26.147046837439916L563.8468333333334,28.382432908278247L565.4980833333333,28.80707773061897L568.2501666666666,338.2743113224323L568.6905,29.24166095440205L568.8005833333333,27.23124213585487L570.672,29.461792109562793L570.8921666666666,26.99813338059647L571.00225,34.184174405611486L572.98375,32.00868495060848L573.7543333333333,30.831893920898438L577.3870833333333,29.562374056302588L578.0475833333334,31.21898134671727L578.7080833333333,37.82815140944257L579.0383333333334,31.666298147348243L579.4786666666666,30.417165316068235L579.6988333333334,29.739512751652626L580.1391666666666,27.05623309795675L580.6895833333333,345.66980783205764L581.1299166666666,37.68719470684346L581.6803333333334,355.8265792333163L582.7811666666666,28.081374769944432L583.9920833333333,351.946888248737L589.0559166666667,351.9423259845147L589.7164166666666,351.05012464339916L590.2668333333334,351.57877761675763L596.8718333333333,342.6747631733234L597.7525,357.40954557565544L598.8533333333334,344.9960547869022L599.0735,344.38071688688717L599.5138333333333,31.678011263333815L601.4953333333333,344.1763640532127L602.04575,30.64579291710487L604.1373333333333,31.20824432373047L604.4675833333333,26.646784268892702L607.2196666666666,29.78567751370946L607.7700833333333,354.4494579406885L607.8801666666667,325.4513262968797L608.1003333333333,353.2459883066324L609.0910833333334,30.23428098238429L612.5036666666666,338.98356073819673L612.9440000000001,32.151327632023765L615.6960833333334,339.464095896941L616.2465000000001,36.209256803072435L617.23725,30.272193321814882L619.21875,32.85074263352618L620.7599166666666,30.522649911733765L620.87,29.559623248760488L622.52125,27.217066603440514L623.84225,345.5345499735612L626.0439166666666,354.17931415117704L626.2640833333334,336.4572892482464L626.3741666666667,336.8822099832388L626.7044166666667,30.617929898775515L627.0346666666667,30.742891986553502L628.0254166666666,322.9264260512132L628.9060833333334,31.45051504281855L629.2363333333333,36.618750000000034L630.9976666666666,34.95528787466196L631.438,337.5072505804209L632.2085833333334,27.24180168738735L634.8505833333332,30.656019709660484L636.6119166666666,349.5156269857517L639.03375,29.735941138634303L640.5749166666667,338.0469904936277L642.7765833333333,334.4625225800734L643.7673333333333,29.84353320782003L645.4185833333333,339.64406997607307L645.5286666666667,347.2601385465035L646.5194166666666,28.705253483698925L647.4000833333333,33.321818425105164L647.7303333333333,40.00963052602913L648.7210833333334,350.76350581829365L649.4916666666667,344.36881763384895L650.8126666666666,350.54133079510467L650.9227500000001,31.559948378342824L651.253,328.63111423345714L652.6840833333333,31.282671414888796L654.1151666666666,38.92204108605017L654.5554999999999,34.36574988731968L654.7756666666667,372.18077340492835L655.3260833333334,31.115204913799573L656.0966666666667,336.7037665954003L656.7571666666666,31.264414039024928L656.86725,32.062259145883445L659.2890833333333,353.2629423765036L659.8395,28.90129288893479L660.83025,358.62845626610977L662.0411666666666,341.2615538230309L663.8024999999999,351.9822185864815L665.6739166666666,28.456615976186868L666.3344166666666,27.705556781475366L666.5545833333334,30.294687828650865L666.77475,30.05678734412561L667.3251666666666,27.664516507662256L667.7655,346.5709156751633L669.8570833333333,349.07403502601846L671.2881666666666,30.01139901968145L672.8293333333334,30.548427640474756L673.5999166666667,31.144154944786635L675.0310000000001,346.7475221294623L676.5721666666667,348.352963827665L676.7923333333333,32.240129910982546L677.0124999999999,342.216243487138L677.1225833333333,27.817053222656284L677.34275,29.016116919884325L678.00325,46.368987332857614L678.2234166666666,27.42666039100061L678.4435833333332,27.983854205791772L678.5536666666667,43.09703486515923L678.7738333333334,25.958172842172473L682.62675,31.618536142202515L683.0670833333334,28.025071951059203L683.5074166666666,32.48918891319863L684.4981666666666,29.433529780461242L685.3788333333334,29.973264840932984L685.92925,30.724168748121997L686.5897500000001,29.312538616473887L687.4704166666667,28.66851689265326L688.3510833333333,27.860023498535156L689.6720833333334,30.76744959904596L695.3964166666666,28.7394832904522L695.83675,318.34540808751035L696.0569166666667,27.08715749887324L696.3871666666666,346.61397728644886L697.5980833333333,37.214566040039074L698.5888333333334,28.440244234525267L699.2493333333333,26.415139653132485L702.44175,28.231759643554653L702.6619166666667,341.317825445762L703.2123333333333,28.055996351975637L703.3224166666666,28.769564701960633L705.5240833333334,335.46118079699005L706.0745,29.00804196871246L707.1753333333334,27.2316636305589L708.056,27.207283489520762L710.5879166666667,32.56913980337288L712.6795,338.53317908873925L713.34,316.3323604730459L713.67025,338.4213117599487L714.99125,338.46438255676856L715.7618333333332,27.320332805926967L717.303,26.001453693096494L718.0735833333333,27.666269038273754L719.0643333333334,28.026935401329638L719.3945833333333,29.16383972167972L720.7155833333333,354.00980707498695L722.2567499999999,40.02589134803185L723.2475,29.750715637207065L723.5777499999999,353.47821039786703L723.908,27.449997887244592L725.6693333333334,30.841943241999672L726.1096666666666,27.533032343937805L726.6600833333334,27.036134455754222L727.9810833333333,28.64318284254807L728.7516666666667,27.433249018742515L729.3020833333334,26.548376347468434L731.2835833333334,29.604434790978075L731.8340000000001,28.92092566856968L732.0541666666667,29.288735257662267L732.6045833333333,25.434321476862976L733.3751666666667,25.307850881723255L735.3566666666667,336.9526356477004L736.0171666666668,29.507646296574535L737.6684166666666,47.186243380033034L742.5120833333334,341.97938148791974L742.9524166666666,30.632948420597984L743.0625,32.28831341083236L744.05325,28.429595947265625L744.6036666666666,26.351981999323925L745.5944166666667,33.140664438101L746.3649999999999,28.63164719801682L751.31875,29.60481191781855L752.4195833333333,30.31769256591798L752.5296666666667,29.841581021822435L752.8599166666667,30.405718407264146L756.7128333333333,27.50667783297024L757.7035833333333,26.113682204026418L758.0338333333333,29.54347334641676L758.1439166666667,30.083918292705846L759.24475,26.928631122295712L760.56575,29.167855013333792L763.6480833333333,29.074083533653834L764.0884166666667,28.388844064565774L764.52875,33.93001309908351L764.6388333333333,32.703263854980435L765.6295833333334,26.60552215576172L773.4455,30.48700033334586L774.106,27.526732107309158L775.2068333333333,27.06539506178632L779.1698333333334,32.69603189321663L780.38075,32.12295438326322L781.0412500000001,350.8750911685137L783.02275,29.38257328913761L783.68325,29.382151794433582L783.9034166666668,27.120743971604554L786.5454166666667,27.044409062312184L787.7563333333334,27.71252253605769L788.4168333333333,29.999330960787233L789.0773333333334,25.898653353177565L790.3983333333334,27.49221390944257L791.0588333333334,27.31884648249701L791.7193333333335,25.97844895582932L791.8294166666667,28.06733234112079L792.0495833333333,338.05762907541714L792.3798333333333,28.286576139009924L793.1504166666667,26.231035203200122L793.59075,27.36383549616886L793.8109166666667,29.774053133451048L794.3613333333334,31.135103900616002L795.242,27.67740537203275L796.0125833333334,31.354125859187207L796.4529166666666,27.72079714261571L799.8655,26.67937246469353L803.2780833333333,29.14744579608623L804.0486666666667,336.57978891959556L806.1402499999999,26.96050943227914L806.2503333333333,27.406517380934474L806.6906666666667,26.803624666654173L807.0209166666666,27.264362746018605L807.131,337.51367698816154L807.2410833333333,31.1353035560021L808.2318333333334,28.175501192533034L809.0024166666667,28.599081186147828L809.5528333333333,28.672332528921288L810.2133333333333,26.766644052358743L813.5158333333334,27.520476238544177L813.6259166666666,26.31726414607124L815.9376666666667,29.0990404569186L817.0385000000001,344.1754683769666L820.5611666666666,29.02951601468601L821.8821666666666,29.04023085374098L823.3132499999999,28.642983187161917L823.4233333333333,30.309262671837416L825.8451666666666,338.3477796517886L826.7258333333334,30.36616445688105L828.5972499999999,337.01048024984505L829.25775,29.965589200533373L830.1384166666666,33.716182180551414L832.1199166666667,28.118909982534547L833.6610833333333,39.92652951754059L835.7526666666668,322.00366045144887L836.4131666666666,28.798004502516505L836.52325,29.48772512582633L837.2938333333334,29.914943284254832L839.16525,34.8130223200871L839.9358333333333,348.55402525044406L841.3669166666667,28.110546640249368L841.477,28.155602205716605L845.6601666666667,29.48184638390171L845.77025,26.89859407865083L847.6416666666668,28.63743720421428L848.082,28.715258436936608L849.73325,36.152088810847374L850.8340833333333,28.003464801494886L853.9164166666666,26.975239562988293L854.35675,29.036149010291467L855.1273333333334,30.166287231445324L856.2281666666667,28.731230867826014L859.2004166666667,30.311414513221166L859.7508333333334,29.76458059457633L859.8609166666668,29.390004906287572L860.8516666666666,338.29156071589546L865.0348333333334,29.74215263953579L865.8054166666666,29.72606928898739L866.7961666666666,30.3554718017578L866.90625,27.086048302283643L867.0163333333334,31.724930279071543L869.7684166666667,29.779177621694714L870.2087499999999,316.7607127849872L870.6490833333334,27.98345489501952L870.9793333333333,29.655391282301707L872.0801666666666,26.8486358642578L874.83225,29.16403937706582L875.0524166666667,28.95415719839241L875.9330833333333,29.069447091909524L876.3734166666667,28.462073223407458L877.2540833333334,334.14632390829235L877.47425,32.625442622258106L880.5565833333333,33.1626265305739L880.6666666666666,25.97243711031399L881.6574166666667,33.35005857027494L881.8775833333333,33.447645686222984L882.6481666666667,30.859978778545667L883.0885,30.354251685509325L884.4095,360.76797794195323L886.5010833333333,351.6567141019381L886.72125,374.67229653871976L888.1523333333333,30.552553851787877L889.4733333333334,29.794950397198022L889.5834166666666,26.658985431377744L889.9136666666666,27.754494535006017L890.1338333333333,30.838948411207923L891.7850833333334,44.968271695650515L892.00525,44.92969383826619L892.5556666666666,32.121645531287584L893.4363333333333,31.00699169452372L894.0968333333333,28.13304114708535L894.4270833333334,28.954667428823655L900.8119166666665,30.428745328463037L901.8026666666666,31.57503345196062L902.0228333333333,345.46243139780483L902.243,27.46614778958832L902.57325,29.57446429912858L902.6833333333334,340.63633159490735L904.55475,30.327142920860865L905.4354166666667,28.39731832650989L905.8757499999999,26.719148254394497L906.206,29.498395597017748L906.3160833333334,27.823575298602748L907.0866666666666,31.95814995398888L910.3891666666667,25.894549325796277L912.7009166666666,30.39935161884017L913.14125,26.86802462064304L913.4715,29.744260113055873L914.3521666666667,31.35095355694108L914.7925,30.495851722130396L915.12275,26.099573223407447L917.4345,31.32025099534252L917.7647499999999,28.979779639610854L918.7555,30.87291201077977L919.08575,28.460387244591345L919.1958333333333,29.214441270094653L919.5260833333334,31.040334144005385L921.3975,46.887692025991555L921.72775,336.6085587061368L922.058,340.9402979080494L922.1680833333332,26.123975548377416L922.4983333333333,31.613566941481395L924.2596666666667,31.721935448279737L926.35125,29.628748380220827L930.6445,26.222117262620202L931.0848333333333,30.470806063138525L931.305,31.906150817871094L931.7453333333334,29.864607943021326L932.4058333333334,31.185239586463354L934.1671666666667,31.630715120755667L934.3873333333333,340.73520399240346L934.4974166666667,26.67440326397235L936.91925,317.6705479255089L940.6620833333333,30.723481046236486L942.5335,27.192398071289062L943.9645833333334,27.77372800386871L945.9460833333333,28.403130516639123L947.5973333333334,27.108320969801696L948.80825,336.9743564899151L949.6889166666666,29.087038949819714L952.2208333333333,27.966927865835373L952.3309166666667,40.6780767587515L952.5510833333333,27.683217562161985L953.8720833333333,28.470591853215126L954.0922499999999,347.01808602718205L955.1930833333333,27.87457615778999L955.6334166666667,32.62757227971002L959.3762499999999,27.063376323993396L959.8165833333334,28.90120415320763L961.0275,353.55823754530684L962.3485000000001,27.015148456280087L964.6602499999999,30.891014099121094L965.7610833333333,27.259171705979554L966.8619166666666,336.5783150746272L970.935,31.554358027531578L971.5955,30.725189208984375L973.3568333333334,30.384310913085926L975.6685833333333,44.108843994140614L976.9895833333334,344.31350165330446L978.9710833333334,27.45048593374395L979.6315833333334,29.53215954120344L980.182,28.71139843280497L980.2920833333333,339.2989462302281L982.6038333333333,30.213383718637317L983.3744166666665,26.70055811955376L983.9248333333334,28.237083787184474L984.6954166666666,25.490713031475366L987.0071666666666,29.332992201585057L988.4382499999999,27.732354971078735L991.4105,28.944462820199817L992.40125,27.026928124060987L994.6029166666667,27.91552769587588L994.8230833333333,25.838224322979272L995.8138333333334,30.451040179912866L997.4650833333334,29.786476135253906L998.3457500000001,27.623742441030686L1001.9784999999999,27.91033665583683L1003.4095833333334,26.968074153019813L1004.7305833333332,32.34430565467244L1006.602,31.69218679574817L1007.0423333333333,29.05815547062798L1007.8129166666666,35.7650901207557L1008.91375,27.009380634014462L1009.1339166666667,28.38429635854868L1009.244,30.12054396409252L1009.3540833333334,30.243442946213918L1009.6843333333333,351.86540216115804L1010.0145833333332,27.78095996563252L1010.4549166666667,29.80420109675481L1011.4456666666667,26.449014516977172L1011.9960833333333,347.05347338456374L1013.0969166666667,340.86539455560535L1014.7481666666666,25.846587665264394L1015.6288333333334,28.304833514873792L1016.0691666666667,30.845270831768346L1017.8304999999999,26.958268855168285L1021.46325,350.2118333761509L1021.9035833333332,346.2837958051608L1023.5548333333334,28.249484605055613L1026.4170000000001,28.89767690805286L1026.74725,30.192907949594314L1028.1783333333333,342.5159574178549L1028.2884166666665,30.802544579139123L1028.6186666666665,341.2442066816183L1029.38925,29.521311598557702L1029.7195,26.77427532489486L1030.1598333333334,28.051493013822096L1030.8203333333333,31.177741417518007L1032.3615,345.69671243520884L1033.1320833333334,339.93802856298595L1033.5724166666666,351.3494798183441L1033.6825,340.91494929973896L1034.0127499999999,31.01604273869441L1034.4530833333333,32.43712322528546L1035.2236666666665,26.088858384352477L1035.7740833333335,29.936018019456128L1036.9850000000001,28.71672257643479L1038.63625,31.368146104079017L1039.29675,30.227026836688708L1039.7370833333334,30.05099733792821L1041.0580833333333,29.075592041015625L1042.59925,28.554380563589234L1043.3698333333334,26.534067711463365L1043.9202500000001,28.26357140174275L1044.0303333333334,28.64189617450421L1044.1404166666666,341.8274368066054L1044.2504999999999,25.927891775277942L1044.911,28.049917954664977L1045.6815833333333,26.403559640737683L1047.553,26.682877525916467L1050.1950000000002,345.2838146979992L1053.3874166666667,28.09692570612981L1054.5983333333334,338.5528305860666L1054.8185,344.1046451348525L1056.46975,348.85911813470034L1057.0201666666667,29.254239243727454L1058.7815,28.502159588153575L1059.77225,28.51762178861179L1060.8730833333334,27.894541696401745L1062.5243333333333,27.419006934532774L1064.1755833333334,30.29462127685548L1064.6159166666666,26.842912409855785L1065.1663333333333,31.05211381178634L1066.8175833333332,26.299406080979566L1067.6982500000001,26.24350257286659L1068.7990833333333,30.210189232459413L1069.3495,28.628142136793883L1071.3310000000001,30.1881827721229L1072.8721666666668,30.143726172814013L1073.0923333333333,27.19792187030498L1077.1654166666667,29.37407684326172L1077.2755,27.018609149639417L1078.8166666666666,30.744688885028552L1079.8074166666668,29.440872661884043L1080.90825,26.899592355581433L1082.5595,28.944285348745495L1084.4309166666667,29.06026294414812L1085.0914166666666,28.46165172870343L1085.5317499999999,28.443882399338918L1086.7426666666668,31.871078021709707L1086.85275,26.825719862717847L1087.2930833333332,27.784709050105164L1087.51325,26.343396817720873L1089.2745833333333,27.516571866548986L1089.6048333333333,30.50337207500752L1090.9258333333332,27.5158619807317L1091.0359166666667,26.686382587139462L1091.3661666666667,27.505723923903247L1092.13675,31.06016657902643L1092.4669999999999,30.434601886455823L1093.2375833333333,27.88555720402644L1093.788,29.327978633000328L1094.2283333333335,26.709098933293262L1094.8888333333332,28.84261638934794L1096.3199166666666,26.290355036808876L1096.5400833333333,27.57910837026742L1097.5308333333332,31.405836604191734L1099.2921666666668,338.0994582653046L1099.5123333333333,28.78130000187798L1099.7325,26.00487001859227L1099.9526666666666,29.792487980769238L1100.72325,30.23860684908351L1103.0349999999999,30.65411189152644L1103.8055833333333,27.043787912222058L1106.1173333333334,28.294384883000305L1107.98875,25.703878432053784L1109.1996666666666,26.821549283541174L1110.7408333333333,32.016271855280934L1111.7315833333334,30.419960491473887L1112.6122500000001,28.64577836256757L1114.2635,28.68675208458535L1114.8139166666667,28.55677642822269L1114.924,27.850595327524047L1117.23575,25.748823077862085L1117.3458333333333,26.294259408804123L1118.9970833333332,29.351981647197988L1121.9693333333335,28.57456794151892L1123.4004166666666,30.080568519005396L1125.82225,28.405637300931517L1126.7029166666666,28.47245530348556L1129.3449166666667,30.581282043457065L1130.1155,27.574560664250328L1131.2163333333333,39.888084763746974L1131.9869166666667,33.16566572922926L1132.3171666666667,31.428552950345534L1134.2986666666668,28.395920738807092L1135.5095833333335,342.3451196523813L1136.7205000000001,29.996602337176967L1137.8213333333333,27.77585766132063L1139.2524166666667,31.245291489821227L1141.01375,29.173156973031837L1141.344,336.9003883288457L1142.1145833333335,28.734292250413148L1143.1053333333332,28.626788916954638L1143.5456666666666,26.642125643216673L1143.6557500000001,25.806235093336852L1144.2061666666666,29.654082430326014L1145.0868333333333,352.1394239792457L1146.8481666666667,30.685080660306483L1149.0498333333333,31.8532643244817L1149.7103333333332,31.650569739708544L1152.0220833333333,28.417195129394543L1154.0035833333334,338.63641201532806L1154.6640833333333,27.686478600135217L1155.2145,30.373108027531543L1156.4254166666667,31.077691885141235L1158.4069166666666,30.97830787071814L1158.6270833333333,339.5732519333179L1158.9573333333333,33.36035191462588L1160.3884166666667,29.3784914456881L1160.4985,30.359398357684825L1162.2598333333333,28.19320397010216L1163.6909166666667,27.08418485201321L1169.5253333333333,28.964139967698316L1170.07575,336.9422202917246L1170.5160833333334,344.80026876376223L1172.05725,338.688789664782L1174.5891666666666,31.016020554762633L1175.69,29.57566223144528L1176.02025,31.719473031850953L1176.9009166666667,337.47346306580766L1178.5521666666666,29.174976055438663L1181.5244166666666,25.96724607027494L1181.8546666666668,26.623912635216357L1182.1849166666666,26.35034038837142L1183.0655833333333,337.8559722827031L1183.94625,28.318143873948316L1184.2765,27.016923170823304L1184.4966666666667,27.190956115722656L1186.58825,29.634050339918872L1187.24875,341.0281816335825L1188.6798333333334,27.36683032696061L1188.7899166666666,28.67259873610277L1189.0100833333333,336.8683339339036L1192.0924166666666,29.499881920447706L1192.3125833333334,25.54956700251654L1192.7529166666668,28.081308218149047L1193.0831666666668,29.545802659254832L1195.505,27.440614084097092L1196.826,26.26555340106671L1198.5873333333334,27.07411334698014L1199.3579166666668,27.09221543532152L1200.1285,29.86025989239033L1201.77975,28.942776841383704L1202.9906666666666,27.41161968524642L1203.9814166666667,29.37718259371246L1204.6419166666667,28.032636671799878L1205.5225833333334,27.524247506948655L1208.0545,28.74536203237676L1209.5956666666666,28.725019366924585L1210.6965,28.754124685434192" style="fill: none;" fill="none"></path></g></g></g></g></g></g><g transform="translate(46, 378)" clip-path="url(#clip_1)"><clipPath id="clip_1"><rect width="1321" height="22"></rect></clipPath><g><g><line x1="0" y1="0" x2="0" y2="5" style="visibility: inherit;" fill="rgb(0, 0, 0)" stroke="rgb(204, 204, 204)" stroke-width="1px"></line><line x1="110.08333333333333" y1="0" x2="110.08333333333333" y2="5" style="visibility: inherit;" fill="rgb(0, 0, 0)" stroke="rgb(204, 204, 204)" stroke-width="1px"></line><line x1="220.16666666666666" y1="0" x2="220.16666666666666" y2="5" style="visibility: inherit;" fill="rgb(0, 0, 0)" stroke="rgb(204, 204, 204)" stroke-width="1px"></line><line x1="330.25" y1="0" x2="330.25" y2="5" style="visibility: inherit;" fill="rgb(0, 0, 0)" stroke="rgb(204, 204, 204)" stroke-width="1px"></line><line x1="440.3333333333333" y1="0" x2="440.3333333333333" y2="5" style="visibility: inherit;" fill="rgb(0, 0, 0)" stroke="rgb(204, 204, 204)" stroke-width="1px"></line><line x1="550.4166666666667" y1="0" x2="550.4166666666667" y2="5" style="visibility: inherit;" fill="rgb(0, 0, 0)" stroke="rgb(204, 204, 204)" stroke-width="1px"></line><line x1="660.5" y1="0" x2="660.5" y2="5" style="visibility: inherit;" fill="rgb(0, 0, 0)" stroke="rgb(204, 204, 204)" stroke-width="1px"></line><line x1="770.5833333333334" y1="0" x2="770.5833333333334" y2="5" style="visibility: inherit;" fill="rgb(0, 0, 0)" stroke="rgb(204, 204, 204)" stroke-width="1px"></line><line x1="880.6666666666666" y1="0" x2="880.6666666666666" y2="5" style="visibility: inherit;" fill="rgb(0, 0, 0)" stroke="rgb(204, 204, 204)" stroke-width="1px"></line><line x1="990.75" y1="0" x2="990.75" y2="5" style="visibility: inherit;" fill="rgb(0, 0, 0)" stroke="rgb(204, 204, 204)" stroke-width="1px"></line><line x1="1100.8333333333335" y1="0" x2="1100.8333333333335" y2="5" style="visibility: inherit;" fill="rgb(0, 0, 0)" stroke="rgb(204, 204, 204)" stroke-width="1px"></line><line x1="1210.9166666666665" y1="0" x2="1210.9166666666665" y2="5" style="visibility: inherit;" fill="rgb(0, 0, 0)" stroke="rgb(204, 204, 204)" stroke-width="1px"></line><line x1="1321" y1="0" x2="1321" y2="5" style="visibility: inherit;" fill="rgb(0, 0, 0)" stroke="rgb(204, 204, 204)" stroke-width="1px"></line></g><g transform="translate(0, 8)"><text x="0" y="0" dx="0em" dy="0.95em" style="text-anchor: middle; visibility: hidden; font-family: &quot;Helvetica Neue&quot;, sans-serif; font-size: 12px; font-weight: 200;" fill="rgb(50, 49, 63)" stroke="none" stroke-width="1px">-1k</text><text x="110.08333333333333" y="0" dx="0em" dy="0.95em" style="text-anchor: middle; visibility: inherit; font-family: &quot;Helvetica Neue&quot;, sans-serif; font-size: 12px; font-weight: 200;" fill="rgb(50, 49, 63)" stroke="none" stroke-width="1px">0</text><text x="220.16666666666666" y="0" dx="0em" dy="0.95em" style="text-anchor: middle; visibility: inherit; font-family: &quot;Helvetica Neue&quot;, sans-serif; font-size: 12px; font-weight: 200;" fill="rgb(50, 49, 63)" stroke="none" stroke-width="1px">1k</text><text x="330.25" y="0" dx="0em" dy="0.95em" style="text-anchor: middle; visibility: inherit; font-family: &quot;Helvetica Neue&quot;, sans-serif; font-size: 12px; font-weight: 200;" fill="rgb(50, 49, 63)" stroke="none" stroke-width="1px">2k</text><text x="440.3333333333333" y="0" dx="0em" dy="0.95em" style="text-anchor: middle; visibility: inherit; font-family: &quot;Helvetica Neue&quot;, sans-serif; font-size: 12px; font-weight: 200;" fill="rgb(50, 49, 63)" stroke="none" stroke-width="1px">3k</text><text x="550.4166666666667" y="0" dx="0em" dy="0.95em" style="text-anchor: middle; visibility: inherit; font-family: &quot;Helvetica Neue&quot;, sans-serif; font-size: 12px; font-weight: 200;" fill="rgb(50, 49, 63)" stroke="none" stroke-width="1px">4k</text><text x="660.5" y="0" dx="0em" dy="0.95em" style="text-anchor: middle; visibility: inherit; font-family: &quot;Helvetica Neue&quot;, sans-serif; font-size: 12px; font-weight: 200;" fill="rgb(50, 49, 63)" stroke="none" stroke-width="1px">5k</text><text x="770.5833333333334" y="0" dx="0em" dy="0.95em" style="text-anchor: middle; visibility: inherit; font-family: &quot;Helvetica Neue&quot;, sans-serif; font-size: 12px; font-weight: 200;" fill="rgb(50, 49, 63)" stroke="none" stroke-width="1px">6k</text><text x="880.6666666666666" y="0" dx="0em" dy="0.95em" style="text-anchor: middle; visibility: inherit; font-family: &quot;Helvetica Neue&quot;, sans-serif; font-size: 12px; font-weight: 200;" fill="rgb(50, 49, 63)" stroke="none" stroke-width="1px">7k</text><text x="990.75" y="0" dx="0em" dy="0.95em" style="text-anchor: middle; visibility: inherit; font-family: &quot;Helvetica Neue&quot;, sans-serif; font-size: 12px; font-weight: 200;" fill="rgb(50, 49, 63)" stroke="none" stroke-width="1px">8k</text><text x="1100.8333333333335" y="0" dx="0em" dy="0.95em" style="text-anchor: middle; visibility: inherit; font-family: &quot;Helvetica Neue&quot;, sans-serif; font-size: 12px; font-weight: 200;" fill="rgb(50, 49, 63)" stroke="none" stroke-width="1px">9k</text><text x="1210.9166666666665" y="0" dx="0em" dy="0.95em" style="text-anchor: middle; visibility: inherit; font-family: &quot;Helvetica Neue&quot;, sans-serif; font-size: 12px; font-weight: 200;" fill="rgb(50, 49, 63)" stroke="none" stroke-width="1px">10k</text><text x="1321" y="0" dx="0em" dy="0.95em" style="text-anchor: middle; visibility: hidden; font-family: &quot;Helvetica Neue&quot;, sans-serif; font-size: 12px; font-weight: 200;" fill="rgb(50, 49, 63)" stroke="none" stroke-width="1px">11k</text></g><line x1="0" y1="0" x2="1321" y2="0" fill="rgb(0, 0, 0)" stroke="rgb(204, 204, 204)" stroke-width="1px"></line></g></g></g></g></svg>