<svg viewBox="0 0 1367 400" xmlns="http://www.w3.org/2000/svg"><g><g><g><g><g><line x1="46" y1="378" x2="41" y2="378" style="visibility: inherit;" fill="rgb(0, 0, 0)" stroke="rgb(204, 204, 204)" stroke-width="1px"></line><line x1="46" y1="348.9230769230769" x2="41" y2="348.9230769230769" style="visibility: inherit;" fill="rgb(0, 0, 0)" stroke="rgb(204, 204, 204)" stroke-width="1px"></line><line x1="46" y1="319.8461538461538" x2="41" y2="319.8461538461538" style="visibility: inherit;" fill="rgb(0, 0, 0)" stroke="rgb(204, 204, 204)" stroke-width="1px"></line><line x1="46" y1="290.7692307692308" x2="41" y2="290.7692307692308" style="visibility: inherit;" fill="rgb(0, 0, 0)" stroke="rgb(204, 204, 204)" stroke-width="1px"></line><line x1="46" y1="261.6923076923077" x2="41" y2="261.6923076923077" style="visibility: inherit;" fill="rgb(0, 0, 0)" stroke="rgb(204, 204, 204)" stroke-width="1px"></line><line x1="46" y1="232.6153846153846" x2="41" y2="232.6153846153846" style="visibility: inherit;" fill="rgb(0, 0, 0)" stroke="rgb(204, 204, 204)" stroke-width="1px"></line><line x1="46" y1="203.53846153846152" x2="41" y2="203.53846153846152" style="visibility: inherit;" fill="rgb(0, 0, 0)" stroke="rgb(204, 204, 204)" stroke-width="1px"></line><line x1="46" y1="174.46153846153848" x2="41" y2="174.46153846153848" style="visibility: inherit;" fill="rgb(0, 0, 0)" stroke="rgb(204, 204, 204)" stroke-width="1px"></line><line x1="46" y1="145.38461538461536" x2="41" y2="145.38461538461536" style="visibility: inherit;" fill="rgb(0, 0, 0)" stroke="rgb(204, 204, 204)" stroke-width="1px"></line><line x1="46" y1="116.30769230769232" x2="41" y2="116.30769230769232" style="visibility: inherit;" fill="rgb(0, 0, 0)" stroke="rgb(204, 204, 204)" stroke-width="1px"></line><line x1="46" y1="87.23076923076923" x2="41" y2="87.23076923076923" style="visibility: inherit;" fill="rgb(0, 0, 0)" stroke="rgb(204, 204, 204)" stroke-width="1px"></line><line x1="46" y1="58.15384615384613" x2="41" y2="58.15384615384613" style="visibility: inherit;" fill="rgb(0, 0, 0)" stroke="rgb(204, 204, 204)" stroke-width="1px"></line><line x1="46" y1="29.076923076923038" x2="41" y2="29.076923076923038" style="visibility: inherit;" fill="rgb(0, 0, 0)" stroke="rgb(204, 204, 204)" stroke-width="1px"></line><line x1="46" y1="0" x2="41" y2="0" style="visibility: inherit;" fill="rgb(0, 0, 0)" stroke="rgb(204, 204, 204)" stroke-width="1px"></line></g><g transform="translate(36, 0)"><text x="0" y="378" dx="0em" dy="0.3em" style="text-anchor: end; visibility: hidden; font-family: &quot;Helvetica Neue&quot;, sans-serif; font-size: 12px; font-weight: 200;" fill="rgb(50, 49, 63)" stroke="none" stroke-width="1px">-10</text><text x="0" y="348.9230769230769" dx="0em" dy="0.3em" style="text-anchor: end; visibility: inherit; font-family: &quot;Helvetica Neue&quot;, sans-serif; font-size: 12px; font-weight: 200;" fill="rgb(50, 49, 63)" stroke="none" stroke-width="1px">0</text><text x="0" y="319.8461538461538" dx="0em" dy="0.3em" style="text-anchor: end; visibility: inherit; font-family: &quot;Helvetica Neue&quot;, sans-serif; font-size: 12px; font-weight: 200;" fill="rgb(50, 49, 63)" stroke="none" stroke-width="1px">10</text><text x="0" y="290.7692307692308" dx="0em" dy="0.3em" style="text-anchor: end; visibility: inherit; font-family: &quot;Helvetica Neue&quot;, sans-serif; font-size: 12px; font-weight: 200;" fill="rgb(50, 49, 63)" stroke="none" stroke-width="1px">20</text><text x="0" y="261.6923076923077" dx="0em" dy="0.3em" style="text-anchor: end; visibility: inherit; font-family: &quot;Helvetica Neue&quot;, sans-serif; font-size: 12px; font-weight: 200;" fill="rgb(50, 49, 63)" stroke="none" stroke-width="1px">30</text><text x="0" y="232.6153846153846" dx="0em" dy="0.3em" style="text-anchor: end; visibility: inherit; font-family: &quot;Helvetica Neue&quot;, sans-serif; font-size: 12px; font-weight: 200;" fill="rgb(50, 49, 63)" stroke="none" stroke-width="1px">40</text><text x="0" y="203.53846153846152" dx="0em" dy="0.3em" style="text-anchor: end; visibility: inherit; font-family: &quot;Helvetica Neue&quot;, sans-serif; font-size: 12px; font-weight: 200;" fill="rgb(50, 49, 63)" stroke="none" stroke-width="1px">50</text><text x="0" y="174.46153846153848" dx="0em" dy="0.3em" style="text-anchor: end; visibility: inherit; font-family: &quot;Helvetica Neue&quot;, sans-serif; font-size: 12px; font-weight: 200;" fill="rgb(50, 49, 63)" stroke="none" stroke-width="1px">60</text><text x="0" y="145.38461538461536" dx="0em" dy="0.3em" style="text-anchor: end; visibility: inherit; font-family: &quot;Helvetica Neue&quot;, sans-serif; font-size: 12px; font-weight: 200;" fill="rgb(50, 49, 63)" stroke="none" stroke-width="1px">70</text><text x="0" y="116.30769230769232" dx="0em" dy="0.3em" style="text-anchor: end; visibility: inherit; font-family: &quot;Helvetica Neue&quot;, sans-serif; font-size: 12px; font-weight: 200;" fill="rgb(50, 49, 63)" stroke="none" stroke-width="1px">80</text><text x="0" y="87.23076923076923" dx="0em" dy="0.3em" style="text-anchor: end; visibility: inherit; font-family: &quot;Helvetica Neue&quot;, sans-serif; font-size: 12px; font-weight: 200;" fill="rgb(50, 49, 63)" stroke="none" stroke-width="1px">90</text><text x="0" y="58.15384615384613" dx="0em" dy="0.3em" style="text-anchor: end; visibility: inherit; font-family: &quot;Helvetica Neue&quot;, sans-serif; font-size: 12px; font-weight: 200;" fill="rgb(50, 49, 63)" stroke="none" stroke-width="1px">100</text><text x="0" y="29.076923076923038" dx="0em" dy="0.3em" style="text-anchor: end; visibility: inherit; font-family: &quot;Helvetica Neue&quot;, sans-serif; font-size: 12px; font-weight: 200;" fill="rgb(50, 49, 63)" stroke="none" stroke-width="1px">110</text><text x="0" y="0" dx="0em" dy="0.3em" style="text-anchor: end; visibility: hidden; font-family: &quot;Helvetica Neue&quot;, sans-serif; font-size: 12px; font-weight: 200;" fill="rgb(50, 49, 63)" stroke="none" stroke-width="1px">120</text></g><line x1="46" y1="0" x2="46" y2="378" fill="rgb(0, 0, 0)" stroke="rgb(204, 204, 204)" stroke-width="1px"></line></g></g><g transform="translate(46, 0)" clip-path="url(#clip_0)"><clipPath id="clip_0"><rect width="1321" height="378"></rect></clipPath><g><g><g><line x1="0" y1="0" x2="0" y2="378" fill="rgb(0, 0, 0)" stroke="rgb(60, 60, 60)" stroke-width="1px" opacity="0.25"></line><line x1="110.08333333333333" y1="0" x2="110.08333333333333" y2="378" fill="rgb(0, 0, 0)" stroke="rgb(60, 60, 60)" stroke-width="1px" opacity="0.25"></line><line x1="220.16666666666666" y1="0" x2="220.16666666666666" y2="378" fill="rgb(0, 0, 0)" stroke="rgb(60, 60, 60)" stroke-width="1px" opacity="0.25"></line><line x1="330.25" y1="0" x2="330.25" y2="378" fill="rgb(0, 0, 0)" stroke="rgb(60, 60, 60)" stroke-width="1px" opacity="0.25"></line><line x1="440.3333333333333" y1="0" x2="440.3333333333333" y2="378" fill="rgb(0, 0, 0)" stroke="rgb(60, 60, 60)" stroke-width="1px" opacity="0.25"></line><line x1="550.4166666666667" y1="0" x2="550.4166666666667" y2="378" fill="rgb(0, 0, 0)" stroke="rgb(60, 60, 60)" stroke-width="1px" opacity="0.25"></line><line x1="660.5" y1="0" x2="660.5" y2="378" fill="rgb(0, 0, 0)" stroke="rgb(60, 60, 60)" stroke-width="1px" opacity="0.25"></line><line x1="770.5833333333334" y1="0" x2="770.5833333333334" y2="378" fill="rgb(0, 0, 0)" stroke="rgb(60, 60, 60)" stroke-width="1px" opacity="0.25"></line><line x1="880.6666666666666" y1="0" x2="880.6666666666666" y2="378" fill="rgb(0, 0, 0)" stroke="rgb(60, 60, 60)" stroke-width="1px" opacity="0.25"></line><line x1="990.75" y1="0" x2="990.75" y2="378" fill="rgb(0, 0, 0)" stroke="rgb(60, 60, 60)" stroke-width="1px" opacity="0.25"></line><line x1="1100.8333333333335" y1="0" x2="1100.8333333333335" y2="378" fill="rgb(0, 0, 0)" stroke="rgb(60, 60, 60)" stroke-width="1px" opacity="0.25"></line><line x1="1210.9166666666665" y1="0" x2="1210.9166666666665" y2="378" fill="rgb(0, 0, 0)" stroke="rgb(60, 60, 60)" stroke-width="1px" opacity="0.25"></line><line x1="1321" y1="0" x2="1321" y2="378" fill="rgb(0, 0, 0)" stroke="rgb(60, 60, 60)" stroke-width="1px" opacity="0.25"></line></g><g><line x1="0" y1="378" x2="1321" y2="378" fill="rgb(0, 0, 0)" stroke="rgb(60, 60, 60)" stroke-width="1px" opacity="0.25"></line><line x1="0" y1="348.9230769230769" x2="1321" y2="348.9230769230769" fill="rgb(0, 0, 0)" stroke="rgb(60, 60, 60)" stroke-width="1px" opacity="0.25"></line><line x1="0" y1="319.8461538461538" x2="1321" y2="319.8461538461538" fill="rgb(0, 0, 0)" stroke="rgb(60, 60, 60)" stroke-width="1px" opacity="0.25"></line><line x1="0" y1="290.7692307692308" x2="1321" y2="290.7692307692308" fill="rgb(0, 0, 0)" stroke="rgb(60, 60, 60)" stroke-width="1px" opacity="0.25"></line><line x1="0" y1="261.6923076923077" x2="1321" y2="261.6923076923077" fill="rgb(0, 0, 0)" stroke="rgb(60, 60, 60)" stroke-width="1px" opacity="0.25"></line><line x1="0" y1="232.6153846153846" x2="1321" y2="232.6153846153846" fill="rgb(0, 0, 0)" stroke="rgb(60, 60, 60)" stroke-width="1px" opacity="0.25"></line><line x1="0" y1="203.53846153846152" x2="1321" y2="203.53846153846152" fill="rgb(0, 0, 0)" stroke="rgb(60, 60, 60)" stroke-width="1px" opacity="0.25"></line><line x1="0" y1="174.46153846153848" x2="1321" y2="174.46153846153848" fill="rgb(0, 0, 0)" stroke="rgb(60, 60, 60)" stroke-width="1px" opacity="0.25"></line><line x1="0" y1="145.38461538461536" x2="1321" y2="145.38461538461536" fill="rgb(0, 0, 0)" stroke="rgb(60, 60, 60)" stroke-width="1px" opacity="0.25"></line><line x1="0" y1="116.30769230769232" x2="1321" y2="116.30769230769232" fill="rgb(0, 0, 0)" stroke="rgb(60, 60, 60)" stroke-width="1px" opacity="0.25"></line><line x1="0" y1="87.23076923076923" x2="1321" y2="87.23076923076923" fill="rgb(0, 0, 0)" stroke="rgb(60, 60, 60)" stroke-width="1px" opacity="0.25"></line><line x1="0" y1="58.15384615384613" x2="1321" y2="58.15384615384613" fill="rgb(0, 0, 0)" stroke="rgb(60, 60, 60)" stroke-width="1px" opacity="0.25"></line><line x1="0" y1="29.076923076923038" x2="1321" y2="29.076923076923038" fill="rgb(0, 0, 0)" stroke="rgb(60, 60, 60)" stroke-width="1px" opacity="0.25"></line><line x1="0" y1="0" x2="1321" y2="0" fill="rgb(0, 0, 0)" stroke="rgb(60, 60, 60)" stroke-width="1px" opacity="0.25"></line></g></g></g><g><g><line x1="0" y1="348.9230769230769" x2="1321" y2="348.9230769230769" fill="rgb(0, 0, 0)" stroke="rgb(153, 153, 153)" stroke-width="1.5px"></line></g></g><g><g><line x1="110.08333333333333" y1="0" x2="110.08333333333333" y2="378" fill="rgb(0, 0, 0)" stroke="rgb(153, 153, 153)" stroke-width="1.5px"></line></g></g><g><g><g><g><g><path stroke="rgb(255, 112, 67)" stroke-width="2px" d="M110.96400000000001,341.4014595618615L112.39508333333333,343.4119788839313L112.72533333333332,343.881756378736L116.24799999999999,343.35046134487834L116.35808333333333,346.680780984571L116.57825,345.84949439530646L119.11016666666667,346.7871090802934L119.22025,346.75699665372855L119.99083333333334,346.86794586943597L120.10091666666668,346.25289034694845L121.86225,345.72691498071356L125.71516666666666,346.07254696429504L128.7975,346.06428619945353L129.23783333333333,346.4778886452905L129.34791666666666,347.74370605879534L130.779,347.5395410153165L133.75125,347.4620724332795L134.30166666666668,346.8631974647744L135.29241666666667,346.80430190265537L136.17308333333332,346.54126694960024L137.27391666666668,346.34396522610115L139.14533333333333,330.4676253725711L140.35625,331.47237896450406L142.77808333333334,332.4169272769076L143.10833333333335,332.93200445460093L143.3285,333.27703664926565L146.19066666666666,333.56360493054325L146.52091666666666,334.376337073905L147.62175,334.98362655083616L148.3923333333333,335.7093043351965L149.71333333333334,336.1156815528396L150.37383333333332,336.8531110009284L150.92425,337.5341562918362L151.36458333333331,338.01814832021114L154.33683333333332,338.07141480989304L155.32758333333334,338.23093839290897L156.86875,338.6144856701153L157.8595,339.01180128361705L159.1805,338.98814815607136L160.17125,339.02848534650775L165.7855,339.3765632677875L166.55608333333333,330.43426960213174L166.66616666666667,330.8548957113694L166.99641666666668,331.3737041279619L167.6569166666667,332.1504101353221L167.767,332.41886081762067L169.41825,332.864444374583L170.6291666666667,333.06478677215733L170.73925,333.5415708644684L170.84933333333333,333.7390488261856L170.9594166666667,333.96134407498033L172.06025,334.12246571079663L173.16108333333332,334.45365122756573L173.93166666666664,334.8486859113285L174.81233333333333,334.85343967105416L175.25266666666664,334.98619607074943L176.3535,335.0522493513839L177.67450000000002,335.4831410091808L179.21566666666666,335.5223897985615L180.20641666666666,335.8815387825365L181.52741666666665,336.00400865058725L182.73833333333334,336.05311932817636L183.06858333333335,329.6829910474431L183.61900000000003,329.95212450627287L185.93075,330.2174934460638L186.15091666666666,330.51776124577594L186.70133333333334,330.64463927491715L187.14166666666665,330.83213547240285L187.91224999999997,331.2053991884202L191.76516666666666,325.2638784252563L192.09541666666667,325.77042618402675L192.75591666666668,325.9730584276052L193.5265,326.21346110177564L193.74666666666667,326.5366223105868L193.96683333333334,326.8286033924568L197.37941666666666,327.20726842492803L197.92983333333336,327.4942177706583L198.03991666666667,327.8809833270776L199.69116666666667,328.1051035585955L199.80124999999998,328.3331348077042L200.24158333333332,328.6524913754677L200.46175,329.0647007436086L201.01216666666667,329.1240319281202L202.66341666666668,329.4402666222571L203.5440833333333,329.6306585942948L203.65416666666667,329.8338947670737L204.20458333333332,329.9874169386204L205.4155,330.12765381266524L206.5163333333333,330.24044148358035L207.28691666666668,330.6136036379654L207.6171666666667,330.73679442106334L207.83733333333333,330.8650632510439L209.2684166666667,331.0528721429288L209.59866666666667,331.56381315371164L210.5894166666667,331.77114579566995L212.46083333333334,332.01754356423885L213.56166666666664,332.1114663982021L217.30450000000002,332.61913068052803L217.63475,327.9153510480295L219.61625,328.22290642533864L220.82716666666664,328.42571061209844L221.04733333333334,328.6409470631778L224.68008333333333,328.75293507732835L224.90025000000003,328.9871314713407L226.22125000000003,329.0877500811921L226.5515,329.2595489648569L227.32208333333335,329.6077293391178L227.98258333333334,329.93694441782225L230.07416666666666,330.13024438521063L234.58758333333336,325.6845682218917L234.80775,321.37219418599534L237.1195,321.7572791884755L237.33966666666666,322.0588074013394L238.22033333333334,317.78024017965674L238.77075,313.56419082025275L239.43125,313.88630782539167L241.52283333333332,309.85207538220385L242.29341666666667,310.3341005902529L243.28416666666666,310.7873451813425L243.8345833333333,306.9341287744647L244.49508333333333,307.42963933737394L245.81608333333332,307.86940792702757L246.91691666666668,308.35052117450533L247.35725,308.7853360897132L247.6875,305.00599348022956L248.23791666666668,301.26736281826663L249.0085,301.90788462360507L250.87991666666667,302.37909145604374L251.76058333333333,302.77101314051646L253.41183333333333,303.4017729900338L253.96225,303.9281472712954L254.18241666666668,304.5315064992652L254.62275,304.9664679124886L254.73283333333333,305.50544819577993L256.16391666666664,305.9876042767563L259.0260833333333,306.4603226239607L261.558,306.88888272279615L264.42016666666666,307.39460903450635L265.521,307.8551666760569L265.6310833333333,308.4980269857479L265.7411666666667,308.86310587271265L266.07141666666666,309.5203609365019L266.29158333333334,309.8681998822817L266.6218333333333,310.29054876454217L266.95208333333335,310.7161668881752L270.58483333333334,311.16163579222933L271.0251666666667,311.74725060098126L271.90583333333336,312.2533411934817L272.89658333333335,312.847303552326L273.00666666666666,309.2971254395334L274.10749999999996,309.9512312179694L276.41925,310.3958814466092L277.40999999999997,311.05505598625183L278.5108333333333,311.6463748855501L280.1620833333333,311.9974769830593L280.60241666666667,312.4468678164716L283.46458333333334,313.0569747209382L284.45533333333333,313.6641357620309L285.88641666666666,313.9970609616587L286.32675,314.3239716672458L288.30825,314.76593479586717L288.6385,315.0750411677391L288.74858333333333,315.43566093108024L289.0788333333333,315.9996845911878L289.299,316.63261084702094L289.7393333333333,316.9972539673245L290.7300833333333,317.4949587029256L290.95025,318.16843506297863L291.3905833333333,318.4987945956971L291.5006666666667,318.78227971141234L291.94100000000003,319.0555153988502L292.4914166666667,319.3058963349788L297.225,319.80161044317714L299.4266666666667,320.091491153026L301.51825,320.5610216133529L301.8485,320.9948066789177L302.72916666666663,321.23179965447383L303.49975,321.4504081835813L306.2518333333333,322.0526265433346L306.58208333333334,322.42524343821367L308.12325000000004,322.8259620563946L308.5635833333333,323.1003802735203L309.44425,323.7005474381042L309.7745,324.1371197737111L310.10474999999997,324.6098263205906L310.435,325.1819352066174L313.7375,325.374262206411L313.9576666666667,325.9430370801972L315.4988333333333,326.5564286793749L316.04925,327.15190842085536L316.5996666666667,327.74206693740393L317.81058333333334,328.33065621944763L319.2416666666667,328.91159001557014L319.57191666666665,329.4792720718883L321.4433333333333,329.6361635207816L323.31475,330.1403777370015L323.97525,330.6522774204199L324.74583333333334,330.8685194809676L326.287,331.33668298892997L328.04833333333335,331.81986459873383L328.7088333333333,332.2438362825418L329.4794166666667,332.66147394330596L333.0020833333333,333.07964917996543L334.76341666666667,333.56375301133517L336.1945,334.0721921863219L338.6163333333334,334.5077874464607L339.27683333333334,335.00063213619234L339.7171666666666,335.49105114041384L340.1575,335.88311802606955L340.7079166666667,336.3140285739817L342.2490833333333,336.59665023947264L342.46925,336.7666390936546L345.11125,337.2022219016307L348.5238333333333,337.66514224237767L349.51458333333335,338.0267202253304L349.62466666666666,338.4570820619784L350.065,338.81770989904567L351.1658333333333,339.18382218219716L351.49608333333333,339.3569688128807L351.71625,339.74839822777466L351.8263333333333,340.140051833447L352.92716666666666,340.4406072953939L353.9179166666667,340.56638158021417L354.68850000000003,340.8857136247316L355.1288333333333,341.264523681265L357.55066666666664,341.477556502799L359.7523333333333,341.86320973665556L359.8624166666666,342.2656277268299L360.1926666666667,342.274955865343L360.30275,342.67065486243615L360.96325,343.0356112938367L361.0733333333333,343.3614913973373L362.28425,343.74616495395935L364.15566666666666,344.1250753257899L364.596,344.48549095339405L364.92625,344.85647681648265L365.91700000000003,345.22331589787893L369.99008333333336,345.58455748852555L374.17325,345.8699008084015L376.15475,346.22570006622084L376.26483333333334,346.57214881193096L378.79675000000003,346.86220203973187L381.65891666666664,347.1347524119829L381.76899999999995,347.3194685940951L382.8698333333333,347.4581658153538L386.06225,347.79005787066285L386.1723333333333,348.0830348022769L386.72275,348.0611190147624L388.04375,348.2485527282694L389.8050833333333,348.57517271486176L390.24541666666664,348.88949606177925L390.5756666666667,349.1052373616327L391.01599999999996,349.31207935055915L391.6765,349.5872970536493L394.09833333333336,346.32979024006255L395.0890833333333,346.65666304905744L395.30925,346.71729333401044L395.6395,346.91827432842365L396.18991666666665,343.6707115336689L396.96049999999997,343.77728261936295L397.8411666666667,344.01666667864606L398.2815,344.25654726546895L399.1621666666666,344.41093460148295L401.1436666666666,344.74112498600874L401.8041666666666,345.0356064305937L403.23525,345.3535585038704L403.4554166666667,345.6519679527022L404.3360833333333,345.875241222838L405.98733333333337,345.85162698475625L406.0974166666667,346.0590316289523L407.5285,346.1134192673278L408.51925000000006,342.73640576671977L408.73941666666667,342.8985619359098L408.95958333333334,343.06540340665117L409.51,343.26882442544627L409.6200833333333,343.63043160140836L410.3906666666666,343.746564228823L410.61083333333335,340.62312194212603L411.27133333333336,341.00958115589333L411.60158333333334,341.2448183014347L412.152,341.4520329189859L412.9225833333333,341.4605072988961L413.80325,338.1624606431617L415.78475,338.49068371685775L416.0049166666667,338.86428027707234L417.54608333333334,339.2667570384452L417.76624999999996,339.5726369675238L418.31666666666666,339.96825044012047L418.8670833333333,339.95810512592925L419.63766666666663,340.29819998460164L420.29816666666665,340.6244161477264L422.49983333333336,340.8433959298521L423.71074999999996,340.9294100457067L424.37125,340.9389927554533L425.47208333333333,341.0493187599322L426.13258333333334,341.14658685136106L426.683,341.5244780531137L428.4443333333333,341.7755139485433L429.325,341.81439208619736L431.63675,341.7888060633846L436.26025,338.58104923496836L436.7005833333333,338.70860073015393L437.0308333333333,338.821345726248L437.25100000000003,338.94375369814264L437.6913333333333,335.7338905869338L438.13166666666666,336.0988496471302L438.35183333333333,332.90149906426393L440.55350000000004,333.2077309763807L441.76441666666665,330.0737516144051L443.85600000000005,326.9370224890643L444.7366666666667,323.8387645475414L446.05766666666665,324.36949722691895L446.2778333333333,321.407061147856L447.26858333333337,318.4207920761603L448.47950000000003,315.47659696839116L448.80975,312.612649582196L450.13075,313.2732682738161L451.23158333333333,310.3267254838665L451.45175,307.50207708501887L451.78200000000004,304.6194205766375L451.89208333333335,305.3102161134047L454.53408333333334,302.4607098985419L454.9744166666666,299.80941374574775L456.95591666666667,297.05456478255303L459.2676666666667,297.6755592556208L460.3685,294.92211383356175L463.0105,292.2064803529042L463.12058333333334,289.518243109496L469.7255833333333,286.8462119839712L470.4961666666667,284.2564610704893L470.71633333333335,281.62384720992134L472.1474166666667,279.10484669348864L473.24825000000004,276.51826713052276L473.35833333333335,277.37205270391985L473.7986666666667,274.8216183367732L474.3490833333333,272.2924804121378L475.33983333333333,269.80751784360353L475.44991666666664,267.33501597055806L475.56,264.8758257552987L476.77091666666666,262.5219645864628L477.21125,263.4211285574638L477.9818333333333,261.02883875197534L480.4036666666667,258.626630300608L481.6145833333333,256.24901281545976L481.83475000000004,253.93234133959055L482.16499999999996,251.61693167893063L484.2565833333333,249.3536622566257L485.68766666666664,247.17954756263805L486.2380833333333,244.91464072263514L487.449,242.71780705848482L487.88933333333335,240.51092674820927L487.99941666666666,238.3911297627086L489.76075000000003,236.25289333410416L490.86158333333333,234.1149175821629L491.19183333333336,231.99316612078852L492.29266666666666,229.93313274432558L494.4943333333334,227.8835965958692L494.6044166666667,225.85600490267373L495.1548333333334,223.816731407479L495.81533333333334,221.87845687493896L496.47583333333336,223.1303578805021L497.13633333333337,221.1895331526225L501.3195,219.23403362248595L501.4295833333333,217.2747519493161L502.53041666666667,215.31227576854386L503.0808333333334,213.39531878509786L503.1909166666667,211.52388392341754L503.8514166666667,209.64492470898205L505.943,207.79456056377273L506.16316666666665,205.96163051226497L507.59425,204.11030262694928L508.36483333333337,202.30142111384242L508.4749166666667,200.51702523007168L509.46566666666666,198.78577540395514L510.23625,197.02734296597575L511.22700000000003,195.29651835771602L513.2085000000001,193.57280053309887L513.4286666666667,191.9071899819178L513.869,190.23744228063836L516.18075,188.58983669252217L517.1715,187.07988061489777L520.0336666666667,185.47730768429386L521.6849166666667,183.8630508273105L522.1252499999999,182.26335920869616L522.2353333333333,180.7093547322919L522.6756666666666,179.1570511838029L523.116,177.6440949031469L523.3361666666667,176.12714418574828L524.8773333333334,174.6044494473932L524.9874166666666,173.11662872182586L527.5193333333333,171.61438944362146L527.6294166666667,170.1384757539754L528.2899166666666,168.69495689392375L528.8403333333333,167.28677634036066L529.0605,165.8479602418387L530.1613333333333,164.44887229811886L531.042,163.08817265255L532.2529166666667,161.71687009392372L533.0235,160.35222344426325L533.5739166666666,159.02360838991606L534.4545833333334,160.66002807276504L535.2251666666667,159.34816021111934L535.33525,161.33207756355168L535.4453333333333,159.96402824430425L535.7755833333333,158.64548692571927L536.5461666666666,157.33797312896615L538.7478333333333,156.04751231971557L539.29825,154.75261674461535L544.8024166666667,153.45229782646877L545.24275,152.19349698345073L545.7931666666667,150.95287611714076L546.56375,152.66502884617663L547.1141666666667,151.38342111118865L548.2149999999999,150.16383990379182L550.3065833333334,148.91806238216796L552.6183333333333,147.7284254403854L553.2788333333333,146.52701316010794L556.9115833333333,145.31128303787293L557.0216666666666,144.11979345894267L557.13175,142.95493808999495L558.6729166666667,141.78988234915894L560.9846666666667,140.66774165909732L562.5258333333334,139.5510849558788L563.8468333333334,138.4311163722962L565.4980833333333,137.36697775025613L568.2501666666666,136.25888654444307L568.6905,135.1390161145203L568.8005833333333,134.0952007680102L570.672,136.16055316625005L570.8921666666666,135.1109704002155L571.00225,137.26612848151203L572.98375,136.14847187370194L573.7543333333333,135.0476207062125L577.3870833333333,134.0162617370307L578.0475833333334,132.9710535478033L578.7080833333333,131.91366035674466L579.0383333333334,130.88412728780682L579.4786666666666,129.8520600031573L579.6988333333334,128.8195712590598L580.1391666666666,127.81942030145441L580.6895833333333,126.82882147125864L581.1299166666666,125.83609539960429L581.6803333333334,124.8612883159237L582.7811666666666,123.88869275521193L583.9920833333333,126.05633021351349L589.0559166666667,125.06070956465572L589.7164166666666,124.11999411060913L590.2668333333334,123.16496131310421L596.8718333333333,122.21003655782226L597.7525,121.25261831154461L598.8533333333334,120.30082065220267L599.0735,119.36868763915805L599.5138333333333,118.4510870852115L601.4953333333333,117.65443015202271L602.04575,116.76127477991866L604.1373333333333,115.88745836603277L604.4675833333333,115.02361415776079L607.2196666666666,114.15822337218373L607.7700833333333,113.28751866537925L607.8801666666667,112.44553243842046L608.1003333333333,111.6105701839972L609.0910833333334,110.76184096724239L612.5036666666666,109.92121221708737L612.9440000000001,109.11809070207903L615.6960833333334,108.3167042963264L616.2465000000001,107.52410613840334L617.23725,106.72888710569435L619.21875,109.09531650084989L620.7599166666666,108.34747988972634L620.87,107.56254660167895L622.52125,109.92031875961214L623.84225,109.0833995110466L626.0439166666666,111.23111768139233L626.2640833333334,110.40332196341171L626.3741666666667,109.57216124588649L626.7044166666667,108.73205196135899L627.0346666666667,108.06397065339155L628.0254166666666,107.27279690395193L628.9060833333334,106.48980902800082L629.2363333333333,105.85505541777417L630.9976666666666,105.10755241769021L631.438,104.3369096710071L632.2085833333334,103.57980890899944L634.8505833333332,102.93172275297252L636.6119166666666,102.16708396732781L639.03375,101.40824968545598L640.5749166666667,100.66353989620148L642.7765833333333,99.98267512894404L643.7673333333333,99.29113772783711L645.4185833333333,98.620319946091L645.5286666666667,97.93980427396042L646.5194166666666,97.23265676351605L647.4000833333333,96.5275511572861L647.7303333333333,95.82277832091359L648.7210833333334,95.15309113926043L649.4916666666667,97.4127269659312L650.8126666666666,96.72009438221119L650.9227500000001,96.07166516742433L651.253,95.38084387253593L652.6840833333333,94.68734921669505L654.1151666666666,94.11001753830504L654.5554999999999,93.47890510166081L654.7756666666667,92.86791829721614L655.3260833333334,92.21576325500962L656.0966666666667,91.56996819425166L656.7571666666666,90.95367275634999L656.86725,90.36211772734072L659.2890833333333,89.71880820132372L659.8395,89.1746654742596L660.83025,88.56240014546518L662.0411666666666,90.88658174184229L663.8024999999999,90.2445896659932L665.6739166666666,89.63803332591277L666.3344166666666,89.01295366398648L666.5545833333334,88.39159842843571L666.77475,87.77111937474103L667.3251666666666,87.20219117991132L667.7655,86.61890713481318L669.8570833333333,86.04266573088972L671.2881666666666,85.52954910841117L672.8293333333334,84.96728525446571L673.5999166666667,84.4021093716201L675.0310000000001,83.83034801281678L676.5721666666667,83.26797412102883L676.7923333333333,82.73773000912388L677.0124999999999,82.19078972252407L677.1225833333333,81.67719130210611L677.34275,84.41483795462506L678.00325,83.88327215569166L678.2234166666666,83.35947262556311L678.4435833333332,85.97303770540276L678.5536666666667,85.40255613164271L678.7738333333334,84.88700400567677L682.62675,84.30234585464603L683.0670833333334,83.7666505706797L683.5074166666666,83.2245825218796L684.4981666666666,85.7570915992763L685.3788333333334,85.19307774015647L685.92925,84.64199027181019L686.5897500000001,84.10232895453265L687.4704166666667,83.62617364798552L688.3510833333333,83.08702352850906L689.6720833333334,82.61182275741925L695.3964166666666,82.08008116967176L695.83675,81.5834677910292L696.0569166666667,81.05940260816578L696.3871666666666,80.58833375564092L697.5980833333333,80.07562240919151L698.5888333333334,79.56933037469838L699.2493333333333,79.0755570504378L702.44175,78.57639124928926L702.6619166666667,78.07631051973419L703.2123333333333,77.62860805011275L703.3224166666666,77.16828914788607L705.5240833333334,76.77190385587016L706.0745,76.30447788929098L707.1753333333334,75.9213676259102L708.056,75.46810216460148L710.5879166666667,75.04498123902522L712.6795,78.03434560325172L713.34,77.73051509223717L713.67025,77.2573428750685L714.99125,76.7738935199784L715.7618333333332,79.41012766729438L717.303,82.03565220522961L718.0735833333333,81.52875531644025L719.0643333333334,81.05418137124673L719.3945833333333,80.55041488754296L720.7155833333333,80.01966953720068L722.2567499999999,79.56288148296306L723.2475,79.21040925916867L723.5777499999999,78.70771852900782L723.908,78.20584482330838L725.6693333333334,77.75452216728922L726.1096666666666,77.26510463162481L726.6600833333334,76.82928159939217L727.9810833333333,76.32188261187008L728.7516666666667,75.8214974144476L729.3020833333334,75.35912322849566L731.2835833333334,74.88455098016624L731.8340000000001,74.42120642989272L732.0541666666667,73.99105514457432L732.6045833333333,73.54997795785135L733.3751666666667,73.11349038209613L735.3566666666667,72.65298151839045L736.0171666666668,72.23382277826812L737.6684166666666,71.77625844579865L742.5120833333334,71.34086331761466L742.9524166666666,70.94382871981526L743.0625,70.56885380368755L744.05325,70.15956004897174L744.6036666666666,69.7115699622558L745.5944166666667,72.53086547169136L746.3649999999999,72.11492892863237L751.31875,71.70251308251659L752.4195833333333,71.26366696088076L752.5296666666667,70.81885425434064L752.8599166666667,73.52348790132083L756.7128333333333,73.12708976453126L757.7035833333333,72.65147464965139L758.0338333333333,72.23201836366627L758.1439166666667,71.77800148840566L759.24475,71.38203484009512L760.56575,70.96101654726095L763.6480833333333,70.5780260461359L764.0884166666667,70.13382431727877L764.52875,69.69560056448512L764.6388333333333,69.3000850126046L765.6295833333334,72.01339324132783L773.4455,71.58771448583883L774.106,71.14689172449931L775.2068333333333,70.76523964375212L779.1698333333334,70.3337514825941L780.38075,69.90420770839108L781.0412500000001,69.52202594002125L783.02275,69.10769738226918L783.68325,68.72762464432861L783.9034166666668,68.31942824645711L786.5454166666667,67.93430605298494L787.7563333333334,67.53319948720258L788.4168333333333,67.14675033008007L789.0773333333334,66.77732336670061L790.3983333333334,69.49702967806616L791.0588333333334,69.0851266902032L791.7193333333335,68.69622370573L791.8294166666667,68.34355754116666L792.0495833333333,68.00039260730097L792.3798333333333,70.70252730709689L793.1504166666667,73.41437919112502L793.59075,72.97086961484496L793.8109166666667,72.62671515440621L794.3613333333334,72.19788828824795L795.242,75.00075739080819L796.0125833333334,74.56573367370646L796.4529166666666,74.16311568981138L799.8655,76.87799967275356L803.2780833333333,76.40428109927421L804.0486666666667,75.929732046592L806.1402499999999,78.34363372185783L806.2503333333333,77.84710104554938L806.6906666666667,77.37536858792578L807.0209166666666,76.91213787875762L807.131,76.42965769041018L807.2410833333333,76.00773673726093L808.2318333333334,75.50837889329927L809.0024166666667,75.03311520538062L809.5528333333333,74.58161980352526L810.2133333333333,74.08873937306532L813.5158333333334,73.63136590705994L813.6259166666666,73.17264027814429L815.9376666666667,75.82600362195382L817.0385000000001,75.3795940437355L820.5611666666666,74.92131878761109L821.8821666666666,74.49698383569415L823.3132499999999,74.0595828290372L823.4233333333333,73.60983759004478L825.8451666666666,73.1594619695864L826.7258333333334,72.72779775568006L828.5972499999999,72.29350758746023L829.25775,71.86241451781575L830.1384166666666,71.44160961508226L832.1199166666667,71.08423620359889L833.6610833333333,70.62821363083407L835.7526666666668,73.30952627596287L836.4131666666666,72.83913945326009L836.52325,72.37574223574234L837.2938333333334,71.92581626136393L839.16525,71.47078277719874L839.9358333333333,71.05060727035914L841.3669166666667,70.59793806790213L841.477,70.19240437308008L845.6601666666667,69.77633034528407L845.77025,69.3796287387222L847.6416666666668,68.95979990713698L848.082,68.54992219042617L849.73325,68.12614780574506L850.8340833333333,67.70820898093689L853.9164166666666,67.30857305568657L854.35675,66.94718064494498L855.1273333333334,66.56050493480501L856.2281666666667,66.18313380738499L859.2004166666667,65.79224264900142L859.7508333333334,65.43179746804685L859.8609166666668,65.09872361246215L860.8516666666666,64.7272366111747L865.0348333333334,64.41604782990407L865.8054166666666,64.05055462713494L866.7961666666666,63.68696672250604L866.90625,63.31923321779141L867.0163333333334,62.97480351654792L869.7684166666667,65.8852827640747L870.2087499999999,68.38612889616189L870.6490833333334,67.99199707633477L870.9793333333333,70.71015443000334L872.0801666666666,73.41729267055791L874.83225,73.03973094769674L875.0524166666667,72.62871372103291L875.9330833333333,75.28874999185655L876.3734166666667,74.82208544947895L877.2540833333334,74.35590446700036L877.47425,73.94431510562725L880.5565833333333,76.37994712678221L880.6666666666666,75.89186635413574L881.6574166666667,75.40730323137143L881.8775833333333,78.06495501382142L882.6481666666667,77.59839842258515L883.0885,77.09007086743549L884.4095,76.63628533460064L886.5010833333333,76.159393339936L886.72125,75.72974336144824L888.1523333333333,75.24939553741086L889.4733333333334,74.76556922690537L889.5834166666666,74.27272212433206L889.9136666666666,73.80108789431608L890.1338333333333,73.36711465223419L891.7850833333334,72.90575507615608L892.00525,72.4798239295223L892.5556666666666,72.05276439613073L893.4363333333333,71.64832385397636L894.0968333333333,71.20320252015324L894.4270833333334,73.86335247873677L900.8119166666665,73.4321179736005L901.8026666666666,72.96714048816102L902.0228333333333,72.52902741193384L902.243,72.07568057575327L902.57325,71.62598565223033L902.6833333333334,71.18258874563998L904.55475,70.78295380992415L905.4354166666667,70.38969220198163L905.8757499999999,72.84534675112906L906.206,72.38574110883394L906.3160833333334,71.94459214422466L907.0866666666666,71.51422775952523L910.3891666666667,71.08551224682458L912.7009166666666,70.69149671792877L913.14125,70.25660648341653L913.4715,72.96141404957905L914.3521666666667,72.53772130026863L914.7925,72.100751236213L915.12275,71.68434321343534L917.4345,71.2881191974775L917.7647499999999,70.8641888222603L918.7555,73.5490586578091L919.08575,73.12242476410779L919.1958333333333,72.69146003643203L919.5260833333334,75.17184118557651L921.3975,74.72926649792413L921.72775,74.27149958227704L922.058,76.93108814622855L922.1680833333332,76.4352977570473L922.4983333333333,75.94282117159594L924.2596666666667,78.76837429095173L926.35125,78.25084167920602L930.6445,77.76877829505167L931.0848333333333,77.3009543159738L931.305,79.88853073752534L931.7453333333334,79.38919187206267L932.4058333333334,81.94808137440043L934.1671666666667,81.40840946556523L934.3873333333333,80.90006393194699L934.4974166666667,80.35770176822359L936.91925,79.82402695841608L940.6620833333333,79.31263060839063L942.5335,78.7910704975306L943.9645833333334,78.27857658555581L945.9460833333333,77.83239270062671L947.5973333333334,77.35928585621502L948.80825,76.89859180871747L949.6889166666666,76.39142421351698L952.2208333333333,75.91363517250795L952.3309166666667,75.45665032102238L952.5510833333333,77.88036076883759L953.8720833333333,77.39414516505224L954.0922499999999,76.96962953415522L955.1930833333333,76.52245209966884L955.6334166666667,79.18058232306475L959.3762499999999,78.65567766110553L959.8165833333334,78.19493277670887L961.0275,77.68308942246477L962.3485000000001,77.21649180306474L964.6602499999999,76.71668462353176L965.7610833333333,76.22574066970242L966.8619166666666,75.72705070985404L970.935,75.28014774540827L971.5955,74.84796000865282L973.3568333333334,74.38356596549829L975.6685833333333,73.96377568908042L976.9895833333334,73.5151731223047L978.9710833333334,73.11386936975771L979.6315833333334,72.68381150762241L980.182,72.22464092302289L980.2920833333333,71.78720235035217L982.6038333333333,71.3512505259688L983.3744166666665,70.90861050539468L983.9248333333334,70.4721732196171L984.6954166666666,70.04397808654835L987.0071666666666,72.7655763536763L988.4382499999999,72.31716337253988L991.4105,71.912110588867L992.40125,74.783145259614L994.6029166666667,74.35235580852861L994.8230833333333,73.93282142025049L995.8138333333334,73.47782282786324L997.4650833333334,73.01409608103819L998.3457500000001,72.56728359642801L1001.9784999999999,72.16391653429565L1003.4095833333334,71.72598326104855L1004.7305833333332,71.266870223723L1006.602,70.84879243543179L1007.0423333333333,70.4362952040862L1007.8129166666666,69.99516774540842L1008.91375,72.66072733448743L1009.1339166666667,75.36586750249586L1009.244,74.8825016373811L1009.3540833333334,74.42452502142709L1009.6843333333333,73.974274580023L1010.0145833333332,73.51561121736546L1010.4549166666667,73.06492314667304L1011.4456666666667,72.65264667064207L1011.9960833333333,72.20508787016388L1013.0969166666667,71.80604206382566L1014.7481666666666,71.38895178942516L1015.6288333333334,70.96507955371646L1016.0691666666667,70.54716744421103L1017.8304999999999,70.1555315276812L1021.46325,69.72233267775846L1021.9035833333332,69.32551563718545L1023.5548333333334,68.89221667481797L1026.4170000000001,68.49310735817801L1026.74725,68.0694854432391L1028.1783333333333,67.66497182791437L1028.2884166666665,67.26952154194936L1028.6186666666665,66.87667273340065L1029.38925,69.6040618320107L1029.7195,72.2736757847482L1030.1598333333334,71.84741924988703L1030.8203333333333,71.3851040325186L1032.3615,70.95444841623373L1033.1320833333334,70.5552720474015L1033.5724166666666,70.15865933145471L1033.6825,69.742405924646L1034.0127499999999,69.31442533067002L1034.4530833333333,68.88342164233887L1035.2236666666665,68.47900329347021L1035.7740833333335,68.05684370419607L1036.9850000000001,67.65913196972849L1038.63625,67.24851181944814L1039.29675,66.88136696224348L1039.7370833333334,66.50473623521447L1041.0580833333333,66.12279119413307L1042.59925,65.78824540352025L1043.3698333333334,65.39981995601079L1043.9202500000001,65.06931277143548L1044.0303333333334,64.69469418641648L1044.1404166666666,64.31673343744023L1044.2504999999999,63.93827628718418L1044.911,63.57501968873788L1045.6815833333333,63.21018391747856L1047.553,62.862707037547864L1050.1950000000002,62.5120018792324L1053.3874166666667,62.160936337565204L1054.5983333333334,61.81718543209655L1054.8185,61.51045589654899L1056.46975,61.18833232431706L1057.0201666666667,60.853996455462436L1058.7815,60.53080578257749L1059.77225,60.23147254714195L1060.8730833333334,59.90392728987865L1062.5243333333333,59.57814535790749L1064.1755833333334,59.25701277829165L1064.6159166666666,58.931875415009245L1065.1663333333333,58.626826245327436L1066.8175833333332,58.373524012405255L1067.6982500000001,58.08943087757575L1068.7990833333333,57.799290643689915L1069.3495,57.47697817575471L1071.3310000000001,57.182371627905866L1072.8721666666668,56.915212228343705L1073.0923333333333,56.668976143960435L1077.1654166666667,56.38120095001722L1077.2755,56.107755539586265L1078.8166666666666,55.850304351769864L1079.8074166666668,55.59189223019172L1080.90825,55.327470813011075L1082.5595,55.080491497824426L1084.4309166666667,54.828172179999115L1085.0914166666666,54.55188023715027L1085.5317499999999,57.162042697997435L1086.7426666666668,59.99636748125289L1086.85275,59.74031674758385L1087.2930833333332,59.41972055796822L1087.51325,59.12100975002096L1089.2745833333333,58.791339323967634L1089.6048333333333,58.478217889454186L1090.9258333333332,58.206358040394946L1091.0359166666667,57.9259686044565L1091.3661666666667,57.63199271052696L1092.13675,57.337012065215106L1092.4669999999999,57.042232794334325L1093.2375833333333,56.763570175403856L1093.788,56.459637538708364L1094.2283333333335,56.1721378132811L1094.8888333333332,55.90903107340819L1096.3199166666666,55.66697052803943L1096.5400833333333,55.414792922233346L1097.5308333333332,55.13469126500405L1099.2921666666668,58.14071721275269L1099.5123333333333,60.92728848550263L1099.7325,60.60991573659999L1099.9526666666666,63.40553630388382L1100.72325,63.07147690843732L1103.0349999999999,62.752156108136774L1103.8055833333333,62.3905653836224L1106.1173333333334,62.06889260174813L1107.98875,61.76414382709606L1109.1996666666666,61.425526272936395L1110.7408333333333,61.10650698178978L1111.7315833333334,60.80443124404343L1112.6122500000001,63.58435522060307L1114.2635,63.23744765162786L1114.8139166666667,62.8950095278031L1114.924,62.56188083666433L1117.23575,62.25833432260458L1117.3458333333333,61.916011904915536L1118.9970833333332,64.71888583904257L1121.9693333333335,64.34867211688709L1123.4004166666666,64.01450207005473L1125.82225,66.81582494041186L1126.7029166666666,69.5710447347551L1129.3449166666667,69.15160632914166L1130.1155,71.94021790454252L1131.2163333333333,71.51234943231952L1131.9869166666667,71.11323331793608L1132.3171666666667,70.73282331930989L1134.2986666666668,70.32227005166004L1135.5095833333335,69.90819198261391L1136.7205000000001,69.49944474843898L1137.8213333333333,72.17059829867094L1139.2524166666667,71.75293041015453L1141.01375,74.48507737767738L1141.344,77.12776445934594L1142.1145833333335,76.65278726012673L1143.1053333333332,76.16576337950119L1143.5456666666666,75.66350920480141L1143.6557500000001,75.20060521542734L1144.2061666666666,74.7263473562158L1145.0868333333333,74.29014883718366L1146.8481666666667,76.99431355143469L1149.0498333333333,79.82593576013016L1149.7103333333332,79.32119835895901L1152.0220833333333,78.91392496339614L1154.0035833333334,78.39370488007614L1154.6640833333333,77.9175715255945L1155.2145,77.52107539732793L1156.4254166666667,77.10638573460545L1158.4069166666666,76.61655615731632L1158.6270833333333,76.17882742517133L1158.9573333333333,75.73580750009143L1160.3884166666667,75.29704242474031L1160.4985,74.83113817113303L1162.2598333333333,74.35315537803041L1163.6909166666667,73.88018308251861L1169.5253333333333,73.45789489175661L1170.07575,73.02976862867354L1170.5160833333334,75.77526020341998L1172.05725,75.33560379510396L1174.5891666666666,74.84862019982745L1175.69,77.70466941780978L1176.02025,77.20204382304883L1176.9009166666667,76.72669286285907L1178.5521666666666,76.23681279854304L1181.5244166666666,75.75595876737754L1181.8546666666668,78.38795975602187L1182.1849166666666,77.89740143444538L1183.0655833333333,77.41646980242291L1183.94625,76.92179834779046L1184.2765,76.41885735230204L1184.4966666666667,75.9942102513287L1186.58825,75.50399108045349L1187.24875,75.04024075983943L1188.6798333333334,74.56531644961143L1188.7899166666666,74.10317354069281L1189.0100833333333,73.63418374389892L1192.0924166666666,76.2790980887496L1192.3125833333334,75.81125959412725L1192.7529166666668,78.56944838884192L1193.0831666666668,78.08025735225226L1195.505,77.5729262251993L1196.826,77.09991561049071L1198.5873333333334,76.66281389819892L1199.3579166666668,76.16274576967373L1200.1285,75.69416498440091L1201.77975,78.30382697107592L1202.9906666666666,77.7903074679013L1203.9814166666667,77.30561669941744L1204.6419166666667,79.89810820563201L1205.5225833333334,82.6183376288592L1208.0545,82.12430071009129L1209.5956666666666,81.6073782963424L1210.6965,81.08129300744065" style="fill: none;" fill="none"></path></g></g></g></g><g opacity="0.2"><g><g><g><path stroke="rgb(255, 112, 67)" stroke-width="2px" d="M110.96400000000001,341.4014595618615L112.39508333333333,345.4023930127804L112.72533333333332,344.8072650212508L116.24799999999999,341.7882419586182L116.35808333333333,359.6723412807171L116.57825,341.81610428369964L119.11016666666667,352.2191471374952L119.22025,346.55447460871477L119.99083333333334,347.71651601011934L120.10091666666668,340.98691258797277L121.86225,340.7479403422429L125.71516666666666,349.65381719607575L128.7975,345.97136996159185L129.23783333333333,351.4929914859625L129.34791666666666,364.1919458022484L130.779,344.7109929965093L133.75125,346.32284420453584L134.30166666666668,337.55151584331804L135.29241666666667,345.8394078034621L136.17308333333332,342.01461789057805L137.27391666666668,342.7871649962205L139.14533333333333,31.40594752385067L140.35625,351.20430435584143L142.77808333333334,351.7161140056757L143.10833333333335,343.8608419913512L143.3285,340.86625626270586L146.19066666666666,340.0875406375298L146.52091666666666,353.4983568741725L147.62175,349.7303097326022L148.3923333333333,353.87299218177793L149.71333333333334,346.58788551642346L150.37383333333332,356.39644145965576L150.92425,356.0769401550293L151.36458333333331,351.54314935574166L154.33683333333332,339.5977783496563L155.32758333333334,342.9143399311946L156.86875,350.14203414779445L157.8595,351.2270872537906L159.1805,338.2447990674239L160.17125,340.32342307751L165.7855,350.78370186182167L166.55608333333333,31.45692619910608L166.66616666666667,345.1939292192459L166.99641666666668,349.39650659446534L167.6569166666667,359.631395981862L167.767,342.08782001275284L169.41825,349.193950182658L170.6291666666667,340.5317454484793L170.73925,351.60609816862984L170.84933333333333,341.3418305397034L170.9594166666667,342.6540662582104L172.06025,340.519535273772L173.16108333333332,347.7992093888613L173.93166666666664,350.99903054237365L174.81233333333333,335.0505520600539L175.25266666666664,340.567259150285L176.3535,337.86674535457905L177.67450000000002,354.0861929379977L179.21566666666666,337.23880420831534L180.20641666666666,351.78621297707923L181.52741666666665,341.4945156097412L182.73833333333334,338.2814268185542L183.06858333333335,37.23393261249248L183.61900000000003,342.4507768667661L185.93075,342.6807972027705L186.15091666666666,344.7763645373858L186.70133333333334,336.7349655224727L187.14166666666665,339.927840592311L187.91224999999997,349.5014043558102L191.76516666666666,31.062739915114207L192.09541666666667,351.10337231892805L192.75591666666668,336.2061615943909L193.5265,338.47059683066146L193.74666666666667,343.168435725799L193.96683333333334,341.9944908252129L197.37941666666666,347.0538307538399L197.92983333333336,342.66746881925144L198.03991666666667,348.5106810973241L199.69116666666667,340.1617937234732L199.80124999999998,340.7033007254967L200.24158333333332,346.119763307388L200.46175,351.7932038618968L201.01216666666667,332.42147329770603L202.66341666666668,347.15291927135905L203.5440833333333,340.37656953885005L203.65416666666667,341.39124039503247L204.20458333333332,338.78238159326406L205.4155,338.22002724134006L206.5163333333333,336.79543337455164L207.28691666666668,352.4535914347722L207.6171666666667,337.9966163305136L207.83733333333333,338.47553760822L209.2684166666667,342.27049013284534L209.59866666666667,362.2824084135202L210.5894166666667,344.3169252579029L212.46083333333334,347.02200669050217L213.56166666666664,337.8667134651771L217.30450000000002,363.9184470396775L217.63475,36.153841341458815L219.61625,347.4133672961822L220.82716666666664,341.15426886265095L221.04733333333334,342.2277846776522L224.68008333333333,335.86237304394064L224.90025000000003,343.93801365082084L226.22125000000003,335.54652792857246L226.5515,340.34723960803103L227.32208333333335,352.19885369264165L227.98258333333334,351.409853042089L230.07416666666666,342.803437603437L234.58758333333336,32.72921905517575L234.80775,35.773475646972656L237.1195,347.38678366679414L237.33966666666666,342.22498187652L238.22033333333334,30.255843764085057L238.77075,28.900405531663182L239.43125,335.73675791667057L241.52283333333332,34.937074866661646L242.29341666666667,343.33070113475503L243.28416666666666,341.95224222036506L243.8345833333333,40.82344806377705L244.49508333333333,341.79891658929677L245.81608333333332,338.50268866098844L246.91691666666668,342.0049463895651L247.35725,339.32744842309216L247.6875,38.45189701960635L248.23791666666668,36.52023115891677L249.0085,347.44628911751965L250.87991666666667,336.01140053822445L251.76058333333333,330.85262702795177L253.41183333333333,348.7689064936569L253.96225,341.9299113200261L254.18241666666668,348.25295251057696L254.62275,336.60066399941076L254.73283333333333,344.8464026762889L256.16391666666664,341.30627940251276L259.0260833333333,341.209386920929L261.558,338.5011614359342L264.42016666666666,344.82659658468685L265.521,342.0590010056129L265.6310833333333,356.3997794481424L265.7411666666667,336.1557957502512L266.07141666666666,358.81498500383816L266.29158333333334,336.03986113621636L266.6218333333333,342.1687400634472L266.95208333333335,342.941227549773L270.58483333333334,344.99340346042925L271.0251666666667,356.3576029410729L271.90583333333336,350.9212862601647L272.89658333333335,358.36331183360176L273.00666666666666,36.44882108248197L274.10749999999996,360.36726680902336L276.41925,344.76534778888407L277.40999999999997,362.14935889610877L278.5108333333333,357.60807304749125L280.1620833333333,339.362429017287L280.60241666666667,347.5671002103732L283.46458333333334,360.86449191020085L284.45533333333333,361.36613993277916L285.88641666666666,340.22157803315383L286.32675,340.1408611040849L288.30825,349.7572934526664L288.6385,339.6090762101687L288.74858333333333,344.1291441679001L289.0788333333333,360.9870401089008L289.299,367.2375043135423L289.7393333333333,346.22132723973345L290.7300833333333,357.4770096852229L290.95025,372.3964442033034L291.3905833333333,345.160245345189L291.5006666666667,341.7126266406133L291.94100000000003,341.2063040476579L292.4914166666667,339.6487833683307L297.225,360.1652654721187L299.4266666666667,343.7460519295472L301.51825,358.9568782843076L301.8485,356.5423028909243L302.72916666666663,340.69313771174507L303.49975,339.4389621954698L306.2518333333333,371.7077828627366L306.58208333333334,353.21055432833157L308.12325000000004,355.99865583273083L308.5635833333333,345.86204893222225L309.44425,373.5778772207407L309.7745,360.48817201027504L310.10474999999997,364.04396372575025L310.435,372.9975400191087L313.7375,341.47819170218247L313.9576666666667,373.65455043499287L315.4988333333333,378.1033188893245L316.04925,377.282668700585L316.5996666666667,377.5122862595778L317.81058333333334,378.0548608633188L319.2416666666667,378.07340663029595L319.57191666666665,377.60125491802506L321.4433333333333,342.95806099451505L323.31475,373.025028683589L323.97525,374.2619936282818L324.74583333333334,349.3204544003193L326.287,371.34907284516555L328.04833333333335,373.18119247143085L328.7088333333333,368.59347773331865L329.4794166666667,368.5234569256122L333.0020833333333,369.04270512507514L334.76341666666667,375.2595994949341L336.1945,377.92947728083686L338.6163333333334,372.13715424904456L339.27683333333334,377.63771975590635L339.7171666666666,377.97952977693996L340.1575,369.89912551733164L340.7079166666667,373.7528807126559L342.2490833333333,361.18594678732063L342.46925,351.5767895551828L345.11125,375.20377363058236L348.5238333333333,378.1061279296875L349.51458333333335,369.65646519294154L349.62466666666666,376.15342060969425L350.065,370.4470339701726L351.1658333333333,371.3355143033541L351.49608333333333,354.5819285961298L351.71625,374.21051304156964L351.8263333333333,374.66482332669773L352.92716666666666,366.9675660720238L353.9179166666667,351.68070065149897L354.68850000000003,369.13814039963944L355.1288333333333,374.81905433948225L357.55066666666664,360.3699434390435L359.7523333333333,376.1038783440223L359.8624166666666,378.0358769636888L360.1926666666667,343.1050614320315L360.30275,377.9232879638672L360.96325,375.58557296166055L361.0733333333333,372.4582625022301L362.28425,378.12977600097656L364.15566666666666,378.0299871297983L364.596,376.76980392749493L364.92625,378.1225856340848L369.99008333333336,378.0439768717839L374.17325,371.5355634542612L376.15475,378.2608469889714L376.26483333333334,377.7964541068444L378.79675000000003,373.02949874584493L381.65891666666664,371.7469624592708L381.76899999999995,364.0160216771639L382.8698333333333,360.00699213101313L386.06225,377.8467478532057L386.1723333333333,374.64022966531604L386.72275,346.07270910831596L388.04375,365.2698339315561L389.8050833333333,378.26301824129547L390.24541666666664,377.48512758108285L390.5756666666667,368.749659545605L391.01599999999996,368.1626033856319L391.6765,374.69088112757754L394.09833333333336,48.94738135704631L395.0890833333333,376.52254182375395L395.30925,352.26161862153276L395.6395,365.3121289840111L396.18991666666665,46.20966233473558L396.96049999999997,353.5465701836806L397.8411666666667,365.9783637560331L398.2815,366.28120631438037L399.1621666666666,358.59711522322436L401.1436666666666,375.10479724590596L401.8041666666666,372.13629046220046L403.23525,374.6363752071674L403.4554166666667,373.1555395273062L404.3360833333333,366.46897527254544L405.98733333333337,343.6719572507418L406.0974166666667,365.2170334009024L407.5285,351.14082035559875L408.51925000000006,30.355560537484962L408.73941666666667,357.9088850828318L408.95958333333334,358.5201640165769L409.51,362.1249551846431L409.6200833333333,377.17244228949914L410.3906666666666,354.52606009703413L410.61083333333335,50.51043900709885L411.27133333333336,376.92846618065465L411.60158333333334,363.122836963947L412.152,360.73626601145816L412.9225833333333,342.24967051285967L413.80325,30.843274277907142L415.78475,369.0943215883695L416.0049166666667,373.72007622352015L417.54608333333334,376.83996615776647L417.76624999999996,368.14531794327957L418.31666666666666,376.9451790002676L418.8670833333333,339.0092885530912L419.63766666666663,372.12339743834275L420.29816666666665,371.16857051115767L422.49983333333336,361.3585876905001L423.71074999999996,348.99224169964975L424.37125,341.83776550659763L425.47208333333333,351.40266128870155L426.13258333333334,350.2795493080066L426.683,377.02576767848086L428.4443333333333,365.3719687535213L429.325,345.4707399735084L431.63675,339.38126594836893L436.26025,36.586938241811936L436.7005833333333,350.72312274345984L437.0308333333333,349.44661082419066L437.25100000000003,350.4854974783384L437.6913333333333,32.92741030179536L438.13166666666666,370.5447430977455L438.35183333333333,30.978662813626784L440.55350000000004,362.13892274269693L441.76441666666665,33.84992910531855L443.85600000000005,30.312767733060355L444.7366666666667,30.715117703951364L446.05766666666665,374.60498494368335L446.2778333333333,40.87455984262317L447.26858333333337,35.502876046987694L448.47950000000003,36.41931645320011L448.80975,41.040628756009596L450.13075,375.9436077558077L451.23158333333333,30.677804330679123L451.45175,39.306244600736136L451.78200000000004,30.79901733398441L451.89208333333335,370.9558404702407L454.53408333333334,31.561767460749707L454.9744166666666,47.64982100266678L456.95591666666667,34.939049236591075L459.2676666666667,356.7852252630087L460.3685,32.72901939978965L463.0105,33.511424490121726L463.12058333333334,33.33248889629658L469.7255833333333,32.10598367544321L470.4961666666667,37.265589083158034L470.71633333333335,30.449531672551075L472.1474166666667,38.679770366962146L473.24825000000004,29.551171170748205L473.35833333333335,358.9217091266926L473.7986666666667,31.12702894944408L474.3490833333333,30.545521545410168L475.33983333333333,32.19818009596605L475.44991666666664,30.833557715782774L475.56,29.56534670316256L476.77091666666666,37.21201488788313L477.21125,349.51797570953005L477.9818333333333,31.88434401292068L480.4036666666667,28.45484126164365L481.6145833333333,28.357764376126795L481.83475000000004,31.809672898512645L482.16499999999996,29.54300748384918L484.2565833333333,32.210669649564295L485.68766666666664,38.52377295860879L486.2380833333333,27.476729525052576L487.449,31.749288236177904L487.88933333333335,28.51212017352765L487.99941666666666,34.69551403339091L489.76075000000003,30.723214839055004L490.86158333333333,28.54874584491438L491.19183333333336,27.926486558180613L492.29266666666666,31.744274667593118L494.4943333333334,30.647390160193822L494.6044166666667,30.675541569636437L495.1548333333334,27.455920997032763L495.81533333333334,35.1902600801908L496.47583333333336,343.74291740931L497.13633333333337,34.15207425631007L501.3195,30.730934847318167L501.4295833333333,28.356056213378906L502.53041666666667,26.03497361403248L503.0808333333334,28.45934459979719L503.1909166666667,30.932320580115686L503.8514166666667,28.280275902381334L505.943,29.144206942044775L506.16316666666665,28.949587308443483L507.59425,25.276593721829954L508.36483333333337,27.524469346266528L508.4749166666667,28.063472336989207L509.46566666666666,31.427776512732862L510.23625,27.000640164888864L511.22700000000003,27.8993334256686L513.2085000000001,26.823568021334154L513.4286666666667,30.741472214918872L513.869,28.634020878718445L516.18075,29.092873323880667L517.1715,40.8749813373272L520.0336666666667,30.26975308931793L521.6849166666667,27.489196894719043L522.1252499999999,27.266381483811585L522.2353333333333,30.10632406381461L522.6756666666666,28.686463693472092L523.116,30.956323594313403L523.3361666666667,29.02106393667367L524.8773333333334,26.910506850022557L524.9874166666666,28.77546562781697L527.5193333333333,25.844591111403247L527.6294166666667,26.89417947622445L528.2899166666666,28.566648277869604L528.8403333333333,30.56178236741283L529.0605,26.12102508544922L530.1613333333333,28.553626309908395L531.042,30.896205139160145L532.2529166666667,28.46946047269381L533.0235,27.726564964881334L533.5739166666666,29.875655541053163L534.4545833333334,319.7574874437772L535.2251666666667,31.781255281888548L535.33525,354.2844264727372L535.4453333333333,26.886104525052588L535.7755833333333,30.36075157752407L536.5461666666666,30.103817279522275L538.7478333333333,30.45097362811748L539.29825,28.70279106727014L544.8024166666667,26.85300609882063L545.24275,29.61577078012317L545.7931666666667,30.125313509427542L546.56375,319.44392588688777L547.1141666666667,26.523042297363247L548.2149999999999,31.327172382061292L550.3065833333334,27.50938427264873L552.6183333333333,31.772625732421886L553.2788333333333,29.40508997990537L556.9115833333333,26.775162682166467L557.0216666666666,27.929326101449817L557.13175,29.344483478252698L558.6729166666667,28.14277989314155L560.9846666666667,31.19054154616134L562.5258333333334,30.59283987192009L563.8468333333334,29.133758310171288L565.4980833333333,33.50303896390477L568.2501666666666,28.089538456843457L568.6905,25.80432727520281L568.8005833333333,32.17160374568061L570.672,337.8603584619669L570.8921666666666,32.59591580904447L571.00225,347.7937692128695L572.98375,26.954963449331444L573.7543333333333,27.481654357910145L577.3870833333333,33.22720395601715L578.0475833333334,30.815255972055297L578.7080833333333,28.55358194204473L579.0383333333334,30.234502821702222L579.4786666666666,28.941911668043872L579.6988333333334,27.855564528245168L580.1391666666666,30.00549809382511L580.6895833333333,29.937193767841052L581.1299166666666,28.724597872220556L581.6803333333334,29.491208003117492L582.7811666666666,28.723643963153506L583.9920833333333,338.1770223030677L589.0559166666667,27.619882436899047L589.7164166666666,32.04207176795376L590.2668333333334,29.674957510141212L596.8718333333333,28.72002798227163L597.7525,27.507986684945877L598.8533333333334,27.096186359112096L599.0735,28.07968879112832L599.5138333333333,28.575566218449524L601.4953333333333,39.61648688683147L602.04575,29.26133810190055L604.1373333333333,30.273080679086547L604.4675833333333,30.37745607816254L607.2196666666666,29.351759807880114L607.7700833333333,27.951576585036037L607.8801666666667,29.915875009389993L608.1003333333333,29.76118645301233L609.0910833333334,27.5546616774339L612.5036666666666,27.50008920522839L612.9440000000001,30.366785606971177L615.6960833333334,29.727977107121376L616.2465000000001,29.789803725022523L617.23725,28.73018822303186L619.21875,341.22713614610524L620.7599166666666,34.98264066256007L620.87,30.551378103402953L622.52125,341.26638437417836L623.84225,26.9570043710562L626.0439166666666,322.00414017897384L626.2640833333334,29.157872244027942L626.3741666666667,27.989355820875915L626.7044166666667,26.26380087045527L627.0346666666667,42.47703833946815L628.0254166666666,29.59507317176235L628.9060833333334,29.609359623835644L629.2363333333333,43.524363943246726L630.9976666666666,31.699241286057713L631.438,28.65003767747146L632.2085833333334,29.216970238318822L634.8505833333332,39.271304908165575L636.6119166666666,27.05199596698469L639.03375,26.857575988769497L640.5749166666667,27.494875981257508L642.7765833333333,33.081766099196216L643.7673333333333,31.33642308161808L645.4185833333333,32.696719595102195L645.5286666666667,31.058214393028834L646.5194166666666,27.728583702674257L647.4000833333333,27.219151893028823L647.7303333333333,26.542120478703453L648.7210833333334,29.316753563514112L649.4916666666667,319.5710814109215L650.8126666666666,28.618492126464844L650.9227500000001,32.311872746394215L651.253,27.44802351731522L652.6840833333333,26.4870377760667L654.1151666666666,37.329722829965476L654.5554999999999,31.405193270169775L654.7756666666667,32.76974909855767L655.3260833333334,28.064026935283948L656.0966666666667,28.039779897836524L656.7571666666666,30.321663489708556L656.86725,32.16044522798978L659.2890833333333,26.421195866511425L659.8395,35.631143540602466L660.83025,28.311954556978662L662.0411666666666,319.6132891141451L663.8024999999999,27.061268850473255L665.6739166666666,29.93868009127101L666.3344166666666,27.48686758188103L666.5545833333334,27.228557880108212L666.77475,26.690819373497618L667.3251666666666,31.193403273362378L667.7655,29.193610558143007L669.8570833333333,29.30756941575271L671.2881666666666,35.00675459641678L672.8293333333334,29.60230513352616L673.5999166666667,28.747380770169798L675.0310000000001,27.524114403357885L676.5721666666667,27.883272259051978L676.7923333333333,30.51455277663007L677.0124999999999,28.320428818922778L677.1225833333333,31.088207068810107L677.34275,354.0842930922141L678.00325,31.519218679574806L678.2234166666666,31.757895601712733L678.4435833333332,343.45844106674195L678.5536666666667,29.19662757286659L678.7738333333334,34.090469477726856L682.62675,26.694146963266235L683.0670833333334,30.98041534423828L683.5074166666666,29.80788362943207L684.4981666666666,335.3282602236821L685.3788333333334,29.6086497380183L685.92925,30.3290063711313L686.5897500000001,30.913064927321216L687.4704166666667,36.69399789663464L688.3510833333333,29.943427452674257L689.6720833333334,35.769615642841075L695.3964166666666,29.662179565429653L695.83675,32.62632997952977L696.0569166666667,29.393820542555602L696.3871666666666,34.1455078125L697.5980833333333,29.525149418757508L698.5888333333334,29.649712195763243L699.2493333333333,30.3882818368765L702.44175,29.3554201566256L702.6619166666667,28.763153545673106L703.2123333333333,33.47874755859374L703.3224166666666,31.772492628831117L705.5240833333334,37.67960780217095L706.0745,30.204243938739467L707.1753333333334,38.135398864746094L708.056,30.761082810621986L710.5879166666667,33.30966163048379L712.6795,372.90671622936543L713.34,47.759431809645434L713.67025,30.58001755934498L714.99125,29.08104928823616L715.7618333333332,339.48690513830917L717.303,341.06494387479927L718.0735833333333,31.517532700758693L719.0643333333334,34.230383535531814L719.3945833333333,30.844649681678163L720.7155833333333,27.650185687725354L722.2567499999999,34.4893809391902L723.2475,44.42911341740535L723.5777499999999,29.101525057279105L723.908,28.67867713341343L725.6693333333334,33.21453693096453L726.1096666666666,28.964095599834707L726.6600833333334,33.81620952899641L727.9810833333333,26.243147629957946L728.7516666666667,26.43348576472357L729.3020833333334,29.721410663311303L731.2835833333334,28.04144369272086L731.8340000000001,28.684977370042077L732.0541666666667,31.53004443828877L732.6045833333333,30.009180626502427L733.3751666666667,30.02450972336993L735.3566666666667,27.191377610426684L736.0171666666668,30.853146127554055L737.6684166666666,26.602793532151452L742.5120833333334,28.354880464993983L742.9524166666666,31.744052828275244L743.0625,33.54605360764725L744.05325,29.747232759915846L744.6036666666666,25.47731393667368L745.5944166666667,350.91365776062014L746.3649999999999,31.043462078387904L751.31875,30.977642352764462L752.4195833333333,27.927773226224417L752.5296666666667,26.892648784930884L752.8599166666667,340.6185449343461L756.7128333333333,33.9799713134766L757.7035833333333,25.679964153583228L758.0338333333333,30.805716881385194L758.1439166666667,26.937349407489478L759.24475,32.273738567645694L760.56575,29.37747098482572L763.6480833333333,32.74956172062798L764.0884166666667,26.25843235896184L764.52875,26.40968240591195L764.6388333333333,30.231818565955507L765.6295833333334,340.03478932747475L773.4455,29.538104834923388L774.106,27.600360576923038L775.2068333333333,33.06304286076471L779.1698333333334,27.707486783541185L780.38075,27.469120436448293L781.0412500000001,31.765083195612988L783.02275,28.174014869103075L783.68325,31.177475210336524L783.9034166666668,27.989910419170712L786.5454166666667,29.883730492225084L787.7563333333334,27.902550095778224L788.4168333333333,28.963541001539966L789.0773333333334,30.275276888333792L790.3983333333334,338.22885783268856L791.0588333333334,28.384562565730164L791.7193333333335,30.267579064002405L791.8294166666667,33.4949196448693L792.0495833333333,34.08998143122744L792.3798333333333,337.7233962535858L793.1504166666667,341.400407904845L793.59075,29.142321307842565L793.8109166666667,38.61603593092701L794.3613333333334,29.818798123873194L795.242,352.00098168666545L796.0125833333334,31.572726323054383L796.4529166666666,34.37205012394833L799.8655,345.1968034249086L803.2780833333333,29.584691091684192L804.0486666666667,29.0272754375751L806.1402499999999,316.9276080498329L806.2503333333333,28.770252403846143L806.6906666666667,30.748992567795995L807.0209166666666,31.125342970628026L807.131,28.739438922588647L807.2410833333333,34.30276970496544L808.2318333333334,26.148355689415553L809.0024166666667,28.05399979811449L809.5528333333333,29.951280564528247L810.2133333333333,25.36674922062798L813.5158333333334,28.418614901029173L813.6259166666666,27.825549668532176L815.9376666666667,338.1267590596126L817.0385000000001,31.248707815317005L820.5611666666666,29.616769057053773L821.8821666666666,32.547133343036364L823.3132499999999,30.81740781343899L823.4233333333333,29.14666935847356L825.8451666666666,28.63335536076471L826.7258333333334,30.05099733792821L828.5972499999999,29.35650716928336L829.25775,29.24092888465293L830.1384166666666,29.83674492469197L832.1199166666667,35.75035999004655L833.6610833333333,25.540205383300815L835.7526666666668,338.4205429480626L836.4131666666666,26.329709331805873L836.52325,26.556828425480774L837.2938333333334,27.438329139122573L839.16525,26.477720524714528L839.9358333333333,29.503741924579288L841.3669166666667,25.837558805025537L841.477,30.092348186786353L845.6601666666667,28.633532832219032L845.77025,30.151978595440198L847.6416666666668,27.444740295410156L848.082,28.018416771521913L849.73325,26.219965421236452L850.8340833333333,26.37862490140475L853.9164166666666,27.788502502441418L854.35675,31.208621450570945L855.1273333333334,28.321227440467226L856.2281666666667,28.863602388822073L859.2004166666667,27.135252262995778L859.7508333333334,29.785366938664367L859.8609166666668,32.15884798490083L860.8516666666666,27.98804696890022L865.0348333333334,33.639891639122595L865.8054166666666,27.903393085186337L866.7961666666666,27.72787381685697L866.90625,26.949772409292336L867.0163333333334,28.90978933481074L869.7684166666667,353.74225984536685L870.2087499999999,315.7313117980957L870.6490833333334,29.01017162616438L870.9793333333333,339.553576865563L872.0801666666666,341.17338447937595L874.83225,35.69572096604571L875.0524166666667,31.97529813326321L875.9330833333333,338.3934203184568L876.3734166666667,28.663791715181787L877.2540833333334,28.245025634765625L877.47425,33.232838674692005L880.5565833333333,317.2973725979145L880.6666666666666,27.61356001633868L881.6574166666667,27.47652986966648L881.8775833333333,340.9499915929941L882.6481666666667,31.44796389066255L883.0885,26.807351567194985L884.4095,31.748378694974463L886.5010833333333,28.985436542217542L886.72125,33.22860154371995L888.1523333333333,27.732820833646315L889.4733333333334,26.904517188439L889.5834166666666,25.518930992713365L889.9136666666666,27.145368135892454L890.1338333333333,30.436620624248803L891.7850833333334,27.265738149789627L892.00525,30.344246732271642L892.5556666666666,29.80524374154902L893.4363333333333,31.638124553973853L894.0968333333333,27.1682397695688L894.4270833333334,337.02857956519495L900.8119166666665,30.770333510178773L901.8026666666666,26.966854036771338L902.0228333333333,29.186134573129493L902.243,27.225385577862085L902.57325,27.136672034630408L902.6833333333334,27.316051307091357L904.55475,31.24564643272987L905.4354166666667,31.48265955998346L905.8757499999999,315.7952431165255L906.206,26.914411222017748L906.3160833333334,28.298999140812782L907.0866666666666,28.935345224233743L910.3891666666667,28.669492985652028L912.7009166666666,31.70835888202373L913.14125,27.22913466233473L913.4715,340.5732002845177L914.3521666666667,30.617597139798704L914.7925,28.866708139272873L915.12275,30.484471365121692L917.4345,32.08504204383263L917.7647499999999,28.91955026479866L918.7555,339.19775561185986L919.08575,30.909803889347984L919.1958333333333,30.050087796724767L919.5260833333334,320.59205250373253L921.3975,30.938665184607885L921.72775,28.97745032677284L922.058,340.0872772033398L922.1680833333332,27.378454707219078L922.4983333333333,27.213605910081128L924.2596666666667,358.3506406490619L926.35125,27.04185791015624L930.6445,30.069165978064916L931.0848333333333,31.010075261042687L931.305,335.9288485820477L931.7453333333334,29.97943197397086L932.4058333333334,335.15238601244414L934.1671666666667,28.007147334172203L934.3873333333333,30.598341487004234L934.4974166666667,26.68971017690808L936.91925,27.01541466346157L940.6620833333333,28.708292682354283L942.5335,27.18075150709882L943.9645833333334,27.565154677170995L945.9460833333333,33.680421682504516L947.5973333333334,30.54294820932239L948.80825,31.31035696176383L949.6889166666666,26.204148277869592L952.2208333333333,28.633333176832934L952.3309166666667,30.234857764610865L952.5510833333333,317.724216402494L953.8720833333333,29.27935145451471L954.0922499999999,34.9603458111103L955.1930833333333,32.27041097787708L955.6334166666667,342.2264591877277L959.3762499999999,26.711428246131334L959.8165833333334,32.59970926138067L961.0275,27.030965599646947L962.3485000000001,31.041709547776463L964.6602499999999,27.255267333984364L965.7610833333333,27.64124556321366L966.8619166666666,26.37580754206732L970.935,31.053666687011685L971.5955,32.077566058819116L973.3568333333334,28.425780310997595L975.6685833333333,32.419952862079356L976.9895833333334,29.11982680100658L978.9710833333334,33.3992403470553L979.6315833333334,30.123405691293556L980.182,26.782949242225072L980.2920833333333,28.496059006911082L982.6038333333333,28.20709111140326L983.3744166666665,27.102397860013525L983.9248333333334,27.279669658954333L984.6954166666666,27.66702329195465L987.0071666666666,342.1134244295267L988.4382499999999,27.93902047964241L991.4105,31.825068547175476L992.40125,358.923066506019L994.6029166666667,31.717942340557386L994.8230833333333,32.412166302020694L995.8138333333334,28.447187805175815L997.4650833333334,27.119501671424302L998.3457500000001,28.346539306640636L1001.9784999999999,32.24281416672926L1003.4095833333334,28.38374176025394L1004.7305833333332,25.828330289400583L1006.602,29.471397752028224L1007.0423333333333,29.61108997051531L1007.8129166666666,26.336275775616002L1008.91375,336.474994798807L1009.1339166666667,343.09825443121105L1009.244,27.04281181922329L1009.3540833333334,29.09753194955681L1009.6843333333333,29.411833895169764L1010.0145833333332,28.12039630596456L1010.4549166666667,28.458923105093163L1011.4456666666667,31.848250755896913L1011.9960833333333,27.908561941293556L1013.0969166666667,32.31091883732722L1014.7481666666666,30.107788203312793L1015.6288333333334,29.012567490797778L1016.0691666666667,29.18444859431338L1017.8304999999999,31.393391418457043L1021.46325,26.846395287146947L1021.9035833333332,30.050376187838083L1023.5548333333334,26.006156686636132L1026.4170000000001,28.990893789438132L1026.74725,26.14101280799275L1028.1783333333333,27.627668996957595L1028.2884166666665,28.129181142953712L1028.6186666666665,27.993726055438685L1029.38925,339.5531373464144L1029.7195,336.50494587971616L1030.1598333333334,29.657587491548952L1030.8203333333333,25.626168118990392L1032.3615,28.32901400052583L1033.1320833333334,31.045503000112717L1033.5724166666666,30.902549743652344L1033.6825,28.542201585036082L1034.0127499999999,26.95338839017427L1034.4530833333333,26.223071171687195L1035.2236666666665,28.449960796649634L1035.7740833333335,26.271698350172755L1036.9850000000001,28.293741548978346L1038.63625,26.605366868239173L1039.29675,30.54132878230166L1039.7370833333334,29.22571070744442L1041.0580833333333,28.317678011380735L1042.59925,32.674668766902016L1043.3698333333334,26.953122182992786L1043.9202500000001,32.35535325270433L1044.0303333333334,27.614469557542066L1044.1404166666666,26.90562638502854L1044.2504999999999,26.477964547964234L1044.911,27.619216918945312L1045.6815833333333,27.09800544151892L1047.553,28.46868403508114L1050.1950000000002,27.79837435208833L1053.3874166666667,27.411575317382812L1054.5983333333334,27.791785724346425L1054.8185,31.149479088416456L1056.46975,29.303554124098582L1057.0201666666667,27.760351092998803L1058.7815,28.54029376690204L1059.77225,30.602401146521913L1060.8730833333334,27.482275508000328L1062.5243333333333,27.330981093186608L1064.1755833333334,27.470007793719958L1064.6159166666666,26.748408860426707L1065.1663333333333,28.431725604717542L1066.8175833333332,33.30052185058594L1067.6982500000001,29.968561847393346L1068.7990833333333,29.07980698805585L1069.3495,25.57288231482869L1071.3310000000001,28.020701716496376L1072.8721666666668,30.47036238450272L1073.0923333333333,32.295190429687466L1077.1654166666667,27.895606525127675L1077.2755,29.040563612717847L1078.8166666666666,30.36627537653999L1079.8074166666668,30.012707871657142L1080.90825,29.153413273737954L1082.5595,30.632926236666208L1084.4309166666667,29.851985285832313L1085.0914166666666,27.20269141564006L1085.5317499999999,315.533395077632L1086.7426666666668,340.5571841790126L1086.85275,34.394633366511414L1087.2930833333332,27.684836989182713L1087.51325,29.552457838792066L1089.2745833333333,26.158138803335305L1089.6048333333333,27.483118497408327L1090.9258333333332,31.2956046471229L1091.0359166666667,30.17085712139425L1091.3661666666667,28.531952608548636L1092.13675,28.137477933443506L1092.4669999999999,27.862596834622877L1093.2375833333333,29.17925755427433L1093.788,26.373855356069726L1094.2283333333335,27.712988398625328L1094.8888333333332,29.864474839430613L1096.3199166666666,31.705718994140625L1096.5400833333333,30.452038456843468L1097.5308333333332,27.407737497183007L1099.2921666666668,355.7042403954726L1099.5123333333333,336.7675176693843L1099.7325,29.193433086688685L1099.9526666666666,340.14215262486385L1100.72325,30.003124413123487L1103.0349999999999,31.14273517315206L1103.8055833333333,26.596826054499672L1106.1173333333334,30.226583158052904L1107.98875,31.59710646409252L1109.1996666666666,27.90578894981968L1110.7408333333333,29.526768845778236L1111.7315833333334,30.901906409630385L1112.6122500000001,338.7697409116305L1114.2635,28.896944838303796L1114.8139166666667,28.996905634953407L1114.924,29.585290057842542L1117.23575,32.210070683405945L1117.3458333333333,28.029264714167653L1118.9970833333332,342.1776919731727L1121.9693333333335,27.700875971867504L1123.4004166666666,30.934672076885533L1125.82225,344.12185328006746L1126.7029166666666,342.3135241875282L1129.3449166666667,27.630863483135556L1130.1155,347.9886784507678L1131.2163333333333,29.157029254619886L1131.9869166666667,31.604116586538453L1132.3171666666667,33.07542149470402L1134.2986666666668,29.68090280386116L1135.5095833333335,28.917864285982546L1136.7205000000001,29.036792344313426L1137.8213333333333,336.59329616106476L1139.2524166666667,30.40713817889872L1141.01375,344.9460702290902L1141.344,338.7331429701585L1142.1145833333335,29.633717580942005L1143.1053333333332,27.95412773719204L1143.5456666666666,25.944152597280663L1143.6557500000001,29.376583627554055L1144.2061666666666,27.77834226168119L1145.0868333333333,31.10970329871543L1146.8481666666667,344.68693244273845L1149.0498333333333,360.13612479796774L1149.7103333333332,29.355797283466075L1152.0220833333333,38.59673591026893L1154.0035833333334,26.89555487999553L1154.6640833333333,30.783666053185073L1155.2145,38.2706764808068L1156.4254166666667,36.05492318960336L1158.4069166666666,28.126718726524928L1158.6270833333333,32.846594238281284L1158.9573333333333,31.879751939039977L1160.3884166666667,31.862160081129787L1160.4985,28.709623718261753L1162.2598333333333,27.035912616436292L1163.6909166666667,27.058917353703407L1169.5253333333333,31.654008249136155L1170.07575,30.647922574556787L1170.5160833333334,347.56207676300636L1172.05725,31.812290602463918L1174.5891666666666,26.640173457219078L1175.69,360.4365347495446L1176.02025,27.445073054387024L1176.9009166666667,29.66972210223861L1178.5521666666666,27.74151693490836L1181.5244166666666,28.1541602501502L1181.8546666666668,338.94115268633914L1182.1849166666666,29.334877835787267L1183.0655833333333,29.8069075364333L1183.94625,27.952042447603674L1184.2765,26.630434711162877L1184.4966666666667,33.95643416184646L1186.58825,26.974906804011425L1187.24875,29.13140681340144L1188.6798333333334,27.550291442871128L1188.7899166666666,28.3534163254958L1189.0100833333333,27.206595787635194L1192.0924166666666,338.1122077868535L1192.3125833333334,29.497596975473243L1192.7529166666668,351.616432587917L1193.0831666666668,29.6527513944186L1195.505,27.349615595890953L1196.826,30.274145507812534L1198.5873333333334,33.39183091383717L1199.3579166666668,26.65836428128756L1200.1285,29.306859529935423L1201.77975,336.6482762630169L1202.9906666666666,26.954231379582325L1203.9814166666667,29.32343092698318L1204.6419166666667,336.5431161073538L1205.5225833333334,351.90894748614386L1208.0545,33.21682187593899L1209.5956666666666,30.434313495342565L1210.6965,29.00112058199369" style="fill: none;" fill="none"></path></g></g></g></g></g></g><g transform="translate(46, 378)" clip-path="url(#clip_1)"><clipPath id="clip_1"><rect width="1321" height="22"></rect></clipPath><g><g><line x1="0" y1="0" x2="0" y2="5" style="visibility: inherit;" fill="rgb(0, 0, 0)" stroke="rgb(204, 204, 204)" stroke-width="1px"></line><line x1="110.08333333333333" y1="0" x2="110.08333333333333" y2="5" style="visibility: inherit;" fill="rgb(0, 0, 0)" stroke="rgb(204, 204, 204)" stroke-width="1px"></line><line x1="220.16666666666666" y1="0" x2="220.16666666666666" y2="5" style="visibility: inherit;" fill="rgb(0, 0, 0)" stroke="rgb(204, 204, 204)" stroke-width="1px"></line><line x1="330.25" y1="0" x2="330.25" y2="5" style="visibility: inherit;" fill="rgb(0, 0, 0)" stroke="rgb(204, 204, 204)" stroke-width="1px"></line><line x1="440.3333333333333" y1="0" x2="440.3333333333333" y2="5" style="visibility: inherit;" fill="rgb(0, 0, 0)" stroke="rgb(204, 204, 204)" stroke-width="1px"></line><line x1="550.4166666666667" y1="0" x2="550.4166666666667" y2="5" style="visibility: inherit;" fill="rgb(0, 0, 0)" stroke="rgb(204, 204, 204)" stroke-width="1px"></line><line x1="660.5" y1="0" x2="660.5" y2="5" style="visibility: inherit;" fill="rgb(0, 0, 0)" stroke="rgb(204, 204, 204)" stroke-width="1px"></line><line x1="770.5833333333334" y1="0" x2="770.5833333333334" y2="5" style="visibility: inherit;" fill="rgb(0, 0, 0)" stroke="rgb(204, 204, 204)" stroke-width="1px"></line><line x1="880.6666666666666" y1="0" x2="880.6666666666666" y2="5" style="visibility: inherit;" fill="rgb(0, 0, 0)" stroke="rgb(204, 204, 204)" stroke-width="1px"></line><line x1="990.75" y1="0" x2="990.75" y2="5" style="visibility: inherit;" fill="rgb(0, 0, 0)" stroke="rgb(204, 204, 204)" stroke-width="1px"></line><line x1="1100.8333333333335" y1="0" x2="1100.8333333333335" y2="5" style="visibility: inherit;" fill="rgb(0, 0, 0)" stroke="rgb(204, 204, 204)" stroke-width="1px"></line><line x1="1210.9166666666665" y1="0" x2="1210.9166666666665" y2="5" style="visibility: inherit;" fill="rgb(0, 0, 0)" stroke="rgb(204, 204, 204)" stroke-width="1px"></line><line x1="1321" y1="0" x2="1321" y2="5" style="visibility: inherit;" fill="rgb(0, 0, 0)" stroke="rgb(204, 204, 204)" stroke-width="1px"></line></g><g transform="translate(0, 8)"><text x="0" y="0" dx="0em" dy="0.95em" style="text-anchor: middle; visibility: hidden; font-family: &quot;Helvetica Neue&quot;, sans-serif; font-size: 12px; font-weight: 200;" fill="rgb(50, 49, 63)" stroke="none" stroke-width="1px">-1k</text><text x="110.08333333333333" y="0" dx="0em" dy="0.95em" style="text-anchor: middle; visibility: inherit; font-family: &quot;Helvetica Neue&quot;, sans-serif; font-size: 12px; font-weight: 200;" fill="rgb(50, 49, 63)" stroke="none" stroke-width="1px">0</text><text x="220.16666666666666" y="0" dx="0em" dy="0.95em" style="text-anchor: middle; visibility: inherit; font-family: &quot;Helvetica Neue&quot;, sans-serif; font-size: 12px; font-weight: 200;" fill="rgb(50, 49, 63)" stroke="none" stroke-width="1px">1k</text><text x="330.25" y="0" dx="0em" dy="0.95em" style="text-anchor: middle; visibility: inherit; font-family: &quot;Helvetica Neue&quot;, sans-serif; font-size: 12px; font-weight: 200;" fill="rgb(50, 49, 63)" stroke="none" stroke-width="1px">2k</text><text x="440.3333333333333" y="0" dx="0em" dy="0.95em" style="text-anchor: middle; visibility: inherit; font-family: &quot;Helvetica Neue&quot;, sans-serif; font-size: 12px; font-weight: 200;" fill="rgb(50, 49, 63)" stroke="none" stroke-width="1px">3k</text><text x="550.4166666666667" y="0" dx="0em" dy="0.95em" style="text-anchor: middle; visibility: inherit; font-family: &quot;Helvetica Neue&quot;, sans-serif; font-size: 12px; font-weight: 200;" fill="rgb(50, 49, 63)" stroke="none" stroke-width="1px">4k</text><text x="660.5" y="0" dx="0em" dy="0.95em" style="text-anchor: middle; visibility: inherit; font-family: &quot;Helvetica Neue&quot;, sans-serif; font-size: 12px; font-weight: 200;" fill="rgb(50, 49, 63)" stroke="none" stroke-width="1px">5k</text><text x="770.5833333333334" y="0" dx="0em" dy="0.95em" style="text-anchor: middle; visibility: inherit; font-family: &quot;Helvetica Neue&quot;, sans-serif; font-size: 12px; font-weight: 200;" fill="rgb(50, 49, 63)" stroke="none" stroke-width="1px">6k</text><text x="880.6666666666666" y="0" dx="0em" dy="0.95em" style="text-anchor: middle; visibility: inherit; font-family: &quot;Helvetica Neue&quot;, sans-serif; font-size: 12px; font-weight: 200;" fill="rgb(50, 49, 63)" stroke="none" stroke-width="1px">7k</text><text x="990.75" y="0" dx="0em" dy="0.95em" style="text-anchor: middle; visibility: inherit; font-family: &quot;Helvetica Neue&quot;, sans-serif; font-size: 12px; font-weight: 200;" fill="rgb(50, 49, 63)" stroke="none" stroke-width="1px">8k</text><text x="1100.8333333333335" y="0" dx="0em" dy="0.95em" style="text-anchor: middle; visibility: inherit; font-family: &quot;Helvetica Neue&quot;, sans-serif; font-size: 12px; font-weight: 200;" fill="rgb(50, 49, 63)" stroke="none" stroke-width="1px">9k</text><text x="1210.9166666666665" y="0" dx="0em" dy="0.95em" style="text-anchor: middle; visibility: inherit; font-family: &quot;Helvetica Neue&quot;, sans-serif; font-size: 12px; font-weight: 200;" fill="rgb(50, 49, 63)" stroke="none" stroke-width="1px">10k</text><text x="1321" y="0" dx="0em" dy="0.95em" style="text-anchor: middle; visibility: hidden; font-family: &quot;Helvetica Neue&quot;, sans-serif; font-size: 12px; font-weight: 200;" fill="rgb(50, 49, 63)" stroke="none" stroke-width="1px">11k</text></g><line x1="0" y1="0" x2="1321" y2="0" fill="rgb(0, 0, 0)" stroke="rgb(204, 204, 204)" stroke-width="1px"></line></g></g></g></g></svg>